<svg width="681" height="681" viewBox="0 0 681 681" fill="none" xmlns="http://www.w3.org/2000/svg">
<path d="M646.244 340.223C651.224 344.097 658.971 352.398 662.292 358.485C668.379 354.058 676.68 345.757 680 339.67M557.702 555.489C558.256 561.576 558.256 573.197 555.489 579.838C562.683 580.945 574.857 580.945 580.944 579.284M628.535 443.152C631.856 448.686 636.283 458.647 637.389 465.841C644.583 463.628 655.098 458.647 660.078 454.22M471.375 616.361C469.715 622.448 465.841 632.963 461.414 638.496C468.055 642.37 479.122 645.69 485.763 646.797M641.817 391.134C646.244 396.115 652.331 404.969 654.544 412.163C661.185 408.843 670.592 401.649 675.019 396.668M517.306 589.799C516.752 596.439 514.539 606.953 511.218 613.594C518.412 616.361 530.033 618.021 536.674 617.468M607.507 489.636C609.72 495.724 612.487 506.238 612.487 513.432C620.235 512.879 631.302 509.005 636.836 505.685M423.231 634.623C420.464 640.71 414.93 650.117 409.949 655.098C416.037 660.078 427.104 665.612 433.745 667.272M576.517 535.014C577.624 541.101 578.731 552.722 577.071 559.363C584.818 559.916 596.439 558.256 602.526 556.042M369.553 644.03C366.232 649.564 358.485 657.865 352.398 661.738C357.378 667.272 367.339 675.02 373.426 678.34M645.137 367.339C649.564 371.766 656.758 380.62 659.525 387.261C666.165 383.387 675.019 375.64 678.893 370.106M537.781 573.751C537.781 580.391 536.674 591.459 533.907 597.546C541.101 599.76 552.722 600.313 559.363 599.206M618.021 468.055C620.788 473.588 624.662 484.656 624.662 491.297C631.856 489.636 642.923 485.763 648.457 481.889M446.473 626.875C444.259 632.962 439.279 642.923 434.298 647.904C440.385 652.331 452.006 656.758 458.647 658.418M636.283 417.697C640.156 422.677 645.69 432.638 646.797 439.832C653.991 437.065 663.952 430.978 668.379 426.551M494.617 604.187C493.51 610.274 490.743 621.341 486.316 626.875C492.957 630.196 504.578 632.962 511.218 632.962M592.012 513.432C593.672 519.519 595.886 530.587 594.779 537.781C602.526 537.781 613.594 535.014 619.681 532.247M395.561 640.156C392.795 645.69 386.154 655.098 380.067 658.971C385.601 663.952 396.668 671.146 402.755 673.913M341.883 645.69C338.01 650.671 329.709 658.418 323.622 661.738C328.049 667.826 337.456 676.68 342.99 680M292.632 248.362V293.186H226.78M200.771 293.186H123.851V124.404H250.022M273.817 124.404H292.632V228.993M241.168 308.127L273.264 340.223L226.78 386.707M210.732 402.755L154.287 459.2L34.7563 340.223L123.851 251.129M140.452 234.527L154.287 220.693L227.887 294.293M386.707 200.218V124.404H555.489V251.129M555.489 277.138V293.186H450.9M431.531 293.186H386.707V226.227M371.213 242.275L339.67 273.817L292.632 226.227M274.371 207.965L220.693 154.287L340.223 34.7563L429.871 124.958M445.919 141.006L459.2 154.287L385.601 228.44M247.255 386.707H292.632V453.113M292.632 475.802V554.936H123.851V429.318M123.851 406.076V386.707H227.887M403.309 469.715L458.647 525.053L339.117 644.583L249.469 554.936M231.207 536.674L220.139 525.606L293.739 452.006M307.02 438.725L339.67 406.076L386.707 453.113M476.355 386.707H555.489V555.489H428.764M403.309 555.489H386.707V452.006M386.707 432.085V386.154H453.113M471.375 274.371L525.606 220.139L645.137 339.67L556.042 428.764M537.227 447.026L525.606 458.647L452.006 385.601M438.172 371.766L406.076 339.67L452.56 293.186M274.371 260.536V274.924H207.965M181.956 274.371H140.452V140.452H234.527M257.769 140.452H274.371V238.401M236.741 329.709L247.255 340.223L200.771 386.707M184.723 402.755L152.627 434.852L57.9984 340.223L124.404 273.817M139.899 257.769L152.073 245.595L221.799 314.214M403.309 184.17V140.452H537.227V231.76M537.227 257.769V274.371H440.939M419.357 274.371H402.755V210.732M257.216 402.755H274.371V471.375M274.371 494.617V536.674H140.452V445.366M140.452 422.677V402.755H236.187M403.309 496.277L432.638 525.606L338.01 620.235L273.264 555.489M254.449 536.674L242.828 525.053L310.341 457.54M325.835 442.599L338.01 430.425L386.707 479.122M492.403 402.755H536.674V536.674H447.579M421.017 536.674H403.309V443.152M403.309 421.57V402.755H469.715M494.063 274.924L523.946 245.042L618.574 339.67L555.489 402.755M537.227 421.017L523.946 434.298L457.54 367.892M442.046 352.398L428.764 339.117L475.248 292.632M402.755 237.294C424.337 250.575 440.939 271.051 450.9 294.293M456.987 312.001C459.2 321.408 460.307 330.816 460.307 340.223C460.307 356.271 456.987 372.319 450.9 386.154M443.152 403.309C429.871 424.891 409.949 442.599 386.154 452.006M365.679 458.647C357.378 460.307 348.524 461.414 339.67 461.414C323.068 461.414 307.02 458.094 292.632 452.006M274.371 442.046C253.896 428.764 237.294 408.843 227.887 386.154M221.799 366.232C220.139 357.932 219.033 349.077 219.033 340.223C219.033 323.622 222.353 307.574 228.44 293.186M238.401 274.371C251.682 253.342 271.604 237.294 294.846 227.887M312.554 222.353C321.408 220.139 330.262 219.033 339.67 219.033C355.718 219.033 371.766 222.353 386.154 228.44M403.309 258.876C419.357 271.051 431.531 288.759 438.172 308.127M442.046 326.389C442.599 330.816 443.152 335.796 443.152 340.223C443.152 356.825 439.279 372.319 432.638 386.154M422.124 402.755C409.396 419.357 392.241 431.531 372.319 438.725M350.738 443.152C347.417 443.706 343.544 443.706 339.67 443.706C323.068 443.706 307.02 439.832 292.632 432.638M274.371 420.464C259.429 408.289 247.808 391.688 241.721 372.873M236.741 350.738C236.187 347.417 236.187 343.544 236.187 340.223C236.187 323.068 240.614 307.02 247.808 292.632M259.983 274.924C272.711 259.429 289.312 247.808 308.68 241.721M326.389 237.848C330.816 237.294 335.243 237.294 339.67 237.294C355.718 237.294 372.873 241.168 386.707 248.362M350.184 237.294L338.563 248.915L292.632 203.538M273.817 184.723L243.381 154.287L338.563 59.6585L403.309 124.404M419.91 141.006L433.191 154.287L365.125 222.353M212.945 555.489C224.013 572.644 242.828 583.711 264.41 583.711C268.837 583.711 272.711 583.158 276.584 582.605M294.293 575.964C312.001 566.557 324.175 548.295 325.835 527.266C326.389 507.345 304.253 506.238 300.38 520.072C295.953 495.724 319.748 488.53 335.243 501.811C324.175 490.743 326.389 471.928 340.223 463.628C354.058 471.928 356.271 490.743 345.204 501.811C360.698 488.53 384.494 495.724 380.067 520.072C375.64 506.238 354.058 507.345 354.611 527.266C356.271 547.188 367.892 564.896 383.94 574.304M204.645 537.227C199.664 518.412 204.091 497.937 217.372 482.443C231.207 468.055 247.255 482.996 240.614 495.724C260.536 481.336 248.915 459.754 228.993 458.094C244.488 458.094 256.109 443.152 252.236 427.658C236.741 423.784 222.353 434.298 222.353 450.346C220.693 429.871 199.111 418.804 184.723 438.725C197.451 432.085 212.392 448.133 198.004 461.967C184.17 474.142 165.908 478.569 148.2 475.802C146.54 475.249 142.666 474.695 140.452 473.588M304.807 586.478C324.175 574.304 338.01 553.275 339.67 528.927C341.33 552.169 354.611 572.644 372.873 585.372M288.759 594.226C281.011 596.993 272.711 598.099 264.41 598.099C234.527 598.099 208.518 580.391 196.344 555.489M189.703 536.674C188.597 532.247 188.597 527.266 188.597 522.286C188.597 502.364 196.344 485.209 209.072 469.715C192.47 482.443 178.082 490.19 158.161 490.19C153.18 490.19 145.433 489.083 140.452 487.976M390.581 594.226C398.328 596.993 406.629 598.099 414.93 598.099C444.812 598.099 470.821 580.391 482.996 555.489M489.083 536.674C490.19 532.247 490.19 527.266 490.19 522.286C490.19 509.005 486.316 496.83 480.229 485.209C476.909 479.122 473.035 474.142 469.161 468.608C476.355 474.142 482.996 479.122 490.743 482.996C501.257 487.976 511.772 491.297 523.393 491.297C528.373 491.297 532.8 490.743 537.781 489.636M585.372 372.873C572.644 354.611 552.722 342.437 529.48 340.223C552.722 338.01 572.644 325.282 585.372 307.02M594.226 390.028C596.993 397.775 598.653 406.629 598.653 415.483C598.653 445.366 581.498 471.375 556.042 483.549M314.768 495.724C306.467 485.763 316.428 473.035 328.602 478.569M250.575 445.366C262.196 449.793 259.983 465.841 247.255 466.948M124.404 212.945C107.249 224.013 96.1817 242.828 96.1817 264.41C96.1817 268.837 96.7351 272.711 97.2885 276.584M103.929 293.739C113.89 310.894 131.598 323.622 152.627 325.282C172.548 325.835 173.655 303.7 159.821 299.826C184.169 295.399 191.363 319.195 178.082 334.689C189.15 323.622 207.412 325.282 215.712 339.117C207.412 352.951 189.15 355.718 178.082 344.65C191.363 360.145 184.169 383.94 159.821 379.513C173.655 375.086 172.548 353.504 152.627 354.058C131.598 355.718 113.89 367.892 104.482 385.601M140.452 205.198C141.559 205.198 144.879 204.091 145.986 204.091C163.694 200.218 183.063 204.645 197.451 217.372C211.839 231.207 196.897 247.255 184.17 240.615C198.557 260.536 220.139 248.915 221.799 228.993C221.799 244.488 237.294 256.663 252.789 252.789C256.663 237.294 245.595 221.8 230.1 221.8C250.575 220.693 261.643 198.557 241.721 184.17C248.362 196.897 232.314 211.839 218.479 197.451C205.751 182.509 201.324 163.141 205.198 145.433C205.198 144.326 205.751 142.666 206.305 141.559M93.4148 304.253C105.589 323.622 126.618 336.903 150.967 339.117C126.618 341.33 106.143 355.165 93.4148 374.533M86.2209 288.759C83.4539 281.011 82.3472 272.711 82.3472 264.41C82.3472 234.527 99.502 208.518 124.958 196.344M140.452 190.257C144.879 189.15 152.627 188.597 157.607 188.597C171.442 188.597 184.723 192.47 196.344 199.111C201.878 202.431 205.751 205.751 210.732 209.625C207.965 206.305 205.198 202.985 202.431 199.111C193.577 186.936 189.703 172.548 189.703 157.054C189.703 152.073 190.257 145.433 191.363 140.452M184.723 314.768C194.684 306.467 207.412 316.428 201.878 328.602M234.527 250.022C230.1 261.643 214.052 259.429 212.945 246.702M214.606 123.851C225.673 106.696 244.488 95.6284 266.07 95.6284C270.497 95.6284 274.371 96.1817 278.244 96.7351M295.399 103.376C313.108 112.783 325.282 131.045 326.942 152.073C327.495 171.995 305.36 173.102 301.487 159.267C297.059 183.616 320.855 190.81 336.35 177.529C325.282 188.597 327.495 207.965 341.33 216.266C355.165 207.965 357.378 188.597 346.31 177.529C361.805 190.81 385.601 183.616 381.174 159.267C376.746 173.102 355.165 171.995 355.718 152.073C357.378 132.152 368.446 114.997 384.494 105.036M305.914 92.8614C325.282 105.036 338.563 126.064 340.777 150.413C342.99 127.171 355.165 107.249 373.426 95.075M290.419 85.6675C282.672 82.9006 274.371 81.7938 266.07 81.7938C236.187 81.7938 210.178 99.502 198.004 124.404M316.428 184.17C308.681 194.13 318.088 206.305 330.262 201.324M252.236 233.974C263.857 229.547 261.643 213.499 248.915 212.392M556.042 213.499C573.197 224.566 584.265 243.381 584.265 264.963C584.265 269.39 583.711 273.264 583.158 277.138M575.411 295.953C565.45 312.554 548.295 324.175 527.82 325.835C507.898 326.389 506.791 304.807 520.626 300.38C496.277 296.506 489.083 319.748 502.364 335.243C491.297 324.175 472.482 326.942 464.181 340.223C472.482 354.058 491.297 356.271 502.364 344.65C489.083 360.145 496.277 383.94 520.626 379.513C506.791 375.086 507.898 353.504 527.82 354.058C547.742 355.718 564.896 366.786 574.857 382.834M537.781 205.198C518.966 200.218 498.491 204.645 482.996 217.926C468.608 231.76 483.549 247.808 496.277 241.168C481.889 261.09 460.307 250.022 458.647 229.547C458.647 245.042 443.706 257.216 428.211 253.342C424.337 237.848 436.512 221.246 452.56 221.8C431.531 220.139 419.91 198.004 440.385 183.616C433.745 196.344 449.793 211.285 463.627 196.897C476.355 181.956 480.782 162.588 476.909 144.879C476.909 143.773 475.802 141.559 475.802 140.452M594.779 288.759C597.546 281.011 598.653 272.711 598.653 264.41C598.653 234.527 580.944 208.518 555.489 196.344M536.674 190.257C532.247 189.15 527.266 189.15 522.286 189.15C502.364 189.15 486.316 197.451 470.268 210.732C482.442 195.237 491.85 177.529 491.85 157.607C491.85 152.627 490.743 145.986 489.636 141.006M496.277 315.321C486.316 307.574 474.142 317.535 479.122 329.156M445.919 251.129C450.346 262.75 466.394 260.536 467.501 247.808M466.394 555.489C455.327 572.644 436.512 583.711 414.93 583.711C410.503 583.711 406.629 583.158 402.755 582.605M474.142 537.227C479.122 518.412 474.695 497.937 461.414 482.443C447.579 468.055 431.531 482.996 438.172 495.724C418.25 481.336 429.871 459.754 449.793 458.094C434.298 458.094 422.677 443.152 426.551 427.658C442.046 423.784 458.094 435.405 458.094 451.453C459.2 430.978 481.336 419.357 495.724 439.832C482.996 433.191 468.055 449.24 482.442 463.074C497.937 476.355 517.859 480.229 536.674 475.802M364.572 495.724C372.319 485.763 362.912 473.035 350.738 478.569M428.764 445.366C417.143 449.793 419.357 465.841 432.085 466.948M124.404 465.841C107.249 454.773 96.7351 436.512 96.7351 414.93C96.7351 410.503 97.2885 406.629 97.8419 402.755M86.2209 390.581C83.4539 398.328 82.3472 406.629 82.3472 414.93C82.3472 444.259 99.502 469.715 123.851 482.443M184.723 364.019C194.684 371.766 206.858 361.805 201.878 350.184M234.527 428.211C230.1 416.59 214.052 418.804 212.945 431.531M468.055 123.851C456.987 106.696 438.172 95.6284 416.59 95.6284C412.163 95.6284 407.182 96.1817 403.309 97.2885M391.134 85.6675C392.241 85.1141 395.008 84.5607 396.115 84.0073C402.755 82.3472 409.396 81.2404 416.59 81.2404C446.473 81.2404 472.482 98.9486 484.656 123.851M365.679 184.17C373.98 194.13 364.019 206.305 351.844 201.324M430.425 233.974C418.804 229.547 421.017 213.499 433.745 212.392M555.489 467.501C572.644 456.434 584.818 437.065 584.818 415.483C584.818 411.056 583.711 406.076 583.158 402.202M496.277 365.125C486.316 373.426 473.588 363.465 479.122 351.291M446.473 429.318C450.9 417.697 466.948 419.91 468.055 432.638M126.618 558.256C120.531 558.809 108.356 558.809 101.716 556.596C100.609 563.79 100.609 575.964 102.269 582.051M239.508 628.535C233.974 631.856 222.906 636.836 215.712 637.389C217.926 644.583 222.906 655.098 227.333 660.078M64.6389 471.928C58.5517 470.268 48.0375 466.394 42.5037 461.967C38.63 468.608 35.3097 479.676 34.2029 486.316M290.972 641.817C285.992 646.244 276.031 652.884 269.39 655.098C272.711 661.738 279.905 671.146 284.885 675.573M91.7547 518.412C85.1141 517.859 74.5998 515.645 67.9592 512.325C65.1923 519.519 63.5322 531.14 64.0856 537.781M193.024 607.507C186.936 609.72 174.762 613.041 168.121 613.041C168.675 620.788 172.548 631.856 175.869 637.389M46.9307 423.784C40.8435 421.57 31.436 415.483 26.4556 410.503C21.4751 416.59 15.9413 427.658 14.2812 434.298M146.54 575.964C140.452 577.071 128.831 578.178 122.191 576.517C121.637 584.265 123.297 596.439 125.511 603.08M36.9698 370.659C31.436 367.339 23.1353 359.592 19.2616 353.504C13.7278 358.485 5.98044 368.446 2.66015 374.533M315.874 644.583C311.447 649.011 302.04 656.758 295.399 659.525C299.273 666.165 307.02 675.019 312.554 678.893M107.249 538.334C100.609 538.334 89.5411 537.227 83.4539 534.46C81.7938 541.654 80.687 553.275 81.7938 559.916M214.606 618.021C209.072 620.788 196.897 625.215 189.703 625.215C191.363 632.409 195.237 643.477 199.111 649.011M54.1247 447.026C48.0375 444.813 38.0766 439.832 33.0962 435.405C28.6691 441.492 24.2421 453.113 22.5819 459.754M264.963 636.283C259.983 640.156 248.915 646.244 242.275 647.35C245.042 654.544 251.129 664.505 256.109 668.932M76.8134 495.724C70.7262 494.617 59.6585 491.85 53.5713 487.976C50.251 494.617 48.0375 506.238 47.4841 512.879M168.675 592.566C162.588 594.226 151.52 596.439 144.326 595.332C144.326 603.08 147.093 614.147 149.86 620.235M40.8435 396.668C35.3097 393.901 25.9022 387.261 22.0285 381.174C17.0481 386.707 9.85411 397.775 7.64058 403.862M34.7563 341.33C29.7759 337.456 22.5819 330.262 19.2616 324.175C13.1744 328.602 4.32029 336.903 1 342.99M122.191 126.064C121.637 119.977 121.637 108.356 123.851 101.716C116.657 100.609 105.589 100.609 98.9486 102.269M51.9112 238.954C48.5909 233.421 44.1638 223.46 43.057 216.266C35.8631 218.479 25.3488 223.46 20.3684 227.887M208.518 64.639C210.178 58.5517 214.052 48.0375 218.479 42.5037C211.839 38.63 200.771 35.3097 194.13 34.7563M38.63 290.419C34.2029 285.438 28.1157 276.584 25.9022 269.39C19.2616 272.711 9.85412 279.905 5.42706 284.885M162.034 91.7547C162.588 85.1141 164.801 74.0465 168.121 67.9592C160.927 65.7457 149.86 64.639 142.666 65.1923M72.9397 191.917C70.7261 185.83 67.4059 175.315 67.9592 168.121C60.2119 169.228 50.251 171.995 44.1638 175.869M256.663 46.9307C258.876 40.8435 264.963 31.436 269.944 26.4556C263.857 21.4751 252.789 15.9413 246.148 14.2812M103.376 147.093C102.269 141.006 101.162 129.385 102.822 122.744C95.075 122.191 84.5607 124.404 78.4735 126.618M309.787 36.4165C313.108 30.8826 320.855 22.5819 326.942 18.7082C321.962 13.1744 312.001 5.42706 305.914 2.66015M35.3097 314.768C30.8826 310.341 23.6887 301.487 20.9218 294.846C14.2812 298.72 5.98044 306.467 1.55338 312.001M142.112 107.803C142.112 101.162 143.219 90.0945 145.986 84.0073C138.792 82.3472 127.171 81.7938 120.531 82.3472M61.872 213.499C59.1051 207.965 55.2315 196.897 55.2315 190.257C48.0375 191.917 36.9698 196.344 31.436 199.664M233.421 54.1247C235.634 48.0375 240.614 38.0766 245.042 33.0962C238.954 28.6691 227.333 24.2421 220.693 22.5819M44.1638 263.857C40.2901 258.876 34.7563 248.915 33.6496 242.275C26.4556 245.042 16.4947 251.129 12.0676 256.109M184.723 76.8134C185.83 70.7262 189.15 59.6585 193.024 54.1247C186.383 50.8044 174.762 48.5909 168.121 48.5909M87.881 168.675C86.2209 162.588 84.0073 151.52 85.1141 144.326C77.3667 144.326 66.2991 147.093 60.2119 149.86M283.778 40.8435C286.545 35.3097 293.186 25.9022 298.72 22.0285C293.186 17.0481 282.118 9.85412 276.031 7.64059M339.117 35.3097C342.99 30.3293 351.291 22.5819 357.378 19.2616C352.951 13.1744 343.544 4.32029 338.01 1M556.596 124.404C562.683 123.851 574.304 123.851 580.944 126.618C582.051 119.424 581.498 107.249 580.391 101.162M444.812 53.0179C450.346 49.6976 460.307 45.2706 467.501 44.1638C465.288 36.9698 460.307 26.4556 455.88 21.4751M617.468 210.732C623.555 212.392 634.069 216.266 639.603 220.693C643.477 214.052 646.797 202.985 647.904 196.344M392.795 39.1834C397.775 34.7563 407.182 28.6691 413.823 27.009C410.503 20.3684 403.862 10.9609 398.328 6.53382M590.905 164.248C597.546 164.801 608.06 167.015 614.701 170.335C617.468 163.141 618.574 151.52 618.021 144.879M491.297 74.0465C497.384 71.8329 509.005 69.066 515.645 69.6194C515.092 61.872 510.665 51.3578 507.345 45.2706M635.176 258.876C641.263 261.643 650.671 267.177 655.098 272.711C660.078 266.623 665.612 255.556 667.272 248.915M536.121 105.036C542.208 103.929 553.829 102.822 560.469 104.482C561.023 96.7351 559.363 85.6675 557.149 79.0269M644.583 313.661C650.117 316.981 658.418 324.729 661.738 330.816C667.272 325.835 675.019 315.874 678.34 309.787M367.339 35.3097C371.766 30.8826 380.62 23.6887 387.261 21.4751C383.387 14.8346 375.64 6.53382 370.106 2.66015M574.857 144.326C581.498 144.326 592.566 145.433 598.653 148.753C600.866 141.559 601.42 129.938 600.313 123.297M469.715 62.9788C475.248 60.2119 486.316 56.3382 492.957 56.3382C491.85 49.1443 487.423 38.0766 483.549 32.5428M627.429 235.634C633.516 237.848 643.477 242.828 648.457 247.808C652.884 241.721 657.865 230.1 658.971 223.46M419.357 44.7172C424.337 40.8435 434.298 35.3097 441.492 34.2029C438.725 27.009 432.638 17.0481 428.211 12.0676M605.293 187.49C611.381 188.597 622.448 191.917 627.982 195.791C631.302 189.15 634.069 177.529 634.069 170.888M514.539 89.5412C520.626 87.881 531.693 85.6675 538.887 86.7742C538.887 79.0269 536.121 67.9592 533.354 61.872M641.263 286.545C646.797 289.312 655.098 296.506 658.971 302.04C664.505 296.506 671.146 285.992 673.913 279.351M340.777 34.2029C509.005 34.2029 646.244 171.442 646.244 339.67C646.244 507.898 509.005 645.137 340.777 645.137C172.548 645.137 35.3097 507.898 35.3097 339.67C34.7563 171.995 172.548 34.2029 340.777 34.2029ZM340.223 1.55338C527.266 1.55338 679.446 153.734 679.446 340.777C679.446 527.82 527.266 680 340.223 680C153.18 680 1 527.82 1 340.777C1 153.734 153.733 1.55338 340.223 1.55338Z" stroke="#151C26" stroke-opacity="0.13" stroke-width="1.57" stroke-miterlimit="22.926"/>
</svg>
