<svg width="21" height="27" viewBox="0 0 21 27" fill="none" xmlns="http://www.w3.org/2000/svg">
<g id="ELEMENTS">
<g id="Group">
<g id="Group_2">
<path id="Union" d="M9.97882 25.8408L9.98932 25.8513L10.0017 25.8596L10.013 25.8671C10.2049 25.9951 10.4371 26.15 10.748 26.15C10.8932 26.15 11.0286 26.1319 11.1583 26.082C11.2887 26.0318 11.4054 25.9527 11.5172 25.8408C11.7218 25.6362 13.9981 23.1767 16.224 20.1201C17.3373 18.5915 18.4406 16.91 19.2662 15.2838C20.0899 13.6614 20.646 12.0772 20.646 10.748C20.646 5.29382 16.2022 0.85 10.748 0.85C5.29382 0.85 0.85 5.29382 0.85 10.748C0.85 12.0772 1.40615 13.6614 2.22981 15.2838C3.05542 16.91 4.15874 18.5915 5.27199 20.1201C7.49797 23.1767 9.77425 25.6362 9.97882 25.8408ZM18.5556 10.6794H18.5556V10.6817C18.5556 11.511 18.2391 12.5481 17.7084 13.6961C17.1792 14.8407 16.4439 16.0811 15.6216 17.3126C14.0223 19.7076 12.1013 22.0573 10.7494 23.5843C9.42698 22.0562 7.50614 19.7068 5.89909 17.3123C5.07254 16.0807 4.33106 14.8403 3.79674 13.6956C3.26084 12.5475 2.94046 11.5106 2.94046 10.6817C2.94046 6.38789 6.4542 2.87414 10.748 2.87414C15.1094 2.87414 18.6206 6.38864 18.5556 10.6794ZM6.22891 10.2849C6.22891 12.755 8.28548 14.8115 10.7556 14.8115C13.292 14.8115 15.2822 12.8213 15.2822 10.2849C15.2822 7.81475 13.2257 5.7582 10.7556 5.7582C8.28548 5.7582 6.22891 7.81475 6.22891 10.2849ZM8.25307 10.3512C8.25307 8.97514 9.37954 7.84866 10.7556 7.84866C12.1341 7.84866 13.2581 8.91127 13.2581 10.3512C13.2581 11.7272 12.1316 12.8537 10.7556 12.8537C9.37954 12.8537 8.25307 11.7272 8.25307 10.3512Z" fill="#DD264E" stroke="#DD264E" stroke-width="0.3"/>
</g>
</g>
</g>
</svg>
