<svg width="24" height="24" viewBox="0 0 24 24" fill="none" xmlns="http://www.w3.org/2000/svg">
<path d="M11.66 20.44V18.98C9.83333 18.7933 8.19333 18.0667 6.74 16.8L8.2 15.06C9.32 16.0333 10.4733 16.6133 11.66 16.8V12.92C10.1533 12.56 9.04667 12.0867 8.34 11.5C7.64667 10.9133 7.3 10.0467 7.3 8.9C7.3 7.74 7.7 6.79333 8.5 6.06C9.31333 5.32667 10.3667 4.92667 11.66 4.86V3.86H12.94V4.88C14.4067 4.98667 15.7933 5.48667 17.1 6.38L15.8 8.22C14.92 7.59333 13.9667 7.20667 12.94 7.06V10.82H13C14.5333 11.18 15.66 11.6667 16.38 12.28C17.1 12.8933 17.46 13.7867 17.46 14.96C17.46 16.12 17.0467 17.0667 16.22 17.8C15.3933 18.5333 14.3 18.9333 12.94 19V20.44H11.66ZM12.94 13.26V16.86C13.58 16.7933 14.0867 16.6067 14.46 16.3C14.8333 15.9933 15.02 15.6067 15.02 15.14C15.02 14.6733 14.8733 14.3067 14.58 14.04C14.2867 13.76 13.74 13.5 12.94 13.26ZM11.66 10.46V7C11.06 7.05333 10.5867 7.23333 10.24 7.54C9.90667 7.83333 9.74 8.20667 9.74 8.66C9.74 9.1 9.87333 9.45333 10.14 9.72C10.4067 9.97333 10.9133 10.22 11.66 10.46Z" fill="#DD264E"/>
<circle cx="12" cy="12" r="10.75" stroke="#DD264E" stroke-width="2.5"/>
</svg>
