<svg width="20" height="20" viewBox="0 0 20 20" fill="none" xmlns="http://www.w3.org/2000/svg">
<path id="Vector" d="M0 6.66667H6.66667V0H0V6.66667ZM1.11111 1.11111H5.55556V5.55556H1.11111V1.11111ZM2.22222 2.22222H4.44444V4.44444H2.22222V2.22222ZM13.3333 6.66667H20V0H13.3333V6.66667ZM14.4444 1.11111H18.8889V5.55556H14.4444V1.11111ZM15.5556 2.22222H17.7778V4.44444H15.5556V2.22222ZM0 20H6.66667V13.3333H0V20ZM1.11111 14.4444H5.55556V18.8889H1.11111V14.4444ZM2.22222 15.5556H4.44444V17.7778H2.22222V15.5556ZM18.8889 17.7778H20V20H17.7778V16.6667H18.8889V17.7778ZM18.8889 14.4444H20V15.5556H18.8889V14.4444ZM18.8889 13.3333V14.4444H17.7778V13.3333H18.8889ZM7.77778 15.5556H8.88889V20H7.77778V15.5556ZM3.33333 7.77778V10H1.11111V8.88889H0V7.77778H3.33333ZM7.77778 4.44444H8.88889V5.55556H7.77778V4.44444ZM11.1111 1.11111V3.33333H10V0H12.2222V1.11111H11.1111ZM7.77778 1.11111H8.88889V2.22222H7.77778V1.11111ZM18.8889 10H20V12.2222H17.7778V11.1111H18.8889V10ZM17.7778 7.77778V8.88889H15.5556V11.1111H13.3333V10H14.4444V7.77778H17.7778ZM10 12.2222H8.88889V11.1111H7.77778V10H10V12.2222ZM16.6667 14.4444H17.7778V15.5556H16.6667V14.4444ZM18.8889 8.88889V10H17.7778V8.88889H18.8889ZM8.88889 12.2222V13.3333H7.77778V12.2222H8.88889ZM15.5556 17.7778H16.6667V20H14.4444V17.7778H15.5556ZM12.2222 17.7778H13.3333V18.8889H12.2222V20H10V18.8889H11.1111V17.7778H12.2222ZM12.2222 16.6667V15.5556H14.4444V16.6667H12.2222ZM12.2222 11.1111H13.3333V14.4444H12.2222V15.5556H11.1111V16.6667H10V14.4444H8.88889V13.3333H12.2222V12.2222H11.1111V11.1111H12.2222ZM2.22222 11.1111V12.2222H1.11111V11.1111H2.22222ZM15.5556 15.5556H14.4444V14.4444H15.5556V15.5556ZM16.6667 13.3333H14.4444V12.2222H16.6667V13.3333ZM5.55556 7.77778H6.66667V8.88889H5.55556V10H6.66667V12.2222H5.55556V11.1111H4.44444V12.2222H3.33333V10H4.44444V7.77778H5.55556ZM8.88889 7.77778V5.55556H12.2222V8.88889H10V7.77778H11.1111V6.66667H10V7.77778H8.88889ZM8.88889 3.33333H10V4.44444H8.88889V3.33333ZM7.77778 7.77778H8.88889V8.88889H7.77778V7.77778ZM11.1111 4.44444V3.33333H12.2222V4.44444H11.1111Z" fill="white"/>
</svg>
