<svg width="39" height="39" viewBox="0 0 39 39" fill="none" xmlns="http://www.w3.org/2000/svg">
<path d="M2 13.4857L2 35.1894C2 36.1883 2.65267 36.998 3.45778 36.998H26.7823C27.5875 36.998 28.2401 36.1883 28.2401 35.1894V13.4857C28.2401 12.4869 27.5875 11.6771 26.7823 11.6771L3.45778 11.6771C2.65267 11.6771 2 12.4869 2 13.4857Z" stroke="#42CFEE" stroke-width="3"/>
<path d="M8.31641 32.1754V22.5293" stroke="#42CFEE" stroke-width="3" stroke-linecap="round"/>
<path d="M19.0078 32.1752V29.7637" stroke="#42CFEE" stroke-width="3" stroke-linecap="round"/>
<path d="M14.1484 32.1755V18.9121" stroke="#42CFEE" stroke-width="3" stroke-linecap="round"/>
<path d="M26.3219 2.41658C26.4673 1.86114 27.1008 1.86114 27.2462 2.41658L28.6705 7.85537C29.1259 9.59419 30.4319 10.7714 31.9056 10.7714H36.5149C36.9856 10.7714 37.1813 11.5187 36.8005 11.862L33.0715 15.2234C31.8793 16.298 31.3805 18.2028 31.8359 19.9417L33.2602 25.3804C33.4056 25.9359 32.8933 26.3977 32.5124 26.0544L28.7834 22.6931C27.5912 21.6184 25.9769 21.6184 24.7848 22.6931L21.0557 26.0544C20.6749 26.3977 20.1625 25.9359 20.3079 25.3804L21.7323 19.9417C22.1877 18.2028 21.6888 16.298 20.4966 15.2234L16.7676 11.862C16.3869 11.5187 16.5825 10.7714 17.0533 10.7714H21.6626C23.1362 10.7714 24.4422 9.59407 24.8976 7.85537L26.3219 2.41658Z" fill="#F5F5F5" stroke="#42CFEE" stroke-width="3"/>
</svg>
