<svg width="35" height="34" viewBox="0 0 35 34" fill="none" xmlns="http://www.w3.org/2000/svg">
<path d="M34.0835 13.5398L33.6565 12.6171C33.5431 12.3726 33.3562 12.194 33.1369 12.1205C32.9177 12.047 32.6839 12.0847 32.4868 12.2251L27.3212 15.9774C27.2268 15.0862 26.8752 14.2677 26.3316 13.6744C25.7881 13.081 25.0896 12.7529 24.3661 12.7513H16.2454V16.9895C16.2637 17.2824 16.2331 17.5768 16.1554 17.8541C16.0778 18.1316 15.9549 18.3861 15.7943 18.6017C15.6337 18.8173 15.439 18.9893 15.2224 19.1069C15.0058 19.2245 14.7719 19.2853 14.5355 19.2853C14.2991 19.2853 14.0652 19.2245 13.8486 19.1069C13.632 18.9893 13.4373 18.8173 13.2767 18.6017C13.1161 18.3861 12.9932 18.1316 12.9156 17.8541C12.8379 17.5768 12.8073 17.2824 12.8256 16.9895V11.2619C12.8262 10.9026 12.9 10.5492 13.04 10.2348C13.1801 9.92038 13.3818 9.65506 13.6265 9.46352L15.4102 8.07637C15.9533 7.65557 16.5811 7.43398 17.2213 7.43712H22.8465L29.2471 2.90916C29.4434 2.76933 29.5872 2.5388 29.6473 2.2678C29.7074 1.9968 29.6788 1.70729 29.5678 1.46233L29.1477 0.535432C29.0351 0.291587 28.8496 0.112879 28.6314 0.0382445C28.4133 -0.0363904 28.1803 -0.00090462 27.9831 0.136971L22.176 4.25795H17.223C16.1028 4.25849 15.0053 4.64978 14.0553 5.38729L12.2648 6.77444C11.7891 7.14159 11.3772 7.62303 11.0533 8.19053C10.7293 8.75804 10.4998 9.40018 10.3783 10.0793L7.20369 12.436C6.57058 12.9109 6.04707 13.5811 5.68404 14.3816C5.32102 15.182 5.13082 16.0857 5.13193 17.0045V19.2674L0.429283 22.6404C0.232508 22.7814 0.0887668 23.0136 0.0296046 23.2859C-0.0295573 23.5584 0.000692441 23.8489 0.113716 24.0937L0.540761 25.0163C0.596926 25.1382 0.671939 25.2451 0.761483 25.3309C0.851028 25.4166 0.95334 25.4795 1.06252 25.516C1.17171 25.5523 1.28562 25.5617 1.39769 25.5432C1.50976 25.5248 1.61779 25.4789 1.71556 25.4084L7.69591 21.1126V17.0108C7.69525 16.6419 7.77172 16.279 7.91784 15.9578C8.06394 15.6366 8.27468 15.368 8.52942 15.1783L10.2599 13.8764V16.6785C10.236 18.0323 10.6129 19.35 11.3191 20.3815C12.0254 21.4129 13.0118 22.0864 14.0913 22.2739C14.687 22.3513 15.2891 22.2722 15.8587 22.0418C16.4281 21.8115 16.9523 21.435 17.3972 20.9367C17.8421 20.4384 18.1976 19.8295 18.4409 19.1496C18.6842 18.4696 18.8098 17.7337 18.8093 16.9895V15.9242H24.3661C24.4793 15.9247 24.5876 15.9808 24.6676 16.0802C24.7476 16.1795 24.7927 16.3141 24.7931 16.4547V18.5855C24.7927 18.7261 24.7476 18.8607 24.6676 18.96C24.5876 19.0594 24.4793 19.1155 24.3661 19.116H22.6511V23.0985C22.6511 23.588 22.4946 24.0573 22.216 24.4034C21.9375 24.7495 21.5597 24.9439 21.1659 24.9439H19.8779V26.5377C19.8779 27.1028 19.6971 27.6448 19.3755 28.0444C19.0539 28.444 18.6177 28.6685 18.1628 28.6685H11.2924L7.93602 31.0828C7.73924 31.2236 7.5955 31.4558 7.53634 31.7282C7.47718 32.0007 7.50743 32.2911 7.62045 32.5359L8.0475 33.4585C8.16092 33.7031 8.34778 33.8816 8.56706 33.9551C8.78637 34.0286 9.02018 33.991 9.21712 33.8506L11.9732 31.8669H18.1628C19.1033 31.8657 20.0173 31.4805 20.7641 30.7705C21.511 30.0604 22.0493 29.0651 22.296 27.9376C23.1361 27.6296 23.8738 26.993 24.3991 26.1222C24.9244 25.2514 25.2094 24.1932 25.2116 23.105V22.1567C25.6746 21.9829 26.0968 21.6722 26.4421 21.2514C26.7873 20.8306 27.0454 20.3122 27.1942 19.7404L33.7697 14.9929C33.9661 14.8517 34.1095 14.6194 34.1684 14.3469C34.2272 14.0746 34.1967 13.7843 34.0835 13.5398Z" fill="#C12DD9"/>
</svg>
