<svg width="37" height="37" viewBox="0 0 37 37" fill="none" xmlns="http://www.w3.org/2000/svg">
<path d="M11.0584 17.9649C14.1627 17.9649 16.6793 14.391 16.6793 9.98246C16.6793 5.57387 14.1627 2 11.0584 2C7.95405 2 5.4375 5.57387 5.4375 9.98246C5.4375 14.391 7.95405 17.9649 11.0584 17.9649Z" stroke="#6442EE" stroke-width="3"/>
<path d="M27.9214 20.4213C30.3093 20.4213 32.2452 17.6722 32.2452 14.281C32.2452 10.8898 30.3093 8.14062 27.9214 8.14062C25.5335 8.14062 23.5977 10.8898 23.5977 14.281C23.5977 17.6722 25.5335 20.4213 27.9214 20.4213Z" stroke="#6442EE" stroke-width="3"/>
<path d="M20.115 35.1582H2C2.21825 29.4571 4.01773 24.4025 6.74213 20.9319C7.98687 22.0953 9.46739 22.7747 11.0575 22.7747C12.6478 22.7747 14.1281 22.0953 15.3729 20.9319C18.0973 24.4025 19.8967 29.4571 20.115 35.1582Z" stroke="#6442EE" stroke-width="3"/>
<path d="M23.2303 37.0005C23.2303 37.0005 23.2235 36.8924 23.2259 37.0005H36.9931C36.9971 36.8227 36.9991 36.6441 36.9991 36.465C36.9991 36.2858 36.9971 36.1072 36.9931 35.9293C36.9708 34.9234 36.8858 33.9384 36.7432 32.9814C36.0922 28.6121 34.2403 24.8243 31.6688 22.2637C30.6274 23.4386 29.2834 24.1463 27.8163 24.1463C26.3704 24.1463 25.0441 23.4588 24.0093 22.3144L23.9639 22.2637C23.0143 23.2093 22.1628 24.3223 21.4336 25.5701C21.9409 26.9496 22.3507 28.4168 22.6497 29.952C23.0779 28.9205 23.6071 27.9636 24.2248 27.1052C25.3277 27.7901 26.5457 28.1654 27.8163 28.1654C29.087 28.1654 30.3049 27.7901 31.4079 27.1052C32.5958 28.7564 33.4566 30.7715 33.901 32.9814H23.0843C23.1568 33.7542 23.2018 34.5398 23.2181 35.336C23.2227 35.5584 23.2249 35.7818 23.2249 36.0058C23.2249 36.2299 23.2227 36.4532 23.2181 36.6757L23.2303 37.0005Z" fill="#6442EE"/>
</svg>
