<svg width="39" height="39" viewBox="0 0 39 39" fill="none" xmlns="http://www.w3.org/2000/svg">
<path d="M30.1972 12.209L23.4336 16.0979" stroke="#DD264E" stroke-width="3" stroke-linecap="round"/>
<path d="M12.0614 19.9863L6.80859 20.9586" stroke="#DD264E" stroke-width="3" stroke-linecap="round"/>
<path d="M14.6875 24.8477L11.1875 29.2227" stroke="#DD264E" stroke-width="3" stroke-linecap="round"/>
<path d="M12.0625 8.32031L14.6875 13.1815" stroke="#DD264E" stroke-width="3" stroke-linecap="round"/>
<path d="M22.5625 24.8477L26.9375 31.6533" stroke="#DD264E" stroke-width="3" stroke-linecap="round"/>
<path d="M18.1836 26.3069C21.3247 26.3069 23.8711 23.4776 23.8711 19.9875C23.8711 16.4973 21.3247 13.668 18.1836 13.668C15.0425 13.668 12.4961 16.4973 12.4961 19.9875C12.4961 23.4776 15.0425 26.3069 18.1836 26.3069Z" stroke="#DD264E" stroke-width="3"/>
<path d="M10.3125 8.8056C12.0039 8.8056 13.375 7.28211 13.375 5.4028C13.375 3.52348 12.0039 2 10.3125 2C8.62113 2 7.25 3.52348 7.25 5.4028C7.25 7.28211 8.62113 8.8056 10.3125 8.8056Z" stroke="#DD264E" stroke-width="3"/>
<path d="M9.4375 36.0283C11.1289 36.0283 12.5 34.5048 12.5 32.6255C12.5 30.7461 11.1289 29.2227 9.4375 29.2227C7.74613 29.2227 6.375 30.7461 6.375 32.6255C6.375 34.5048 7.74613 36.0283 9.4375 36.0283Z" stroke="#DD264E" stroke-width="3"/>
<path d="M33.9375 12.6943C35.6289 12.6943 37 11.1708 37 9.29147C37 7.41216 35.6289 5.88867 33.9375 5.88867C32.2461 5.88867 30.875 7.41216 30.875 9.29147C30.875 11.1708 32.2461 12.6943 33.9375 12.6943Z" stroke="#DD264E" stroke-width="3"/>
<path d="M29.5625 36.9998C30.7706 36.9998 31.75 35.9116 31.75 34.5692C31.75 33.2269 30.7706 32.1387 29.5625 32.1387C28.3544 32.1387 27.375 33.2269 27.375 34.5692C27.375 35.9116 28.3544 36.9998 29.5625 36.9998Z" stroke="#DD264E" stroke-width="3"/>
<path d="M4.1875 24.3611C5.39562 24.3611 6.375 23.2729 6.375 21.9306C6.375 20.5882 5.39562 19.5 4.1875 19.5C2.97938 19.5 2 20.5882 2 21.9306C2 23.2729 2.97938 24.3611 4.1875 24.3611Z" stroke="#DD264E" stroke-width="3"/>
</svg>
