<svg width="39" height="39" viewBox="0 0 39 39" fill="none" xmlns="http://www.w3.org/2000/svg">
<path d="M3.39251 19.8763C-0.597582 11.2463 4.94396 7.34258 8.04689 6.93164C8.04689 3.84956 12.0335 1.99969 14.6959 2C17.4083 2.00031 18.9071 3.43831 19.3503 4.46567V35.9029C15.6271 38.3686 12.0362 36.1084 10.7062 34.6701C4.85496 34.177 4.7218 29.9443 5.38662 27.8895C1.39715 25.4238 2.06234 21.1089 5.38662 18.6433C8.63063 16.2371 12.7009 17.4104 13.3656 19.2597M8.71145 12.4791C10.4845 12.6846 14.1638 12.2325 14.6957 8.78058M7.38163 24.191C9.37644 24.2028 13.366 25.4523 13.3659 30.3552M25.3343 10.6298C25.7775 12.2736 27.8609 15.5612 32.6483 15.5612" stroke="#DD264E" stroke-width="3" stroke-linecap="round"/>
<path d="M20.6814 2.61432C26.5326 0.641783 29.9901 4.4641 30.6551 6.92923C33.9796 7.54502 38.2848 12.2146 36.6393 16.7913C35.3094 20.4898 31.9849 22.9554 27.3305 22.9554M19.3516 35.9002C21.1246 37.133 25.3358 37.4553 27.9954 33.5102M24.0059 27.8868C23.7843 29.736 26.0007 34.0509 30.6551 34.0509C34.6445 34.0509 34.4228 30.1469 32.6498 27.8868C34.8661 27.0648 38.634 24.4348 35.9743 20.4898" stroke="#DD264E" stroke-width="3" stroke-linecap="round"/>
</svg>
