<svg width="39" height="39" viewBox="0 0 39 39" fill="none" xmlns="http://www.w3.org/2000/svg">
<path d="M19.7298 20.7578L35.2855 18.9057C36.2636 18.7892 37 17.9598 37 16.9747V10.4271C37 9.35309 36.1295 8.48242 35.0556 8.48242H3.94444C2.87055 8.48242 2 9.35309 2 10.4271V16.9747C2 17.9598 2.73652 18.7892 3.71459 18.9057L19.2702 20.7578M19.7298 20.7578L19.9598 22.6889M19.7298 20.7578C19.5771 20.776 19.4229 20.776 19.2702 20.7578M19.2702 20.7578L19.0403 22.6889" stroke="#189387" stroke-width="3"/>
<mask id="mask0_147_54" style="mask-type:alpha" maskUnits="userSpaceOnUse" x="12" y="0" width="15" height="14">
<path d="M23.3863 2H15.6085C14.5346 2 13.6641 2.87068 13.6641 3.94471V10.1678C13.6641 11.2418 14.5346 12.1125 15.6085 12.1125H23.3863C24.4602 12.1125 25.3308 11.2418 25.3308 10.1678V3.94471C25.3308 2.87068 24.4602 2 23.3863 2Z" stroke="#189387" stroke-width="3"/>
</mask>
<g mask="url(#mask0_147_54)">
<path d="M27.2682 -5.54688H8.60156V7.05486H27.2682V-5.54688Z" fill="#189387"/>
</g>
<mask id="mask1_147_54" style="mask-type:alpha" maskUnits="userSpaceOnUse" x="1" y="6" width="37" height="33">
<path d="M34.2773 8.2168H4.72179C3.6479 8.2168 2.77734 9.08747 2.77734 10.1615V35.0538C2.77734 36.1278 3.6479 36.9985 4.72179 36.9985H34.2773C35.3512 36.9985 36.2218 36.1278 36.2218 35.0538V10.1615C36.2218 9.08747 35.3512 8.2168 34.2773 8.2168Z" stroke="#189387" stroke-width="3"/>
</mask>
<g mask="url(#mask1_147_54)">
<path d="M49.0531 18.7207H-3.83594V38.9457H49.0531V18.7207Z" fill="#189387"/>
</g>
<mask id="mask2_147_54" style="mask-type:luminance" maskUnits="userSpaceOnUse" x="11" y="13" width="17" height="18">
<path d="M23.0744 16.2617H15.9447C15.2288 16.2617 14.6484 16.8422 14.6484 17.5582V26.3094C14.6484 27.0254 15.2288 27.6059 15.9447 27.6059H23.0744C23.7903 27.6059 24.3707 27.0254 24.3707 26.3094V17.5582C24.3707 16.8422 23.7903 16.2617 23.0744 16.2617Z" fill="white" stroke="#189387" stroke-width="6"/>
</mask>
<g mask="url(#mask2_147_54)">
<path d="M23.0744 16.2617H15.9447C15.2288 16.2617 14.6484 16.8422 14.6484 17.5582V26.3094C14.6484 27.0254 15.2288 27.6059 15.9447 27.6059H23.0744C23.7903 27.6059 24.3707 27.0254 24.3707 26.3094V17.5582C24.3707 16.8422 23.7903 16.2617 23.0744 16.2617Z" fill="white" stroke="#189387" stroke-width="6"/>
</g>
</svg>
