<svg width="51" height="37" viewBox="0 0 51 37" fill="none" xmlns="http://www.w3.org/2000/svg">
<path d="M26.3828 19.4051L32.5756 3.24805L48.0023 16.6642L42.0703 20.3426C41.3053 20.8171 40.8486 22.0085 40.9584 23.2437L41.8095 32.8212L26.3828 19.4051Z" stroke="#EE8842" stroke-width="3"/>
<path d="M33.5222 4.07178C33.824 3.28443 33.6449 2.27766 33.1222 1.82308C32.5995 1.36851 31.9311 1.63827 31.6294 2.42562L20.0059 32.7514C19.7042 33.5387 19.8833 34.5455 20.4059 35.0001C20.9286 35.4546 21.597 35.1849 21.8988 34.3975L33.5222 4.07178Z" fill="#EE8842"/>
<path d="M24.6194 19.4051L18.4267 3.24805L3 16.6642L8.93196 20.3426C9.69702 20.8171 10.1537 22.0085 10.0439 23.2437L9.19271 32.8212L24.6194 19.4051Z" stroke="#EE8842" stroke-width="3"/>
<path d="M17.4778 4.07178C17.176 3.28443 17.3551 2.27766 17.8778 1.82308C18.4005 1.36851 19.0689 1.63827 19.3706 2.42562L31.0619 32.9282C31.3636 33.7156 31.1845 34.7223 30.6618 35.1769C30.1391 35.6315 29.4708 35.3617 29.169 34.5744L17.4778 4.07178Z" fill="#EE8842"/>
</svg>
