<svg width="47" height="45" viewBox="0 0 47 45" fill="none" xmlns="http://www.w3.org/2000/svg">
<g filter="url(#filter0_d_147_89)">
<path d="M38.5 5H8.5C7.11929 5 6 5.74618 6 6.66663V33.3327C6 34.2532 7.11929 34.9994 8.5 34.9994H38.5C39.8807 34.9994 41 34.2532 41 33.3327V6.66663C41 5.74618 39.8807 5 38.5 5Z" stroke="#C5D92D" stroke-width="3"/>
<path d="M12.6641 12.2207H31.8307M12.6641 19.9983H23.4974M12.6641 27.7759H31.8307" stroke="#C5D92D" stroke-width="3" stroke-linecap="round"/>
<path d="M28.5 0H18.5V7.77761H28.5V0Z" fill="#F5F5F5"/>
<path d="M26.8307 0H20.1641V6.66652H26.8307V0Z" fill="#C5D92D"/>
<path d="M23.4974 8.88771C25.3383 8.88771 26.8307 7.89281 26.8307 6.66553C26.8307 5.43826 25.3383 4.44336 23.4974 4.44336C21.6564 4.44336 20.1641 5.43826 20.1641 6.66553C20.1641 7.89281 21.6564 8.88771 23.4974 8.88771Z" fill="#C5D92D"/>
</g>
<defs>
<filter id="filter0_d_147_89" x="0.5" y="0" width="46" height="44.5" filterUnits="userSpaceOnUse" color-interpolation-filters="sRGB">
<feFlood flood-opacity="0" result="BackgroundImageFix"/>
<feColorMatrix in="SourceAlpha" type="matrix" values="0 0 0 0 0 0 0 0 0 0 0 0 0 0 0 0 0 0 127 0" result="hardAlpha"/>
<feOffset dy="4"/>
<feGaussianBlur stdDeviation="2"/>
<feComposite in2="hardAlpha" operator="out"/>
<feColorMatrix type="matrix" values="0 0 0 0 0 0 0 0 0 0 0 0 0 0 0 0 0 0 0.25 0"/>
<feBlend mode="normal" in2="BackgroundImageFix" result="effect1_dropShadow_147_89"/>
<feBlend mode="normal" in="SourceGraphic" in2="effect1_dropShadow_147_89" result="shape"/>
</filter>
</defs>
</svg>
