<svg width="409" height="357" viewBox="0 0 409 357" fill="none" xmlns="http://www.w3.org/2000/svg">
<path fill-rule="evenodd" clip-rule="evenodd" d="M164 350.32V300.183C100.116 294.613 50 240.989 50 175.66C50 110.331 100.116 56.7071 164 51.1372V1C72.4747 6.67664 2.34254e-05 82.7046 1.5299e-05 175.66C7.17257e-06 268.615 72.4746 344.643 164 350.32Z" fill="#EE8842"/>
<path d="M234.354 4.81092C230.115 4.10533 223.756 5.28131 221.401 6.92767C226.347 6.92767 232.234 8.57404 233.176 9.98521M239.77 22.4505C227.995 19.6282 224.227 37.2678 205.858 33.5047C208.684 37.503 215.984 39.855 220.459 37.9734C221.637 41.5013 228.466 41.9717 229.173 38.2086C231.057 41.7365 238.593 40.3254 237.415 35.6215C240.241 38.2086 244.245 36.5622 244.481 33.0343M281.455 21.745C280.984 24.5673 273.919 26.9192 267.325 25.9785M290.875 16.3355C290.404 21.745 276.98 23.6265 264.028 19.8634M254.607 17.0411C259.317 2.92936 284.281 17.5114 300.06 10.6908C296.292 17.5114 278.864 20.3338 264.97 15.8651M258.611 34.2103C245.423 38.4438 236.473 29.036 240.712 15.6299M243.774 14.9243C235.767 19.1578 228.466 9.27962 236.238 2.45897C242.832 -1.53935 250.604 3.16455 252.252 10.6908C252.959 19.1578 262.85 27.3896 272.035 26.6841C286.636 27.1544 304.299 33.9751 307.361 40.5606C300.531 41.2661 292.759 44.3237 291.582 46.9108C288.285 38.4438 275.096 31.388 265.205 32.5639M203.974 85.718C197.379 89.7163 202.325 99.8297 209.626 94.8906M201.619 104.298C205.387 110.178 216.926 107.121 216.22 100.065M191.727 90.1867C187.959 85.718 191.021 76.7806 199.028 77.251M203.738 85.9532C188.43 85.0124 189.608 98.4185 180.187 112.53C191.492 105.239 206.564 107.121 210.332 96.0666M217.633 89.4811C215.984 76.5454 234.825 70.9007 244.245 80.5437M207.035 306.096C210.803 308.918 219.046 309.859 223.05 311.27M305.241 342.786C305.006 341.845 302.651 341.14 300.766 341.61C291.817 338.082 288.756 331.026 290.875 326.558M301.473 342.786C304.064 342.786 307.125 344.668 307.596 346.784M300.295 344.432C303.593 345.138 306.654 347.49 306.183 349.136M283.104 325.147C283.104 327.498 281.219 331.967 279.335 333.849C276.274 337.377 278.158 341.14 282.633 340.905C285.694 340.669 289.933 342.786 292.288 345.608C293.701 348.196 295.35 348.666 298.411 349.607C300.531 351.488 303.357 351.253 304.064 349.136C303.593 348.196 300.766 346.549 298.647 345.844M255.785 349.842C257.904 320.678 275.332 317.385 292.995 313.622M256.02 350.783C257.198 344.197 259.317 339.493 261.437 335.73C272.27 317.15 285.694 328.674 299.824 327.263C296.292 326.087 292.288 322.795 292.053 320.678C296.056 323.5 304.77 324.911 309.48 323.5C306.419 322.559 302.415 319.502 301.708 317.385C307.125 320.678 315.839 321.854 318.665 319.267C316.31 319.031 312.071 316.679 311.129 315.033C317.487 317.855 326.201 316.444 328.556 311.74C326.201 312.681 321.491 311.976 319.607 310.8C327.614 309.859 333.266 304.685 333.266 299.51C331.618 302.097 326.672 305.155 322.904 304.685C339.86 297.629 329.498 271.992 342.922 273.404M238.357 344.668C239.064 344.197 243.068 343.492 243.774 345.373M253.665 126.407C228.466 120.997 208.448 162.862 242.597 172.505C239.535 179.09 233.412 180.737 229.879 178.385C232.47 184.5 223.756 186.381 221.637 181.442C221.872 186.617 214.571 188.498 212.216 182.618M229.644 295.512C229.879 296.453 229.879 299.51 229.408 301.627C228.937 303.509 227.289 305.86 226.111 307.036C223.05 310.329 219.988 316.679 220.223 323.265C220.459 326.322 217.633 334.319 214.571 339.023C209.861 345.608 211.981 351.018 218.575 349.607C221.401 348.666 227.995 348.431 231.528 349.136C235.06 351.018 239.77 351.724 240.948 350.077C243.774 351.018 246.365 350.077 246.129 348.666C244.01 347.255 240.241 346.549 238.122 347.02M226.582 306.096C227.76 305.861 215.749 295.747 214.807 294.806C215.749 297.393 216.926 301.627 216.926 303.509C215.278 298.569 209.861 291.749 206.093 290.102C207.271 293.395 207.977 297.629 207.742 298.569C206.8 293.395 200.676 285.399 195.495 282.811C197.85 286.339 199.263 292.219 198.321 294.336C192.198 276.932 180.423 279.989 178.068 258.116C177.597 266.348 171.945 287.75 183.249 293.866C180.658 294.571 176.655 292.219 175.006 288.926C174.771 295.747 181.129 303.509 187.488 304.449C186.546 305.155 182.307 304.92 179.01 303.744C181.13 308.683 190.785 312.211 197.85 310.8C197.379 312.211 193.14 313.622 189.608 313.622C194.082 317.15 204.209 317.62 209.861 314.563C209.39 316.444 206.329 319.031 203.503 319.502C210.332 322.559 218.81 321.383 220.223 320.443M236.709 318.326C240.477 319.972 247.307 327.734 250.368 334.084M236.709 318.326C237.651 315.974 241.89 310.094 244.952 307.036C248.013 303.744 249.426 297.629 247.778 294.806M236.709 318.326C235.06 321.854 228.937 331.732 223.992 338.082C222.814 340.669 224.227 342.316 227.995 342.081C231.763 341.61 236.709 344.197 240.006 345.138C242.126 344.903 245.658 345.138 245.423 347.49M233.647 323.735C243.303 325.617 254.372 339.023 255.314 350.783M239.064 314.328C247.542 319.502 255.785 337.612 255.549 350.783M300.06 300.216C305.712 286.575 305.241 267.524 299.589 258.351C296.527 252.706 281.691 246.121 266.854 243.299M278.629 270.111C278.864 271.992 282.633 275.05 285.93 277.637C287.343 278.813 288.285 280.459 288.285 282.576C288.285 283.987 288.049 285.399 286.872 287.045C284.281 290.573 283.339 297.629 284.988 303.038M255.549 350.077C253.901 331.967 262.85 310.564 273.212 307.036C271.799 309.153 270.386 313.152 270.622 315.268C274.625 304.685 283.104 304.214 290.64 300.921C287.343 303.273 283.81 307.742 283.104 310.329C287.578 303.038 296.998 302.333 303.828 298.805C301.473 301.157 298.882 305.625 298.647 307.272C302.18 303.038 309.716 296.923 313.719 295.042C311.835 297.393 310.658 301.627 311.364 303.273C314.426 292.219 324.553 301.627 334.915 276.226C337.034 269.17 346.219 270.346 345.984 274.109C346.219 276.461 343.864 277.402 342.451 276.932C340.802 276.461 339.86 274.344 342.216 272.698M299.353 182.618C303.828 200.964 326.437 210.371 344.335 201.434C340.331 209.431 331.147 214.84 325.966 211.783C328.556 216.722 320.549 221.19 317.487 215.075C318.194 219.544 313.719 222.131 310.658 221.19C313.719 217.192 312.542 211.783 307.832 210.371C303.828 208.725 299.589 211.783 298.647 215.781C297.705 220.955 302.18 224.483 308.303 223.072C307.596 225.894 306.654 228.246 304.77 229.657C302.651 231.304 299.589 231.539 297.234 230.128C300.06 235.537 292.053 240.476 288.285 235.302C286.401 241.887 278.629 244.004 267.325 243.769M293.23 103.828C294.408 100.3 295.114 94.185 294.408 91.8331M289.933 103.122C291.111 100.77 292.053 94.8906 291.346 91.5979M288.049 90.1867C288.756 92.7738 288.285 97.4777 287.107 99.5945C286.401 101.241 285.694 102.887 285.459 105.945C284.517 106.18 283.104 104.534 283.104 100.77C283.575 98.4185 282.633 95.8314 281.455 95.8314C279.571 102.887 281.455 113.706 285.459 117.469C288.991 119.821 293.937 125.466 293.466 131.346C293.23 143.576 293.701 159.334 295.114 166.155C294.879 165.684 292.053 165.919 290.169 165.919M290.169 165.919C288.756 167.801 288.049 172.27 288.285 177.914C289.462 200.493 282.868 213.899 275.803 223.307C268.031 232.95 253.194 239.3 245.423 235.302M290.169 165.919C291.111 164.273 292.759 164.273 294.408 165.919M264.97 154.395C267.56 155.806 270.151 154.63 270.151 152.278M265.676 120.762C270.622 122.173 276.745 127.583 278.158 131.816M261.672 121.468C261.437 122.879 263.792 124.996 266.618 125.466C270.386 126.172 275.332 131.816 276.509 136.755M288.285 135.344C289.227 143.576 284.281 154.63 278.393 158.158M284.988 130.17C286.872 136.99 282.162 148.515 275.332 153.454M281.69 126.877C283.575 133.463 279.335 143.576 273.212 146.869M278.158 124.29C279.806 130.405 277.216 138.637 272.741 140.754M220.459 93.7146C220.223 94.6554 219.281 95.1258 218.339 95.1258C215.042 95.1258 214.1 89.2459 219.517 89.0107C223.521 89.2459 225.405 93.2442 223.521 97.0073C221.166 101.241 215.042 101.711 211.51 98.1833C207.977 94.8906 208.448 88.7755 211.745 85.2476C206.329 87.8347 200.912 85.718 199.499 81.0141C197.615 76.3102 201.148 71.3711 205.858 70.9007C210.097 70.9007 212.923 74.4286 211.274 77.9566C208.448 82.4253 203.503 79.3677 204.916 76.3102C205.387 75.3694 206.564 74.899 207.506 75.1342M257.669 103.828C259.082 106.415 262.85 105.474 263.086 101.946C263.086 100.3 262.144 99.1241 260.966 98.4185C259.788 97.7129 258.375 97.9481 257.198 98.1833C255.314 98.8889 253.665 100.535 252.252 103.593C249.426 108.532 247.542 110.649 244.481 112.765C246.6 117.469 255.078 122.173 260.495 121.938M249.191 80.0733C252.723 85.2476 253.901 92.0683 252.723 98.1833C255.078 94.6554 260.495 93.9498 263.557 97.0073C266.854 99.8297 266.383 105.004 263.086 107.121C261.437 107.826 259.788 107.826 258.611 107.356C257.433 106.886 256.491 105.71 256.256 104.298C256.02 100.065 261.201 100.3 261.201 103.122C260.966 105.004 259.317 105.474 257.904 104.298M207.977 79.8381C212.452 80.3085 223.992 66.6672 240.006 73.0175C242.597 73.9582 244.952 75.3694 246.6 77.0158M198.086 180.031C196.908 180.031 194.318 179.796 195.26 175.327C191.727 180.737 184.662 176.503 188.666 170.623C182.778 173.446 179.245 165.684 184.898 163.332C179.01 163.568 178.539 156.041 184.191 154.865C179.716 149.456 184.427 140.518 192.905 138.637C186.311 147.339 193.847 156.982 204.916 152.513C210.332 150.397 217.397 142.4 224.934 133.227C230.35 126.642 241.89 121.938 249.426 122.644C244.245 120.527 240.477 115.117 238.122 109.237C235.531 102.182 226.818 102.182 225.876 108.062C225.405 112.06 230.115 113.471 231.999 110.649C230.35 112.06 228.466 111.589 228.231 109.473C228.466 106.18 234.354 105.71 233.883 110.649C233.412 114.177 229.408 115.823 225.876 114.177C221.872 111.825 221.401 105.71 225.169 102.417C228.702 98.8889 235.296 99.8297 237.886 103.828C235.531 92.3035 243.068 77.4862 252.252 72.7823C254.136 71.6063 258.846 69.2543 263.086 68.3136C266.383 67.3728 269.209 65.7264 270.857 63.6097C273.212 60.5521 272.27 56.3186 268.502 55.8482C264.97 55.8482 263.557 59.141 266.147 60.7873M294.879 60.7873C292.759 60.7873 292.053 57.4946 294.643 56.5538C297.469 56.0834 299.353 57.965 299.118 60.3169C299.118 62.9041 296.998 64.5504 293.701 65.4912C291.346 66.1968 288.52 66.1968 285.93 66.1968C281.219 65.9616 276.274 66.1968 272.741 66.6672C275.567 64.5504 276.509 59.141 273.683 55.613C270.857 52.3203 265.912 52.5555 263.557 55.8482C261.908 58.6706 263.086 62.1985 266.147 62.9041C270.386 63.3745 270.386 58.2002 267.56 57.965C265.912 57.965 264.734 59.3762 265.912 60.7873M290.404 79.1325C287.814 79.6029 287.814 82.8957 290.875 83.8364C294.408 84.542 296.292 82.4253 296.056 79.3677C296.056 75.3694 288.049 71.6063 280.277 71.1359C272.27 69.9599 259.317 72.0767 254.136 75.6046C243.539 81.2493 237.886 97.9481 242.361 108.767C249.426 103.122 251.31 89.9515 246.129 82.6605M303.828 88.0699C309.48 91.8331 317.252 88.0699 316.074 81.2493M310.187 54.4371C316.074 52.5555 320.784 58.9058 317.723 63.3745M306.654 80.7789C312.306 82.6605 318.665 80.7789 325.495 76.7806C328.556 75.1342 333.031 73.2527 338.447 73.0175C333.266 72.3119 327.379 69.9599 325.024 68.3136C318.429 63.3745 311.6 60.3169 305.948 62.1985M303.828 64.5504C312.071 63.8449 313.013 74.4286 305.712 74.6638M294.879 68.0784C305.477 67.8432 313.484 54.6723 310.893 41.2661C309.716 48.0868 302.651 51.3795 293.701 50.6739C288.049 50.2036 285.459 54.4371 285.223 57.965C284.988 61.4929 287.814 65.7264 293.937 65.4912M295.114 76.7806C289.227 71.6063 281.219 76.7806 283.339 84.542C285.223 90.6571 292.759 93.009 299.589 90.8923C310.893 86.6588 308.774 69.0191 295.114 68.0784M288.52 184.265C296.527 184.265 307.125 181.207 309.48 178.385C311.129 177.679 312.542 174.857 312.071 172.505C313.484 163.803 306.654 139.813 298.411 124.525C295.821 121.468 295.585 112.295 297.234 105.71C298.411 102.417 298.176 95.1258 297.705 91.1275M255.549 195.084C260.73 191.321 265.441 183.089 267.325 177.914C271.328 166.39 278.393 158.628 281.69 162.156M254.136 125.936C253.665 128.288 256.727 130.875 261.201 131.816C266.618 133.227 269.444 139.342 269.209 146.398C268.973 153.454 273.448 160.98 277.922 161.921C272.741 160.275 264.97 168.742 260.966 178.62C258.611 184.03 254.136 188.733 250.604 189.909M255.549 175.092C236.002 181.913 242.832 209.901 264.97 202.845M243.068 210.371C246.365 213.899 255.314 212.488 260.966 207.314C267.56 202.14 273.448 186.617 274.625 176.503C276.98 163.568 281.926 159.334 286.165 162.862M212.687 237.419C215.749 235.772 218.81 240.241 215.984 243.299C214.571 244.71 212.923 244.945 210.803 244.71C208.684 244.239 206.8 242.828 206.093 240.241C204.445 234.832 208.448 230.128 213.865 229.422C222.108 228.717 228.702 236.243 227.053 245.886M210.568 251.295C214.807 253.412 220.694 251.295 222.343 246.356C224.463 239.065 219.752 232.715 212.687 234.126C208.919 235.067 208.213 240.006 211.039 241.652C211.745 241.887 212.452 242.123 213.394 242.123C215.749 241.652 216.22 238.83 214.807 237.654C214.336 237.419 213.629 237.184 212.923 237.419M232.705 209.901C234.589 218.603 234.589 233.185 232.705 239.536M228.466 275.05C222.343 272.228 219.517 263.761 221.401 255.764C222.343 252.001 223.756 249.179 227.289 245.651C236.002 237.654 243.539 224.718 242.126 220.014M266.618 250.354C271.328 254.823 270.622 265.172 264.97 272.228C261.673 276.461 258.14 279.048 253.665 280.93C248.013 283.282 240.948 283.752 234.354 283.752C223.756 283.517 216.22 290.808 218.81 298.334M257.669 245.651C264.028 255.529 260.259 270.816 248.484 275.285C244.245 277.167 236.944 278.813 234.118 279.519M266.383 243.534C273.448 246.591 277.922 258.351 275.332 267.053M250.604 251.06C254.607 254.353 254.136 263.055 248.955 267.524C244.952 272.228 232.941 274.58 227.053 275.05C219.752 275.991 216.455 283.517 220.223 290.102M232.47 256.94C231.528 260.468 233.883 263.055 238.122 261.879C241.419 260.938 242.361 256.47 240.241 253.177M196.673 277.637C207.271 277.637 212.216 268.7 206.564 259.527C202.561 253.882 199.028 248.473 198.792 242.593C198.321 236.948 200.205 231.539 205.387 227.305C215.042 220.25 230.586 224.483 232.941 239.3M216.691 251.766C218.339 255.529 218.575 259.527 218.104 262.82C216.926 271.992 208.684 278.578 196.673 277.402M244.481 252.236C247.307 254.823 248.013 262.585 243.774 266.818C239.535 270.581 233.412 270.111 230.586 266.348C227.053 261.173 228.702 254.588 233.412 250.825C236.238 248.473 238.357 247.767 240.948 247.062C245.894 245.651 251.781 245.18 255.785 245.651C261.437 246.591 270.151 242.593 273.919 238.83C284.988 228.246 292.995 210.371 293.701 195.319C293.937 189.439 293.23 185.205 292.995 184.029M224.463 294.336C227.053 290.573 236.473 288.926 246.365 290.102C252.488 290.808 258.375 290.808 261.201 287.515M227.053 305.86C223.756 303.509 224.227 298.805 227.995 296.688C231.763 293.395 242.832 294.101 250.133 295.277C254.607 295.982 260.259 295.277 264.263 292.925C267.796 290.808 270.151 287.28 271.328 284.458C277.451 268.229 292.053 252.236 296.763 255.294M214.1 158.628C212.216 164.979 208.919 171.329 203.738 175.327C198.321 178.855 192.434 184.97 192.434 188.969C193.611 187.322 196.673 185.205 198.557 184.735C194.553 187.322 191.727 193.672 193.14 197.671C193.847 195.789 195.966 193.672 197.615 193.202C195.024 196.024 193.847 202.14 194.553 205.432C195.26 203.551 197.144 201.434 198.321 200.964C195.495 204.491 198.557 210.371 198.321 213.899C199.97 210.842 205.622 205.667 203.974 200.964C205.858 203.08 205.858 206.608 205.387 207.784C208.919 204.256 210.803 197.436 208.919 194.143C210.332 195.319 210.803 197.436 211.274 198.847C215.749 187.557 208.684 175.562 211.51 170.388M266.147 169.447C265.676 169.447 264.734 169.447 264.028 169.683C244.01 171.799 228.231 190.85 232.234 208.725C236.709 222.601 253.194 226.835 264.734 217.192C272.506 210.842 279.1 195.319 279.806 181.913C280.748 166.39 286.165 158.158 290.404 165.684M247.542 149.456C248.013 151.102 246.836 152.043 244.952 151.337C243.774 150.161 242.126 149.221 241.655 149.456C240.241 149.221 240.006 147.339 241.419 145.458C243.303 142.4 246.836 138.637 248.955 137.696C247.778 135.579 248.955 132.287 251.075 131.111C255.078 121.703 268.031 117.94 276.98 123.349C292.759 132.287 296.056 151.573 283.104 161.216C281.69 160.98 280.042 159.569 278.629 158.158C275.567 154.865 273.212 149.456 273.212 144.282C273.212 137.226 267.796 129.229 262.379 128.759C259.788 128.288 257.433 125.936 257.669 123.584M250.133 140.283C254.843 139.578 259.317 143.341 259.082 148.045C254.136 148.515 249.426 145.693 249.897 142.4M251.075 136.755C255.314 134.168 260.966 138.402 262.615 145.458M243.303 150.161C243.539 150.632 243.068 152.513 241.89 153.689C241.419 154.865 242.126 155.336 243.303 155.101C246.129 155.806 245.658 158.628 243.068 158.864C240.948 158.393 240.477 160.275 242.361 163.097C241.655 173.446 252.252 172.27 264.028 160.98C264.734 160.275 264.97 158.158 264.734 157.923M241.89 3.63494C243.539 3.63494 244.952 5.04611 244.952 6.69248C244.952 8.33884 243.539 9.75001 241.89 9.75001C240.241 9.75001 238.828 8.33884 238.828 6.69248C238.828 4.81092 240.241 3.63494 241.89 3.63494Z" stroke="#292526" stroke-width="1.62" stroke-miterlimit="22.926"/>
<path fill-rule="evenodd" clip-rule="evenodd" d="M388.28 1L382.96 6.31827L378.989 2.18965L378.757 1.94884H378.423L357.785 1.94884H357L357 2.73384L357 23.0032L357 23.3284L357.23 23.5583L361.382 27.7085L357.23 31.8587L357 32.0887L357 32.4139L357 53.0452L357 53.8302H357.785L378.061 53.8302H378.386L378.616 53.6004L382.768 49.4498L388.537 55.2169L382.871 60.8808L378.989 56.8445L378.757 56.6036H378.423L357.785 56.6036H357L357 57.3886L357 77.658L357 77.9855L357.233 78.2159L361.402 82.3429L357.23 86.5135L357 86.7435L357 87.0687L357 107.7L357 108.485H357.785H378.061H378.386L378.616 108.255L382.859 104.014L388.537 109.691L382.871 115.355L378.989 111.318L378.757 111.077H378.423H357.785H357L357 111.862L357 132.132L357 132.459L357.233 132.69L361.402 136.817L357.23 140.987L357 141.217L357 141.543L357 162.174L357 162.959H357.785H378.061H378.386L378.616 162.729L382.768 158.578L388.537 164.346L382.96 169.921L378.989 165.792L378.757 165.551H378.423H357.785H357L357 166.336L357 186.606L357 186.933L357.233 187.164L361.402 191.291L357.23 195.461L357 195.691L357 196.016L357 216.648L357 217.433H357.785H378.061H378.386L378.616 217.203L382.768 213.052L388.537 218.819L382.96 224.395L378.989 220.266L378.757 220.025H378.423H357.785H357L357 220.81L357 241.079L357 241.407L357.233 241.637L361.402 245.764L357.23 249.935L357 250.165L357 250.49L357 270.941L357 271.726H357.785H378.061H378.386L378.616 271.496L382.678 267.436L388.537 273.293L382.871 278.957L378.989 274.921L378.757 274.68H378.423H357.785H357L357 275.465L357 295.734L357 296.062L357.233 296.292L361.402 300.419L357.23 304.59L357 304.82L357 305.145L357 325.776V326.561H357.785H378.061H378.386L378.616 326.332L382.859 322.09L388.537 327.767L382.96 333.342L378.989 329.214L378.757 328.973H378.423H357.785H357V329.758V350.027V350.352L357.23 350.582L362.661 356.012L363.771 354.901L358.57 349.702L358.57 330.543H378.089L381.849 334.452L376.16 340.14L374.995 338.975L374.757 338.737L374.42 338.746L367.36 338.927L366.595 338.946V339.712V346.227V346.552L366.825 346.782L376.239 356.193L377.349 355.082L377.271 355.004L382.938 349.338L386.909 353.467L387.141 353.708H387.475H408.113H408.898V352.923V332.653V332.326L408.665 332.096L404.041 327.518L408.487 323.074L408.717 322.844V322.519V302.249V301.464H407.932H387.656H387.331L387.101 301.694L382.768 306.026L377.271 300.53L382.938 294.865L386.909 298.993L387.141 299.234H387.475H408.113H408.898V298.449V278.18V277.852L408.665 277.622L404.041 273.044L408.487 268.6L408.717 268.37V268.045V247.776V246.991H407.932H387.656H387.331L387.101 247.22L382.859 251.461L377.271 245.875L382.938 240.21L386.909 244.338L387.141 244.579H387.475H408.113H408.898V243.794L408.898 223.525V223.197L408.665 222.967L404.132 218.48L408.487 214.126L408.717 213.896V213.571V193.302V192.517H407.932H387.656H387.331L387.101 192.747L382.859 196.988L377.271 191.401L382.938 185.736L386.909 189.864L387.141 190.105H387.475H408.113H408.898V189.32V169.051V168.723L408.665 168.493L404.041 163.916L408.487 159.471L408.717 159.242V158.916V138.647V137.862H407.932H387.656H387.331L387.101 138.092L382.768 142.423L377.271 136.928L382.938 131.262L386.909 135.391L387.141 135.631H387.475H408.113H408.898V134.846V114.577V114.25L408.665 114.019L404.041 109.442L408.487 104.998L408.717 104.768V104.442L408.717 84.1731V83.3881H407.932H387.656H387.331L387.101 83.618L382.768 87.9495L377.271 82.4538L382.938 76.7882L386.909 80.9168L387.141 81.1576H387.475H408.113H408.898V80.3726V60.1033V59.7758L408.665 59.5454L404.132 55.0582L408.487 50.7048L408.717 50.4748V50.1496V29.6993V28.9143H407.932H387.656H387.331L387.101 29.1441L382.859 33.3852L377.271 27.799L382.938 22.1334L386.909 26.262L387.141 26.5028H387.475H408.113H408.898V25.7178V5.44849V5.12097L408.665 4.89058L404.735 1H402.503L407.328 5.77599V24.9328H387.809L384.049 21.0232L389.557 15.5168L390.903 16.8622L391.141 17.1004L391.478 17.0918L398.538 16.9108L399.303 16.8912V16.1261L399.303 9.61093V9.28569L399.073 9.05576L391.015 1H388.28ZM391.775 15.5137L390.667 14.4068L396.436 8.63966L397.733 9.93616V15.3609L391.775 15.5137ZM389.647 1.85307L395.326 7.52969L376.16 26.6891L370.482 21.0124L389.647 1.85307ZM375.14 14.1353L369.371 19.9024L368.165 18.6965V13.2717L374.124 13.1189L375.14 14.1353ZM381.85 7.42844L376.251 13.0254L374.995 11.7704L374.757 11.5322L374.42 11.5408L367.36 11.7218L366.595 11.7414V12.5065V19.0217V19.3469L366.825 19.5769L381.748 34.4951L376.07 40.1718L358.57 22.6779L358.57 3.51884L378.089 3.51884L381.85 7.42844ZM369.259 35.5836L374.959 41.2818L373.753 42.4875H367.984V36.7428L369.259 35.5836ZM362.492 28.8185L368.148 34.4724L366.671 35.8145L366.414 36.0481V36.3954V43.2725V44.0575H367.199H374.078H374.403L374.633 43.8277L387.981 30.4843H407.147V49.8244L403.016 53.9537L397.401 48.395L399.254 46.5423L399.484 46.3124V45.9871V39.472V38.687H398.699H391.639H391.314L391.084 38.9168L377.736 52.2602L358.57 52.2602L358.57 32.7391L362.492 28.8185ZM397.914 45.6619L396.285 47.2905L390.579 41.6419L391.964 40.257H397.914V45.6619ZM383.878 48.3398L389.468 42.7518L407.328 60.4308V79.5876H387.809L384.049 75.678L389.647 70.0811L390.903 71.336L391.141 71.5742L391.478 71.5656L398.538 71.3846L399.303 71.3651V70.5999V64.0847V63.7595L399.073 63.5296L383.878 48.3398ZM391.774 69.9875L390.758 68.9711L396.527 63.204L397.733 64.41V69.8348L391.774 69.9875ZM389.647 56.3269L395.416 62.094L376.16 81.3439L370.391 75.5767L389.647 56.3269ZM375.05 68.6996L369.281 74.4668L368.165 73.3513V67.9265L374.124 67.7738L375.05 68.6996ZM381.761 61.991L376.16 67.5897L374.995 66.4252L374.757 66.187L374.42 66.1956L367.36 66.3766L366.595 66.3962V67.1613V73.6765V74.0017L366.825 74.2317L381.658 89.0595L376.066 94.6492L358.57 77.3305L358.57 58.1736L378.089 58.1736L381.761 61.991ZM369.226 90.0877L374.956 95.7592L373.753 96.9613H367.984V91.2166L369.226 90.0877ZM362.518 83.4474L368.109 88.9816L366.671 90.2883L366.414 90.5219V90.8692V97.7463V98.5313H367.199H374.078H374.403L374.633 98.3015L387.981 84.9581H407.147L407.147 104.117L402.925 108.337L397.492 102.959L399.254 101.197L399.484 100.967V100.642V94.1268V93.3418H398.699H391.639H391.314L391.084 93.5717L377.736 106.915H358.57L358.57 87.394L362.518 83.4474ZM397.914 100.317L396.376 101.854L390.67 96.2057L391.964 94.9118H397.914V100.317ZM383.969 102.904L389.559 97.3157L407.328 114.905V134.061H387.809L384.049 130.152L389.647 124.555L390.903 125.81L391.141 126.048L391.478 126.039L398.538 125.858L399.303 125.839V125.074V118.559V118.233L399.073 118.003L383.969 102.904ZM391.774 124.461L390.758 123.445L396.527 117.678L397.733 118.884V124.309L391.774 124.461ZM389.647 110.801L395.416 116.568L376.16 135.818L370.391 130.051L389.647 110.801ZM375.05 123.173L369.281 128.941L368.165 127.825V122.4L374.124 122.248L375.05 123.173ZM381.761 116.465L376.16 122.064L374.995 120.899L374.757 120.661L374.42 120.669L367.36 120.85L366.595 120.87V121.635V128.15V128.476L366.825 128.706L381.658 143.533L376.066 149.123L358.57 131.804L358.57 112.647H378.089L381.761 116.465ZM369.226 144.562L374.956 150.233L373.753 151.435H367.984V145.69L369.226 144.562ZM362.518 137.921L368.109 143.455L366.671 144.762L366.414 144.996V145.343V152.22V153.005H367.199H374.078H374.403L374.633 152.775L387.981 139.432H407.147V158.591L402.925 162.811L397.492 157.433L399.254 155.671L399.484 155.441V155.116V148.601V147.816H398.699H391.639H391.314L391.084 148.045L377.736 161.389H358.57L358.57 141.868L362.518 137.921ZM397.914 154.791L396.376 156.328L390.67 150.68L391.964 149.386H397.914V154.791ZM383.878 157.468L389.559 151.79L407.328 169.378V188.535H387.809L384.049 184.626L389.557 179.119L390.903 180.465L391.141 180.703L391.478 180.694L398.538 180.513L399.303 180.494V179.729V173.213V172.888L399.073 172.658L383.878 157.468ZM391.775 179.116L390.667 178.009L396.436 172.242L397.733 173.539V178.963L391.775 179.116ZM389.647 165.456L395.326 171.132L376.16 190.292L370.482 184.615L389.647 165.456ZM375.14 177.738L369.371 183.505L368.165 182.299V176.874L374.124 176.721L375.14 177.738ZM381.85 171.031L376.251 176.628L374.995 175.373L374.757 175.135L374.42 175.143L367.36 175.324L366.595 175.344V176.109V182.624V182.949L366.825 183.179L381.748 198.098L376.157 203.687L358.57 186.278L358.57 167.121H378.089L381.85 171.031ZM369.321 199.13L375.047 204.797L373.753 206.09H367.984V200.345L369.321 199.13ZM362.518 192.395L368.204 198.024L366.671 199.417L366.414 199.651V199.998V206.875V207.66H367.199H374.078H374.403L374.633 207.43L387.981 194.087H407.147V213.246L403.016 217.375L397.492 211.907L399.254 210.145L399.484 209.915V209.59V203.074V202.289H398.699H391.639H391.314L391.084 202.519L377.736 215.863H358.57L358.57 196.342L362.518 192.395ZM397.914 209.264L396.376 210.802L390.67 205.153L391.964 203.859H397.914V209.264ZM383.878 211.942L389.559 206.263L407.328 223.852L407.328 243.009H387.809L384.049 239.1L389.557 233.593L390.903 234.939L391.141 235.177L391.478 235.168L398.538 234.987L399.303 234.967V234.202V227.687V227.362L399.073 227.132L383.878 211.942ZM391.774 233.59L390.667 232.483L396.436 226.716L397.733 228.012V233.437L391.774 233.59ZM389.647 219.929L395.326 225.606L376.16 244.765L370.482 239.089L389.647 219.929ZM375.14 232.212L369.371 237.979L368.165 236.773V231.348L374.124 231.195L375.14 232.212ZM381.85 225.505L376.251 231.102L374.995 229.847L374.757 229.609L374.42 229.617L367.36 229.798L366.595 229.818V230.583V237.098V237.423L366.825 237.653L381.748 252.571L376.157 258.161L358.57 240.752L358.57 221.595H378.089L381.85 225.505ZM369.321 253.604L375.047 259.271L373.753 260.564H367.984V254.819L369.321 253.604ZM362.518 246.869L368.204 252.497L366.671 253.891L366.414 254.124V254.472V261.349V262.134H367.199H374.078H374.403L374.633 261.904L387.981 248.561H407.147V267.72L402.925 271.94L397.31 266.381L399.254 264.438L399.484 264.208V263.882V257.367V256.582H398.699H391.639H391.314L391.084 256.812L377.736 270.156H358.57L358.57 250.815L362.518 246.869ZM397.914 263.557L396.194 265.277L390.488 259.628L391.964 258.152H397.914V263.557ZM383.788 266.326L389.377 260.738L407.328 278.507V297.664H387.809L384.049 293.754L389.647 288.157L390.903 289.412L391.141 289.651L391.478 289.642L398.538 289.461L399.303 289.441V288.676V282.161V281.836L399.073 281.606L383.788 266.326ZM391.774 288.064L390.758 287.047L396.527 281.28L397.733 282.486V287.911L391.774 288.064ZM389.647 274.403L395.416 280.17L376.16 299.42L370.391 293.653L389.647 274.403ZM375.05 286.776L369.281 292.543L368.165 291.428V286.003L374.124 285.85L375.05 286.776ZM381.761 280.067L376.16 285.666L374.995 284.502L374.757 284.263L374.42 284.272L367.36 284.453L366.595 284.473V285.238V291.753V292.078L366.825 292.308L381.658 307.136L376.066 312.726L358.57 295.407L358.57 276.25H378.089L381.761 280.067ZM369.226 308.164L374.956 313.836L373.753 315.038H367.984V309.293L369.226 308.164ZM362.518 301.524L368.109 307.058L366.671 308.365L366.414 308.598V308.946V315.823V316.608H367.199H374.078H374.403L374.633 316.378L387.981 303.034H407.147V322.194L402.925 326.414L397.492 321.035L399.254 319.273L399.484 319.044V318.718L399.484 312.203V311.418H398.699H391.639H391.314L391.084 311.648L377.736 324.991H358.57L358.57 305.47L362.518 301.524ZM397.914 318.393L396.376 319.931L390.67 314.282L391.964 312.988H397.914L397.914 318.393ZM383.969 320.98L389.559 315.392L407.328 332.981V352.138H387.809L384.049 348.228L389.647 342.631L390.903 343.886L391.141 344.124L391.478 344.116L398.538 343.935L399.303 343.915V343.15V336.635V336.31L399.073 336.08L383.969 320.98ZM391.774 342.538L390.758 341.521L396.527 335.754L397.733 336.96L397.733 342.385L391.774 342.538ZM389.647 328.877L395.416 334.644L376.16 353.894L370.391 348.127L389.647 328.877ZM375.05 341.25L369.281 347.017L368.165 345.901V340.477L374.124 340.324L375.05 341.25Z" fill="#EE8842"/>
</svg>
