<svg width="412" height="356" viewBox="0 0 412 356" fill="none" xmlns="http://www.w3.org/2000/svg">
<path fill-rule="evenodd" clip-rule="evenodd" d="M248 349.66C339.525 343.983 412 267.955 412 175C412 82.0447 339.525 6.01675 248 0.340106V50.4773C311.884 56.0472 362 109.671 362 175C362 240.329 311.884 293.953 248 299.523V349.66Z" fill="#189387"/>
<path d="M101.582 100.318C101.419 103.089 102.232 105.697 104.184 108.142M104.184 108.142C104.51 130.473 99.1415 143.675 101.094 152.64C103.534 164.05 113.456 165.191 115.734 165.191C121.427 165.191 125.331 161.279 126.958 157.041C128.422 153.292 128.259 148.565 125.982 145.468C124.03 142.697 121.753 141.393 118.337 141.23C114.595 140.904 111.016 143.186 110.528 147.098M104.184 108.142C109.715 109.12 113.944 107.327 116.71 102.6C119.963 113.521 121.753 122.16 122.078 128.354M103.696 92.8201C100.768 92.9831 99.9549 95.428 100.443 97.71C100.768 99.34 102.07 101.133 103.696 103.252C104.672 103.415 106.299 102.111 105.323 100.155M105.323 91.1901C102.07 93.3091 102.72 96.732 106.299 101.785C107.275 101.948 108.739 100.644 107.763 98.851C107.275 97.384 106.95 96.406 106.95 95.591M116.385 102.926C118.337 93.3091 114.432 88.7452 105.16 89.3971C104.835 90.5381 105.16 91.8421 106.299 92.8201C106.95 93.3091 108.251 93.6351 109.878 93.6351C110.04 94.6131 110.528 95.428 111.504 95.917C109.39 97.058 107.926 99.34 108.576 102.274M184.055 73.5864C182.754 73.2604 181.778 73.2604 180.151 73.0974M128.259 73.5864C129.561 73.2604 130.537 73.2604 132.163 73.0974M183.567 76.8463C182.266 76.3573 180.964 76.0313 179.5 75.7053M128.585 76.8463C129.886 76.3573 131.187 76.0313 132.651 75.7053M182.916 79.9433C181.452 79.2913 179.988 78.6393 178.199 78.1503M129.235 79.9433C130.699 79.2913 132.163 78.6393 133.953 78.1503M182.428 83.0402C180.639 82.0623 179.175 81.2473 177.06 80.2693M129.723 83.0402C131.513 82.0623 132.977 81.2473 135.092 80.2693M181.778 86.4632C179.826 84.8332 177.711 83.5292 175.434 82.2252M130.699 86.3002C132.651 84.6702 134.604 83.5292 136.881 82.2252M180.476 89.8861C178.199 87.7672 176.084 86.1372 173.156 84.5072M131.675 89.8861C133.953 87.7672 136.068 86.1372 138.996 84.5072M179.338 93.4721C177.06 90.7011 174.62 88.7451 171.204 86.4632M132.977 93.3091C135.254 90.5381 137.532 88.7451 140.948 86.4632M177.711 97.71C175.434 94.4501 172.668 91.3531 169.09 88.7451M134.604 97.547C136.881 94.2871 139.484 91.3531 143.062 88.7451M176.084 58.9166C170.554 54.8417 165.023 55.9826 161.119 55.3307C158.353 55.0047 156.564 53.5377 156.076 50.7667C155.588 53.5377 153.799 55.0047 151.033 55.3307C147.129 55.9826 141.598 54.8417 136.068 58.9166M151.033 91.3531C153.636 92.9831 156.401 93.4721 159.817 92.1681M110.854 89.8861C110.203 86.7892 109.227 84.0182 108.088 81.2473C107.6 80.2693 106.299 79.9433 105.648 80.5953C104.998 81.0843 104.835 82.0622 105.16 83.5292C105.811 85.6482 106.462 87.6042 106.787 89.3971M115.083 92.6571C114.27 88.4192 113.131 84.3442 111.504 80.5953C111.016 79.4543 109.715 79.2913 109.064 79.9433C108.414 80.4323 108.251 81.4103 108.576 82.8772M164.209 35.608C162.583 41.6389 161.607 46.6918 160.468 51.2557M147.942 35.608C149.569 41.6389 150.545 46.6918 151.684 51.2557M196.418 67.5555C191.863 68.3705 187.634 68.8595 182.754 69.6744M115.734 67.5555C120.289 68.3705 124.518 68.8595 129.398 69.6744M196.906 79.6173C191.701 78.8023 187.797 78.4763 183.567 77.9873M115.408 79.6173C120.614 78.8023 124.518 78.4763 128.747 77.9873M135.092 113.684C121.59 106.023 113.294 91.6791 113.294 76.1943C113.294 52.3967 132.651 33 156.401 33C180.151 33 199.509 52.3967 199.509 76.1943C199.509 90.2121 192.677 103.252 181.452 111.402M101.256 139.111C107.926 140.578 113.782 139.274 118.499 135.199M104.022 114.662C109.715 116.292 115.408 114.01 118.499 109.446M103.534 121.671C110.203 123.464 116.222 120.53 120.126 115.64M102.72 129.984C110.04 131.776 116.873 129.006 121.59 124.279M132.163 65.7625C138.996 59.4056 150.545 59.7316 154.124 65.1105C153.473 73.9124 152.985 80.5953 152.66 85.4852C154.449 86.3002 155.913 86.6262 157.377 86.1372M175.596 101.948C171.367 94.2871 166.975 89.2341 159.492 85.3222C159.167 80.4323 158.841 73.7494 158.028 64.9475C161.607 59.5686 173.319 59.0796 180.639 64.7845M136.718 101.948C140.785 94.4501 145.502 89.3971 152.823 85.6482M140.297 105.371C140.785 104.23 141.598 102.437 142.249 101.296M142.249 101.296C142.412 100.97 142.574 100.644 142.737 100.481C145.665 95.428 150.22 91.0271 156.076 88.4192C163.884 91.8421 168.927 98.688 172.343 106.186M142.249 101.296C143.55 103.741 145.99 107.001 144.689 110.261C143.388 114.01 138.833 116.292 135.254 119.878M161.769 95.917C164.209 102.111 166.975 110.261 168.114 114.336M149.894 96.406C147.617 103.415 146.153 108.794 145.014 113.032M152.335 96.895C150.545 105.534 149.406 112.054 148.756 116.455M159.329 96.732C161.607 106.186 163.233 112.869 163.884 117.922M154.612 97.058C154.124 107.816 153.799 115.477 153.636 119.878M157.052 97.058C158.028 107.001 158.841 114.662 159.329 120.53M186.983 253.536C186.007 266.249 191.701 273.258 200.159 277.659C209.269 282.223 220.331 286.461 224.072 290.373C221.957 282.712 220.493 271.139 220.331 264.945C219.192 245.549 220.493 234.302 210.082 220.773C204.064 212.949 194.629 206.592 183.567 202.843C182.591 197.138 182.266 192.086 182.103 186.87C181.94 184.914 181.94 182.469 181.778 180.513C190.562 184.751 199.021 182.632 203.576 178.231C208.293 173.667 210.082 165.028 209.269 155.574C207.642 138.785 197.069 121.508 178.199 109.12C174.132 106.512 173.482 105.697 176.572 99.992C180.639 91.8421 183.242 83.0402 184.055 73.4234M158.516 121.019C159.004 128.843 159.167 135.851 159.329 141.719M143.713 111.891C147.454 115.803 152.009 119.878 157.052 121.508C162.095 120.204 165.999 116.781 170.716 111.565M139.646 116.129C144.364 118.9 148.105 122.16 150.708 126.072C153.473 130.473 154.937 135.688 155.588 142.045M176.735 116.292C173.482 113.521 169.578 111.402 168.439 108.305C167.463 105.697 168.602 103.252 169.74 101.133M226.349 234.628C223.909 235.606 220.819 235.606 217.402 234.954M82.0612 228.76C84.5012 230.553 87.1039 231.531 89.7066 231.694M213.498 204.31C211.221 205.777 209.757 208.548 209.757 211.319C209.757 216.209 213.824 220.284 218.867 220.61C221.469 220.773 223.909 219.632 225.699 217.839M96.3761 201.213C98.8162 203.006 100.118 205.777 100.28 208.548C100.28 213.438 96.3761 217.187 91.3333 217.024C88.568 216.861 85.9652 215.557 84.1759 213.275M213.661 226.152C215.288 226.967 217.728 227.293 218.867 227.293C221.632 227.456 224.397 226.804 226.675 225.663M205.202 201.213C203.413 203.821 202.274 206.918 202.274 210.341C202.274 211.319 202.437 212.134 202.6 213.112M94.9121 223.544C93.7734 223.707 92.6347 223.87 91.3333 223.707C88.0799 223.544 84.9892 222.403 82.2238 220.61M104.672 198.931C106.624 201.702 107.763 204.962 107.763 208.385C107.763 210.504 107.438 212.46 106.624 214.416M122.403 152.314C121.427 158.834 116.71 162.583 110.366 163.887M103.208 158.019C111.016 158.508 117.361 154.433 118.499 147.913M123.705 161.931C124.843 157.53 123.217 151.988 119.801 149.054C117.198 146.772 113.619 146.12 110.366 147.098C108.739 151.01 104.51 151.173 100.606 150.358M116.385 141.067C118.825 132.102 123.217 124.768 129.561 118.574C132.163 115.966 138.182 111.239 139.484 108.142C139.972 107.001 139.321 106.349 138.833 105.371C132.977 95.754 129.398 84.9962 128.259 73.2604C134.278 45.3878 175.108 40.9869 184.055 73.2604M99.3042 290.373C122.566 299.99 143.062 299.99 154.937 299.99M154.937 299.99C165.511 299.99 181.778 300.805 205.853 287.765M154.937 299.99C143.225 299.827 122.891 297.871 108.576 285.809M154.937 299.99C165.511 299.99 183.567 296.893 196.255 283.364M115.083 280.919C127.121 291.025 145.014 292.818 155.1 292.492C164.047 292.166 180.151 289.232 190.074 278.963M119.313 273.91C130.862 283.364 144.364 284.831 154.612 284.505C163.559 284.179 175.271 281.571 185.357 273.91M121.265 264.619C130.862 274.888 146.966 276.681 154.449 276.518C163.396 276.355 172.506 274.073 181.615 266.901M127.446 258.752C133.953 264.945 146.966 268.531 154.449 268.368C163.396 268.205 171.042 265.923 179.988 258.426M131.513 251.254C137.206 256.633 146.804 259.241 154.287 259.078C163.233 258.915 171.53 255.981 180.476 248.32M133.79 243.104C145.177 251.417 162.583 252.558 176.084 241.637M133.953 233.487C145.34 243.43 162.42 243.593 173.807 234.628M149.894 173.993C153.473 175.786 158.028 175.949 162.257 174.482M149.406 182.632C152.985 184.588 157.865 185.077 162.257 183.447M148.756 192.412C152.823 194.368 157.865 194.857 162.257 193.227M148.268 202.517C152.497 204.636 158.191 205.125 162.745 203.006M147.617 212.46C152.497 214.416 158.516 214.905 163.396 212.786M147.292 222.403C154.287 225.011 162.257 224.359 168.764 219.469M134.278 224.685C146.153 235.28 162.583 236.258 173.97 225.174M198.37 199.746C195.93 201.702 194.629 204.31 193.978 207.244M111.504 197.953C114.758 200.887 116.385 205.288 116.385 209.363M189.423 193.227C186.821 192.738 184.055 193.064 182.428 194.694M189.423 193.227C188.285 188.174 187.797 185.24 187.146 182.306M189.423 193.227C191.538 194.042 193.815 196.649 194.141 199.094C195.93 199.42 195.605 199.257 197.231 199.583C208.618 201.865 215.613 204.147 221.144 209.852C227.976 217.187 227.488 226.641 225.699 241.148C224.885 248.646 219.192 262.826 224.072 290.047M121.59 192.575C125.494 192.575 128.097 193.553 129.886 195.509M194.141 198.931C190.237 199.42 186.658 200.072 183.567 202.68M117.686 197.301C121.427 199.746 123.542 202.843 124.355 206.755M125.982 158.671C125.169 167.962 124.03 177.416 121.59 192.738C119.475 193.227 118.011 195.183 117.686 197.464C103.371 198.768 94.9121 200.072 88.8933 206.266C78.8078 216.209 81.4105 232.02 86.4533 262.826M132.326 225.174C137.206 242.289 131.838 256.959 120.777 264.782M129.561 118.737C135.092 119.063 140.948 121.997 144.852 127.05C147.942 131.125 149.894 136.34 150.708 142.534M162.908 160.79L159.817 160.953L159.329 151.336L172.18 150.358L173.156 157.856M162.42 165.517L155.425 165.68L154.449 147.098L176.735 145.468L179.012 163.072M162.257 170.244L150.871 170.733L149.569 142.697L180.964 139.926L184.706 164.05M224.072 290.21C224.723 293.144 225.699 296.241 227 299.338C222.933 294.937 210.082 289.395 199.834 284.994C184.218 277.985 177.711 265.76 180.802 248.646M119.475 257.611C123.217 271.302 117.686 280.104 110.04 284.831C101.744 289.884 91.3333 292.818 88.2426 296.893C89.2186 289.232 88.7306 280.593 88.0799 274.399C85.6399 255.166 83.3625 241.474 91.984 227.619C98.6535 216.861 114.27 208.874 129.073 205.451C131.513 179.372 132.977 162.583 133.14 151.499C133.302 139.926 126.633 133.732 118.337 136.014M119.963 230.064C121.753 235.28 121.102 244.245 118.337 249.298C113.294 257.774 101.582 259.078 96.8641 268.368C95.5628 270.976 94.7494 274.399 94.7494 278.637M112.643 262.989C116.71 279.452 98.1655 280.756 94.7494 285.809C95.0748 280.756 94.5867 275.866 94.0987 271.791C93.2854 264.13 92.472 257.448 92.472 251.58C92.3094 241.637 95.5628 232.02 105.486 224.033C111.992 218.817 121.753 214.579 135.092 211.156C137.532 183.936 138.345 165.028 138.996 151.662C139.321 144.979 138.02 139.274 135.254 135.525C131.675 130.473 125.819 128.843 120.777 130.147M180.802 223.544C179.175 229.901 179.663 236.747 183.567 241.637C187.309 246.201 192.026 248.646 196.743 251.091C201.298 253.536 206.829 255.655 210.57 261.034C212.522 263.641 213.986 267.064 214.8 271.465M193.653 256.796C193.327 263.152 195.93 266.738 199.509 269.509C205.365 274.073 213.661 275.54 216.264 278.637C214.962 273.421 214.312 268.531 213.986 264.293C213.498 257.448 213.498 250.276 212.848 244.571C212.034 237.073 209.757 230.064 204.064 223.87C197.557 216.861 188.447 211.319 176.735 207.244C175.596 198.116 174.946 190.456 174.62 173.83M186.821 226.804C186.17 230.879 186.821 234.954 188.935 238.214C191.05 241.311 194.303 243.104 197.394 244.734C201.461 246.853 205.365 248.483 207.642 250.602C207.805 241.8 206.341 235.769 200.322 229.249C193.978 222.403 184.218 216.698 170.716 212.949C168.602 198.279 167.951 181.002 168.602 161.116C172.831 167.473 178.85 170.57 185.031 169.592C188.122 169.103 191.05 167.799 193.978 165.517C199.346 161.116 208.456 164.213 207.317 172.526M114.432 233.813C114.92 237.725 114.758 241.963 113.456 244.897C109.715 252.884 101.907 254.188 99.4668 257.774C98.4908 252.884 98.8162 247.668 100.118 243.593C101.094 240.333 102.558 237.236 104.672 234.628C111.342 226.315 123.217 219.958 141.273 216.698C142.412 197.464 143.713 177.579 145.34 156.226C145.99 144.001 144.038 135.199 139.321 129.658C135.742 125.583 130.211 123.138 124.681 124.442M106.299 267.39C106.787 269.02 106.299 270.487 105.323 271.628C104.184 273.095 102.07 273.584 101.256 274.725C101.907 270.65 104.835 268.205 110.04 264.782C113.131 262.663 118.987 259.73 123.054 254.025C127.121 248.32 129.398 239.844 126.307 227.619M201.624 261.359C201.624 262.989 202.274 263.804 203.25 264.782C204.552 266.249 206.341 266.738 207.317 267.716C206.016 263.641 202.437 261.36 196.418 258.263C189.261 254.514 168.114 247.668 174.783 221.262M164.047 141.393C165.348 137.481 165.836 133.08 166.812 129.169C168.602 121.508 172.668 117.107 177.711 116.129C182.591 114.988 187.797 116.292 191.701 120.53M170.228 140.741C172.994 137.481 174.62 132.428 175.759 128.191C177.06 122.812 179.988 120.041 183.567 119.063C186.983 118.085 190.562 119.063 193.327 121.997M177.711 140.252C180.314 138.133 181.29 135.362 182.266 132.102C184.38 123.301 192.351 121.345 197.069 126.561M181.452 144.164C181.778 144.001 182.103 144.001 182.266 143.838C184.543 142.534 185.519 140.904 186.821 137.807C190.237 129.332 198.37 128.68 202.274 134.384M182.591 150.521C183.242 150.358 183.73 150.358 184.381 150.032C186.983 149.054 188.122 147.587 189.911 144.49C194.629 136.34 203.088 136.666 206.341 143.186M183.567 157.204C184.218 157.204 184.706 157.041 185.357 156.878C187.959 156.063 189.261 154.759 191.375 151.825C196.906 143.838 205.853 145.468 208.781 152.64M194.141 231.694C194.141 233.487 194.629 235.117 195.442 236.258C196.743 237.888 198.858 238.703 199.997 239.681C197.557 233.161 191.538 229.086 185.194 225.663C177.548 221.751 173.482 220.284 163.884 218.491C162.583 200.072 161.119 178.068 163.071 158.508C163.721 152.64 169.578 151.662 172.831 156.715C175.434 162.094 180.151 164.539 184.869 163.724C187.146 163.398 189.423 162.094 191.538 159.975C197.882 152.477 206.992 155.085 209.432 162.094M150.383 163.561C148.918 188.174 147.617 205.288 147.454 222.403C135.417 223.707 125.331 226.641 118.011 231.205C111.992 234.954 106.299 240.333 104.672 246.364C106.299 244.734 108.902 242.289 108.739 239.029M168.439 66.2515C166.649 66.2515 165.185 67.7185 165.185 69.3484C165.185 71.1414 166.649 72.4454 168.439 72.4454C170.228 72.4454 171.692 70.9784 171.692 69.3484C171.53 67.7185 170.228 66.2515 168.439 66.2515ZM144.038 66.0885C145.828 66.0885 147.292 67.5555 147.292 69.1854C147.292 70.9784 145.828 72.2824 144.038 72.2824C142.249 72.2824 140.785 70.8154 140.785 69.1854C140.785 67.5555 142.249 66.0885 144.038 66.0885ZM159.655 69.8374C163.559 61.5246 172.668 62.1766 177.548 70.0004C172.343 77.0093 163.071 76.5203 159.655 69.8374ZM153.311 70.0004C149.406 61.6876 138.508 61.5246 134.441 70.4894C139.972 76.6833 148.918 76.6833 153.311 70.0004ZM219.029 209.526C217.565 209.526 216.264 210.667 216.264 212.134C216.264 213.601 217.565 214.905 219.029 215.068C220.493 215.231 221.795 213.927 221.795 212.46C221.957 210.83 220.656 209.526 219.029 209.526ZM90.8453 205.94C92.472 205.94 93.6107 207.244 93.6107 208.874C93.6107 210.341 92.3094 211.645 90.8453 211.482C89.3813 211.319 88.0799 210.178 88.0799 208.548C88.0799 207.081 89.3813 205.777 90.8453 205.94Z" stroke="#292526" stroke-width="1.62" stroke-miterlimit="22.926"/>
<path fill-rule="evenodd" clip-rule="evenodd" d="M32.2762 0L26.9561 5.31827L22.985 1.18965L22.7534 0.948836H22.4192L1.78111 0.948835H0.996109L0.996109 1.73384L0.996109 22.0032L0.996108 22.3284L1.22612 22.5583L5.37772 26.7085L1.22612 30.8587L0.996108 31.0887L0.996108 31.4139L0.996107 52.0452L0.996107 52.8302H1.78111L22.0572 52.8302H22.3823L22.6122 52.6004L26.7641 48.4498L32.5332 54.2169L26.8674 59.8808L22.985 55.8445L22.7534 55.6036H22.4192L1.78111 55.6036H0.996107L0.996107 56.3886L0.996106 76.658L0.996106 76.9855L1.22886 77.2159L5.39816 81.3429L1.22612 85.5135L0.996106 85.7435L0.996106 86.0687L0.996105 106.7L0.996105 107.485H1.7811H22.0572H22.3823L22.6122 107.255L26.8546 103.014L32.5332 108.691L26.8674 114.355L22.985 110.318L22.7534 110.077H22.4192H1.7811H0.996105L0.996105 110.862L0.996104 131.132L0.996104 131.459L1.22886 131.69L5.39816 135.817L1.22612 139.987L0.996103 140.217L0.996103 140.543L0.996102 161.174L0.996102 161.959H1.7811H22.0572H22.3823L22.6122 161.729L26.7641 157.578L32.5332 163.346L26.9562 168.921L22.985 164.792L22.7534 164.551H22.4192H1.7811H0.996102L0.996102 165.336L0.996101 185.606L0.996101 185.933L1.22886 186.164L5.39817 190.291L1.22612 194.461L0.996101 194.691L0.996101 195.016L0.9961 215.648L0.9961 216.433H1.7811H22.0572H22.3823L22.6122 216.203L26.7641 212.052L32.5332 217.819L26.9561 223.395L22.985 219.266L22.7534 219.025H22.4192H1.7811H0.9961L0.9961 219.81L0.996099 240.079L0.996099 240.407L1.22885 240.637L5.39816 244.764L1.22611 248.935L0.996099 249.165L0.996099 249.49L0.996098 269.941L0.996098 270.726H1.7811H22.0572H22.3822L22.6122 270.496L26.6736 266.436L32.5332 272.293L26.8674 277.957L22.985 273.921L22.7534 273.68H22.4192H1.7811H0.996098L0.996097 274.465L0.996097 294.734L0.996097 295.062L1.22885 295.292L5.39814 299.419L1.22611 303.59L0.996096 303.82L0.996096 304.145L0.996094 324.776V325.561H1.7811H22.0572H22.3822L22.6122 325.332L26.8546 321.09L32.5332 326.767L26.9561 332.342L22.985 328.214L22.7534 327.973H22.4192H1.78109H0.996094V328.758V349.027V349.352L1.22611 349.582L6.6572 355.012L7.76717 353.901L2.56609 348.702L2.56609 329.543H22.0851L25.8456 333.452L20.1563 339.14L18.9914 337.975L18.7531 337.737L18.4163 337.746L11.3559 337.927L10.591 337.946V338.712V345.227V345.552L10.821 345.782L20.2349 355.193L21.3449 354.082L21.2666 354.004L26.9342 348.338L30.9053 352.467L31.1369 352.708H31.4711H52.1092H52.8942V351.923V331.653V331.326L52.6615 331.096L48.0373 326.518L52.4832 322.074L52.7132 321.844V321.519V301.249V300.464H51.9282H31.6521H31.327L31.0971 300.694L26.7641 305.026L21.2666 299.53L26.9341 293.865L30.9053 297.993L31.1369 298.234H31.4711H52.1092H52.8942V297.449V277.18V276.852L52.6615 276.622L48.0373 272.044L52.4832 267.6L52.7132 267.37V267.045V246.776V245.991H51.9282H31.6521H31.327L31.0971 246.22L26.8547 250.461L21.2666 244.875L26.9342 239.21L30.9053 243.338L31.1369 243.579H31.4711H52.1092H52.8942V242.794L52.8942 222.525V222.197L52.6615 221.967L48.1283 217.48L52.4832 213.126L52.7132 212.896V212.571V192.302V191.517H51.9282H31.6521H31.327L31.0971 191.747L26.8547 195.988L21.2666 190.401L26.9342 184.736L30.9053 188.864L31.1369 189.105H31.4711H52.1092H52.8942V188.32V168.051V167.723L52.6615 167.493L48.0374 162.916L52.4832 158.471L52.7132 158.242V157.916V137.647V136.862H51.9282H31.6521H31.327L31.0971 137.092L26.7641 141.423L21.2666 135.928L26.9342 130.262L30.9053 134.391L31.1369 134.631H31.4711H52.1092H52.8942V133.846V113.577V113.25L52.6615 113.019L48.0374 108.442L52.4832 103.998L52.7132 103.768V103.442L52.7132 83.1731V82.3881H51.9282H31.6521H31.327L31.0971 82.618L26.7641 86.9495L21.2666 81.4538L26.9342 75.7882L30.9053 79.9168L31.1369 80.1576H31.4711H52.1092H52.8942V79.3726V59.1033V58.7758L52.6615 58.5454L48.1283 54.0582L52.4832 49.7048L52.7132 49.4748V49.1496V28.6993V27.9143H51.9282H31.6521H31.327L31.0971 28.1441L26.8546 32.3852L21.2666 26.799L26.9342 21.1334L30.9053 25.262L31.1369 25.5028H31.4711H52.1092H52.8942V24.7178V4.44849V4.12097L52.6615 3.89058L48.7311 0H46.4994L51.3242 4.77599V23.9328H31.8052L28.0447 20.0232L33.553 14.5168L34.8989 15.8622L35.1372 16.1004L35.474 16.0918L42.5344 15.9108L43.2993 15.8912V15.1261L43.2993 8.61093V8.28569L43.0693 8.05576L35.0108 0H32.2762ZM35.7706 14.5137L34.6633 13.4068L40.4324 7.63966L41.7293 8.93616V14.3609L35.7706 14.5137ZM33.6435 0.853072L39.322 6.52969L20.1563 25.6891L14.4778 20.0124L33.6435 0.853072ZM19.1365 13.1353L13.3674 18.9024L12.161 17.6965V12.2717L18.1197 12.1189L19.1365 13.1353ZM25.8456 6.42844L20.2468 12.0254L18.9914 10.7704L18.7532 10.5322L18.4163 10.5408L11.3559 10.7218L10.591 10.7414V11.5065V18.0217V18.3469L10.8211 18.5769L25.7443 33.4951L20.0658 39.1718L2.56611 21.6779L2.56611 2.51884L22.0851 2.51884L25.8456 6.42844ZM13.2554 34.5836L18.9554 40.2818L17.7493 41.4875H11.98V35.7428L13.2554 34.5836ZM6.48806 27.8185L12.1438 33.4724L10.667 34.8145L10.41 35.0481V35.3954V42.2725V43.0575H11.195H18.0744H18.3995L18.6294 42.8277L31.9772 29.4843H51.1432V48.8244L47.0125 52.9537L41.397 47.395L43.2503 45.5423L43.4803 45.3124V44.9871V38.472V37.687H42.6953H35.6349H35.3098L35.0799 37.9168L21.7321 51.2602L2.56611 51.2602L2.56611 31.7391L6.48806 27.8185ZM41.9103 44.6619L40.2812 46.2905L34.5747 40.6419L35.96 39.257H41.9103V44.6619ZM27.8745 47.3398L33.4643 41.7518L51.3242 59.4308V78.5876H31.8052L28.0447 74.678L33.6435 69.0811L34.8989 70.336L35.1372 70.5742L35.474 70.5656L42.5344 70.3846L43.2993 70.3651V69.5999V63.0847V62.7595L43.0693 62.5296L27.8745 47.3398ZM35.7706 68.9875L34.7539 67.9711L40.5229 62.204L41.7293 63.41V68.8348L35.7706 68.9875ZM33.6435 55.3269L39.4126 61.094L20.1563 80.3439L14.3873 74.5767L33.6435 55.3269ZM19.046 67.6996L13.2769 73.4668L12.161 72.3513V66.9265L18.1198 66.7738L19.046 67.6996ZM25.7569 60.991L20.1563 66.5897L18.9914 65.4252L18.7531 65.187L18.4163 65.1956L11.3559 65.3766L10.591 65.3962V66.1613V72.6765V73.0017L10.8211 73.2317L25.6538 88.0595L20.0622 93.6492L2.56611 76.3305L2.56611 57.1736L22.0851 57.1736L25.7569 60.991ZM13.2222 89.0877L18.9518 94.7592L17.7493 95.9613H11.98V90.2166L13.2222 89.0877ZM6.51397 82.4474L12.1048 87.9816L10.667 89.2883L10.41 89.5219V89.8692V96.7463V97.5313H11.195H18.0744H18.3995L18.6294 97.3015L31.9772 83.9581H51.1432L51.1432 103.117L46.9215 107.337L41.4879 101.959L43.2503 100.197L43.4803 99.9672V99.6419V93.1268V92.3418H42.6953H35.6349H35.3098L35.0799 92.5717L21.7321 105.915H2.5661L2.56611 86.394L6.51397 82.4474ZM41.9103 99.3167L40.3721 100.854L34.6656 95.2057L35.96 93.9118H41.9103V99.3167ZM27.965 101.904L33.5553 96.3157L51.3242 113.905V133.061H31.8052L28.0447 129.152L33.6435 123.555L34.8989 124.81L35.1372 125.048L35.474 125.039L42.5344 124.858L43.2993 124.839V124.074V117.559V117.233L43.0693 117.003L27.965 101.904ZM35.7706 123.461L34.7538 122.445L40.5229 116.678L41.7293 117.884V123.309L35.7706 123.461ZM33.6435 109.801L39.4125 115.568L20.1563 134.818L14.3873 129.051L33.6435 109.801ZM19.046 122.173L13.2769 127.941L12.161 126.825V121.4L18.1198 121.248L19.046 122.173ZM25.7569 115.465L20.1563 121.064L18.9914 119.899L18.7532 119.661L18.4163 119.669L11.3559 119.85L10.591 119.87V120.635V127.15V127.476L10.8211 127.706L25.6538 142.533L20.0622 148.123L2.5661 130.804L2.5661 111.647H22.0851L25.7569 115.465ZM13.2222 143.562L18.9518 149.233L17.7493 150.435H11.98V144.69L13.2222 143.562ZM6.51396 136.921L12.1048 142.455L10.667 143.762L10.41 143.996V144.343V151.22V152.005H11.195H18.0744H18.3995L18.6294 151.775L31.9772 138.432H51.1432V157.591L46.9215 161.811L41.4879 156.433L43.2503 154.671L43.4803 154.441V154.116V147.601V146.816H42.6953H35.6349H35.3098L35.0799 147.045L21.7321 160.389H2.5661L2.5661 140.868L6.51396 136.921ZM41.9103 153.791L40.3721 155.328L34.6656 149.68L35.96 148.386H41.9103V153.791ZM27.8745 156.468L33.5553 150.79L51.3242 168.378V187.535H31.8052L28.0447 183.626L33.553 178.119L34.8989 179.465L35.1372 179.703L35.474 179.694L42.5344 179.513L43.2993 179.494V178.729V172.213V171.888L43.0693 171.658L27.8745 156.468ZM35.7706 178.116L34.6633 177.009L40.4324 171.242L41.7293 172.539V177.963L35.7706 178.116ZM33.6435 164.456L39.322 170.132L20.1563 189.292L14.4778 183.615L33.6435 164.456ZM19.1365 176.738L13.3674 182.505L12.161 181.299V175.874L18.1198 175.721L19.1365 176.738ZM25.8456 170.031L20.2468 175.628L18.9914 174.373L18.7531 174.135L18.4163 174.143L11.3559 174.324L10.591 174.344V175.109V181.624V181.949L10.821 182.179L25.7443 197.098L20.1531 202.687L2.5661 185.278L2.5661 166.121H22.0851L25.8456 170.031ZM13.3175 198.13L19.0428 203.797L17.7493 205.09H11.98V199.345L13.3175 198.13ZM6.51397 191.395L12.2002 197.024L10.667 198.417L10.41 198.651V198.998V205.875V206.66H11.195H18.0744H18.3995L18.6294 206.43L31.9772 193.087H51.1432V212.246L47.0125 216.375L41.4879 210.907L43.2503 209.145L43.4803 208.915V208.59V202.074V201.289H42.6953H35.6349H35.3098L35.0799 201.519L21.7321 214.863H2.5661L2.5661 195.342L6.51397 191.395ZM41.9103 208.264L40.3721 209.802L34.6656 204.153L35.96 202.859H41.9103V208.264ZM27.8745 210.942L33.5553 205.263L51.3242 222.852L51.3242 242.009H31.8052L28.0447 238.1L33.553 232.593L34.8989 233.939L35.1372 234.177L35.474 234.168L42.5344 233.987L43.2993 233.967V233.202V226.687V226.362L43.0693 226.132L27.8745 210.942ZM35.7706 232.59L34.6633 231.483L40.4324 225.716L41.7293 227.012V232.437L35.7706 232.59ZM33.6435 218.929L39.322 224.606L20.1563 243.765L14.4778 238.089L33.6435 218.929ZM19.1365 231.212L13.3674 236.979L12.161 235.773V230.348L18.1197 230.195L19.1365 231.212ZM25.8456 224.505L20.2468 230.102L18.9914 228.847L18.7531 228.609L18.4163 228.617L11.3559 228.798L10.591 228.818V229.583V236.098V236.423L10.821 236.653L25.7443 251.571L20.1531 257.161L2.5661 239.752L2.5661 220.595H22.0851L25.8456 224.505ZM13.3175 252.604L19.0428 258.271L17.7493 259.564H11.98V253.819L13.3175 252.604ZM6.51397 245.869L12.2001 251.497L10.667 252.891L10.41 253.124V253.472V260.349V261.134H11.195H18.0744H18.3995L18.6294 260.904L31.9772 247.561H51.1432V266.72L46.9215 270.94L41.306 265.381L43.2503 263.438L43.4803 263.208V262.882V256.367V255.582H42.6953H35.6349H35.3098L35.0799 255.812L21.7321 269.156H2.5661L2.5661 249.815L6.51397 245.869ZM41.9103 262.557L40.1902 264.277L34.4837 258.628L35.96 257.152H41.9103V262.557ZM27.7839 265.326L33.3733 259.738L51.3242 277.507V296.664H31.8052L28.0447 292.754L33.6435 287.157L34.8989 288.412L35.1372 288.651L35.474 288.642L42.5344 288.461L43.2993 288.441V287.676V281.161V280.836L43.0693 280.606L27.7839 265.326ZM35.7706 287.064L34.7538 286.047L40.5229 280.28L41.7293 281.486V286.911L35.7706 287.064ZM33.6435 273.403L39.4125 279.17L20.1563 298.42L14.3872 292.653L33.6435 273.403ZM19.0459 285.776L13.2769 291.543L12.161 290.428V285.003L18.1197 284.85L19.0459 285.776ZM25.7569 279.067L20.1563 284.666L18.9914 283.502L18.7531 283.263L18.4163 283.272L11.3559 283.453L10.591 283.473V284.238V290.753V291.078L10.821 291.308L25.6537 306.136L20.0622 311.726L2.5661 294.407L2.5661 275.25H22.0851L25.7569 279.067ZM13.2222 307.164L18.9518 312.836L17.7493 314.038H11.98V308.293L13.2222 307.164ZM6.51395 300.524L12.1048 306.058L10.667 307.365L10.41 307.598V307.946V314.823V315.608H11.195H18.0744H18.3995L18.6294 315.378L31.9772 302.034H51.1432V321.194L46.9215 325.414L41.4879 320.035L43.2503 318.273L43.4803 318.044V317.718L43.4803 311.203V310.418H42.6953H35.6349H35.3098L35.0799 310.648L21.7321 323.991H2.56609L2.5661 304.47L6.51395 300.524ZM41.9103 317.393L40.3721 318.931L34.6656 313.282L35.96 311.988H41.9103L41.9103 317.393ZM27.9649 319.98L33.5553 314.392L51.3242 331.981V351.138H31.8052L28.0447 347.228L33.6435 341.631L34.8989 342.886L35.1372 343.124L35.474 343.116L42.5344 342.935L43.2993 342.915V342.15V335.635V335.31L43.0693 335.08L27.9649 319.98ZM35.7706 341.538L34.7538 340.521L40.5229 334.754L41.7293 335.96L41.7293 341.385L35.7706 341.538ZM33.6435 327.877L39.4126 333.644L20.1563 352.894L14.3873 347.127L33.6435 327.877ZM19.046 340.25L13.2769 346.017L12.161 344.901V339.477L18.1197 339.324L19.046 340.25Z" fill="#189387"/>
</svg>
