<svg width="425" height="392" viewBox="0 0 425 392" fill="none" xmlns="http://www.w3.org/2000/svg">
<path fill-rule="evenodd" clip-rule="evenodd" d="M164 390.66V340.523C100.116 334.953 50 281.329 50 216C50 150.671 100.116 97.0472 164 91.4773V41.3401C72.4746 47.0167 -7.09218e-06 123.045 -1.52186e-05 216C-2.3345e-05 308.955 72.4746 384.983 164 390.66Z" fill="#DD264E"/>
<path d="M95.3482 211.15C102.337 213.147 110.34 214.333 119.362 214.705M254.887 258.928C253.94 252.859 253.042 246.208 252.239 239.686C253.114 237.936 256.141 237.805 257.073 239.76C259.005 247.175 259.759 253.627 260.609 259.01C270.345 255.692 279.028 259.282 278.113 267.24C272.77 265.021 266.858 268.339 259.833 270.44C252.807 272.538 243.649 273.724 237.101 268.662C226.452 273.773 227.638 290.298 241.884 293.244C269.909 297.508 293.904 295.551 313.56 287.243M249.188 259.029C248.396 253.011 247.218 246.183 246.668 239.762C247.542 238.012 251.002 237.841 252.239 239.644M242.725 259.434C241.933 253.416 241.06 246.487 240.512 240.066C241.386 238.316 245.151 237.816 246.769 239.899M236.999 268.764C235.576 259.552 234.692 250.071 234.355 240.319C235.228 238.569 238.995 238.069 240.613 240.152M220.33 192.829C214.635 222.95 216.364 248.882 225.31 271.44M184.999 218.988C191.682 232.058 196.669 242.284 199.959 249.666M223.602 135.442C223.941 127.332 224.541 120.288 224.933 113.004M189.96 155.365C183.283 154.688 179.565 154.544 173.568 153.974M254.097 154.466C260.575 153.636 266.782 152.703 272.72 151.671M216.845 135.982C215.296 126.532 214.676 121.262 213.669 114.1M190.896 160.741C182.811 161.303 178.565 161.596 172.621 162.179M254.198 159.952C262.303 159.884 268.919 160.019 274.042 160.357M218.378 182.06C222.55 183.008 225.876 182.856 229.42 181.604M201.145 155.137C203.217 152.67 206.265 152.115 208.907 151.963C214.718 151.623 220.133 155.561 219.925 161.843C219.859 165.598 219.925 170.012 219.817 174.873C220.728 176.272 222.8 177.969 224.38 178.556C225.873 177.507 227.028 176.424 227.841 175.002C227.163 170.261 226.483 166.062 225.907 162.405C224.687 148.725 239.986 147.268 246.261 157.022M307.114 289.69C303.756 300.727 299.753 308.989 294.904 314.882M285.032 294.45C282.115 302.745 278.247 309.552 273.431 314.867M182.736 261.627C172.797 279.166 159.398 290.79 141.726 296.953M226.416 192.88C243.479 207.644 254.775 220.782 259.389 225.59M287.737 280.354C304.409 277.855 309.696 257.526 296.683 245.708C268.553 218.492 239.395 196.517 231.805 191.383M193.854 264.802C186.425 285.793 171.695 302.606 150.833 314.932M260.71 295.072C257.963 302.658 253.247 309.295 246.566 314.983M240.715 292.824C239.171 299.41 235.084 306.774 228.451 314.92M194.623 201.316C183.08 193.794 172.441 179.645 172.441 163.652C172.441 135.684 195.207 113 223.276 113C251.347 113 274.111 135.684 274.111 163.652C274.111 176.656 269.087 189.173 260.086 198.585M210.517 268.907C208.28 288.088 200.154 303.258 188.429 314.873M115.903 225.59C104.676 223.931 96.5006 221.985 89.548 219.581C86.9869 220.191 85.8175 221.884 86.023 224.638C111.982 234.7 135.195 241.117 155.462 243.884M106.213 218.743C100.657 217.886 95.81 216.691 91.48 215.06C91.2767 213.012 93.2616 211.21 95.5516 211.302C95.1279 209.405 96.382 207.653 98.8076 207.265C108.51 209.065 117.159 209.759 123.841 209.895M105.98 223.796C105.184 221.611 106.084 217.702 107.66 216.533C111.156 216.619 114.768 216.89 118.549 217.295M160.781 219.699C151.486 212.723 142.192 208.185 132.999 206.289C127.334 207.746 122.959 209.947 119.873 212.791C118.718 216.786 117.973 220.917 117.634 225.183C123.976 225.455 127.3 222.882 127.503 217.464C129.37 216.719 131.304 215.568 133.306 214.008C135.373 217.599 138.324 220.104 142.158 221.527M169.431 215.532C181.845 239.675 196.192 254.879 210.235 261.549C211.21 242.974 200.065 229.383 201.609 215.473C202.849 204.324 209.087 197.04 214.534 191.005M160.576 222.135C168.378 232.26 177.027 243.468 186.73 256.167M232.021 272.453L225.92 228.286L264.759 225.246L269.334 257.667M234.258 190.142C307.188 237.284 312.137 234.903 314.984 314.595M207.416 186.953C195.69 197.893 187.422 211.469 185.05 219.167C181.315 217.24 176.612 215.355 170.844 214.021C170.397 214.435 169.973 215.026 169.583 215.72C166.497 214.587 163.614 213.842 160.934 213.436C161.394 223.152 159.021 235.173 153.532 249.355C175.424 260.768 201.791 268.536 232.631 272.656M238.272 187.409C264.352 202.298 293.647 213.223 304.502 224.898C318.46 239.912 319.102 260.371 322 315L141.79 314.949C138.621 296.495 144.991 276.506 160.851 253.005M206.107 159.553C206.24 159.405 206.384 159.27 206.535 159.145C208.32 157.681 211.193 157.877 212.536 159.511C210.987 161.503 207.441 161.461 206.107 159.553ZM239.029 158.472C237.45 156.737 234.461 156.822 233.131 158.451C234.557 160.275 237.811 160.226 239.029 158.472ZM202.605 159.468C202.878 159.093 203.173 158.744 203.48 158.43C207.128 154.702 213.002 155.205 215.75 159.369C212.589 164.441 205.338 164.332 202.605 159.468ZM242.24 158.384C239.012 153.968 232.902 154.179 230.182 158.331C233.095 162.974 239.749 162.852 242.24 158.384ZM223.912 193.059C210.583 192.455 200.982 183.014 198.779 164.88C198.165 167.135 195 167.177 193.828 165.915C190.382 162.033 188.318 153.301 191.651 150.892C191.932 150.69 192.572 150.557 193.182 150.686C202.402 131.978 238.73 129.616 250.932 148.457C255.08 149.571 255.69 160.712 252.264 165.045C251.188 166.35 248.619 166.206 247.888 164.03C246.79 181.391 238.435 191.081 226.041 192.859C225.348 192.958 224.634 193.059 223.912 193.059Z" stroke="#292526" stroke-width="1.62" stroke-miterlimit="22.926"/>
<path fill-rule="evenodd" clip-rule="evenodd" d="M389.495 36L384.175 41.3183L380.204 37.1897L379.972 36.9488H379.638L359 36.9488H358.215L358.215 37.7338L358.215 58.0032L358.215 58.3284L358.445 58.5583L362.596 62.7085L358.445 66.8587L358.215 67.0887L358.215 67.4139L358.215 88.0452L358.215 88.8302H359L379.276 88.8302H379.601L379.831 88.6004L383.983 84.4498L389.752 90.2169L384.086 95.8808L380.204 91.8445L379.972 91.6036H379.638L359 91.6036H358.215L358.215 92.3886L358.215 112.658L358.215 112.985L358.448 113.216L362.617 117.343L358.445 121.514L358.215 121.743L358.215 122.069L358.215 142.7L358.215 143.485H359H379.276H379.601L379.831 143.255L384.073 139.014L389.752 144.691L384.086 150.355L380.204 146.318L379.972 146.077H379.638H359H358.215L358.215 146.862L358.215 167.132L358.215 167.459L358.448 167.69L362.617 171.817L358.445 175.987L358.215 176.217L358.215 176.543L358.215 197.174L358.215 197.959H359H379.276H379.601L379.831 197.729L383.983 193.578L389.752 199.346L384.175 204.921L380.204 200.792L379.972 200.551H379.638H359H358.215L358.215 201.336L358.215 221.606L358.215 221.933L358.448 222.164L362.617 226.291L358.445 230.461L358.215 230.691L358.215 231.016L358.215 251.648L358.215 252.433H359H379.276H379.601L379.831 252.203L383.983 248.052L389.752 253.819L384.175 259.395L380.204 255.266L379.972 255.025H379.638H359H358.215L358.215 255.81L358.215 276.079L358.215 276.407L358.448 276.637L362.617 280.764L358.445 284.935L358.215 285.165L358.215 285.49L358.215 305.941L358.215 306.726H359H379.276H379.601L379.831 306.496L383.892 302.436L389.752 308.293L384.086 313.957L380.204 309.921L379.972 309.68H379.638H359H358.215L358.215 310.465L358.215 330.734L358.215 331.062L358.448 331.292L362.617 335.419L358.445 339.59L358.215 339.82L358.215 340.145L358.215 360.776V361.561H359H379.276H379.601L379.831 361.332L384.073 357.09L389.752 362.767L384.175 368.342L380.204 364.214L379.972 363.973H379.638H359H358.215V364.758V385.027V385.352L358.445 385.582L363.876 391.012L364.986 389.901L359.785 384.702L359.785 365.543H379.304L383.064 369.452L377.375 375.14L376.21 373.975L375.972 373.737L375.635 373.746L368.575 373.927L367.81 373.946V374.712V381.227V381.552L368.04 381.782L377.454 391.193L378.564 390.082L378.485 390.004L384.153 384.338L388.124 388.467L388.356 388.708H388.69H409.328H410.113V387.923V367.653V367.326L409.88 367.096L405.256 362.518L409.702 358.074L409.932 357.844V357.519V337.249V336.464H409.147H388.871H388.546L388.316 336.694L383.983 341.026L378.485 335.53L384.153 329.865L388.124 333.993L388.356 334.234H388.69H409.328H410.113V333.449V313.18V312.852L409.88 312.622L405.256 308.044L409.702 303.6L409.932 303.37V303.045V282.776V281.991H409.147H388.871H388.546L388.316 282.22L384.073 286.461L378.485 280.875L384.153 275.21L388.124 279.338L388.356 279.579H388.69H409.328H410.113V278.794L410.113 258.525V258.197L409.88 257.967L405.347 253.48L409.702 249.126L409.932 248.896V248.571V228.302V227.517H409.147H388.871H388.546L388.316 227.747L384.073 231.988L378.485 226.401L384.153 220.736L388.124 224.864L388.356 225.105H388.69H409.328H410.113V224.32V204.051V203.723L409.88 203.493L405.256 198.916L409.702 194.471L409.932 194.242V193.916V173.647V172.862H409.147H388.871H388.546L388.316 173.092L383.983 177.423L378.485 171.928L384.153 166.262L388.124 170.391L388.356 170.631H388.69H409.328H410.113V169.846V149.577V149.25L409.88 149.019L405.256 144.442L409.702 139.998L409.932 139.768V139.442L409.932 119.173V118.388H409.147H388.871H388.546L388.316 118.618L383.983 122.95L378.485 117.454L384.153 111.788L388.124 115.917L388.356 116.158H388.69H409.328H410.113V115.373V95.1033V94.7758L409.88 94.5454L405.347 90.0582L409.702 85.7048L409.932 85.4748V85.1496V64.6993V63.9143H409.147H388.871H388.546L388.316 64.1441L384.073 68.3852L378.485 62.799L384.153 57.1334L388.124 61.262L388.356 61.5028H388.69H409.328H410.113V60.7178V40.4485V40.121L409.88 39.8906L405.95 36H403.718L408.543 40.776V59.9328H389.024L385.263 56.0232L390.772 50.5168L392.118 51.8622L392.356 52.1004L392.693 52.0918L399.753 51.9108L400.518 51.8912V51.1261L400.518 44.6109V44.2857L400.288 44.0558L392.23 36H389.495ZM392.989 50.5137L391.882 49.4068L397.651 43.6397L398.948 44.9362V50.3609L392.989 50.5137ZM390.862 36.8531L396.541 42.5297L377.375 61.6891L371.697 56.0124L390.862 36.8531ZM376.355 49.1353L370.586 54.9024L369.38 53.6965V48.2717L375.338 48.1189L376.355 49.1353ZM383.064 42.4284L377.466 48.0254L376.21 46.7704L375.972 46.5322L375.635 46.5408L368.575 46.7218L367.81 46.7414V47.5065V54.0217V54.3469L368.04 54.5769L382.963 69.4951L377.285 75.1718L359.785 57.6779L359.785 38.5188L379.304 38.5188L383.064 42.4284ZM370.474 70.5836L376.174 76.2818L374.968 77.4875H369.199V71.7428L370.474 70.5836ZM363.707 63.8185L369.363 69.4724L367.886 70.8145L367.629 71.0481V71.3954V78.2725V79.0575H368.414H375.293H375.618L375.848 78.8277L389.196 65.4843H408.362V84.8244L404.231 88.9537L398.616 83.395L400.469 81.5423L400.699 81.3124V80.9871V74.472V73.687H399.914H392.854H392.529L392.299 73.9168L378.951 87.2602L359.785 87.2602L359.785 67.7391L363.707 63.8185ZM399.129 80.6619L397.5 82.2905L391.793 76.6419L393.179 75.257H399.129V80.6619ZM385.093 83.3398L390.683 77.7518L408.543 95.4308V114.588H389.024L385.263 110.678L390.862 105.081L392.118 106.336L392.356 106.574L392.693 106.566L399.753 106.385L400.518 106.365V105.6V99.0847V98.7595L400.288 98.5296L385.093 83.3398ZM392.989 104.987L391.973 103.971L397.742 98.204L398.948 99.41V104.835L392.989 104.987ZM390.862 91.3269L396.631 97.094L377.375 116.344L371.606 110.577L390.862 91.3269ZM376.265 103.7L370.496 109.467L369.38 108.351V102.926L375.339 102.774L376.265 103.7ZM382.976 96.991L377.375 102.59L376.21 101.425L375.972 101.187L375.635 101.196L368.575 101.377L367.81 101.396V102.161V108.676V109.002L368.04 109.232L382.873 124.059L377.281 129.649L359.785 112.33L359.785 93.1736L379.304 93.1736L382.976 96.991ZM370.441 125.088L376.171 130.759L374.968 131.961H369.199V126.217L370.441 125.088ZM363.733 118.447L369.324 123.982L367.886 125.288L367.629 125.522V125.869V132.746V133.531H368.414H375.293H375.618L375.848 133.302L389.196 119.958H408.362L408.362 139.117L404.14 143.337L398.707 137.959L400.469 136.197L400.699 135.967V135.642V129.127V128.342H399.914H392.854H392.529L392.299 128.572L378.951 141.915H359.785L359.785 122.394L363.733 118.447ZM399.129 135.317L397.591 136.854L391.884 131.206L393.179 129.912H399.129V135.317ZM385.184 137.904L390.774 132.316L408.543 149.905V169.061H389.024L385.263 165.152L390.862 159.555L392.118 160.81L392.356 161.048L392.693 161.039L399.753 160.858L400.518 160.839V160.074V153.559V153.233L400.288 153.003L385.184 137.904ZM392.989 159.461L391.973 158.445L397.742 152.678L398.948 153.884V159.309L392.989 159.461ZM390.862 145.801L396.631 151.568L377.375 170.818L371.606 165.051L390.862 145.801ZM376.265 158.173L370.496 163.941L369.38 162.825V157.4L375.339 157.248L376.265 158.173ZM382.976 151.465L377.375 157.064L376.21 155.899L375.972 155.661L375.635 155.669L368.575 155.85L367.81 155.87V156.635V163.15V163.476L368.04 163.706L382.873 178.533L377.281 184.123L359.785 166.804L359.785 147.647H379.304L382.976 151.465ZM370.441 179.562L376.171 185.233L374.968 186.435H369.199V180.69L370.441 179.562ZM363.733 172.921L369.324 178.455L367.886 179.762L367.629 179.996V180.343V187.22V188.005H368.414H375.293H375.618L375.848 187.775L389.196 174.432H408.362V193.591L404.14 197.811L398.707 192.433L400.469 190.671L400.699 190.441V190.116V183.601V182.816H399.914H392.854H392.529L392.299 183.045L378.951 196.389H359.785L359.785 176.868L363.733 172.921ZM399.129 189.791L397.591 191.328L391.884 185.68L393.179 184.386H399.129V189.791ZM385.093 192.468L390.774 186.79L408.543 204.378V223.535H389.024L385.263 219.626L390.772 214.119L392.118 215.465L392.356 215.703L392.693 215.694L399.753 215.513L400.518 215.494V214.729V208.213V207.888L400.288 207.658L385.093 192.468ZM392.989 214.116L391.882 213.009L397.651 207.242L398.948 208.539V213.963L392.989 214.116ZM390.862 200.456L396.541 206.132L377.375 225.292L371.697 219.615L390.862 200.456ZM376.355 212.738L370.586 218.505L369.38 217.299V211.874L375.339 211.721L376.355 212.738ZM383.064 206.031L377.466 211.628L376.21 210.373L375.972 210.135L375.635 210.143L368.575 210.324L367.81 210.344V211.109V217.624V217.949L368.04 218.179L382.963 233.098L377.372 238.687L359.785 221.278L359.785 202.121H379.304L383.064 206.031ZM370.536 234.13L376.262 239.797L374.968 241.09H369.199V235.345L370.536 234.13ZM363.733 227.395L369.419 233.024L367.886 234.417L367.629 234.651V234.998V241.875V242.66H368.414H375.293H375.618L375.848 242.43L389.196 229.087H408.362V248.246L404.231 252.375L398.707 246.907L400.469 245.145L400.699 244.915V244.59V238.074V237.289H399.914H392.854H392.529L392.299 237.519L378.951 250.863H359.785L359.785 231.342L363.733 227.395ZM399.129 244.264L397.591 245.802L391.884 240.153L393.179 238.859H399.129V244.264ZM385.093 246.942L390.774 241.263L408.543 258.852L408.543 278.009H389.024L385.263 274.1L390.772 268.593L392.118 269.939L392.356 270.177L392.693 270.168L399.753 269.987L400.518 269.967V269.202V262.687V262.362L400.288 262.132L385.093 246.942ZM392.989 268.59L391.882 267.483L397.651 261.716L398.948 263.012V268.437L392.989 268.59ZM390.862 254.929L396.541 260.606L377.375 279.765L371.697 274.089L390.862 254.929ZM376.355 267.212L370.586 272.979L369.38 271.773V266.348L375.338 266.195L376.355 267.212ZM383.064 260.505L377.466 266.102L376.21 264.847L375.972 264.609L375.635 264.617L368.575 264.798L367.81 264.818V265.583V272.098V272.423L368.04 272.653L382.963 287.571L377.372 293.161L359.785 275.752L359.785 256.595H379.304L383.064 260.505ZM370.536 288.604L376.262 294.271L374.968 295.564H369.199V289.819L370.536 288.604ZM363.733 281.869L369.419 287.497L367.886 288.891L367.629 289.124V289.472V296.349V297.134H368.414H375.293H375.618L375.848 296.904L389.196 283.561H408.362V302.72L404.14 306.94L398.525 301.381L400.469 299.438L400.699 299.208V298.882V292.367V291.582H399.914H392.854H392.529L392.299 291.812L378.951 305.156H359.785L359.785 285.815L363.733 281.869ZM399.129 298.557L397.409 300.277L391.702 294.628L393.179 293.152H399.129V298.557ZM385.003 301.326L390.592 295.738L408.543 313.507V332.664H389.024L385.263 328.754L390.862 323.157L392.118 324.412L392.356 324.651L392.693 324.642L399.753 324.461L400.518 324.441V323.676V317.161V316.836L400.288 316.606L385.003 301.326ZM392.989 323.064L391.973 322.047L397.742 316.28L398.948 317.486V322.911L392.989 323.064ZM390.862 309.403L396.631 315.17L377.375 334.42L371.606 328.653L390.862 309.403ZM376.265 321.776L370.496 327.543L369.38 326.428V321.003L375.338 320.85L376.265 321.776ZM382.976 315.067L377.375 320.666L376.21 319.502L375.972 319.263L375.635 319.272L368.575 319.453L367.81 319.473V320.238V326.753V327.078L368.04 327.308L382.872 342.136L377.281 347.726L359.785 330.407L359.785 311.25H379.304L382.976 315.067ZM370.441 343.164L376.171 348.836L374.968 350.038H369.199V344.293L370.441 343.164ZM363.733 336.524L369.324 342.058L367.886 343.365L367.629 343.598V343.946V350.823V351.608H368.414H375.293H375.618L375.848 351.378L389.196 338.034H408.362V357.194L404.14 361.414L398.707 356.035L400.469 354.273L400.699 354.044V353.718L400.699 347.203V346.418H399.914H392.854H392.529L392.299 346.648L378.951 359.991H359.785L359.785 340.47L363.733 336.524ZM399.129 353.393L397.591 354.931L391.884 349.282L393.179 347.988H399.129L399.129 353.393ZM385.184 355.98L390.774 350.392L408.543 367.981V387.138H389.024L385.263 383.228L390.862 377.631L392.118 378.886L392.356 379.124L392.693 379.116L399.753 378.935L400.518 378.915V378.15V371.635V371.31L400.288 371.08L385.184 355.98ZM392.989 377.538L391.973 376.521L397.742 370.754L398.948 371.96L398.948 377.385L392.989 377.538ZM390.862 363.877L396.631 369.644L377.375 388.894L371.606 383.127L390.862 363.877ZM376.265 376.25L370.496 382.017L369.38 380.901V375.477L375.338 375.324L376.265 376.25Z" fill="#DD264E"/>
</svg>
