<svg width="23" height="23" viewBox="0 0 23 23" fill="none" xmlns="http://www.w3.org/2000/svg">
<g id="Group">
<path id="Vector" d="M23 11.5C23 5.14872 17.8513 0 11.5 0C5.14872 0 0 5.14872 0 11.5C0 17.24 4.20541 21.9976 9.70312 22.8603V14.8242H6.7832V11.5H9.70312V8.96641C9.70312 6.08422 11.42 4.49219 14.0468 4.49219C15.3051 4.49219 16.6211 4.7168 16.6211 4.7168V7.54687H15.171C13.7424 7.54687 13.2969 8.43332 13.2969 9.34276V11.5H16.4863L15.9765 14.8242H13.2969V22.8603C18.7946 21.9976 23 17.24 23 11.5Z" fill="#1877F2"/>
<path id="Vector_2" d="M15.9784 14.8242L16.4883 11.5H13.2988V9.34276C13.2988 8.43332 13.7443 7.54688 15.1729 7.54688H16.623V4.7168C16.623 4.7168 15.307 4.49219 14.0488 4.49219C11.4219 4.49219 9.70508 6.08422 9.70508 8.96641V11.5H6.78516V14.8242H9.70508V22.8603C10.2905 22.9522 10.8907 23 11.502 23C12.1132 23 12.7133 22.9522 13.2988 22.8603V14.8242H15.9784Z" fill="white"/>
</g>
</svg>
