<svg width="22" height="23" viewBox="0 0 22 23" fill="none" xmlns="http://www.w3.org/2000/svg">
<g id="Group 6007">
<path id="Vector" d="M21.999 11.6068C21.999 10.8497 21.9258 10.0681 21.8037 9.33545H11.2285V13.6583H17.2854C17.0412 15.0504 16.2352 16.2716 15.0385 17.0531L18.6531 19.8617C20.7779 17.8835 21.999 15.0016 21.999 11.6068Z" fill="#4280EF"/>
<path id="Vector_2" d="M11.2283 22.5487C14.2567 22.5487 16.7967 21.5474 18.6528 19.8378L15.0382 17.0535C14.0369 17.7374 12.7425 18.1281 11.2283 18.1281C8.2975 18.1281 5.83078 16.1499 4.92713 13.5122L1.21484 16.3697C3.11983 20.1552 6.97866 22.5487 11.2283 22.5487Z" fill="#34A353"/>
<path id="Vector_3" d="M4.9283 13.488C4.46426 12.0959 4.46426 10.5816 4.9283 9.18952L1.21601 6.30762C-0.371482 9.4826 -0.371482 13.2193 1.21601 16.3699L4.9283 13.488Z" fill="#F6B704"/>
<path id="Vector_4" d="M11.2283 4.57284C12.8157 4.54842 14.3788 5.159 15.5267 6.25803L18.7261 3.0342C16.699 1.12921 14.0125 0.103445 11.2283 0.127868C6.97866 0.127868 3.11983 2.52132 1.21484 6.30687L4.92713 9.18878C5.83078 6.52668 8.2975 4.57284 11.2283 4.57284Z" fill="#E54335"/>
</g>
</svg>
