<svg width="24" height="25" viewBox="0 0 24 25" fill="none" xmlns="http://www.w3.org/2000/svg">
<g id="Group">
<g id="Group_2">
<path id="Vector" d="M1.74219 6.78274C1.74219 6.78274 3.8773 3.45594 7.25374 1.67834C10.6302 -0.0992581 14.7912 0.407209 17.5122 2.13516C20.2431 3.8631 21.1568 5.32292 21.1568 5.32292L23.5104 3.97234C23.5104 3.97234 23.997 3.72407 23.997 4.30006V12.7809C23.997 12.7809 23.997 13.5356 23.4309 13.2675C22.9542 13.0391 17.7903 10.0797 16.1715 9.14626C15.2778 8.74903 16.0623 8.42131 16.0623 8.42131L18.3265 7.11045C18.3265 7.11045 17.0355 5.47188 15.1387 4.60791C13.1129 3.54532 11.2161 3.42615 8.89232 4.30999C7.38284 4.88597 5.59531 6.36565 4.31425 8.55041L1.74219 6.78274Z" fill="white"/>
<path id="Vector_2" d="M22.8173 17.9846C22.8173 17.9846 20.6822 21.3114 17.3057 23.089C13.9293 24.8666 9.76829 24.3601 7.04727 22.6322C4.31632 20.9042 3.40269 19.4444 3.40269 19.4444L1.04911 20.795C1.04911 20.795 0.5625 21.0433 0.5625 20.4673V11.9864C0.5625 11.9864 0.5625 11.2317 1.12855 11.4998C1.60523 11.7282 6.76921 14.6876 8.38792 15.6211C9.28168 16.0183 8.49716 16.346 8.49716 16.346L6.23295 17.6569C6.23295 17.6569 7.52394 19.2954 9.42071 20.1594C11.4466 21.222 13.3434 21.3511 15.6671 20.4673C17.1766 19.8913 18.9641 18.4116 20.2452 16.2268L22.8173 17.9846Z" fill="white"/>
</g>
</g>
</svg>
