<svg width="73" height="73" viewBox="0 0 73 73" fill="none" xmlns="http://www.w3.org/2000/svg">
<g filter="url(#filter0_d_658_6691)">
<rect x="13" y="3" width="47" height="47" rx="5" fill="#DD264E"/>
</g>
<path d="M29.489 38.8524C29.2779 38.8052 29.0656 38.763 28.8559 38.7102C26.5013 38.1177 24.9621 36.1098 25.0007 33.6848C25.0431 31.024 25.7476 28.5463 27.0504 26.2313C28.41 23.8153 30.2161 21.7892 32.3924 20.0837C32.4571 20.033 32.5196 19.9794 32.5943 19.918C32.539 19.8288 32.4934 19.7506 32.4436 19.6753C31.5483 18.3222 30.6524 16.9696 29.7568 15.6167C29.439 15.1365 29.468 14.8983 29.8847 14.4928C30.588 13.8083 31.3913 13.3125 32.3816 13.1747C33.1366 13.0696 33.875 13.1795 34.6002 13.3835C35.0443 13.5084 35.4892 13.6398 35.9177 13.8089C36.3555 13.9817 36.7662 13.9398 37.1912 13.7844C37.8448 13.5455 38.4912 13.2731 39.1627 13.1002C40.3481 12.795 41.3447 13.208 42.1832 14.0521C42.4144 14.2847 42.426 14.5498 42.2452 14.8875C41.7732 15.7688 41.2967 16.6478 40.822 17.5277C40.4311 18.2524 40.044 18.9792 39.6459 19.6999C39.5682 19.8406 39.5883 19.915 39.7125 20.0094C41.3168 21.2292 42.7181 22.6525 43.9056 24.279C45.5204 26.4908 46.6418 28.9208 47.0394 31.6497C47.186 32.6563 47.3027 33.6717 47.1266 34.689C46.7538 36.8435 45.0687 38.4799 42.9059 38.8C42.8417 38.8095 42.7798 38.8345 42.7169 38.8524C38.3077 38.8524 33.8984 38.8524 29.489 38.8524ZM36.1071 37.5616C38.1007 37.5616 40.0942 37.5686 42.0877 37.5597C44.2717 37.55 45.8942 35.9626 45.9008 33.8391C45.907 31.834 45.4883 29.9167 44.656 28.0956C43.304 25.1375 41.2396 22.7616 38.6471 20.8269C38.5616 20.7631 38.434 20.7272 38.3259 20.7267C36.8455 20.7202 35.3651 20.7195 33.8847 20.7276C33.762 20.7282 33.6191 20.7752 33.5203 20.8478C32.3158 21.7328 31.2274 22.7444 30.2568 23.8814C28.0509 26.4655 26.5949 29.3803 26.3324 32.8171C26.2663 33.6833 26.2198 34.5546 26.6187 35.3664C27.3378 36.8298 28.5247 37.557 30.1517 37.5605C32.1369 37.5649 34.122 37.5616 36.1071 37.5616ZM40.9002 14.6481C40.3057 14.1868 39.6726 14.2211 39.0256 14.4496C38.646 14.5836 38.2712 14.7325 37.9001 14.8888C37.0352 15.253 36.1877 15.3023 35.2847 14.9534C34.6264 14.6991 33.9173 14.5448 33.2168 14.4397C32.3842 14.3148 31.6591 14.6285 31.0334 15.1981C31.9492 16.5808 32.8514 17.9476 33.7638 19.3076C33.8103 19.3768 33.944 19.4201 34.0374 19.4206C35.3992 19.4278 36.7611 19.423 38.1229 19.429C38.2794 19.4296 38.3613 19.377 38.4336 19.2402C38.8686 18.416 39.3128 17.5967 39.7544 16.7759C40.1356 16.0674 40.5173 15.3592 40.9002 14.6481Z" fill="white"/>
<path d="M35.5935 25.9719C35.5935 25.6687 35.5888 25.3917 35.5947 25.1151C35.603 24.7306 35.8813 24.4497 36.2412 24.4532C36.5887 24.4565 36.8614 24.7333 36.8713 25.1054C36.8788 25.389 36.8728 25.6728 36.8728 25.985C37.2877 25.985 37.6727 25.9777 38.0573 25.987C38.4604 25.9968 38.7421 26.2791 38.7359 26.6479C38.7298 27.0101 38.4378 27.2779 38.0286 27.2802C37.1874 27.2849 36.3459 27.2756 35.5047 27.2851C34.9263 27.2917 34.5196 27.7216 34.5336 28.2854C34.546 28.7806 34.9232 29.1876 35.422 29.2084C35.8923 29.2281 36.364 29.2136 36.835 29.2197C37.7945 29.2321 38.5346 29.6169 38.9942 30.4872C39.6904 31.8054 38.8012 33.521 37.3201 33.7096C37.187 33.7265 37.0541 33.7449 36.8756 33.7686C36.8756 34.0788 36.8881 34.3949 36.8722 34.7097C36.8552 35.0463 36.5654 35.3102 36.2424 35.3122C35.9129 35.3142 35.6204 35.0344 35.5995 34.6923C35.5924 34.575 35.5966 34.4569 35.5964 34.3391C35.596 34.155 35.5963 33.9709 35.5963 33.7491C35.2161 33.7491 34.8497 33.7512 34.4833 33.7479C34.3748 33.747 34.2619 33.7477 34.1589 33.7193C33.8537 33.6347 33.6499 33.3276 33.6864 33.0299C33.7255 32.7114 33.9944 32.4662 34.3548 32.4613C35.1287 32.4507 35.9028 32.4577 36.6768 32.4561C36.8113 32.4558 36.9465 32.4561 37.0801 32.4431C37.5852 32.3938 37.9516 31.9745 37.9408 31.4651C37.9299 30.9589 37.5438 30.5412 37.0391 30.5231C36.5517 30.5056 36.0632 30.5215 35.5753 30.5152C34.4501 30.5008 33.6123 29.8613 33.3089 28.7914C32.9532 27.537 33.9172 26.1356 35.2145 26.0198C35.3315 26.0093 35.4475 25.9906 35.5935 25.9719Z" fill="white"/>
<defs>
<filter id="filter0_d_658_6691" x="0" y="0" width="73" height="73" filterUnits="userSpaceOnUse" color-interpolation-filters="sRGB">
<feFlood flood-opacity="0" result="BackgroundImageFix"/>
<feColorMatrix in="SourceAlpha" type="matrix" values="0 0 0 0 0 0 0 0 0 0 0 0 0 0 0 0 0 0 127 0" result="hardAlpha"/>
<feOffset dy="10"/>
<feGaussianBlur stdDeviation="6.5"/>
<feComposite in2="hardAlpha" operator="out"/>
<feColorMatrix type="matrix" values="0 0 0 0 0.866667 0 0 0 0 0.14902 0 0 0 0 0.305882 0 0 0 0.41 0"/>
<feBlend mode="normal" in2="BackgroundImageFix" result="effect1_dropShadow_658_6691"/>
<feBlend mode="normal" in="SourceGraphic" in2="effect1_dropShadow_658_6691" result="shape"/>
</filter>
</defs>
</svg>
