<svg width="123" height="123" viewBox="0 0 123 123" fill="none" xmlns="http://www.w3.org/2000/svg">
<g id="Group 10333">
<g id="Group 10368">
<g id="Rectangle 5970" filter="url(#filter0_d_1425_7170)">
<rect x="13" y="3" width="97" height="97" rx="5" fill="#DD264E"/>
</g>
<path id="Vector" d="M47.2952 77C46.8581 76.9033 46.4185 76.8168 45.9843 76.7085C41.1087 75.4939 37.9215 71.3774 38.0015 66.406C38.0893 60.9511 39.548 55.8716 42.2457 51.1255C45.061 46.1726 48.8008 42.0188 53.307 38.5224C53.4411 38.4184 53.5705 38.3085 53.7251 38.1826C53.6107 37.9998 53.5163 37.8395 53.4131 37.685C51.5592 34.9111 49.7041 32.138 47.8497 29.3645C47.1915 28.3801 47.2518 27.8917 48.1144 27.0604C49.5708 25.6571 51.2341 24.6406 53.2847 24.3581C54.848 24.1427 56.377 24.368 57.8788 24.7863C58.7983 25.0424 59.7196 25.3116 60.6067 25.6583C61.5133 26.0126 62.3637 25.9267 63.2438 25.6082C64.5971 25.1184 65.9356 24.5599 67.3261 24.2055C69.7806 23.5798 71.8443 24.4264 73.5806 26.1569C74.0591 26.6337 74.0833 27.1772 73.7088 27.8695C72.7315 29.6764 71.7448 31.4784 70.7619 33.2823C69.9524 34.7679 69.151 36.2579 68.3266 37.7354C68.1656 38.0239 68.2072 38.1764 68.4645 38.3701C71.7865 40.8706 74.688 43.7885 77.147 47.1231C80.4907 51.6574 82.8128 56.6393 83.6359 62.2338C83.9396 64.2975 84.1811 66.379 83.8165 68.4647C83.0445 72.8817 79.5553 76.2364 75.0769 76.8927C74.944 76.9121 74.8159 76.9635 74.6855 77C65.5557 77 56.4254 77 47.2952 77ZM60.999 74.3539C65.127 74.3539 69.2549 74.3682 73.3827 74.35C77.9051 74.33 81.2647 71.0758 81.2783 66.7223C81.2911 62.6117 80.4242 58.6811 78.7008 54.9476C75.9013 48.8832 71.6267 44.0124 66.2584 40.0459C66.0814 39.9152 65.8172 39.8415 65.5934 39.8405C62.528 39.8273 59.4625 39.8258 56.3971 39.8423C56.143 39.8437 55.8473 39.94 55.6426 40.0887C53.1486 41.9031 50.8948 43.977 48.885 46.308C44.3174 51.6057 41.3025 57.5814 40.759 64.6272C40.622 66.403 40.5257 68.1891 41.3518 69.8535C42.8407 72.8536 45.2985 74.3443 48.6674 74.3515C52.778 74.3606 56.8884 74.3539 60.999 74.3539ZM70.9239 27.3789C69.6928 26.4331 68.3818 26.5033 67.0422 26.9717C66.2561 27.2465 65.48 27.5519 64.7115 27.8722C62.9207 28.6189 61.1659 28.72 59.2961 28.0047C57.933 27.4834 56.4647 27.167 55.0141 26.9515C53.2902 26.6954 51.7887 27.3387 50.493 28.5062C52.3893 31.3409 54.2576 34.143 56.1468 36.9312C56.2431 37.0732 56.5199 37.1619 56.7133 37.163C59.5331 37.1776 62.3531 37.1678 65.173 37.18C65.497 37.1814 65.6667 37.0736 65.8164 36.793C66.7172 35.1033 67.6369 33.4236 68.5513 31.7411C69.3406 30.2885 70.1309 28.8365 70.9239 27.3789Z" fill="white"/>
<path id="Vector_2" d="M59.7176 50.2169C59.7176 49.5745 59.7081 48.988 59.7199 48.402C59.7365 47.5876 60.2931 46.9927 61.0128 47.0001C61.7078 47.0072 62.2531 47.5935 62.2728 48.3816C62.2879 48.9821 62.2758 49.5834 62.2758 50.2446C63.1054 50.2446 63.8753 50.2291 64.6443 50.2489C65.4506 50.2697 66.0138 50.8675 66.0014 51.6485C65.9893 52.4158 65.4053 52.983 64.5871 52.9879C62.9048 52.9978 61.2221 52.978 59.5399 52.9982C58.3833 53.0122 57.5701 53.9228 57.5982 55.1169C57.6229 56.1657 58.3771 57.0279 59.3745 57.072C60.3151 57.1137 61.2584 57.0829 62.2003 57.0957C64.1189 57.1221 65.5989 57.9372 66.518 59.7805C67.9101 62.5724 66.132 66.2061 63.1703 66.6056C62.9041 66.6414 62.6382 66.6804 62.2814 66.7307C62.2814 67.3875 62.3064 68.0572 62.2746 68.7238C62.2406 69.4368 61.661 69.9958 61.0152 70C60.3563 70.0042 59.7713 69.4117 59.7296 68.6871C59.7154 68.4385 59.7237 68.1884 59.7233 67.9389C59.7226 67.549 59.7232 67.1591 59.7232 66.6894C58.9629 66.6894 58.2301 66.6937 57.4974 66.6868C57.2804 66.6848 57.0547 66.6864 56.8488 66.6261C56.2386 66.4471 55.831 65.7966 55.9039 65.1661C55.9821 64.4913 56.5198 63.9721 57.2405 63.9617C58.7881 63.9392 60.3361 63.954 61.8839 63.9506C62.1527 63.95 62.4232 63.9507 62.6902 63.9231C63.7004 63.8188 64.4331 62.9307 64.4114 61.8517C64.3897 60.7796 63.6176 59.8948 62.6083 59.8565C61.6337 59.8195 60.6569 59.8531 59.6812 59.8398C57.4312 59.8092 55.7557 58.4547 55.149 56.1886C54.4378 53.5317 56.3655 50.5635 58.9597 50.3183C59.1936 50.296 59.4256 50.2564 59.7176 50.2169Z" fill="white"/>
</g>
</g>
<defs>
<filter id="filter0_d_1425_7170" x="0" y="0" width="123" height="123" filterUnits="userSpaceOnUse" color-interpolation-filters="sRGB">
<feFlood flood-opacity="0" result="BackgroundImageFix"/>
<feColorMatrix in="SourceAlpha" type="matrix" values="0 0 0 0 0 0 0 0 0 0 0 0 0 0 0 0 0 0 127 0" result="hardAlpha"/>
<feOffset dy="10"/>
<feGaussianBlur stdDeviation="6.5"/>
<feComposite in2="hardAlpha" operator="out"/>
<feColorMatrix type="matrix" values="0 0 0 0 0.866667 0 0 0 0 0.14902 0 0 0 0 0.305882 0 0 0 0.41 0"/>
<feBlend mode="normal" in2="BackgroundImageFix" result="effect1_dropShadow_1425_7170"/>
<feBlend mode="normal" in="SourceGraphic" in2="effect1_dropShadow_1425_7170" result="shape"/>
</filter>
</defs>
</svg>
