<svg width="123" height="123" viewBox="0 0 123 123" fill="none" xmlns="http://www.w3.org/2000/svg">
<g id="Group 10502">
<g id="Group 10498">
<g id="Group 10368">
<g id="Rectangle 5970" filter="url(#filter0_d_1425_7182)">
<rect x="13" y="3" width="97" height="97" rx="5" fill="#189387"/>
</g>
</g>
</g>
<g id="Group 10500">
<path id="Vector" d="M36.3382 47.4744C36.4666 46.662 36.565 45.8436 36.728 45.0382C37.9602 38.9528 41.3501 34.2808 46.3861 30.7556C51.5495 27.1415 57.3493 25.5688 63.6438 25.6952C66.0056 25.7426 68.3203 26.0797 70.6127 26.6262C70.808 26.6727 71.1321 26.5878 71.2617 26.4442C73.278 24.2075 75.8376 23.0279 78.7689 22.5134C79.9014 22.3147 80.9347 22.3688 81.8402 23.165C82.7553 23.9695 83.0876 25.3802 82.5827 26.4863C82.2321 27.2547 81.8126 27.9949 81.5051 28.779C81.1289 29.7384 81.0489 30.7494 81.2952 31.7595C81.3514 31.9898 81.4935 32.2391 81.6714 32.3943C84.472 34.8364 86.6413 37.729 88.0324 41.1743C88.183 41.5476 88.4256 41.543 88.7288 41.5387C90.1739 41.5189 91.4183 41.9514 92.3375 43.1222C92.9304 43.8773 93.2036 44.7434 93.2098 45.686C93.2236 47.8019 93.2366 49.9185 93.2082 52.0341C93.1758 54.4366 91.4582 56.091 88.9742 56.1089C88.4843 56.1124 88.2722 56.2632 88.0978 56.7078C86.7471 60.1497 84.6116 63.0521 81.838 65.4909C79.9559 67.1457 78.905 69.1473 79.021 71.6897C79.0411 72.1299 79.0314 72.5735 79.0046 73.0136C78.917 74.453 77.8026 75.6077 76.3533 75.6269C73.3363 75.667 70.3181 75.6654 67.301 75.6285C65.8856 75.6112 64.7976 74.5308 64.6462 73.1378C64.6185 72.8828 64.597 72.627 64.5673 72.3136C63.236 72.3136 61.9114 72.3136 60.5319 72.3136C60.5106 72.549 60.4863 72.8164 60.4622 73.0839C60.336 74.4889 59.2173 75.6071 57.7916 75.6234C54.7928 75.6577 51.7932 75.6592 48.7944 75.625C47.2408 75.6074 46.1085 74.374 46.0776 72.7768C46.0516 71.4431 45.8412 70.1471 45.3787 68.8889C44.8951 67.5736 44.1688 66.4145 43.2138 65.3913C40.5263 62.5115 38.6616 59.1416 37.4235 55.4448C36.9318 53.9768 36.758 52.4038 36.4384 50.8787C36.4088 50.737 36.3716 50.5967 36.3379 50.4557C36.3382 49.4619 36.3382 48.4681 36.3382 47.4744ZM80.0611 25.2755C79.8669 25.2411 79.7938 25.2093 79.7268 25.2191C76.9345 25.6217 74.5018 26.6763 72.7993 29.0314C72.3317 29.6783 71.7306 29.8999 70.9622 29.6847C70.8021 29.6399 70.6413 29.5975 70.4814 29.5524C65.0771 28.0284 59.6957 28.1032 54.3749 29.896C48.6945 31.81 44.1812 35.201 41.3127 40.5279C38.8761 45.053 38.4626 49.8062 40.0836 54.6705C41.2542 58.1834 43.1896 61.2697 45.7061 64.0183C47.581 66.0665 48.5108 68.5687 48.7878 71.3137C48.8386 71.8174 48.8853 72.3214 48.9328 72.8153C51.8598 72.8153 54.7391 72.8153 57.6671 72.8153C57.6671 72.1596 57.6638 71.538 57.6679 70.9163C57.6753 69.7733 58.2611 69.2735 59.4172 69.3101C61.4297 69.3739 63.4445 69.4404 65.4568 69.4098C66.8896 69.3879 67.4199 69.81 67.4212 71.2472C67.4218 71.7704 67.4213 72.2938 67.4213 72.8143C70.3989 72.8143 73.2777 72.8143 76.2107 72.8143C76.2107 72.3425 76.2214 71.9049 76.2089 71.468C76.1188 68.2989 77.3696 65.7003 79.697 63.6113C82.5397 61.0597 84.7251 58.0915 85.9175 54.4409C86.1964 53.5873 86.6308 53.3131 87.5307 53.2936C88.1035 53.2812 88.6809 53.3114 89.2482 53.25C89.9629 53.1727 90.3535 52.7514 90.3595 52.0396C90.3776 49.9058 90.3807 47.7715 90.3537 45.6379C90.3435 44.8339 89.8551 44.4027 89.0395 44.3798C88.4661 44.3638 87.8916 44.3848 87.3181 44.3726C86.6219 44.3575 86.1201 44.0459 85.8639 43.3827C85.6653 42.8687 85.478 42.3494 85.2584 41.8442C83.9407 38.8146 81.9388 36.3015 79.4135 34.1764C79.1164 33.9263 78.8084 33.5834 78.7067 33.2267C77.9898 30.7132 78.3458 28.3189 79.6398 26.0538C79.7725 25.8212 79.8949 25.5829 80.0611 25.2755Z" fill="white"/>
<path id="Vector_2" d="M64.3046 57.6341C64.3046 58.3318 64.3141 58.9437 64.3023 59.5552C64.2856 60.4223 63.6788 61.083 62.9293 61.0699C62.1944 61.0572 61.6255 60.4228 61.6056 59.5686C61.5913 58.9588 61.6027 58.3482 61.6027 57.6345C60.8207 57.6345 60.0801 57.6265 59.3397 57.6373C58.8396 57.6446 58.3681 57.5642 58.0223 57.1417C57.6685 56.7091 57.5293 56.2041 57.7567 55.6514C58.0113 55.0324 58.468 54.7076 59.102 54.7049C60.4945 54.6988 61.8872 54.7029 63.2797 54.7017C63.7082 54.7014 64.1373 54.7134 64.565 54.6915C65.5815 54.6393 66.3756 53.7836 66.4332 52.6987C66.4897 51.6349 65.7651 50.6302 64.7502 50.5387C63.7217 50.4459 62.6824 50.4814 61.6477 50.4753C59.7647 50.4644 58.2821 49.6614 57.3597 47.8742C55.7512 44.7573 57.5355 40.9838 60.8244 40.4869C61.0535 40.4523 61.2842 40.4302 61.6009 40.3918C61.6009 39.8306 61.5971 39.2644 61.6017 38.6983C61.6102 37.678 62.1718 36.9859 62.9712 37.0027C63.7503 37.0193 64.2992 37.7098 64.3049 38.6856C64.3081 39.2387 64.3055 39.7919 64.3055 40.4264C65.153 40.4264 65.9673 40.4132 66.7809 40.4305C67.4395 40.4445 67.9832 40.9433 68.1194 41.6134C68.2452 42.2326 67.9153 42.9235 67.3113 43.1945C67.0748 43.3006 66.7918 43.3201 66.5296 43.3219C64.8871 43.3328 63.2444 43.3166 61.6019 43.3313C60.3686 43.3424 59.5131 44.163 59.4686 45.3372C59.4218 46.5772 60.2597 47.526 61.442 47.5601C62.6899 47.5961 63.9535 47.5014 65.1826 47.6813C67.1544 47.9701 68.4415 49.2762 68.9698 51.3177C69.471 53.2547 68.96 54.9491 67.5868 56.3229C66.6838 57.227 65.5773 57.6004 64.3046 57.6341Z" fill="white"/>
</g>
</g>
<defs>
<filter id="filter0_d_1425_7182" x="0" y="0" width="123" height="123" filterUnits="userSpaceOnUse" color-interpolation-filters="sRGB">
<feFlood flood-opacity="0" result="BackgroundImageFix"/>
<feColorMatrix in="SourceAlpha" type="matrix" values="0 0 0 0 0 0 0 0 0 0 0 0 0 0 0 0 0 0 127 0" result="hardAlpha"/>
<feOffset dy="10"/>
<feGaussianBlur stdDeviation="6.5"/>
<feComposite in2="hardAlpha" operator="out"/>
<feColorMatrix type="matrix" values="0 0 0 0 0.0941176 0 0 0 0 0.576471 0 0 0 0 0.529412 0 0 0 0.41 0"/>
<feBlend mode="normal" in2="BackgroundImageFix" result="effect1_dropShadow_1425_7182"/>
<feBlend mode="normal" in="SourceGraphic" in2="effect1_dropShadow_1425_7182" result="shape"/>
</filter>
</defs>
</svg>
