<svg width="73" height="73" viewBox="0 0 73 73" fill="none" xmlns="http://www.w3.org/2000/svg">
<g filter="url(#filter0_d_658_6701)">
<rect x="13" y="3" width="47" height="47" rx="5" fill="#189387"/>
</g>
<path d="M25.0001 26.2074C25.0623 25.8116 25.11 25.413 25.1889 25.0206C25.7855 22.056 27.4268 19.78 29.8651 18.0627C32.3651 16.3021 35.1732 15.5359 38.2209 15.5975C39.3644 15.6206 40.4851 15.7848 41.5951 16.051C41.6896 16.0737 41.8465 16.0323 41.9093 15.9623C42.8855 14.8727 44.1248 14.2981 45.5441 14.0475C46.0924 13.9506 46.5927 13.977 47.0311 14.3649C47.4742 14.7568 47.6351 15.444 47.3907 15.9829C47.2209 16.3572 47.0178 16.7178 46.8689 17.0998C46.6867 17.5671 46.648 18.0597 46.7673 18.5518C46.7945 18.6639 46.8633 18.7854 46.9494 18.861C48.3054 20.0507 49.3557 21.4599 50.0292 23.1383C50.1022 23.3201 50.2196 23.3179 50.3665 23.3158C51.0661 23.3061 51.6686 23.5168 52.1137 24.0872C52.4008 24.4551 52.5331 24.877 52.536 25.3362C52.5427 26.367 52.549 27.398 52.5353 28.4287C52.5196 29.5991 51.688 30.405 50.4853 30.4138C50.248 30.4155 50.1454 30.4889 50.0609 30.7055C49.4069 32.3823 48.373 33.7962 47.0301 34.9843C46.1188 35.7905 45.61 36.7656 45.6662 38.0041C45.6759 38.2185 45.6712 38.4346 45.6582 38.649C45.6158 39.3503 45.0763 39.9128 44.3745 39.9222C42.9138 39.9417 41.4524 39.9409 39.9916 39.9229C39.3063 39.9145 38.7795 39.3881 38.7062 38.7096C38.6928 38.5853 38.6824 38.4607 38.668 38.3081C38.0234 38.3081 37.3821 38.3081 36.7142 38.3081C36.7039 38.4227 36.6921 38.553 36.6804 38.6833C36.6193 39.3678 36.0777 39.9125 35.3874 39.9205C33.9354 39.9371 32.4831 39.9379 31.0312 39.9212C30.2789 39.9126 29.7307 39.3118 29.7157 38.5337C29.7031 37.8839 29.6013 37.2526 29.3774 36.6397C29.1432 35.9989 28.7916 35.4343 28.3292 34.9358C27.0279 33.5329 26.1251 31.8912 25.5256 30.0903C25.2876 29.3751 25.2034 28.6088 25.0487 27.8658C25.0343 27.7968 25.0163 27.7285 25 27.6598C25.0001 27.1756 25.0001 26.6915 25.0001 26.2074ZM46.1698 15.393C46.0757 15.3763 46.0403 15.3608 46.0079 15.3655C44.6559 15.5617 43.4781 16.0754 42.6538 17.2227C42.4274 17.5379 42.1363 17.6459 41.7643 17.541C41.6868 17.5192 41.6089 17.4985 41.5315 17.4766C38.9149 16.7341 36.3093 16.7706 33.7331 17.6439C30.9828 18.5763 28.7975 20.2283 27.4087 22.8233C26.2289 25.0278 26.0287 27.3433 26.8136 29.713C27.3803 31.4244 28.3174 32.9279 29.5358 34.2669C30.4437 35.2647 30.8939 36.4837 31.028 37.8209C31.0526 38.0663 31.0751 38.3118 31.0982 38.5524C32.5153 38.5524 33.9094 38.5524 35.3271 38.5524C35.3271 38.233 35.3255 37.9302 35.3275 37.6273C35.3311 37.0705 35.6147 36.827 36.1745 36.8448C37.1489 36.876 38.1244 36.9083 39.0987 36.8934C39.7924 36.8828 40.0492 37.0884 40.0498 37.7885C40.0501 38.0434 40.0499 38.2984 40.0499 38.5519C41.4916 38.5519 42.8854 38.5519 44.3055 38.5519C44.3055 38.3221 44.3106 38.1089 44.3046 37.8961C44.261 36.3522 44.8666 35.0863 45.9935 34.0687C47.3699 32.8256 48.4279 31.3796 49.0053 29.6012C49.1403 29.1853 49.3507 29.0518 49.7864 29.0423C50.0637 29.0362 50.3432 29.0509 50.618 29.021C50.964 28.9834 51.1531 28.7781 51.156 28.4314C51.1648 27.3919 51.1662 26.3521 51.1532 25.3127C51.1483 24.9211 50.9118 24.711 50.5169 24.6999C50.2392 24.6921 49.9611 24.7023 49.6834 24.6963C49.3463 24.689 49.1034 24.5372 48.9793 24.2141C48.8832 23.9637 48.7925 23.7107 48.6862 23.4646C48.0481 21.9887 47.0789 20.7645 45.8562 19.7292C45.7123 19.6074 45.5632 19.4403 45.514 19.2665C45.1669 18.042 45.3392 16.8756 45.9657 15.7722C46.03 15.6589 46.0893 15.5428 46.1698 15.393Z" fill="white"/>
<path d="M38.553 30.9783C38.553 31.3047 38.5578 31.5909 38.5519 31.8769C38.5435 32.2825 38.2389 32.5915 37.8627 32.5854C37.4937 32.5794 37.2082 32.2827 37.1981 31.8831C37.191 31.5979 37.1967 31.3123 37.1967 30.9785C36.8042 30.9785 36.4324 30.9747 36.0607 30.9798C35.8097 30.9832 35.573 30.9456 35.3994 30.748C35.2218 30.5457 35.1519 30.3095 35.2661 30.0509C35.3939 29.7614 35.6231 29.6095 35.9414 29.6082C36.6404 29.6054 37.3395 29.6073 38.0386 29.6067C38.2537 29.6066 38.4691 29.6122 38.6837 29.602C39.194 29.5775 39.5926 29.1773 39.6215 28.6698C39.6499 28.1723 39.2862 27.7023 38.7767 27.6595C38.2604 27.6161 37.7387 27.6327 37.2193 27.6299C36.2741 27.6248 35.5298 27.2492 35.0668 26.4133C34.2594 24.9554 35.155 23.1904 36.806 22.9579C36.921 22.9417 37.0368 22.9314 37.1958 22.9135C37.1958 22.651 37.1939 22.3861 37.1962 22.1214C37.2005 21.6441 37.4824 21.3204 37.8837 21.3283C38.2748 21.336 38.5503 21.659 38.5532 22.1154C38.5548 22.3741 38.5535 22.6328 38.5535 22.9297C38.9789 22.9297 39.3877 22.9235 39.7961 22.9316C40.1267 22.9381 40.3996 23.1714 40.468 23.4848C40.5311 23.7745 40.3655 24.0976 40.0623 24.2244C39.9436 24.274 39.8016 24.2831 39.6699 24.284C38.8454 24.2891 38.0208 24.2815 37.1963 24.2884C36.5772 24.2936 36.1477 24.6774 36.1254 25.2266C36.1019 25.8066 36.5226 26.2504 37.116 26.2663C37.7425 26.2832 38.3768 26.2389 38.9938 26.323C39.9836 26.4581 40.6297 27.069 40.8949 28.0239C41.1465 28.9299 40.89 29.7224 40.2007 30.365C39.7474 30.7879 39.1919 30.9625 38.553 30.9783Z" fill="white"/>
<defs>
<filter id="filter0_d_658_6701" x="0" y="0" width="73" height="73" filterUnits="userSpaceOnUse" color-interpolation-filters="sRGB">
<feFlood flood-opacity="0" result="BackgroundImageFix"/>
<feColorMatrix in="SourceAlpha" type="matrix" values="0 0 0 0 0 0 0 0 0 0 0 0 0 0 0 0 0 0 127 0" result="hardAlpha"/>
<feOffset dy="10"/>
<feGaussianBlur stdDeviation="6.5"/>
<feComposite in2="hardAlpha" operator="out"/>
<feColorMatrix type="matrix" values="0 0 0 0 0.0941176 0 0 0 0 0.576471 0 0 0 0 0.529412 0 0 0 0.41 0"/>
<feBlend mode="normal" in2="BackgroundImageFix" result="effect1_dropShadow_658_6701"/>
<feBlend mode="normal" in="SourceGraphic" in2="effect1_dropShadow_658_6701" result="shape"/>
</filter>
</defs>
</svg>
