<svg width="34" height="34" viewBox="0 0 34 34" fill="none" xmlns="http://www.w3.org/2000/svg">
<path d="M21.5638 19.255L14.6913 26.1275L17 28.4362L19.3087 26.1275L17 23.8188M14.745 21.5638L7.87248 14.6913L5.56376 17L7.87248 19.3087L10.1812 17M12.4362 14.6913L19.3087 7.87248L17 5.56376L14.6913 7.87248L17 10.1812M19.3087 12.4362L26.1812 19.3087L28.4899 17L26.1812 14.6913L23.8725 17M19.3087 17L10.1812 26.1275L17.0537 33L23.8725 26.1275L19.3087 21.5638M17 19.255L7.87248 10.1275L1 17L7.87248 23.8725L12.4362 19.3087M14.6913 17L23.8188 7.87248L17 0.999999L10.1275 7.87248L14.6913 12.4362M17 14.6913L26.1275 23.8188L33 17L26.1275 10.1275L21.5638 14.6913" stroke="#313A4B" stroke-miterlimit="22.926"/>
</svg>
