<svg width="30" height="37" viewBox="0 0 30 37" fill="none" xmlns="http://www.w3.org/2000/svg">
<path d="M0.5 0.5H21.3807L29.5 7.41241V34.5H0.5V0.5Z" fill="white" stroke="#313A4B"/>
<rect x="0.5" y="24.4922" width="28.9986" height="11.4994" rx="0.5" fill="#F32323" stroke="#313A4B"/>
<path d="M6.16968 33.114C6.03635 32.9753 5.96968 32.8073 5.96968 32.61C5.96968 32.4127 6.03635 32.2473 6.16968 32.114C6.30835 31.9753 6.47635 31.906 6.67368 31.906C6.87102 31.906 7.03635 31.9753 7.16968 32.114C7.30835 32.2473 7.37768 32.4127 7.37768 32.61C7.37768 32.8073 7.30835 32.9753 7.16968 33.114C7.03635 33.2473 6.87102 33.314 6.67368 33.314C6.47635 33.314 6.30835 33.2473 6.16968 33.114ZM10.3864 31.69H9.64237V33.25H8.39437V27.658H10.3704C11.229 27.658 11.853 27.826 12.2424 28.162C12.637 28.4927 12.8344 29.0047 12.8344 29.698C12.8344 30.386 12.6317 30.89 12.2264 31.21C11.8264 31.53 11.213 31.69 10.3864 31.69ZM10.3544 28.73H9.64237V30.61H10.4824C10.8984 30.61 11.181 30.5273 11.3304 30.362C11.4797 30.1913 11.5544 29.946 11.5544 29.626C11.5544 29.3007 11.4557 29.0713 11.2584 28.938C11.0664 28.7993 10.765 28.73 10.3544 28.73ZM15.6004 33.25H13.6884V27.658H15.6644C16.6618 27.658 17.4271 27.9033 17.9604 28.394C18.4938 28.8793 18.7604 29.5567 18.7604 30.426C18.7604 31.2953 18.4991 31.9833 17.9764 32.49C17.4591 32.9967 16.6671 33.25 15.6004 33.25ZM15.6324 28.746H14.9364V32.146H15.7284C16.2991 32.146 16.7364 32.002 17.0404 31.714C17.3498 31.426 17.5044 31.0073 17.5044 30.458C17.5044 29.9087 17.3498 29.4873 17.0404 29.194C16.7364 28.8953 16.2671 28.746 15.6324 28.746ZM23.5569 27.658V28.754H20.9649V29.962H23.4289V31.058H20.9649V33.25H19.7169V27.658H23.5569Z" fill="white"/>
<path d="M14.6464 17.3536C14.8417 17.5488 15.1583 17.5488 15.3536 17.3536L18.5355 14.1716C18.7308 13.9763 18.7308 13.6597 18.5355 13.4645C18.3403 13.2692 18.0237 13.2692 17.8284 13.4645L15 16.2929L12.1716 13.4645C11.9763 13.2692 11.6597 13.2692 11.4645 13.4645C11.2692 13.6597 11.2692 13.9763 11.4645 14.1716L14.6464 17.3536ZM14.5 10L14.5 17L15.5 17L15.5 10L14.5 10Z" fill="#313A4B"/>
</svg>
