<svg width="73" height="76" viewBox="0 0 73 76" fill="none" xmlns="http://www.w3.org/2000/svg">
<g filter="url(#filter0_d_658_6712)">
<rect x="13" y="3.6875" width="47" height="48.4764" rx="5" fill="#EE8842"/>
</g>
<path d="M22 32.3341C22.1144 32.0393 22.3427 31.8684 22.5981 31.7104C24.1517 30.7496 25.6863 29.755 27.2546 28.8209C28.9084 27.8359 30.6945 27.3751 32.6058 27.6937C33.2768 27.8055 33.9273 28.0547 34.5829 28.2557C35.8323 28.6388 37.0788 29.0317 38.3263 29.4218C38.8442 29.5837 39.0095 29.8157 39.0081 30.3706C39.0048 31.7049 38.085 32.7539 36.8052 32.92C35.3913 33.1035 33.9746 33.0758 32.5568 33.023C32.0855 33.0055 31.7633 32.6705 31.781 32.2444C31.7987 31.8198 32.1443 31.5332 32.6199 31.5332C33.7463 31.5331 34.8728 31.5338 35.9992 31.518C36.2688 31.5142 36.5394 31.457 36.8063 31.4059C37.1594 31.3382 37.3881 31.1165 37.5031 30.7408C37.4242 30.7095 37.3511 30.6751 37.2747 30.6512C35.8572 30.2066 34.4355 29.7757 33.0226 29.3162C31.7326 28.8966 30.4765 29.0761 29.2404 29.5171C28.7659 29.6864 28.305 29.9204 27.8715 30.1838C26.327 31.1222 24.7973 32.0865 23.2613 33.04C22.6754 33.4037 22.3187 33.3016 22.0001 32.6831C22 32.5667 22 32.4504 22 32.3341Z" fill="white"/>
<path d="M49.0495 28.2455C48.5102 27.9298 48.0311 28.0659 47.5586 28.294C45.7239 29.1795 43.889 30.0646 42.0572 30.9565C41.8233 31.0704 41.5941 31.1206 41.3547 31.0158C41.092 30.9009 40.9317 30.6924 40.9236 30.3905C40.9146 30.0612 41.0538 29.8088 41.3449 29.6639C42.0544 29.3109 42.7647 28.9593 43.4782 28.615C44.6503 28.0491 45.825 27.4889 46.999 26.9273C47.6444 26.6186 48.3146 26.4588 49.0217 26.6367C49.7056 26.8087 50.2458 27.2109 50.645 27.8077C50.9835 28.3138 50.9221 28.6901 50.4462 29.0533C49.8575 29.5026 49.2652 29.9467 48.6744 30.3929C45.902 32.4868 43.1223 34.5706 40.3604 36.6791C39.1153 37.6296 37.7635 37.925 36.2425 37.6553C33.6352 37.1929 31.0196 36.781 28.4058 36.3584C28.2971 36.3409 28.1485 36.4009 28.0584 36.4758C27.4883 36.9501 26.929 37.4382 26.3673 37.923C26.174 38.0899 25.964 38.2102 25.7018 38.1655C25.4191 38.1172 25.2132 37.954 25.1309 37.6697C25.04 37.3559 25.1155 37.0723 25.3627 36.8572C25.9657 36.3327 26.5933 35.8361 27.1719 35.2846C27.5895 34.8866 28.0113 34.7735 28.5771 34.8723C31.2226 35.3342 33.8778 35.7367 36.5234 36.1974C37.6274 36.3897 38.5898 36.1739 39.493 35.4853C42.5883 33.1252 45.6993 30.787 48.8041 28.4401C48.8778 28.3844 48.9491 28.3253 49.0495 28.2455Z" fill="white"/>
<path d="M41.6297 22.8239C41.6342 25.2122 39.7578 27.1552 37.4447 27.1574C35.1345 27.1596 33.2506 25.2221 33.2422 22.8352C33.2339 20.4609 35.1243 18.5058 37.434 18.5C39.7441 18.4942 41.6252 20.4328 41.6297 22.8239ZM37.4481 25.6719C38.9556 25.6629 40.1859 24.3938 40.1946 22.8388C40.2033 21.2814 38.9454 19.9875 37.4313 19.9966C35.9158 20.0056 34.6917 21.2674 34.6855 22.8268C34.6792 24.384 35.9385 25.681 37.4481 25.6719Z" fill="white"/>
<path d="M42.3401 18.6921C40.5294 18.6789 39.0671 17.15 39.0861 15.2898C39.105 13.4412 40.5851 11.9296 42.3686 11.9375C44.1769 11.9456 45.6364 13.466 45.6286 15.3336C45.6207 17.2077 44.1544 18.7052 42.3401 18.6921ZM40.5382 15.3214C40.539 16.3612 41.3551 17.2091 42.3605 17.2144C43.3711 17.2197 44.215 16.3471 44.2041 15.3079C44.1931 14.2715 43.3644 13.4276 42.3612 13.4311C41.3545 13.4348 40.5375 14.2819 40.5382 15.3214Z" fill="white"/>
<defs>
<filter id="filter0_d_658_6712" x="0" y="0.6875" width="73" height="74.4766" filterUnits="userSpaceOnUse" color-interpolation-filters="sRGB">
<feFlood flood-opacity="0" result="BackgroundImageFix"/>
<feColorMatrix in="SourceAlpha" type="matrix" values="0 0 0 0 0 0 0 0 0 0 0 0 0 0 0 0 0 0 127 0" result="hardAlpha"/>
<feOffset dy="10"/>
<feGaussianBlur stdDeviation="6.5"/>
<feComposite in2="hardAlpha" operator="out"/>
<feColorMatrix type="matrix" values="0 0 0 0 0.933333 0 0 0 0 0.533333 0 0 0 0 0.258824 0 0 0 0.41 0"/>
<feBlend mode="normal" in2="BackgroundImageFix" result="effect1_dropShadow_658_6712"/>
<feBlend mode="normal" in="SourceGraphic" in2="effect1_dropShadow_658_6712" result="shape"/>
</filter>
</defs>
</svg>
