<svg width="100" height="100" viewBox="0 0 100 100" fill="none" xmlns="http://www.w3.org/2000/svg">
<path id="Vector" d="M63.6913 56.7651L43.0738 77.3825L50 84.3087L56.9262 77.3825L50 70.4564M43.2349 63.6913L22.6175 43.0738L15.6913 50L22.6175 56.9262L29.5436 50M36.3087 43.0738L56.9262 22.6175L50 15.6913L43.0738 22.6175L50 29.5436M56.9262 36.3087L77.5436 56.9262L84.4698 50L77.5436 43.0738L70.6174 50M56.9262 50L29.5436 77.3825L50.1611 98L70.6174 77.3825L56.9262 63.6913M50 56.7651L22.6175 29.3826L2 50L22.6175 70.6175L36.3087 56.9262M43.0738 50L70.4564 22.6175L50 2L29.3826 22.6175L43.0738 36.3087M50 43.0738L77.3825 70.4564L98 50L77.3826 29.3826L63.6913 43.0738" stroke="white" stroke-opacity="0.33" stroke-width="1.57" stroke-miterlimit="22.926"/>
</svg>
