<svg width="248" height="248" viewBox="0 0 248 248" fill="none" xmlns="http://www.w3.org/2000/svg">
<path id="Vector" d="M123.892 108.059V139.508M141.46 198.284C139.941 206.309 132.784 212.599 124.325 212.599C115.867 212.599 108.276 206.526 106.974 198.068M198.284 107.191C206.526 108.709 212.599 116.084 212.599 124.325C212.599 132.784 206.526 139.941 198.284 141.46M106.974 49.4987C108.492 41.2569 115.867 35.184 124.108 35.184C132.567 35.184 139.724 41.2569 141.243 49.4987M49.4987 141.243C41.2569 139.724 35.184 132.35 35.184 124.108C35.184 115.65 41.2569 108.492 49.4987 106.974M134.953 195.682C134.736 201.321 129.964 205.876 124.108 205.876C118.252 205.876 113.481 201.321 113.264 195.465M195.899 113.481C201.538 113.698 206.092 118.686 206.092 124.325C206.092 129.964 201.755 134.736 195.899 135.17M113.264 52.1013C113.481 46.4622 118.469 41.9076 124.108 41.9076C129.748 41.9076 134.519 46.4622 134.953 52.1013M52.1013 134.736C46.4622 134.519 41.9076 129.531 41.9076 123.892C41.9076 118.252 46.2453 113.481 52.1013 113.047M119.988 241.445C120.855 243.18 123.024 245.349 124.325 246C126.494 244.916 128.229 243.18 128.663 241.879M241.879 128.446C243.614 127.579 245.349 125.41 246 124.108C244.916 121.94 242.964 120.421 241.879 119.988M128.446 6.33778C127.579 4.60267 125.41 2.65067 124.108 2C121.94 3.08444 120.421 5.03644 119.988 6.12089M6.33778 119.771C4.60267 120.638 2.65067 122.59 2 123.892C3.08444 126.06 5.03645 127.796 6.12089 128.229M117.602 233.637C121.072 234.722 127.579 234.939 130.832 233.637M233.854 130.181C234.939 126.711 234.722 120.638 233.637 117.385M130.615 14.1458C127.145 13.0613 120.855 13.0613 117.385 14.1458M14.1458 116.951C13.0613 120.421 13.0613 126.711 14.1458 130.181M116.3 231.468C116.734 230.601 117.168 228.866 116.951 227.998C120.421 229.516 127.579 229.733 131.483 227.998M231.252 132.35C230.601 131.7 229.083 131.266 228.215 131.483C229.733 128.012 229.95 120.855 228.215 116.951M132.133 16.3147C131.483 16.9653 131.049 18.7004 131.049 19.568M131.049 19.568C127.579 18.0498 120.638 18.0498 116.734 19.568M131.049 19.568C132.35 21.7369 137.339 21.0862 141.026 18.2667C146.014 14.7964 151.003 12.8444 155.774 12.4107C165.534 11.9769 173.559 18.0498 174.644 28.4604C183.97 21.7369 200.887 27.5929 200.236 43.2089V72.0551M16.0978 115.433C16.7484 116.084 18.4836 116.517 19.3511 116.517M19.3511 116.517C17.8329 119.988 18.0498 127.145 19.7849 131.049M19.3511 116.517C21.52 115.216 20.8693 110.228 18.0498 106.54C14.5796 101.552 12.6276 96.5636 12.1938 91.792C11.76 82.032 17.8329 74.0071 28.2436 72.9227C21.52 63.5964 27.376 46.6791 42.992 47.3298H71.8382M115.65 16.3147C116.3 16.9653 116.951 18.4836 116.951 19.568C115.65 21.7369 110.661 20.8693 107.191 18.0498C102.203 14.5796 97.2142 12.6276 92.4427 12.1938C82.6827 11.5431 74.6578 17.8329 73.5733 28.2436C64.2471 21.52 47.3298 27.376 47.9804 42.7751V47.5467M231.468 115.867C230.818 116.517 229.3 117.168 228.215 117.168M132.567 231.468C131.916 230.818 131.266 229.3 131.266 228.215M16.5316 132.133C17.1822 131.483 18.7004 130.832 19.7849 130.832M19.3511 76.3929C14.7964 71.1876 18.9173 62.0782 25.6409 61.8613M171.173 19.568C176.379 15.0133 185.488 19.1342 185.705 25.8578M228.432 170.74C232.987 175.945 228.866 185.054 222.142 185.271M76.8267 228.215C71.6213 232.77 62.512 228.649 62.2951 221.925M76.8267 19.1342C71.6213 14.5796 62.512 18.7004 62.2951 25.424M228.649 77.0436C233.204 71.8382 229.083 62.7289 222.359 62.512M171.39 228.432C176.596 232.987 185.705 228.649 185.922 222.142M19.568 170.956C15.0133 176.162 19.1342 185.271 25.8578 185.488M117.168 228.215C115.867 226.046 110.661 226.914 106.974 229.733C101.986 233.204 96.9973 235.156 92.2258 235.589C82.4658 236.24 74.4409 229.95 73.3564 219.54C64.0302 226.263 47.1129 220.407 47.7636 204.791V175.945M47.7636 57.0898V93.3102C47.1129 107.625 55.1378 122.373 64.0302 123.675C55.1378 124.542 47.3298 139.508 47.9804 153.822V165.968M52.752 166.185C52.5351 155.34 52.5351 145.364 56.4391 137.989C60.1262 130.615 67.2836 124.976 77.4773 123.892C67.5004 122.807 60.1262 116.951 56.2222 109.577C52.5351 102.203 52.3182 92.2258 52.5351 81.3813M228.432 117.168C226.263 115.867 226.914 110.878 229.733 107.408C233.204 102.42 235.156 97.4311 235.589 92.6596C236.24 82.8996 229.95 74.8747 219.54 73.7902C226.263 64.464 220.407 47.5467 204.791 48.1973H200.02M81.5982 47.5467H93.744C108.059 47.1129 123.024 55.3547 124.108 64.0302C124.976 55.3547 139.941 47.3298 154.256 47.9804H190.476M166.402 52.752C155.557 52.5351 145.58 52.5351 138.206 56.4391C130.832 60.1262 125.193 67.2836 123.892 77.2604C122.807 67.2836 117.168 59.6924 109.577 56.0053C102.203 52.3182 92.2258 52.1013 81.3813 52.3182M195.248 166.185C195.465 155.34 195.248 145.364 191.561 137.989C187.657 130.615 180.933 125.193 170.956 123.892C180.933 122.807 188.091 117.385 191.778 110.011C195.465 102.636 195.682 92.6596 195.465 81.8151M200.236 190.26L200.02 154.039C200.453 139.724 192.862 125.193 184.187 123.892C192.862 122.59 200.67 108.492 200.236 93.9609V81.8151M200.236 81.8151C193.296 82.032 183.319 82.032 175.945 82.032M200.236 81.8151C212.816 82.4658 220.841 93.9609 219.106 107.842C218.672 111.529 218.889 114.348 219.756 116.734C221.275 120.855 224.528 123.024 227.998 123.675C228.432 123.675 228.866 123.892 229.3 123.892M131.266 228.432C132.567 226.263 137.556 226.914 141.243 229.733C146.231 233.204 151.22 235.156 155.991 235.372C165.751 235.806 173.776 229.733 174.86 219.323C184.187 226.046 201.104 220.19 200.453 204.574V199.803M81.5982 195.031C92.4427 195.248 102.42 195.031 109.794 191.344C117.168 187.657 122.807 180.5 123.892 170.523C124.976 180.5 130.615 187.657 138.206 191.561C145.58 195.248 155.774 195.465 166.402 195.031M228.215 130.615C226.046 131.916 226.697 136.905 229.516 140.375C232.987 145.364 235.156 150.352 235.372 155.124C236.023 164.884 229.733 172.908 219.323 173.993C226.046 183.319 220.19 200.236 204.791 199.586H175.945M57.5236 200.02H93.744C108.059 200.453 122.807 192.862 123.892 183.97C124.976 192.645 139.724 200.67 154.039 200.02H166.185M19.568 130.832C21.7369 132.133 21.0862 137.122 18.2667 140.592C14.7964 145.58 12.8444 150.569 12.4107 155.34C11.9769 165.1 18.0498 173.125 28.4604 174.21C21.7369 183.536 27.5929 200.453 43.2089 199.803H47.9804M81.5982 52.5351C105.456 54.4871 123.241 76.3929 123.458 101.769M42.5582 76.6098C26.2916 76.176 26.9422 52.5351 42.992 52.3182H71.8382M195.248 81.8151C193.296 105.673 171.607 123.892 146.231 123.892H129.531C129.531 129.531 129.531 134.953 129.531 139.941M171.173 42.7751C171.607 26.7253 195.248 27.1591 195.465 43.2089V72.0551M166.185 195.031C142.544 193.296 124.325 171.607 124.325 146.231M205.442 170.74C221.492 171.173 221.058 194.814 205.008 195.031L176.162 195.248M52.752 165.968C54.704 142.11 76.3929 123.675 101.769 123.675M77.0435 205.225C76.6098 221.275 52.9689 220.841 52.752 204.791V175.945M52.5351 57.3067V78.5618C52.752 103.721 75.3084 123.675 101.769 123.892H118.469M76.8267 42.3413C76.3929 26.2916 52.752 26.7253 52.5351 42.7751V47.5467M190.476 52.752H169.221C143.845 53.1858 124.542 75.5253 124.542 101.986M205.442 77.0436C221.492 76.6098 221.058 52.9689 205.008 52.752H200.236M195.465 190.043V168.788C194.814 143.628 172.475 123.892 146.014 123.892M171.173 205.225C171.607 221.275 195.248 220.624 195.465 204.574V199.803M57.5236 195.248H78.7787C104.155 194.814 123.458 172.475 123.458 146.014M42.5582 170.74C26.5084 171.173 26.9422 194.814 42.992 195.031H47.7636M118.252 107.625C118.252 112.613 118.252 118.252 118.252 123.892M118.252 107.625C109.143 106.324 103.504 103.07 99.6 98.5156C94.1778 92.6596 96.1298 84.4178 102.853 82.6827C108.492 81.3813 113.481 86.3698 111.746 91.792C109.794 96.7804 103.287 95.2622 103.07 91.3582C102.853 89.1893 105.022 88.1049 106.54 88.5387C108.059 88.9724 108.709 90.7076 107.842 91.792M118.252 107.625C119.771 107.842 122.59 108.059 124.108 108.059M81.5982 57.5236C98.7324 59.2587 114.999 72.4889 117.819 97.4311C118.036 98.7324 118.036 100.034 118.036 101.335M47.7636 71.8382H44.2933C33.4489 71.6213 33.6658 57.3067 44.0764 57.3067H72.0551M102.853 82.8996C99.8169 77.0436 87.888 71.6213 78.9956 71.8382H57.5236M190.26 81.8151C188.524 98.9493 175.294 115.216 150.352 118.036C144.279 118.686 137.339 118.469 129.531 118.469M175.945 47.9804V44.5102C176.162 33.6658 190.476 33.8827 190.476 44.2933V72.272M164.884 103.287C170.74 100.251 176.162 88.3218 175.945 79.4293V57.9573M164.884 103.287C163.365 96.5636 154.907 94.6116 149.051 100.034C144.279 104.155 141.026 109.577 140.158 118.686M164.884 103.287C166.185 108.926 161.196 113.915 155.774 112.18C150.786 110.011 152.304 103.721 156.208 103.504C158.377 103.287 159.461 105.456 159.028 106.757C158.594 108.276 157.076 108.926 155.774 108.059M166.402 190.043C149.268 188.308 133.001 175.294 130.181 150.135C129.964 148.834 129.964 147.532 129.748 146.231M200.02 175.511H203.49C214.334 175.728 214.117 190.043 203.707 190.043H175.728M144.93 164.884C147.966 170.74 159.895 176.162 169.004 175.728H190.476M57.7404 165.968C59.6924 148.834 72.7058 132.567 97.648 129.964C103.721 129.314 110.661 129.531 118.252 129.531M72.0551 199.803V203.273C71.8382 214.117 57.5236 213.9 57.5236 203.49V175.511M83.1164 144.713C77.2604 147.749 71.8382 159.678 72.272 168.571V190.043M83.1164 144.713C84.6347 151.436 93.0933 153.388 98.9493 147.966C103.721 143.845 106.974 138.423 107.842 129.314M83.1164 144.713C81.8151 139.074 86.8035 134.085 92.2258 135.82C97.2142 137.989 95.696 144.279 91.792 144.496C89.6231 144.713 88.5387 142.544 88.9724 141.243C89.4062 139.724 90.9244 139.074 92.2258 139.941M57.5236 57.3067V77.2604C57.5236 95.9129 70.5369 114.565 97.648 117.602C98.2987 117.602 100.468 118.036 102.636 118.036C105.022 118.252 107.191 118.252 107.842 118.252C111.312 118.252 114.999 118.252 118.686 118.469M72.0551 71.8382V44.0764C71.8382 33.232 57.5236 33.4489 57.5236 43.8596V47.5467M82.8996 102.853C77.6942 100.034 72.4889 90.0569 72.0551 81.3813M82.8996 102.853C84.4178 95.9129 92.8764 94.1778 98.7324 99.6C103.504 103.721 106.757 109.143 107.625 118.252M82.8996 102.853C81.5982 108.492 86.5867 113.481 92.0089 111.746C96.9973 109.577 95.4791 103.287 91.5751 103.07C89.4062 102.853 88.3218 105.022 88.7556 106.324C89.1893 107.842 90.7076 108.492 92.0089 107.625M129.531 107.842C129.314 113.264 129.531 118.686 129.314 124.108M190.476 57.7404H170.523C151.87 57.7404 133.218 70.9707 130.181 97.8649C129.964 98.9493 129.964 100.251 129.964 101.335M175.945 72.272H203.707C214.551 72.0551 214.334 57.7404 203.924 57.7404H200.236M144.93 83.1164C147.749 77.9111 157.726 72.7058 166.402 72.272M190.476 190.26V170.306C190.476 151.653 177.246 133.218 150.135 130.181C149.484 130.181 147.316 129.964 145.147 129.748C142.978 129.531 140.592 129.748 140.158 129.531C136.688 129.531 133.001 129.531 129.531 129.531M175.945 175.728V203.49C176.162 214.334 190.476 214.117 190.476 203.707V200.02M164.884 144.713C170.306 147.532 175.294 157.509 175.945 165.968M118.469 139.941C118.469 134.519 118.252 129.097 118.252 123.675M57.5236 190.26H77.4773C96.1298 190.26 114.782 177.029 117.819 150.135C118.036 149.051 118.036 147.749 118.036 146.665M72.0551 175.728H44.2933C33.4489 175.945 33.6658 190.26 44.0764 190.26H47.7636M103.07 164.667C100.251 170.089 90.2738 175.077 81.5982 175.511M103.287 92.4427C104.805 96.7804 109.577 100.251 118.036 101.552C119.337 101.769 122.59 101.986 124.325 101.986M155.34 103.504C151.003 105.022 147.966 109.794 146.665 118.252M144.496 155.34C142.978 151.003 138.206 147.749 129.748 146.448C128.663 146.231 125.627 146.014 123.675 146.014M92.6596 144.279C96.9973 142.761 100.034 137.989 101.335 129.531M92.4427 103.287C96.7804 104.805 99.8169 109.577 101.118 118.036M144.496 92.6596C142.761 97.8649 136.254 101.335 123.892 101.769M155.34 144.496C151.003 142.978 147.966 138.423 146.665 129.748M103.504 155.124C105.239 149.918 111.746 146.448 124.108 145.797M45.3778 76.6098C32.5813 76.176 25.6409 77.0436 20.6524 81.8151C15.8809 86.3698 15.0133 94.8284 19.3511 102.42C22.8213 107.625 23.9058 115.216 20.6524 117.819C20.2187 118.252 19.568 118.469 18.7004 118.686M171.173 45.8116C171.607 33.0151 170.523 26.0747 165.968 21.0862C161.413 16.3147 152.955 15.4471 145.364 20.0018C139.724 23.6889 131.916 24.7733 129.531 20.6524C129.314 20.4356 129.097 19.7849 129.097 19.1342M202.405 170.74C215.202 171.173 222.142 170.089 227.131 165.534C231.902 160.98 232.77 152.521 228.215 144.93C224.528 139.291 223.444 130.832 227.781 128.88C227.781 128.88 228.215 128.663 228.432 128.663C228.649 128.663 228.866 128.663 228.866 128.663M76.8267 202.622C76.8267 203.49 76.8267 207.394 76.8267 208.261C77.0436 217.154 78.3449 222.576 82.032 226.697C86.5867 231.468 95.0453 232.336 102.636 227.781C106.974 224.962 112.613 223.66 116.084 224.962C117.168 225.396 118.252 226.263 118.686 227.348C118.686 227.564 118.903 227.998 118.903 228.215M76.8267 45.3778C76.3929 32.5813 77.4773 25.6409 82.032 20.6524C86.5867 15.8809 95.0453 15.0133 102.636 19.568C108.276 23.2551 116.3 24.3396 118.686 20.2187C118.903 20.0018 118.903 19.568 118.903 19.3511M202.405 77.0436C215.202 76.6098 222.142 77.6942 227.131 82.2489C231.902 86.8036 232.77 95.2622 228.215 102.853C224.528 108.492 223.444 116.517 227.564 118.903C227.781 119.12 228.215 119.12 228.649 119.337M171.173 202.188C171.607 214.985 170.74 221.925 165.968 226.914C161.413 231.685 153.172 232.553 145.364 228.215C139.724 224.528 131.483 223.444 129.314 227.781C129.097 227.998 129.097 228.649 129.097 228.866M45.5947 170.956C32.7982 171.39 25.8578 170.306 20.8693 165.751C16.0978 161.196 15.2302 152.738 19.7849 145.147C21.0862 143.195 21.9538 140.809 22.6044 138.64C23.472 134.953 23.2551 131.266 21.3031 129.531C20.8693 129.097 20.0018 128.88 19.3511 128.663M57.5236 76.6098C66.416 76.6098 77.0435 76.8267 79.4293 76.8267C87.2373 76.8267 95.696 81.3813 98.7324 85.5022M18.4836 121.072C18.9173 121.072 20.0018 120.855 20.4356 120.638C24.1227 119.554 26.2916 114.782 25.6409 110.878C24.5564 103.504 23.472 98.2987 24.9902 92.8764C27.8098 82.6827 36.2684 76.3929 46.6791 76.3929C46.896 76.3929 47.3298 76.3929 47.5467 76.3929M171.173 57.7404C171.173 66.6329 170.956 77.2604 170.956 79.6462C170.956 87.4542 166.619 95.9129 162.281 98.9493M126.711 18.7004C126.711 18.9173 126.711 19.7849 126.711 20.0018C127.145 24.3396 132.567 26.7253 136.471 26.0747C143.628 24.9902 149.051 23.9058 154.473 25.424C164.667 28.2436 170.956 36.4853 170.956 47.1129C170.956 47.3298 170.956 47.7636 170.956 47.9804M190.476 170.956C181.584 170.956 170.956 170.956 168.571 170.956C160.763 170.956 152.304 166.619 149.268 162.498M229.3 126.277C229.083 126.277 228.215 126.494 227.781 126.494C223.66 127.362 221.275 132.35 222.142 136.254C223.227 143.412 224.311 148.834 222.793 154.256C219.973 164.45 211.732 170.74 201.104 170.74C200.887 170.74 200.453 170.74 200.236 170.74M76.8267 190.26C76.8267 181.367 77.0435 170.74 77.0435 168.354C77.0435 160.546 81.3813 152.087 85.7191 149.051M121.289 228.866C121.289 228.649 121.289 227.998 121.072 227.781C120.421 223.66 115.216 221.275 111.312 221.925C104.155 223.01 98.7324 224.094 93.3102 222.576C83.1164 219.756 76.8267 211.515 76.8267 200.887C76.8267 200.67 76.8267 200.236 76.8267 200.02M77.0435 81.8151C77.9111 88.7556 81.8151 95.9129 85.5022 98.5156M121.289 18.9173C121.289 19.1342 121.289 19.568 121.289 19.7849C120.855 24.1227 115.433 26.5084 111.529 25.6409C104.372 24.5564 98.9493 23.472 93.5271 24.9902C83.3333 27.8098 77.0435 36.0516 77.0435 46.6791C77.0435 51.6676 77.0435 63.8133 77.0435 71.8382M165.968 77.2604C159.028 78.128 151.87 82.032 149.268 85.7191M229.083 121.506C228.866 121.506 228.432 121.506 228.215 121.506C223.877 121.072 221.492 115.65 222.142 111.746C223.227 104.588 224.311 99.1662 222.793 93.744C219.973 83.5502 211.732 77.2604 201.104 77.2604C196.116 77.2604 183.97 77.2604 175.945 77.4773M170.74 165.751C169.872 158.811 165.968 151.653 162.281 149.051M126.928 229.083C126.928 228.866 126.928 228.432 126.928 228.215C127.362 223.877 132.784 221.492 136.688 222.142C144.062 223.227 149.268 224.311 154.69 222.793C164.884 219.756 171.173 211.515 171.173 201.104C171.173 196.116 170.956 183.97 170.956 175.945M82.032 170.523C88.9724 169.655 96.1298 165.751 98.7324 162.064M18.4836 126.277C19.1342 126.277 20.6524 126.711 21.3031 126.928C24.7733 128.229 26.5084 132.784 25.8578 136.471C24.7733 143.628 23.6889 149.051 25.2071 154.473C28.0267 164.667 36.2684 170.956 46.896 170.956C51.8844 170.956 64.0302 170.956 72.0551 170.74M47.7636 81.3813C35.184 82.032 27.1591 93.5271 28.8942 107.408C29.328 111.095 29.1111 113.915 28.2436 116.3C26.7253 120.204 23.6889 122.373 20.4356 123.241C20.0018 123.241 18.9173 123.458 18.4836 123.458M96.5635 90.9244C95.2622 86.5867 86.5867 81.5982 79.6462 81.3813C75.3084 81.3813 66.1991 81.3813 57.7404 81.3813M166.402 47.9804C165.751 35.4009 154.256 27.376 140.375 29.1111C136.688 29.5449 133.868 29.328 131.483 28.4604C127.362 26.9422 125.193 23.6889 124.542 20.0018C124.542 19.7849 124.542 18.9173 124.325 18.7004M156.859 96.7804C161.196 95.4791 165.968 86.8036 166.185 79.8631C166.185 75.5253 166.185 66.416 166.185 57.9573M200.236 165.968C212.816 165.317 220.841 153.822 218.889 139.941C218.455 136.254 218.672 133.435 219.54 131.049C221.058 126.711 224.528 124.542 228.432 124.108C228.649 124.108 229.3 124.108 229.516 124.108M151.22 156.642C152.521 160.98 161.196 165.751 168.137 165.968C172.475 165.968 181.584 165.968 190.043 165.968M81.8151 200.02C82.4658 212.599 93.9609 220.624 107.842 218.889C111.529 218.455 114.348 218.672 116.734 219.54C120.855 221.058 123.024 224.311 123.675 227.781C123.675 228.215 123.892 228.866 123.892 229.3M91.1413 151.003C86.8035 152.304 82.032 160.98 81.8151 167.92C81.8151 172.258 81.8151 181.367 81.8151 189.826M81.8151 71.8382C81.8151 64.464 81.8151 54.4871 81.8151 47.5467C82.4658 34.9671 93.9609 26.9422 107.842 28.8942C111.529 29.328 114.348 29.1111 116.734 28.2436C121.289 26.5084 123.458 22.8213 123.675 18.9173M91.1413 96.5636C87.2373 95.4791 82.8996 88.1049 82.032 81.5982M151.22 91.3582C152.304 87.4542 159.678 83.1164 166.185 82.032M166.185 175.728C166.185 183.102 166.402 193.079 166.402 200.02C165.968 212.599 154.256 220.624 140.592 218.889C136.905 218.455 134.085 218.672 131.7 219.54C127.145 221.275 125.193 224.962 124.759 228.866M156.642 151.22C160.546 152.304 164.884 159.461 165.968 166.185M72.272 165.968C64.8978 165.968 54.9209 165.968 47.9804 166.185C35.4009 165.534 27.376 154.039 29.1111 140.158C29.5449 136.471 29.328 133.652 28.4604 131.266C26.7253 126.711 22.6044 124.542 18.4836 124.108M96.7804 156.642C95.696 160.546 88.3218 164.884 81.8151 165.968M139.941 155.991C139.074 157.076 139.941 158.811 141.243 159.244C142.761 159.678 144.713 158.377 144.496 156.425C144.279 152.521 137.772 151.003 135.82 155.991C134.085 161.413 139.074 166.402 144.713 165.1C151.436 163.365 153.388 155.124 147.966 149.268C144.062 144.713 138.64 141.243 129.314 140.375C127.579 140.158 124.759 139.941 123.675 140.158M123.675 108.276C136.471 108.276 143.412 104.805 147.966 99.1662C153.388 93.3102 151.436 84.8516 144.713 83.3333C139.074 82.032 134.085 87.0204 135.82 92.4427C137.989 97.4311 144.279 95.9129 144.496 92.0089C144.713 89.84 142.544 88.7556 141.243 89.1893C139.724 89.6231 139.074 91.1413 139.941 92.4427M139.941 129.531C141.026 138.64 144.279 144.062 148.834 148.183C154.69 153.605 163.148 151.653 164.667 144.93C165.968 139.291 160.98 134.302 155.557 136.037C150.569 138.206 152.087 144.496 155.991 144.713C158.16 144.93 159.244 142.761 158.811 141.46C158.377 139.941 156.859 139.291 155.557 140.158M124.325 139.724C111.529 139.724 104.588 143.412 100.034 148.834C94.6115 154.69 96.5635 163.148 103.287 164.667C108.926 165.968 113.915 160.98 112.18 155.557C110.011 150.569 103.721 152.087 103.504 155.991C103.287 158.16 105.456 159.244 106.757 158.811C108.276 158.377 108.926 156.859 108.059 155.557M10.8924 112.613C9.59111 113.047 9.15733 114.999 10.6756 116.517C13.4951 118.686 18.4836 115.65 16.5316 111.095C14.1458 106.54 8.28978 106.54 5.47022 110.878C2.65067 116.517 6.98845 123.241 13.2782 123.241M134.953 11.1093C134.519 9.808 132.567 9.37422 131.049 10.8924C128.88 13.712 131.916 18.7004 136.471 16.7484C141.026 14.3627 141.026 8.28978 136.688 5.904C131.266 3.30133 124.759 7.20533 124.325 13.2782M236.891 134.519C238.192 134.085 238.626 132.133 237.108 130.615C234.288 128.446 229.3 131.483 231.468 136.037C233.637 140.592 239.927 140.375 242.313 136.254C244.916 130.615 240.795 123.892 234.288 123.892M113.047 236.891C113.481 238.192 115.433 238.626 116.951 237.108C119.12 234.288 116.084 229.3 111.529 231.468C106.974 233.854 106.974 239.71 111.312 242.313C116.951 244.916 123.675 240.795 123.675 234.288M113.047 10.6756C113.481 9.37422 115.433 8.94044 116.951 10.4587C119.12 13.2782 116.084 18.2667 111.529 16.0978C106.974 13.712 107.191 7.63911 111.312 5.25333C116.951 2.65067 123.675 6.77155 123.675 13.2782M237.108 113.264C238.409 113.698 238.843 115.65 237.324 117.168C234.505 119.337 229.516 116.3 231.685 111.746C234.071 107.191 240.144 107.191 242.53 111.529C245.132 117.168 241.012 123.892 234.505 123.892M135.17 236.891C134.736 238.192 132.784 238.626 131.266 237.108C129.097 234.288 132.133 229.3 136.688 231.252C141.243 233.637 141.243 239.493 136.905 242.096C131.266 244.916 124.542 240.578 124.542 234.288M10.8924 134.736C9.59111 134.302 9.15733 132.35 10.6756 130.832C13.4951 128.663 18.4836 131.7 16.5316 136.254C14.3627 140.809 8.07289 140.809 5.68711 136.471C2.86756 130.832 7.20533 124.108 13.4951 124.108" stroke="white" stroke-opacity="0.37" stroke-width="2" stroke-miterlimit="22.926"/>
</svg>
