<svg width="178" height="16" viewBox="0 0 178 16" fill="none" xmlns="http://www.w3.org/2000/svg">
<path id="Vector" d="M46.4689 7.26617L40.3889 13.3462C39.086 14.525 37.3489 15.2695 35.5497 15.2695C33.3162 15.2695 31.0827 14.0907 29.7798 12.2295M135.188 13.3462L141.268 7.26617M93.8685 7.26617L87.7884 13.3462C86.4856 14.525 84.7484 15.2695 82.9492 15.2695C80.7157 15.2695 78.4822 14.0907 77.1794 12.2295M16.7511 13.3462L22.8312 7.26617M111.488 13.3462L117.568 7.26617M70.1687 7.26617L64.0886 13.3462C62.7858 14.525 61.0486 15.2695 59.2494 15.2695C57.0159 15.2695 54.7825 14.0907 53.4796 12.2295M158.888 13.3462L164.968 7.26617M34.619 7.26617L28.539 13.3462C27.2361 14.525 25.499 15.2695 23.6998 15.2695C21.4663 15.2695 19.2328 14.0907 17.9299 12.2295M123.338 13.3462L129.418 7.26617M82.0186 7.26617L75.9385 13.3462C74.6357 14.525 72.8985 15.2695 71.0993 15.2695C68.8658 15.2695 66.6323 14.0907 65.3295 12.2295M170.676 13.3462L176.756 7.26617M10.9813 7.26617L4.90126 13.3462C3.59839 14.525 1.86124 15.2695 0.0620413 15.2695M99.6383 13.3462L105.718 7.26617M58.3188 7.26617L52.2388 13.3462C50.9359 14.525 49.1987 15.2695 47.3995 15.2695C45.1661 15.2695 42.9326 14.0907 41.6297 12.2295M146.976 13.3462L153.056 7.26617M38.7758 11.2989L44.7318 5.34289C45.4142 4.66044 46.4069 4.28819 47.3995 4.28819C48.8885 4.28819 50.3155 5.15676 50.9359 6.52167M133.513 11.2368L139.469 5.28085C140.151 4.59839 141.144 4.22615 142.137 4.22615C143.626 4.22615 145.053 5.09473 145.673 6.45964M15.076 11.2989L21.032 5.34289C21.7145 4.66044 22.7071 4.28819 23.6998 4.28819C25.1888 4.28819 26.6157 5.15676 27.2361 6.52167M109.875 11.2368L115.831 5.28085C116.514 4.59839 117.506 4.22615 118.499 4.22615C119.988 4.22615 121.415 5.09473 122.035 6.45964M157.213 11.2368L163.169 5.28085C163.851 4.59839 164.844 4.22615 165.836 4.22615C167.325 4.22615 168.752 5.09473 169.373 6.45964M26.9259 11.2989L32.8819 5.28085M121.663 11.2368L127.619 5.21881M80.2814 5.28085L74.3255 11.2989C73.4569 12.1674 72.2781 12.6638 71.0993 12.6638C69.4862 12.6638 67.9352 11.7331 67.1907 10.3062M169.063 11.2368L175.018 5.21881M3.22615 11.2989L9.24415 5.28085M97.9632 11.2989L103.981 5.28085C104.664 4.59839 105.656 4.22615 106.649 4.22615C108.138 4.22615 109.565 5.09473 110.185 6.45964M145.363 11.2368L151.319 5.28085C152.001 4.59839 152.994 4.22615 153.986 4.22615C155.475 4.22615 156.902 5.09473 157.523 6.45964M38.3415 10.9266L44.2975 4.97064C45.1661 4.1641 46.2828 3.66778 47.4616 3.66778C49.0747 3.66778 50.6257 4.5984 51.3702 6.02535M133.079 10.9266L139.035 4.97064C139.903 4.1641 141.02 3.66778 142.199 3.66778C143.812 3.66778 145.363 4.5984 146.107 6.02535M85.679 10.9266L91.635 4.97064C92.5036 4.1641 93.6203 3.66778 94.7991 3.66778C96.4122 3.66778 97.9632 4.5984 98.7077 6.02535M14.6417 10.9266L20.5977 4.97064C21.4663 4.1641 22.583 3.66778 23.7618 3.66778C25.3749 3.66778 26.9259 4.5984 27.6704 6.02535M109.379 10.9266L115.335 4.97064C116.203 4.1641 117.32 3.66778 118.499 3.66778C120.112 3.66778 121.663 4.5984 122.407 6.02535M61.9792 10.9266L67.9352 4.97064C68.8038 4.1641 69.9205 3.66778 71.0993 3.66778C72.7124 3.66778 74.2634 4.5984 75.0079 6.02535M156.778 10.9266L162.734 4.97064C163.603 4.1641 164.72 3.66778 165.898 3.66778C167.511 3.66778 169.063 4.5984 169.807 6.02535M26.4916 10.9266L32.4476 4.97064C33.3162 4.1641 34.4329 3.66778 35.6117 3.66778C37.2248 3.66778 38.7758 4.5984 39.5203 6.02535M121.229 10.9266L127.185 4.97064C128.053 4.1641 129.17 3.66778 130.349 3.66778C131.962 3.66778 133.513 4.5984 134.257 6.02535M73.8291 10.9266L79.7851 4.97064C80.6537 4.1641 81.7704 3.66778 82.9492 3.66778C84.5623 3.66778 86.1133 4.5984 86.8578 6.02535M168.628 10.9266L174.584 4.97064M2.79186 10.9266L8.74782 4.97064C9.6164 4.1641 10.7331 3.66778 11.9119 3.66778C13.525 3.66778 15.076 4.5984 15.8205 6.02535M97.5289 10.9266L103.547 4.97064M50.1914 10.9266L56.1474 4.97064C57.0159 4.1641 58.1327 3.66778 59.3115 3.66778C60.9245 3.66778 62.4756 4.5984 63.2201 6.02535M144.928 10.9266L150.884 4.97064C151.753 4.1641 152.87 3.66778 154.049 3.66778C155.662 3.66778 157.213 4.5984 157.957 6.02535M36.4182 9.12741L42.5603 3.04736M131.217 9.12741L137.359 3.04736M83.8178 9.12741L89.9599 3.04736M12.7805 9.12741L18.9226 3.04736M107.518 9.12741L113.66 3.04736M60.118 9.12741L66.2601 3.04736M154.855 9.12741L160.997 3.04736M24.6304 9.12741L30.7104 3.04736M119.429 9.06537L125.51 2.98532M72.0299 9.12741L78.11 3.04736M166.767 9.06537L172.847 2.98532M0.992661 9.12741L7.07271 3.04736M95.7297 9.06537L101.81 2.98532M48.3302 9.12741L54.4102 3.04736M143.067 9.06537L149.147 2.98532M0.0620413 9.43762C0.806537 9.43762 1.36491 8.87924 1.36491 8.13475C1.36491 7.39025 0.806537 6.83188 0.0620413 6.83188M177.686 6.83188C176.942 6.83188 176.383 7.39025 176.383 8.13475C176.383 8.87924 176.942 9.43762 177.686 9.43762M3.59839 6.52167C2.97798 5.15676 1.55103 4.28819 0.0620413 4.28819M98.3354 6.52167C97.715 5.15676 96.2881 4.28819 94.7991 4.28819C93.8064 4.28819 92.8138 4.66044 92.1313 5.34289L86.1753 11.2989C85.3068 12.1674 84.128 12.6638 82.9492 12.6638C81.3361 12.6638 79.7851 11.7331 79.0406 10.3062M74.6357 6.52167C74.0153 5.15676 72.5883 4.28819 71.0993 4.28819C70.1067 4.28819 69.114 4.66044 68.4315 5.34289L62.4756 11.2989C61.607 12.1674 60.4282 12.6638 59.2494 12.6638C57.6364 12.6638 56.0853 11.7331 55.3408 10.3062M39.086 6.52167C38.4656 5.15676 37.0386 4.28819 35.5497 4.28819C34.557 4.28819 33.5643 4.66044 32.8819 5.34289M133.885 6.45964C133.265 5.09473 131.838 4.22615 130.349 4.22615C129.356 4.22615 128.363 4.59839 127.681 5.28085M86.4856 6.52167C85.8651 5.15676 84.4382 4.28819 82.9492 4.28819C81.9565 4.28819 80.9639 4.66044 80.2814 5.34289M177.686 4.22615C176.694 4.22615 175.701 4.59839 175.018 5.28085M15.4483 6.52167C14.8279 5.15676 13.4009 4.28819 11.9119 4.28819C10.9193 4.28819 9.92661 4.66044 9.24415 5.34289M62.7858 6.52167C62.1654 5.15676 60.7384 4.28819 59.2494 4.28819C58.2568 4.28819 57.2641 4.66044 56.5817 5.34289L50.6257 11.2989C49.7571 12.1674 48.5783 12.6638 47.3995 12.6638C45.7865 12.6638 44.2354 11.7331 43.4909 10.3062M0.0620413 12.0434C1.11674 12.0434 2.1094 11.6091 2.8539 10.8646M43.8632 9.87191C44.4836 11.1748 45.9105 12.0434 47.3995 12.0434C48.4542 12.0434 49.4469 11.6091 50.1914 10.8646M138.662 9.87191C139.283 11.1748 140.71 12.0434 142.199 12.0434C143.253 12.0434 144.246 11.6091 144.99 10.8646M91.2627 9.87191C91.8831 11.1748 93.3101 12.0434 94.7991 12.0434C95.8538 12.0434 96.8465 11.6091 97.5909 10.8646M20.2255 9.87191C20.8459 11.1748 22.2728 12.0434 23.7618 12.0434C24.8165 12.0434 25.8092 11.6091 26.5537 10.8646M114.963 9.87191C115.583 11.1748 117.01 12.0434 118.499 12.0434C119.554 12.0434 120.546 11.6091 121.291 10.8646M67.563 9.87191C68.1834 11.1748 69.6103 12.0434 71.0993 12.0434C72.154 12.0434 73.1467 11.6091 73.8912 10.8646M162.3 9.87191C162.92 11.1748 164.347 12.0434 165.836 12.0434C166.891 12.0434 167.884 11.6091 168.628 10.8646M32.0753 9.87191C32.6958 11.1748 34.1227 12.0434 35.6117 12.0434C36.6664 12.0434 37.6591 11.6091 38.4036 10.8646M126.812 9.87191C127.433 11.1748 128.86 12.0434 130.349 12.0434C131.403 12.0434 132.396 11.6091 133.141 10.8646M79.4128 9.87191C80.0333 11.1748 81.4602 12.0434 82.9492 12.0434C84.0039 12.0434 84.9966 11.6091 85.7411 10.8646M174.15 9.87191C174.77 11.1748 176.197 12.0434 177.686 12.0434M8.37557 9.87191C8.99599 11.1748 10.4229 12.0434 11.9119 12.0434C12.9666 12.0434 13.9593 11.6091 14.7038 10.8646M103.113 9.87191C103.733 11.1748 105.16 12.0434 106.649 12.0434C107.704 12.0434 108.696 11.6091 109.441 10.8646M55.7131 9.87191C56.3335 11.1748 57.7604 12.0434 59.2494 12.0434C60.3041 12.0434 61.2968 11.6091 62.0413 10.8646M150.512 9.87191C151.133 11.1748 152.56 12.0434 154.049 12.0434C155.103 12.0434 156.096 11.6091 156.84 10.8646M3.97064 6.02535C3.22615 4.5984 1.67511 3.66778 0.0620413 3.66778M177.686 3.72981C176.507 3.72981 175.391 4.16411 174.522 5.03268M110.558 6.02535C109.813 4.5984 108.262 3.66778 106.649 3.66778C105.47 3.66778 104.353 4.1641 103.485 4.97064M0.0620413 12.6017C1.24083 12.6017 2.41961 12.1054 3.28819 11.2368M138.29 10.3062C139.035 11.7331 140.586 12.6638 142.199 12.6638C143.377 12.6638 144.556 12.1674 145.425 11.2989M90.8905 10.3062C91.635 11.7331 93.186 12.6638 94.7991 12.6638C95.9779 12.6638 97.1567 12.1674 98.0252 11.2989M19.8532 10.3062C20.5977 11.7331 22.1487 12.6638 23.7618 12.6638C24.9406 12.6638 26.1194 12.1674 26.988 11.2989M114.59 10.3062C115.335 11.7331 116.886 12.6638 118.499 12.6638C119.678 12.6638 120.856 12.1674 121.725 11.2989M161.928 10.3062C162.672 11.7331 164.223 12.6638 165.836 12.6638C167.015 12.6638 168.194 12.1674 169.063 11.2989M31.7031 10.3062C32.4476 11.7331 33.9986 12.6638 35.6117 12.6638C36.7905 12.6638 37.9693 12.1674 38.8378 11.2989M126.44 10.3062C127.185 11.7331 128.736 12.6638 130.349 12.6638C131.528 12.6638 132.706 12.1674 133.575 11.2989M173.778 10.3062C174.522 11.7331 176.073 12.6638 177.686 12.6638M8.00333 10.3062C8.74782 11.7331 10.2989 12.6638 11.9119 12.6638C13.0907 12.6638 14.2695 12.1674 15.1381 11.2989M102.74 10.3062C103.485 11.7331 105.036 12.6638 106.649 12.6638C107.828 12.6638 109.007 12.1674 109.875 11.2989M150.14 10.3062C150.884 11.7331 152.435 12.6638 154.049 12.6638C155.227 12.6638 156.406 12.1674 157.275 11.2989M136.367 12.1674C137.67 14.0287 139.903 15.2075 142.137 15.2075C143.936 15.2075 145.673 14.463 146.976 13.2842M88.9672 12.2295C90.2701 14.0907 92.5036 15.2695 94.737 15.2695C96.5362 15.2695 98.2734 14.525 99.5763 13.3462M112.729 12.1674C114.032 14.0287 116.265 15.2075 118.499 15.2075C120.298 15.2075 122.035 14.463 123.338 13.2842M160.067 12.1674C161.369 14.0287 163.603 15.2075 165.836 15.2075C167.636 15.2075 169.373 14.463 170.676 13.2842M124.517 12.1674C125.82 14.0287 128.053 15.2075 130.287 15.2075C132.086 15.2075 133.823 14.463 135.126 13.2842M171.916 12.1674C173.219 14.0287 175.453 15.2075 177.686 15.2075M6.08005 12.2295C7.38291 14.0907 9.6164 15.2695 11.8499 15.2695C13.6491 15.2695 15.3862 14.525 16.6891 13.3462M100.879 12.1674C102.182 14.0287 104.415 15.2075 106.649 15.2075C108.448 15.2075 110.185 14.463 111.488 13.2842M148.217 12.1674C149.52 14.0287 151.753 15.2075 153.986 15.2075C155.786 15.2075 157.523 14.463 158.826 13.2842M5.89392 4.16411C4.59106 2.24083 2.35757 1.12408 0.0620413 1.12408M53.2314 4.16411C51.9286 2.24083 49.6951 1.12408 47.3995 1.12408C45.6003 1.12408 43.8011 1.86857 42.4983 3.1094M148.031 4.10206C146.728 2.17878 144.494 1.06205 142.199 1.06205C140.399 1.06205 138.6 1.80654 137.297 3.04736M100.631 4.16411C99.3281 2.24083 97.0946 1.12408 94.7991 1.12408C92.9999 1.12408 91.2007 1.86857 89.8978 3.1094M29.5937 4.16411C28.2908 2.24083 26.0573 1.12408 23.7618 1.12408C21.9626 1.12408 20.1634 1.86857 18.8606 3.1094M124.331 4.10206C123.028 2.17878 120.794 1.06205 118.499 1.06205C116.7 1.06205 114.9 1.80654 113.598 3.04736M76.9312 4.16411C75.6283 2.24083 73.3948 1.12408 71.0993 1.12408C69.3001 1.12408 67.5009 1.86857 66.1981 3.1094M171.668 4.10206C170.365 2.17878 168.132 1.06205 165.836 1.06205C164.037 1.06205 162.238 1.80654 160.935 3.04736M41.4436 4.16411C40.1407 2.24083 37.9072 1.12408 35.6117 1.12408C33.8125 1.12408 32.0133 1.86857 30.7104 3.1094M136.181 4.10206C134.878 2.17878 132.644 1.06205 130.349 1.06205C128.55 1.06205 126.75 1.80654 125.447 3.04736M88.7811 4.16411C87.4782 2.24083 85.2447 1.12408 82.9492 1.12408C81.15 1.12408 79.3508 1.86857 78.0479 3.1094M177.686 1.12408C175.887 1.12408 174.088 1.86858 172.785 3.04736M17.7438 4.16411C16.4409 2.24083 14.2075 1.12408 11.9119 1.12408C10.1127 1.12408 8.31353 1.86857 7.01067 3.1094M112.481 4.10206C111.178 2.17878 108.944 1.06205 106.649 1.06205C104.85 1.06205 103.051 1.80654 101.748 3.04736M65.0813 4.16411C63.7784 2.24083 61.545 1.12408 59.2494 1.12408C57.4502 1.12408 55.651 1.86857 54.3482 3.1094M159.88 4.10206C158.578 2.17878 156.344 1.06205 154.049 1.06205C152.249 1.06205 150.45 1.80654 149.147 3.04736M0 15.2695H177.686M0 1H177.686M47.3995 9.43762C48.144 9.43762 48.7024 8.87924 48.7024 8.13475C48.7024 7.39025 48.144 6.83188 47.3995 6.83188C46.655 6.83188 46.0967 7.39025 46.0967 8.13475C46.0967 8.87924 46.7171 9.43762 47.3995 9.43762ZM142.199 9.43762C142.943 9.43762 143.502 8.87924 143.502 8.13475C143.502 7.39025 142.943 6.83188 142.199 6.83188C141.454 6.83188 140.896 7.39025 140.896 8.13475C140.896 8.87924 141.454 9.43762 142.199 9.43762ZM94.7991 9.43762C95.5436 9.43762 96.102 8.87924 96.102 8.13475C96.102 7.39025 95.5436 6.83188 94.7991 6.83188C94.0546 6.83188 93.4962 7.39025 93.4962 8.13475C93.4962 8.87924 94.0546 9.43762 94.7991 9.43762ZM23.7618 9.43762C24.5063 9.43762 25.0647 8.87924 25.0647 8.13475C25.0647 7.39025 24.5063 6.83188 23.7618 6.83188C23.0173 6.83188 22.4589 7.39025 22.4589 8.13475C22.4589 8.87924 23.0173 9.43762 23.7618 9.43762ZM118.499 9.43762C119.243 9.43762 119.802 8.87924 119.802 8.13475C119.802 7.39025 119.243 6.83188 118.499 6.83188C117.754 6.83188 117.196 7.39025 117.196 8.13475C117.196 8.87924 117.754 9.43762 118.499 9.43762ZM71.0993 9.43762C71.8438 9.43762 72.4022 8.87924 72.4022 8.13475C72.4022 7.39025 71.8438 6.83188 71.0993 6.83188C70.3548 6.83188 69.7964 7.39025 69.7964 8.13475C69.7964 8.87924 70.4169 9.43762 71.0993 9.43762ZM165.836 9.43762C166.581 9.43762 167.139 8.87924 167.139 8.13475C167.139 7.39025 166.581 6.83188 165.836 6.83188C165.092 6.83188 164.534 7.39025 164.534 8.13475C164.534 8.87924 165.154 9.43762 165.836 9.43762ZM35.6117 9.43762C36.3562 9.43762 36.9146 8.87924 36.9146 8.13475C36.9146 7.39025 36.3562 6.83188 35.6117 6.83188C34.8672 6.83188 34.3088 7.39025 34.3088 8.13475C34.3088 8.87924 34.8672 9.43762 35.6117 9.43762ZM130.349 9.43762C131.093 9.43762 131.652 8.87924 131.652 8.13475C131.652 7.39025 131.093 6.83188 130.349 6.83188C129.604 6.83188 129.046 7.39025 129.046 8.13475C129.046 8.87924 129.604 9.43762 130.349 9.43762ZM82.9492 9.43762C83.6937 9.43762 84.2521 8.87924 84.2521 8.13475C84.2521 7.39025 83.6937 6.83188 82.9492 6.83188C82.2047 6.83188 81.6463 7.39025 81.6463 8.13475C81.6463 8.87924 82.2667 9.43762 82.9492 9.43762ZM11.9119 9.43762C12.6564 9.43762 13.2148 8.87924 13.2148 8.13475C13.2148 7.39025 12.6564 6.83188 11.9119 6.83188C11.1674 6.83188 10.6091 7.39025 10.6091 8.13475C10.6091 8.87924 11.1674 9.43762 11.9119 9.43762ZM106.649 9.43762C107.393 9.43762 107.952 8.87924 107.952 8.13475C107.952 7.39025 107.393 6.83188 106.649 6.83188C105.904 6.83188 105.346 7.39025 105.346 8.13475C105.346 8.87924 105.967 9.43762 106.649 9.43762ZM59.2494 9.43762C59.9939 9.43762 60.5523 8.87924 60.5523 8.13475C60.5523 7.39025 59.9939 6.83188 59.2494 6.83188C58.5049 6.83188 57.9466 7.39025 57.9466 8.13475C57.9466 8.87924 58.567 9.43762 59.2494 9.43762ZM154.049 9.43762C154.793 9.43762 155.351 8.87924 155.351 8.13475C155.351 7.39025 154.793 6.83188 154.049 6.83188C153.304 6.83188 152.746 7.39025 152.746 8.13475C152.746 8.87924 153.304 9.43762 154.049 9.43762Z" stroke="#151C26" stroke-opacity="0.17" stroke-width="0.8" stroke-miterlimit="22.926"/>
</svg>
