<svg width="320" height="23" viewBox="0 0 320 23" fill="none" xmlns="http://www.w3.org/2000/svg">
<path d="M35.8415 3.85326C37.266 4.82337 38.9755 7.10598 39.4883 8.58967C42.0525 2.08424 50.4288 -0.769014 56.3549 2.59783M47.0669 3.85326C48.4914 4.82337 50.2009 7.10598 50.7137 8.58967C53.2779 2.08424 61.6542 -0.769013 67.5803 2.59783M54.3035 3.7962C47.8646 1.28534 41.0838 5.90761 40.7419 12.5272L43.0781 12.4701V14.8668H40.6849V17.2636H38.3487V14.8668H35.9554L35.9554 12.4701H38.3487C38.4056 9.73098 36.0694 5.96468 33.8471 4.82338M65.5859 3.7962C59.147 1.28534 52.3662 5.90762 51.9673 12.5272L54.3035 12.4701V14.8668H51.9103V17.2636H49.5741V14.8668H47.1808V12.4701H49.5741C49.631 9.73098 47.2948 5.96468 45.0725 4.82338M45.2434 14.981H44.2748V17.3206H42.3944V19.6603H40.514V22H38.5766V19.6603L36.6962 19.6603V17.3206H34.8158V14.981H33.8471M56.4119 14.981L55.5001 14.981V17.3206H53.6198V19.6603H51.7394V22H49.802V19.6603H47.9216V17.3206H46.0412V14.981H45.0725M80.8 3.85327C82.2246 4.82337 83.934 7.10598 84.4468 8.58968C87.011 2.08425 95.3873 -0.76901 101.313 2.59784M92.0254 3.85327C93.4499 4.82337 95.1594 7.10598 95.6722 8.58968C98.2364 2.08425 106.613 -0.769009 112.539 2.59784M99.2621 3.79621C92.8231 1.28534 86.0423 5.90762 85.7004 12.5272L88.0367 12.4701V14.8668H85.6435V17.2636H83.3072V14.8668H80.914V12.4701H83.3072C83.3642 9.73098 81.0279 5.96468 78.8057 4.82338M110.487 3.79621C104.049 1.28534 97.2677 5.90762 96.8689 12.5272L99.2051 12.4701V14.8668H96.8119V17.2636H94.4756V14.8668L92.0824 14.8668V12.4701L94.4756 12.4701C94.5326 9.73098 92.1964 5.96468 89.9741 4.82338M84.4468 22H85.4155V19.6603L87.2959 19.6603V17.3207H89.1763V14.981H90.145M84.5038 22H83.5351V19.6603H81.6547V17.3207L79.7743 17.3206V14.981H78.8057M95.6722 22H96.6409V19.6603H98.5213V17.3207H100.402V14.981H101.37M95.7292 22H94.7605V19.6603H92.8801V17.3207H90.9997V14.981H90.0311M0.056985 2.54077C3.58985 0.714681 7.92046 0.543486 11.4533 2.54077M2.1653 3.85326C3.58984 4.82337 5.2993 7.10598 5.81214 8.58967C8.37631 2.08424 16.7526 -0.769017 22.6787 2.59783M9.40198 3.7962C6.04006 2.4837 2.62116 3.11142 0.0569848 4.9375M20.6274 3.7962C14.1884 1.28533 7.40761 5.90761 7.00874 12.5272L9.34499 12.4701V14.8668H6.95177L6.95177 17.2636H4.61552L4.61552 14.8668H2.22228L2.22228 12.4701H4.61552C4.6725 9.73097 2.33626 5.96468 0.11397 4.82337M5.81214 22H6.78082V19.6603H8.66122V17.3206H10.5416V14.981H11.5103M5.8691 22H4.90043V19.6603H3.02002L3.02002 17.3206H1.13963L1.13963 14.981H0.113969M58.3492 3.85326C59.7738 4.82337 61.4832 7.10598 61.9961 8.58967C64.5602 2.08425 72.9365 -0.769012 78.8626 2.59783M69.5746 3.85326C70.9992 4.82337 72.7086 7.10598 73.2215 8.58968C75.7856 2.08425 84.1619 -0.769011 90.088 2.59783M76.8113 3.79621C70.3724 1.28534 63.5916 5.90762 63.2497 12.5272L65.5859 12.4701V14.8668H63.1927V17.2636H60.8564V14.8668H58.4632V12.4701H60.8564C60.9134 9.73098 58.5772 5.96468 56.3549 4.82338M88.0367 3.79621C81.5978 1.28534 74.8169 5.90762 74.4181 12.5272L76.7543 12.4701V14.8668H74.3611V17.2636H72.0248V14.8668H69.6316V12.4701H72.0248C72.0818 9.73098 69.7456 5.96468 67.5233 4.82338M61.9961 22L62.9648 22V19.6603H64.8451V17.3206H66.7255V14.981H67.6942M62.053 22H61.0844V19.6603H59.204V17.3206H57.3236V14.981H56.3549M73.2215 22H74.1901V19.6603H76.0705V17.3206H77.9509V14.981H78.9196M73.2784 22H72.3097V19.6603H70.4294V17.3206H68.549V14.981L67.5803 14.981M148.152 3.85327C149.577 4.82338 151.286 7.10599 151.799 8.58968C153.623 3.91034 158.409 1.17121 163.139 1.17121M159.378 3.85327C160.802 4.82338 162.512 7.10599 163.025 8.58968M163.139 3.11143C157.953 3.05437 153.338 7.10599 152.996 12.5272L155.332 12.4701V14.8669H152.939V17.2636H150.603V14.8669H148.209V12.4701H150.603C150.66 9.73099 148.323 5.96469 146.101 4.82339M163.139 17.2636H161.885M161.885 17.2636V14.8669H159.492V12.4701H161.885C161.942 9.73099 159.606 5.96469 157.383 4.82339M161.885 17.2636L164.221 17.2636V14.8668H166.614V12.4701L164.278 12.5272C164.677 5.90761 171.458 1.28533 177.897 3.7962M151.799 22H152.768V19.6603H154.648V17.3207H156.529V14.981H157.497M151.856 22H150.887V19.6603H149.007V17.3207H147.127V14.981H146.158M125.702 3.85327C127.126 4.82338 128.836 7.10599 129.348 8.58968C131.913 2.08425 140.289 -0.769006 146.215 2.59784M136.984 3.85327C138.409 4.82338 140.118 7.10599 140.631 8.58968C143.195 2.08425 151.571 -0.769005 157.497 2.59784M144.221 3.79621C137.782 1.28534 131.001 5.90762 130.659 12.5272L132.995 12.4701V14.8668H130.602V17.2636L128.266 17.2636V14.8668H125.873V12.4701H128.266C128.323 9.73099 125.986 5.96469 123.764 4.82338M155.446 3.79621C149.007 1.28534 142.226 5.90762 141.827 12.5272L144.164 12.4701V14.8669L141.77 14.8668V17.2636H139.434V14.8668H137.041V12.4701H139.434C139.491 9.73099 137.155 5.96469 134.933 4.82339M135.047 14.981H134.135V17.3207H132.254V19.6603H130.374V22H128.437V19.6603H126.556V17.3207H124.676V14.981H123.707M140.631 22H141.599V19.6603H143.48V17.3207H145.36V14.981H146.329M140.688 22H139.719V19.6603H137.839V17.3207H135.958V14.981H134.99M103.251 3.85327C104.675 4.82338 106.385 7.10598 106.898 8.58968C109.462 2.08425 117.838 -0.769008 123.764 2.59784M114.476 3.85327C115.901 4.82338 117.61 7.10599 118.123 8.58968C120.687 2.08425 129.064 -0.769007 134.99 2.59784M121.713 3.79621C115.274 1.28534 108.493 5.90762 108.151 12.5272L110.487 12.4701V14.8668H108.094V17.2636H105.758V14.8668L103.365 14.8668V12.4701L105.758 12.4701C105.815 9.73098 103.479 5.96469 101.256 4.82338M132.995 3.79621C126.556 1.28534 119.775 5.90762 119.377 12.5272L121.713 12.4701V14.8668H119.32V17.2636H116.983V14.8668H114.59V12.4701H116.983C117.04 9.73098 114.704 5.96469 112.482 4.82338M112.653 14.981H111.684V17.3207H109.804V19.6603H107.923V22H105.986V19.6603H104.106V17.3207H102.225V14.981H101.256M123.878 14.981H122.909V17.3207H121.029V19.6603H119.149V22H117.211V19.6603H115.331V17.3207H113.451V14.981H112.482M13.3907 3.85326C14.8152 4.82337 16.5247 7.10598 17.0375 8.58967C19.6017 2.08424 27.978 -0.769016 33.9041 2.59783M24.6161 3.85326C26.0406 4.82337 27.7501 7.10598 28.2629 8.58967C30.8271 2.08424 39.2034 -0.769015 45.1295 2.59783M31.8527 3.7962C25.4138 1.28533 18.633 5.90761 18.2911 12.5272L20.6274 12.4701L20.6274 14.8668L18.2341 14.8668V17.2636H15.8979V14.8668H13.5047V12.4701H15.8979C15.9549 9.73098 13.6186 5.96468 11.3963 4.82337M43.1351 3.7962C36.6962 1.28533 29.9154 5.90761 29.5165 12.5272L31.8527 12.4701L31.8527 14.8668L29.4595 14.8668V17.2636H27.1233V14.8668H24.73L24.73 12.4701H27.1233C27.1803 9.73098 24.844 5.96468 22.6217 4.82338M22.7927 14.981H21.824V17.3206H19.9436V19.6603H18.0632L18.0632 22H16.1258L16.1258 19.6603H14.2454V17.3206H12.365V14.981H11.3963M34.0181 14.981H33.0494V17.3206H31.169V19.6603H29.2886V22H27.3512V19.6603H25.4708V17.3206H23.5904V14.981H22.6217M163.139 1.00001L0 1M193.111 3.85326C194.535 4.82337 196.245 7.10598 196.758 8.58967C199.322 2.08424 207.698 -0.769014 213.624 2.59783M204.336 3.85326C205.761 4.82337 207.47 7.10598 207.983 8.58967C210.547 2.08424 218.924 -0.769013 224.85 2.59783M211.573 3.7962C205.134 1.28534 198.353 5.90761 198.011 12.5272L200.348 12.4701V14.8668H197.954V17.2636H195.618V14.8668H193.225V12.4701H195.618C195.675 9.73098 193.339 5.96468 191.117 4.82338M222.855 3.7962C216.416 1.28534 209.636 5.90762 209.237 12.5272L211.573 12.4701V14.8668H209.18V17.2636H206.843V14.8668H204.45V12.4701H206.843C206.9 9.73098 204.564 5.96468 202.342 4.82338M202.513 14.981H201.544V17.3206H199.664V19.6603H197.783V22H195.846V19.6603L193.966 19.6603V17.3206H192.085V14.981H191.117M213.681 14.981L212.77 14.981V17.3206H210.889V19.6603H209.009V22H207.071V19.6603H205.191V17.3206H203.311V14.981H202.342M238.069 3.85327C239.494 4.82337 241.203 7.10598 241.716 8.58968C244.28 2.08425 252.657 -0.76901 258.583 2.59784M249.295 3.85327C250.719 4.82337 252.429 7.10598 252.942 8.58968C255.506 2.08425 263.882 -0.769009 269.808 2.59784M256.532 3.79621C250.093 1.28534 243.312 5.90762 242.97 12.5272L245.306 12.4701V14.8668H242.913V17.2636H240.577V14.8668H238.183V12.4701H240.577C240.634 9.73098 238.297 5.96468 236.075 4.82338M267.757 3.79621C261.318 1.28534 254.537 5.90762 254.138 12.5272L256.475 12.4701V14.8668H254.081V17.2636H251.745V14.8668L249.352 14.8668V12.4701L251.745 12.4701C251.802 9.73098 249.466 5.96468 247.243 4.82338M241.716 22H242.685V19.6603L244.565 19.6603V17.3207H246.446V14.981H247.414M241.773 22H240.805V19.6603H238.924V17.3207L237.044 17.3206V14.981H236.075M252.942 22H253.91V19.6603H255.791V17.3207H257.671V14.981H258.64M252.999 22H252.03V19.6603H250.15V17.3207H248.269V14.981H247.3M157.326 2.54077C160.859 0.714681 165.19 0.543486 168.723 2.54077M159.435 3.85326C160.859 4.82337 162.569 7.10598 163.082 8.58967C165.646 2.08424 174.022 -0.769017 179.948 2.59783M166.671 3.7962C163.309 2.4837 159.891 3.11142 157.326 4.9375M163.082 22H164.05V19.6603H165.931V17.3206H167.811V14.981H168.78M215.619 3.85326C217.043 4.82337 218.753 7.10598 219.266 8.58967C221.83 2.08425 230.206 -0.769012 236.132 2.59783M226.844 3.85326C228.269 4.82337 229.978 7.10598 230.491 8.58968C233.055 2.08425 241.431 -0.769011 247.357 2.59783M234.081 3.79621C227.642 1.28534 220.861 5.90762 220.519 12.5272L222.855 12.4701V14.8668H220.462V17.2636H218.126V14.8668H215.733V12.4701H218.126C218.183 9.73098 215.847 5.96468 213.624 4.82338M245.306 3.79621C238.867 1.28534 232.086 5.90762 231.688 12.5272L234.024 12.4701V14.8668H231.631V17.2636H229.294V14.8668H226.901V12.4701H229.294C229.351 9.73098 227.015 5.96468 224.793 4.82338M219.266 22L220.234 22V19.6603H222.115V17.3206H223.995V14.981H224.964M219.322 22H218.354V19.6603H216.473V17.3206H214.593V14.981H213.624M230.491 22H231.46V19.6603H233.34V17.3206H235.22V14.981H236.189M230.548 22H229.579V19.6603H227.699V17.3206H225.818V14.981L224.85 14.981M305.422 3.85327C306.846 4.82338 308.556 7.10599 309.069 8.58968C310.892 3.91034 315.679 1.17121 320.408 1.17121M316.647 3.85327C318.072 4.82338 319.781 7.10599 320.294 8.58968M320.408 3.11143C315.223 3.05437 310.607 7.10599 310.265 12.5272L312.602 12.4701V14.8669H310.208V17.2636H307.872V14.8669H305.479V12.4701H307.872C307.929 9.73099 305.593 5.96469 303.37 4.82339M320.408 17.2636H319.154M319.154 17.2636V14.8669H316.761V12.4701H319.154C319.211 9.73099 316.875 5.96469 314.653 4.82339M319.154 17.2636L321.491 17.2636V14.8668H323.884V12.4701L321.548 12.5272C321.947 5.90761 328.727 1.28533 335.166 3.7962M309.069 22H310.037V19.6603H311.918V17.3207H313.798V14.981H314.767M309.126 22H308.157V19.6603H306.277V17.3207H304.396V14.981H303.427M282.971 3.85327C284.396 4.82338 286.105 7.10599 286.618 8.58968C289.182 2.08425 297.558 -0.769006 303.484 2.59784M294.253 3.85327C295.678 4.82338 297.387 7.10599 297.9 8.58968C300.464 2.08425 308.841 -0.769005 314.767 2.59784M301.49 3.79621C295.051 1.28534 288.27 5.90762 287.928 12.5272L290.265 12.4701V14.8668H287.871V17.2636L285.535 17.2636V14.8668H283.142V12.4701H285.535C285.592 9.73099 283.256 5.96469 281.034 4.82338M312.715 3.79621C306.277 1.28534 299.496 5.90762 299.097 12.5272L301.433 12.4701V14.8669L299.04 14.8668V17.2636H296.704V14.8668H294.31V12.4701H296.704C296.761 9.73099 294.424 5.96469 292.202 4.82339M292.316 14.981H291.404V17.3207H289.524V19.6603H287.644V22H285.706V19.6603H283.826V17.3207H281.945V14.981H280.977M297.9 22H298.869V19.6603H300.749V17.3207H302.63V14.981H303.598M297.957 22H296.989V19.6603H295.108V17.3207H293.228V14.981H292.259M260.52 3.85327C261.945 4.82338 263.654 7.10598 264.167 8.58968C266.731 2.08425 275.108 -0.769008 281.034 2.59784M271.746 3.85327C273.17 4.82338 274.88 7.10599 275.392 8.58968C277.957 2.08425 286.333 -0.769007 292.259 2.59784M278.982 3.79621C272.543 1.28534 265.763 5.90762 265.421 12.5272L267.757 12.4701V14.8668H265.364V17.2636H263.027V14.8668L260.634 14.8668V12.4701L263.027 12.4701C263.084 9.73098 260.748 5.96469 258.526 4.82338M290.265 3.79621C283.826 1.28534 277.045 5.90762 276.646 12.5272L278.982 12.4701V14.8668H276.589V17.2636H274.253V14.8668H271.86V12.4701H274.253C274.31 9.73098 271.974 5.96469 269.751 4.82338M269.922 14.981H268.954V17.3207H267.073V19.6603H265.193V22H263.255V19.6603H261.375V17.3207H259.495V14.981H258.526M281.148 14.981H280.179V17.3207H278.299V19.6603H276.418V22H274.481V19.6603H272.6V17.3207H270.72V14.981H269.751M170.66 3.85326C172.085 4.82337 173.794 7.10598 174.307 8.58967C176.871 2.08424 185.247 -0.769016 191.174 2.59783M181.886 3.85326C183.31 4.82337 185.02 7.10598 185.532 8.58967C188.097 2.08424 196.473 -0.769015 202.399 2.59783M189.122 3.7962C182.683 1.28533 175.902 5.90761 175.561 12.5272L177.897 12.4701V14.8668L175.504 14.8668V17.2636H173.167V14.8668H170.774V12.4701H173.167C173.224 9.73098 170.888 5.96468 168.666 4.82337M200.405 3.7962C193.966 1.28533 187.185 5.90761 186.786 12.5272L189.122 12.4701V14.8668L186.729 14.8668V17.2636H184.393V14.8668H181.999V12.4701H184.393C184.45 9.73098 182.113 5.96468 179.891 4.82338M180.062 14.981H179.093V17.3206H177.213V19.6603H175.333V22H173.395V19.6603H171.515V17.3206H169.634V14.981H168.666M191.288 14.981H190.319V17.3206H188.438V19.6603H186.558V22H184.621V19.6603H182.74V17.3206H180.86V14.981H179.891M320.408 1.00001L157.269 1M349.355 17.3206V14.981H348.386M314.596 2.54077C318.129 0.714681 322.459 0.543486 325.992 2.54077M316.704 3.85326C318.129 4.82337 319.838 7.10598 320.351 8.58967C322.915 2.08424 331.291 -0.769017 337.218 2.59783M323.941 3.7962C320.579 2.4837 317.16 3.11142 314.596 4.9375M320.351 22H321.32V19.6603H323.2V17.3206H325.081V14.981H326.049M327.93 3.85326C329.354 4.82337 331.064 7.10598 331.576 8.58967C334.141 2.08424 342.517 -0.769016 348.443 2.59783M339.155 3.85326C340.579 4.82337 342.289 7.10598 342.802 8.58967M346.392 3.7962C339.953 1.28533 333.172 5.90761 332.83 12.5272L335.166 12.4701V14.8668L332.773 14.8668V17.2636H330.437V14.8668H328.044V12.4701H330.437C330.494 9.73098 328.157 5.96468 325.935 4.82337M344.055 12.5272L346.392 12.4701V14.8668L343.998 14.8668V17.2636H341.662V14.8668H339.269V12.4701H341.662C341.719 9.73098 339.383 5.96468 337.161 4.82338M337.332 14.981H336.363V17.3206H334.482V19.6603H332.602V22H330.665V19.6603H328.784V17.3206H326.904V14.981H325.935M348.557 14.981H347.588V17.3206H345.708V19.6603H343.827V22H341.89V19.6603H340.01V17.3206H338.129V14.981H337.161M163.139 22H162.113L162.113 19.6603L160.232 19.6603V17.3207H158.352V14.981H157.383L158.409 14.981V17.3206H160.289V19.6603H162.17V22L163.139 22ZM320.408 22H319.382V19.6603L317.502 19.6603V17.3207H315.622V14.981H314.653L315.679 14.981V17.3206H317.559V19.6603H319.439V22L320.408 22Z" stroke="#B2B4B8" stroke-width="0.8" stroke-miterlimit="22.926"/>
</svg>
