<svg width="1920" height="39" viewBox="0 0 1920 39" fill="none" xmlns="http://www.w3.org/2000/svg">
<path d="M62.9039 6.00001C65.4039 7.70001 68.4039 11.7 69.3039 14.3C73.8039 2.90001 88.5039 -2.09999 98.9039 3.80001M82.6039 6.00001C85.1039 7.70001 88.1039 11.7 89.0039 14.3C93.5039 2.90001 108.204 -2.09999 118.604 3.80001M95.3039 5.90002C84.0039 1.50002 72.1039 9.60002 71.5039 21.2L75.6039 21.1V25.3H71.4039V29.5H67.3039V25.3H63.1039L63.1039 21.1H67.3039C67.4039 16.3 63.3039 9.70002 59.4039 7.70002M115.104 5.90002C103.804 1.50002 91.9039 9.60002 91.2039 21.2L95.3039 21.1V25.3H91.1039V29.5H87.0039V25.3H82.8039V21.1H87.0039C87.1039 16.3 83.0039 9.70002 79.1039 7.70002M79.4039 25.5H77.7039V29.6L74.4039 29.6V33.7H71.1039V37.8H67.7039V33.7L64.4039 33.7V29.6H61.1039V25.5H59.4039M99.0039 25.5L97.4039 25.5V29.6H94.1039V33.7H90.8039V37.8H87.4039V33.7H84.1039V29.6H80.8039V25.5H79.1039M141.804 6.00001C144.304 7.70001 147.304 11.7 148.204 14.3C152.704 2.90002 167.404 -2.09998 177.804 3.80002M161.504 6.00001C164.004 7.70001 167.004 11.7 167.904 14.3C172.404 2.90002 187.104 -2.09998 197.504 3.80002M174.204 5.90002C162.904 1.50002 151.004 9.60003 150.404 21.2L154.504 21.1V25.3H150.304V29.5H146.204V25.3H142.004V21.1H146.204C146.304 16.3 142.204 9.70002 138.304 7.70002M193.904 5.90003C182.604 1.50003 170.704 9.60003 170.004 21.2L174.104 21.1V25.3H169.904V29.5H165.804V25.3L161.604 25.3V21.1L165.804 21.1C165.904 16.3 161.804 9.70003 157.904 7.70003M148.204 37.8H149.904V33.7L153.204 33.7V29.6H156.504V25.5H158.204M148.304 37.8H146.604V33.7H143.304V29.6L140.004 29.6V25.5H138.304M167.904 37.8H169.604V33.7H172.904V29.6H176.204V25.5H177.904M168.004 37.8H166.304V33.7H163.004V29.6H159.704V25.5H158.004M0.103912 3.70001C6.30391 0.500013 13.9039 0.200013 20.1039 3.70001M3.80389 6C6.30389 7.7 9.30392 11.7 10.2039 14.3C14.7039 2.9 29.4039 -2.09999 39.8039 3.80001M16.5039 5.90001C10.6039 3.60001 4.60391 4.70001 0.103912 7.90001M36.2039 5.90001C24.9039 1.50001 13.0039 9.60001 12.3039 21.2L16.4039 21.1V25.3H12.2039L12.2039 29.5L8.10391 29.5L8.10391 25.3H3.9039L3.9039 21.1H8.10391C8.20391 16.3 4.10392 9.70001 0.203918 7.70001M10.2039 37.8H11.9039V33.7H15.2039V29.6H18.5039V25.5H20.2039M10.3039 37.8H8.60391V33.7H5.30389L5.30389 29.6H2.0039L2.0039 25.5H0.203916M102.404 6.00001C104.904 7.70001 107.904 11.7 108.804 14.3C113.304 2.90001 128.004 -2.09999 138.404 3.80002M122.104 6.00001C124.604 7.70001 127.604 11.7 128.504 14.3C133.004 2.90001 147.704 -2.09998 158.104 3.80002M134.804 5.90002C123.504 1.50002 111.604 9.60002 111.004 21.2L115.104 21.1V25.3H110.904V29.5H106.804V25.3H102.604V21.1H106.804C106.904 16.3 102.804 9.70002 98.9039 7.70002M154.504 5.90002C143.204 1.50002 131.304 9.60002 130.604 21.2L134.704 21.1V25.3H130.504V29.5H126.404V25.3H122.204V21.1H126.404C126.504 16.3 122.404 9.70002 118.504 7.70002M108.804 37.8L110.504 37.8V33.7H113.804V29.6H117.104V25.5H118.804M108.904 37.8H107.204V33.7H103.904V29.6H100.604V25.5H98.9039M128.504 37.8H130.204V33.7H133.504V29.6H136.804V25.5H138.504M128.604 37.8H126.904V33.7H123.604V29.6H120.304V25.5L118.604 25.5M260.004 6.00002C262.504 7.70002 265.504 11.7 266.404 14.3C269.604 6.10003 278.004 1.30003 286.304 1.30003M279.704 6.00002C282.204 7.70002 285.204 11.7 286.104 14.3M286.304 4.70004C277.204 4.60004 269.104 11.7 268.504 21.2L272.604 21.1V25.3H268.404V29.5H264.304V25.3H260.104V21.1H264.304C264.404 16.3 260.304 9.70003 256.404 7.70003M286.304 29.5H284.104M284.104 29.5V25.3H279.904V21.1H284.104C284.204 16.3 280.104 9.70004 276.204 7.70004M284.104 29.5L288.204 29.5V25.3H292.404V21.1L288.304 21.2C289.004 9.60001 300.904 1.50001 312.204 5.90001M266.404 37.8H268.104V33.7H271.404V29.6L274.704 29.6V25.5H276.404M266.504 37.8H264.804V33.7H261.504V29.6H258.204V25.5H256.504M220.604 6.00002C223.104 7.70002 226.104 11.7 227.004 14.3C231.504 2.90002 246.204 -2.09998 256.604 3.80003M240.404 6.00002C242.904 7.70002 245.904 11.7 246.804 14.3C251.304 2.90003 266.004 -2.09997 276.404 3.80003M253.104 5.90003C241.804 1.50003 229.904 9.60003 229.304 21.2L233.404 21.1V25.3H229.204V29.5L225.104 29.5V25.3H220.904V21.1H225.104C225.204 16.3 221.104 9.70003 217.204 7.70003M272.804 5.90003C261.504 1.50003 249.604 9.60003 248.904 21.2L253.004 21.1V25.3L248.804 25.3V29.5H244.704V25.3H240.504V21.1H244.704C244.804 16.3 240.704 9.70003 236.804 7.70003M237.004 25.5H235.404V29.6H232.104V33.7H228.804V37.8H225.404V33.7H222.104V29.6H218.804V25.5H217.104M246.804 37.8H248.504V33.7H251.804V29.6H255.104V25.5H256.804M246.904 37.8H245.204V33.7H241.904V29.6H238.604V25.5H236.904M181.204 6.00002C183.704 7.70002 186.704 11.7 187.604 14.3C192.104 2.90002 206.804 -2.09998 217.204 3.80002M200.904 6.00002C203.404 7.70002 206.404 11.7 207.304 14.3C211.804 2.90002 226.504 -2.09998 236.904 3.80002M213.604 5.90003C202.304 1.50003 190.404 9.60003 189.804 21.2L193.904 21.1V25.3H189.704V29.5H185.604V25.3L181.404 25.3V21.1L185.604 21.1C185.704 16.3 181.604 9.70003 177.704 7.70003M233.404 5.90003C222.104 1.50003 210.204 9.60003 209.504 21.2L213.604 21.1V25.3H209.404V29.5L205.304 29.5V25.3H201.104V21.1H205.304C205.404 16.3 201.304 9.70003 197.404 7.70003M197.704 25.5H196.004V29.6H192.704V33.7H189.404V37.8H186.004V33.7H182.704V29.6H179.404V25.5H177.704M217.404 25.5H215.704V29.6H212.404V33.7H209.104V37.8H205.704V33.7H202.404V29.6H199.104V25.5H197.404M23.5039 6C26.0039 7.7 29.0039 11.7 29.9039 14.3C34.4039 2.90001 49.1039 -2.09999 59.5039 3.80001M43.2039 6C45.7039 7.7 48.7039 11.7 49.6039 14.3C54.1039 2.90001 68.8039 -2.09999 79.2039 3.80001M55.9039 5.90001C44.6039 1.50001 32.7039 9.60001 32.1039 21.2L36.2039 21.1L36.2039 25.3L32.0039 25.3V29.5H27.9039V25.3H23.7039V21.1H27.9039C28.0039 16.3 23.9039 9.70001 20.0039 7.70001M75.7039 5.90002C64.4039 1.50001 52.5039 9.60002 51.8039 21.2L55.9039 21.1L55.9039 25.3L51.7039 25.3V29.5H47.6039V25.3H43.4039L43.4039 21.1H47.6039C47.7039 16.3 43.6039 9.70002 39.7039 7.70002M40.0039 25.5H38.3039V29.6H35.0039V33.7H31.7039L31.7039 37.8H28.3039L28.3039 33.7H25.0039V29.6H21.7039V25.5H20.0039M59.7039 25.5H58.0039V29.6H54.7039V33.7H51.4039V37.8H48.0039V33.7H44.7039V29.6H41.4039V25.5H39.7039M286.304 1.00003L0.00390625 1M338.904 6.00001C341.404 7.70001 344.404 11.7 345.304 14.3C349.804 2.90001 364.504 -2.09999 374.904 3.80001M358.604 6.00001C361.104 7.70001 364.104 11.7 365.004 14.3C369.504 2.90001 384.204 -2.09999 394.604 3.80001M371.304 5.90002C360.004 1.50002 348.104 9.60002 347.504 21.2L351.604 21.1V25.3H347.404V29.5H343.304V25.3H339.104V21.1H343.304C343.404 16.3 339.304 9.70002 335.404 7.70002M391.104 5.90002C379.804 1.50002 367.904 9.60002 367.204 21.2L371.304 21.1V25.3H367.104V29.5H363.004V25.3H358.804V21.1H363.004C363.104 16.3 359.004 9.70002 355.104 7.70002M355.404 25.5H353.704V29.6L350.404 29.6V33.7H347.104V37.8H343.704V33.7L340.404 33.7V29.6H337.104V25.5H335.404M375.004 25.5L373.404 25.5V29.6H370.104V33.7H366.804V37.8H363.404V33.7H360.104V29.6H356.804V25.5H355.104M417.804 6.00001C420.304 7.70001 423.304 11.7 424.204 14.3C428.704 2.90002 443.404 -2.09998 453.804 3.80002M437.504 6.00001C440.004 7.70001 443.004 11.7 443.904 14.3C448.404 2.90002 463.104 -2.09998 473.504 3.80002M450.204 5.90002C438.904 1.50002 427.004 9.60003 426.404 21.2L430.504 21.1V25.3H426.304V29.5H422.204V25.3H418.004V21.1H422.204C422.304 16.3 418.204 9.70002 414.304 7.70002M469.904 5.90003C458.604 1.50003 446.704 9.60003 446.004 21.2L450.104 21.1V25.3H445.904V29.5H441.804V25.3L437.604 25.3V21.1L441.804 21.1C441.904 16.3 437.804 9.70003 433.904 7.70003M424.204 37.8H425.904V33.7L429.204 33.7V29.6H432.504V25.5H434.204M424.304 37.8H422.604V33.7H419.304V29.6L416.004 29.6V25.5H414.304M443.904 37.8H445.604V33.7H448.904V29.6H452.204V25.5H453.904M444.004 37.8H442.304V33.7H439.004V29.6H435.704V25.5H434.004M276.104 3.70001C282.304 0.500013 289.904 0.200013 296.104 3.70001M279.804 6C282.304 7.7 285.304 11.7 286.204 14.3C290.704 2.9 305.404 -2.09999 315.804 3.80001M292.504 5.90001C286.604 3.60001 280.604 4.70001 276.104 7.90001M286.204 37.8H287.904V33.7H291.204V29.6H294.504V25.5H296.204M378.404 6.00001C380.904 7.70001 383.904 11.7 384.804 14.3C389.304 2.90001 404.004 -2.09999 414.404 3.80002M398.104 6.00001C400.604 7.70001 403.604 11.7 404.504 14.3C409.004 2.90001 423.704 -2.09998 434.104 3.80002M410.804 5.90002C399.504 1.50002 387.604 9.60002 387.004 21.2L391.104 21.1V25.3H386.904V29.5H382.804V25.3H378.604V21.1H382.804C382.904 16.3 378.804 9.70002 374.904 7.70002M430.504 5.90002C419.204 1.50002 407.304 9.60002 406.604 21.2L410.704 21.1V25.3H406.504V29.5H402.404V25.3H398.204V21.1H402.404C402.504 16.3 398.404 9.70002 394.504 7.70002M384.804 37.8L386.504 37.8V33.7H389.804V29.6H393.104V25.5H394.804M384.904 37.8H383.204V33.7H379.904V29.6H376.604V25.5H374.904M404.504 37.8H406.204V33.7H409.504V29.6H412.804V25.5H414.504M404.604 37.8H402.904V33.7H399.604V29.6H396.304V25.5L394.604 25.5M536.004 6.00002C538.504 7.70002 541.504 11.7 542.404 14.3C545.604 6.10003 554.004 1.30003 562.304 1.30003M555.704 6.00002C558.204 7.70002 561.204 11.7 562.104 14.3M562.304 4.70004C553.204 4.60004 545.104 11.7 544.504 21.2L548.604 21.1V25.3H544.404V29.5H540.304V25.3H536.104V21.1H540.304C540.404 16.3 536.304 9.70003 532.404 7.70003M562.304 29.5H560.104M560.104 29.5V25.3H555.904V21.1H560.104C560.204 16.3 556.104 9.70004 552.204 7.70004M560.104 29.5L564.204 29.5V25.3H568.404V21.1L564.304 21.2C565.004 9.60001 576.904 1.50001 588.204 5.90001M542.404 37.8H544.104V33.7H547.404V29.6L550.704 29.6V25.5H552.404M542.504 37.8H540.804V33.7H537.504V29.6H534.204V25.5H532.504M496.604 6.00002C499.104 7.70002 502.104 11.7 503.004 14.3C507.504 2.90002 522.204 -2.09998 532.604 3.80003M516.404 6.00002C518.904 7.70002 521.904 11.7 522.804 14.3C527.304 2.90003 542.004 -2.09997 552.404 3.80003M529.104 5.90003C517.804 1.50003 505.904 9.60003 505.304 21.2L509.404 21.1V25.3H505.204V29.5L501.104 29.5V25.3H496.904V21.1H501.104C501.204 16.3 497.104 9.70003 493.204 7.70003M548.804 5.90003C537.504 1.50003 525.604 9.60003 524.904 21.2L529.004 21.1V25.3L524.804 25.3V29.5H520.704V25.3H516.504V21.1H520.704C520.804 16.3 516.704 9.70003 512.804 7.70003M513.004 25.5H511.404V29.6H508.104V33.7H504.804V37.8H501.404V33.7H498.104V29.6H494.804V25.5H493.104M522.804 37.8H524.504V33.7H527.804V29.6H531.104V25.5H532.804M522.904 37.8H521.204V33.7H517.904V29.6H514.604V25.5H512.904M457.204 6.00002C459.704 7.70002 462.704 11.7 463.604 14.3C468.104 2.90002 482.804 -2.09998 493.204 3.80002M476.904 6.00002C479.404 7.70002 482.404 11.7 483.304 14.3C487.804 2.90002 502.504 -2.09998 512.904 3.80002M489.604 5.90003C478.304 1.50003 466.404 9.60003 465.804 21.2L469.904 21.1V25.3H465.704V29.5H461.604V25.3L457.404 25.3V21.1L461.604 21.1C461.704 16.3 457.604 9.70003 453.704 7.70003M509.404 5.90003C498.104 1.50003 486.204 9.60003 485.504 21.2L489.604 21.1V25.3H485.404V29.5L481.304 29.5V25.3H477.104V21.1H481.304C481.404 16.3 477.304 9.70003 473.404 7.70003M473.704 25.5H472.004V29.6H468.704V33.7H465.404V37.8H462.004V33.7H458.704V29.6H455.404V25.5H453.704M493.404 25.5H491.704V29.6H488.404V33.7H485.104V37.8H481.704V33.7H478.404V29.6H475.104V25.5H473.404M299.504 6C302.004 7.7 305.004 11.7 305.904 14.3C310.404 2.90001 325.104 -2.09999 335.504 3.80001M319.204 6C321.704 7.7 324.704 11.7 325.604 14.3C330.104 2.90001 344.804 -2.09999 355.204 3.80001M331.904 5.90001C320.604 1.50001 308.704 9.60001 308.104 21.2L312.204 21.1V25.3L308.004 25.3V29.5H303.904V25.3H299.704V21.1H303.904C304.004 16.3 299.904 9.70001 296.004 7.70001M351.704 5.90002C340.404 1.50001 328.504 9.60002 327.804 21.2L331.904 21.1V25.3L327.704 25.3V29.5H323.604V25.3H319.404V21.1H323.604C323.704 16.3 319.604 9.70002 315.704 7.70002M316.004 25.5H314.304V29.6H311.004V33.7H307.704V37.8H304.304V33.7H301.004V29.6H297.704V25.5H296.004M335.704 25.5H334.004V29.6H330.704V33.7H327.404V37.8H324.004V33.7H320.704V29.6H317.404V25.5H315.704M562.304 1.00003L276.004 1M614.904 6.00001C617.404 7.70001 620.404 11.7 621.304 14.3C625.804 2.90001 640.504 -2.09999 650.904 3.80001M634.604 6.00001C637.104 7.70001 640.104 11.7 641.004 14.3C645.504 2.90001 660.204 -2.09999 670.604 3.80001M647.304 5.90002C636.004 1.50002 624.104 9.60002 623.504 21.2L627.604 21.1V25.3H623.404V29.5H619.304V25.3H615.104V21.1H619.304C619.404 16.3 615.304 9.70002 611.404 7.70002M667.104 5.90002C655.804 1.50002 643.904 9.60002 643.204 21.2L647.304 21.1V25.3H643.104V29.5H639.004V25.3H634.804V21.1H639.004C639.104 16.3 635.004 9.70002 631.104 7.70002M631.404 25.5H629.704V29.6L626.404 29.6V33.7H623.104V37.8H619.704V33.7L616.404 33.7V29.6H613.104V25.5H611.404M651.004 25.5L649.404 25.5V29.6H646.104V33.7H642.804V37.8H639.404V33.7H636.104V29.6H632.804V25.5H631.104M693.804 6.00001C696.304 7.70001 699.304 11.7 700.204 14.3C704.704 2.90002 719.404 -2.09998 729.804 3.80002M713.504 6.00001C716.004 7.70001 719.004 11.7 719.904 14.3C724.404 2.90002 739.104 -2.09998 749.504 3.80002M726.204 5.90002C714.904 1.50002 703.004 9.60003 702.404 21.2L706.504 21.1V25.3H702.304V29.5H698.204V25.3H694.004V21.1H698.204C698.304 16.3 694.204 9.70002 690.304 7.70002M745.904 5.90003C734.604 1.50003 722.704 9.60003 722.004 21.2L726.104 21.1V25.3H721.904V29.5H717.804V25.3L713.604 25.3V21.1L717.804 21.1C717.904 16.3 713.804 9.70003 709.904 7.70003M700.204 37.8H701.904V33.7L705.204 33.7V29.6H708.504V25.5H710.204M700.304 37.8H698.604V33.7H695.304V29.6L692.004 29.6V25.5H690.304M719.904 37.8H721.604V33.7H724.904V29.6H728.204V25.5H729.904M720.004 37.8H718.304V33.7H715.004V29.6H711.704V25.5H710.004M552.104 3.70001C558.304 0.500013 565.904 0.200013 572.104 3.70001M555.804 6C558.304 7.7 561.304 11.7 562.204 14.3C566.704 2.9 581.404 -2.09999 591.804 3.80001M568.504 5.90001C562.604 3.60001 556.604 4.70001 552.104 7.90001M562.204 37.8H563.904V33.7H567.204V29.6H570.504V25.5H572.204M654.404 6.00001C656.904 7.70001 659.904 11.7 660.804 14.3C665.304 2.90001 680.004 -2.09999 690.404 3.80002M674.104 6.00001C676.604 7.70001 679.604 11.7 680.504 14.3C685.004 2.90001 699.704 -2.09998 710.104 3.80002M686.804 5.90002C675.504 1.50002 663.604 9.60002 663.004 21.2L667.104 21.1V25.3H662.904V29.5H658.804V25.3H654.604V21.1H658.804C658.904 16.3 654.804 9.70002 650.904 7.70002M706.504 5.90002C695.204 1.50002 683.304 9.60002 682.604 21.2L686.704 21.1V25.3H682.504V29.5H678.404V25.3H674.204V21.1H678.404C678.504 16.3 674.404 9.70002 670.504 7.70002M660.804 37.8L662.504 37.8V33.7H665.804V29.6H669.104V25.5H670.804M660.904 37.8H659.204V33.7H655.904V29.6H652.604V25.5H650.904M680.504 37.8H682.204V33.7H685.504V29.6H688.804V25.5H690.504M680.604 37.8H678.904V33.7H675.604V29.6H672.304V25.5L670.604 25.5M812.004 6.00002C814.504 7.70002 817.504 11.7 818.404 14.3C821.604 6.10003 830.004 1.30003 838.304 1.30003M831.704 6.00002C834.204 7.70002 837.204 11.7 838.104 14.3M838.304 4.70004C829.204 4.60004 821.104 11.7 820.504 21.2L824.604 21.1V25.3H820.404V29.5H816.304V25.3H812.104V21.1H816.304C816.404 16.3 812.304 9.70003 808.404 7.70003M838.304 29.5H836.104M836.104 29.5V25.3H831.904V21.1H836.104C836.204 16.3 832.104 9.70004 828.204 7.70004M836.104 29.5L840.204 29.5V25.3H844.404V21.1L840.304 21.2C841.004 9.60001 852.904 1.50001 864.204 5.90001M818.404 37.8H820.104V33.7H823.404V29.6L826.704 29.6V25.5H828.404M818.504 37.8H816.804V33.7H813.504V29.6H810.204V25.5H808.504M772.604 6.00002C775.104 7.70002 778.104 11.7 779.004 14.3C783.504 2.90002 798.204 -2.09998 808.604 3.80003M792.404 6.00002C794.904 7.70002 797.904 11.7 798.804 14.3C803.304 2.90003 818.004 -2.09997 828.404 3.80003M805.104 5.90003C793.804 1.50003 781.904 9.60003 781.304 21.2L785.404 21.1V25.3H781.204V29.5L777.104 29.5V25.3H772.904V21.1H777.104C777.204 16.3 773.104 9.70003 769.204 7.70003M824.804 5.90003C813.504 1.50003 801.604 9.60003 800.904 21.2L805.004 21.1V25.3L800.804 25.3V29.5H796.704V25.3H792.504V21.1H796.704C796.804 16.3 792.704 9.70003 788.804 7.70003M789.004 25.5H787.404V29.6H784.104V33.7H780.804V37.8H777.404V33.7H774.104V29.6H770.804V25.5H769.104M798.804 37.8H800.504V33.7H803.804V29.6H807.104V25.5H808.804M798.904 37.8H797.204V33.7H793.904V29.6H790.604V25.5H788.904M733.204 6.00002C735.704 7.70002 738.704 11.7 739.604 14.3C744.104 2.90002 758.804 -2.09998 769.204 3.80002M752.904 6.00002C755.404 7.70002 758.404 11.7 759.304 14.3C763.804 2.90002 778.504 -2.09998 788.904 3.80002M765.604 5.90003C754.304 1.50003 742.404 9.60003 741.804 21.2L745.904 21.1V25.3H741.704V29.5H737.604V25.3L733.404 25.3V21.1L737.604 21.1C737.704 16.3 733.604 9.70003 729.704 7.70003M785.404 5.90003C774.104 1.50003 762.204 9.60003 761.504 21.2L765.604 21.1V25.3H761.404V29.5L757.304 29.5V25.3H753.104V21.1H757.304C757.404 16.3 753.304 9.70003 749.404 7.70003M749.704 25.5H748.004V29.6H744.704V33.7H741.404V37.8H738.004V33.7H734.704V29.6H731.404V25.5H729.704M769.404 25.5H767.704V29.6H764.404V33.7H761.104V37.8H757.704V33.7H754.404V29.6H751.104V25.5H749.404M575.504 6C578.004 7.7 581.004 11.7 581.904 14.3C586.404 2.90001 601.104 -2.09999 611.504 3.80001M595.204 6C597.704 7.7 600.704 11.7 601.604 14.3C606.104 2.90001 620.804 -2.09999 631.204 3.80001M607.904 5.90001C596.604 1.50001 584.704 9.60001 584.104 21.2L588.204 21.1V25.3L584.004 25.3V29.5H579.904V25.3H575.704V21.1H579.904C580.004 16.3 575.904 9.70001 572.004 7.70001M627.704 5.90002C616.404 1.50001 604.504 9.60002 603.804 21.2L607.904 21.1V25.3L603.704 25.3V29.5H599.604V25.3H595.404V21.1H599.604C599.704 16.3 595.604 9.70002 591.704 7.70002M592.004 25.5H590.304V29.6H587.004V33.7H583.704V37.8H580.304V33.7H577.004V29.6H573.704V25.5H572.004M611.704 25.5H610.004V29.6H606.704V33.7H603.404V37.8H600.004V33.7H596.704V29.6H593.404V25.5H591.704M838.304 1.00003L552.004 1M890.904 6.00001C893.404 7.70001 896.404 11.7 897.304 14.3C901.804 2.90001 916.504 -2.09999 926.904 3.80001M910.604 6.00001C913.104 7.70001 916.104 11.7 917.004 14.3C921.504 2.90001 936.204 -2.09999 946.604 3.80001M923.304 5.90002C912.004 1.50002 900.104 9.60002 899.504 21.2L903.604 21.1V25.3H899.404V29.5H895.304V25.3H891.104V21.1H895.304C895.404 16.3 891.304 9.70002 887.404 7.70002M943.104 5.90002C931.804 1.50002 919.904 9.60002 919.204 21.2L923.304 21.1V25.3H919.104V29.5H915.004V25.3H910.804V21.1H915.004C915.104 16.3 911.004 9.70002 907.104 7.70002M907.404 25.5H905.704V29.6L902.404 29.6V33.7H899.104V37.8H895.704V33.7L892.404 33.7V29.6H889.104V25.5H887.404M927.004 25.5L925.404 25.5V29.6H922.104V33.7H918.804V37.8H915.404V33.7H912.104V29.6H908.804V25.5H907.104M969.804 6.00001C972.304 7.70001 975.304 11.7 976.204 14.3C980.704 2.90002 995.404 -2.09998 1005.8 3.80002M989.504 6.00001C992.004 7.70001 995.004 11.7 995.904 14.3C1000.4 2.90002 1015.1 -2.09998 1025.5 3.80002M1002.2 5.90002C990.904 1.50002 979.004 9.60003 978.404 21.2L982.504 21.1V25.3H978.304V29.5H974.204V25.3H970.004V21.1H974.204C974.304 16.3 970.204 9.70002 966.304 7.70002M1021.9 5.90003C1010.6 1.50003 998.704 9.60003 998.004 21.2L1002.1 21.1V25.3H997.904V29.5H993.804V25.3L989.604 25.3V21.1L993.804 21.1C993.904 16.3 989.804 9.70003 985.904 7.70003M976.204 37.8H977.904V33.7L981.204 33.7V29.6H984.504V25.5H986.204M976.304 37.8H974.604V33.7H971.304V29.6L968.004 29.6V25.5H966.304M995.904 37.8H997.604V33.7H1000.9V29.6H1004.2V25.5H1005.9M996.004 37.8H994.304V33.7H991.004V29.6H987.704V25.5H986.004M828.104 3.70001C834.304 0.500013 841.904 0.200013 848.104 3.70001M831.804 6C834.304 7.7 837.304 11.7 838.204 14.3C842.704 2.9 857.404 -2.09999 867.804 3.80001M844.504 5.90001C838.604 3.60001 832.604 4.70001 828.104 7.90001M838.204 37.8H839.904V33.7H843.204V29.6H846.504V25.5H848.204M930.404 6.00001C932.904 7.70001 935.904 11.7 936.804 14.3C941.304 2.90001 956.004 -2.09999 966.404 3.80002M950.104 6.00001C952.604 7.70001 955.604 11.7 956.504 14.3C961.004 2.90001 975.704 -2.09998 986.104 3.80002M962.804 5.90002C951.504 1.50002 939.604 9.60002 939.004 21.2L943.104 21.1V25.3H938.904V29.5H934.804V25.3H930.604V21.1H934.804C934.904 16.3 930.804 9.70002 926.904 7.70002M982.504 5.90002C971.204 1.50002 959.304 9.60002 958.604 21.2L962.704 21.1V25.3H958.504V29.5H954.404V25.3H950.204V21.1H954.404C954.504 16.3 950.404 9.70002 946.504 7.70002M936.804 37.8L938.504 37.8V33.7H941.804V29.6H945.104V25.5H946.804M936.904 37.8H935.204V33.7H931.904V29.6H928.604V25.5H926.904M956.504 37.8H958.204V33.7H961.504V29.6H964.804V25.5H966.504M956.604 37.8H954.904V33.7H951.604V29.6H948.304V25.5L946.604 25.5M1088 6.00002C1090.5 7.70002 1093.5 11.7 1094.4 14.3C1097.6 6.10003 1106 1.30003 1114.3 1.30003M1107.7 6.00002C1110.2 7.70002 1113.2 11.7 1114.1 14.3M1114.3 4.70004C1105.2 4.60004 1097.1 11.7 1096.5 21.2L1100.6 21.1V25.3H1096.4V29.5H1092.3V25.3H1088.1V21.1H1092.3C1092.4 16.3 1088.3 9.70003 1084.4 7.70003M1114.3 29.5H1112.1V25.3H1107.9V21.1H1112.1C1112.2 16.3 1108.1 9.70004 1104.2 7.70004M1094.4 37.8H1096.1V33.7H1099.4V29.6L1102.7 29.6V25.5H1104.4M1094.5 37.8H1092.8V33.7H1089.5V29.6H1086.2V25.5H1084.5M1114.3 37.8H1112.5V33.7L1109.2 33.7V29.6H1105.9V25.5L1102.5 25.5V29.6H1099.2V33.7H1095.9V37.8H1094.2M1048.6 6.00002C1051.1 7.70002 1054.1 11.7 1055 14.3C1059.5 2.90002 1074.2 -2.09998 1084.6 3.80003M1068.4 6.00002C1070.9 7.70002 1073.9 11.7 1074.8 14.3C1079.3 2.90003 1094 -2.09997 1104.4 3.80003M1081.1 5.90003C1069.8 1.50003 1057.9 9.60003 1057.3 21.2L1061.4 21.1V25.3H1057.2V29.5L1053.1 29.5V25.3H1048.9V21.1H1053.1C1053.2 16.3 1049.1 9.70003 1045.2 7.70003M1100.8 5.90003C1089.5 1.50003 1077.6 9.60003 1076.9 21.2L1081 21.1V25.3L1076.8 25.3V29.5H1072.7V25.3H1068.5V21.1H1072.7C1072.8 16.3 1068.7 9.70003 1064.8 7.70003M1065 25.5H1063.4V29.6H1060.1V33.7H1056.8V37.8H1053.4V33.7H1050.1V29.6H1046.8V25.5H1045.1M1074.8 37.8H1076.5V33.7H1079.8V29.6H1083.1V25.5H1084.8M1074.9 37.8H1073.2V33.7H1069.9V29.6H1066.6V25.5H1064.9M1009.2 6.00002C1011.7 7.70002 1014.7 11.7 1015.6 14.3C1020.1 2.90002 1034.8 -2.09998 1045.2 3.80002M1028.9 6.00002C1031.4 7.70002 1034.4 11.7 1035.3 14.3C1039.8 2.90002 1054.5 -2.09998 1064.9 3.80002M1041.6 5.90003C1030.3 1.50003 1018.4 9.60003 1017.8 21.2L1021.9 21.1V25.3H1017.7V29.5H1013.6V25.3L1009.4 25.3V21.1L1013.6 21.1C1013.7 16.3 1009.6 9.70003 1005.7 7.70003M1061.4 5.90003C1050.1 1.50003 1038.2 9.60003 1037.5 21.2L1041.6 21.1V25.3H1037.4V29.5L1033.3 29.5V25.3H1029.1V21.1H1033.3C1033.4 16.3 1029.3 9.70003 1025.4 7.70003M1025.7 25.5H1024V29.6H1020.7V33.7H1017.4V37.8H1014V33.7H1010.7V29.6H1007.4V25.5H1005.7M1045.4 25.5H1043.7V29.6H1040.4V33.7H1037.1V37.8H1033.7V33.7H1030.4V29.6H1027.1V25.5H1025.4M851.504 6C854.004 7.7 857.004 11.7 857.904 14.3C862.404 2.90001 877.104 -2.09999 887.504 3.80001M871.204 6C873.704 7.7 876.704 11.7 877.604 14.3C882.104 2.90001 896.804 -2.09999 907.204 3.80001M883.904 5.90001C872.604 1.50001 860.704 9.60001 860.104 21.2L864.204 21.1V25.3L860.004 25.3V29.5H855.904V25.3H851.704V21.1H855.904C856.004 16.3 851.904 9.70001 848.004 7.70001M903.704 5.90002C892.404 1.50001 880.504 9.60002 879.804 21.2L883.904 21.1V25.3L879.704 25.3V29.5H875.604V25.3H871.404V21.1H875.604C875.704 16.3 871.604 9.70002 867.704 7.70002M868.004 25.5H866.304V29.6H863.004V33.7H859.704V37.8H856.304V33.7H853.004V29.6H849.704V25.5H848.004M887.704 25.5H886.004V29.6H882.704V33.7H879.404V37.8H876.004V33.7H872.704V29.6H869.404V25.5H867.704M1114.3 1.00003L828.004 1M1146.9 6.00001C1149.4 7.70001 1152.4 11.7 1153.3 14.3C1157.8 2.90001 1172.5 -2.09999 1182.9 3.80001M1166.6 6.00001C1169.1 7.70001 1172.1 11.7 1173 14.3C1177.5 2.90001 1192.2 -2.09999 1202.6 3.80001M1179.3 5.90002C1168 1.50002 1156.1 9.60002 1155.5 21.2L1159.6 21.1V25.3H1155.4V29.5H1151.3V25.3H1147.1V21.1H1151.3C1151.4 16.3 1147.3 9.70002 1143.4 7.70002M1199.1 5.90002C1187.8 1.50002 1175.9 9.60002 1175.2 21.2L1179.3 21.1V25.3H1175.1V29.5H1171V25.3H1166.8V21.1H1171C1171.1 16.3 1167 9.70002 1163.1 7.70002M1163.4 25.5H1161.7V29.6L1158.4 29.6V33.7H1155.1V37.8H1151.7V33.7L1148.4 33.7V29.6H1145.1V25.5H1143.4M1183 25.5L1181.4 25.5V29.6H1178.1V33.7H1174.8V37.8H1171.4V33.7H1168.1V29.6H1164.8V25.5H1163.1M1225.8 6.00001C1228.3 7.70001 1231.3 11.7 1232.2 14.3C1236.7 2.90002 1251.4 -2.09998 1261.8 3.80002M1245.5 6.00001C1248 7.70001 1251 11.7 1251.9 14.3C1256.4 2.90002 1271.1 -2.09998 1281.5 3.80002M1258.2 5.90002C1246.9 1.50002 1235 9.60003 1234.4 21.2L1238.5 21.1V25.3H1234.3V29.5H1230.2V25.3H1226V21.1H1230.2C1230.3 16.3 1226.2 9.70002 1222.3 7.70002M1277.9 5.90003C1266.6 1.50003 1254.7 9.60003 1254 21.2L1258.1 21.1V25.3H1253.9V29.5H1249.8V25.3L1245.6 25.3V21.1L1249.8 21.1C1249.9 16.3 1245.8 9.70003 1241.9 7.70003M1232.2 37.8H1233.9V33.7L1237.2 33.7V29.6H1240.5V25.5H1242.2M1232.3 37.8H1230.6V33.7H1227.3V29.6L1224 29.6V25.5H1222.3M1251.9 37.8H1253.6V33.7H1256.9V29.6H1260.2V25.5H1261.9M1252 37.8H1250.3V33.7H1247V29.6H1243.7V25.5H1242M1084.1 3.70001C1090.3 0.500013 1097.9 0.200013 1104.1 3.70001M1087.8 6C1090.3 7.7 1093.3 11.7 1094.2 14.3C1098.7 2.9 1113.4 -2.09999 1123.8 3.80001M1100.5 5.90001C1094.6 3.60001 1088.6 4.70001 1084.1 7.90001M1120.2 5.90001C1108.9 1.50001 1097 9.60001 1096.3 21.2L1100.4 21.1V25.3H1096.2V29.5L1092.1 29.5V25.3H1087.9V21.1H1092.1C1092.2 16.3 1088.1 9.70001 1084.2 7.70001M1094.3 37.8H1092.6V33.7H1089.3V29.6H1086V25.5H1084.2M1186.4 6.00001C1188.9 7.70001 1191.9 11.7 1192.8 14.3C1197.3 2.90001 1212 -2.09999 1222.4 3.80002M1206.1 6.00001C1208.6 7.70001 1211.6 11.7 1212.5 14.3C1217 2.90001 1231.7 -2.09998 1242.1 3.80002M1218.8 5.90002C1207.5 1.50002 1195.6 9.60002 1195 21.2L1199.1 21.1V25.3H1194.9V29.5H1190.8V25.3H1186.6V21.1H1190.8C1190.9 16.3 1186.8 9.70002 1182.9 7.70002M1238.5 5.90002C1227.2 1.50002 1215.3 9.60002 1214.6 21.2L1218.7 21.1V25.3H1214.5V29.5H1210.4V25.3H1206.2V21.1H1210.4C1210.5 16.3 1206.4 9.70002 1202.5 7.70002M1192.8 37.8L1194.5 37.8V33.7H1197.8V29.6H1201.1V25.5H1202.8M1192.9 37.8H1191.2V33.7H1187.9V29.6H1184.6V25.5H1182.9M1212.5 37.8H1214.2V33.7H1217.5V29.6H1220.8V25.5H1222.5M1212.6 37.8H1210.9V33.7H1207.6V29.6H1204.3V25.5L1202.6 25.5M1344 6.00002C1346.5 7.70002 1349.5 11.7 1350.4 14.3C1353.6 6.10003 1362 1.30003 1370.3 1.30003M1363.7 6.00002C1366.2 7.70002 1369.2 11.7 1370.1 14.3M1370.3 4.70004C1361.2 4.60004 1353.1 11.7 1352.5 21.2L1356.6 21.1V25.3H1352.4V29.5H1348.3V25.3H1344.1V21.1H1348.3C1348.4 16.3 1344.3 9.70003 1340.4 7.70003M1370.3 29.5H1368.1M1368.1 29.5V25.3H1363.9V21.1H1368.1C1368.2 16.3 1364.1 9.70004 1360.2 7.70004M1368.1 29.5L1372.2 29.5V25.3H1376.4V21.1L1372.3 21.2C1373 9.60001 1384.9 1.50001 1396.2 5.90001M1350.4 37.8H1352.1V33.7H1355.4V29.6L1358.7 29.6V25.5H1360.4M1350.5 37.8H1348.8V33.7H1345.5V29.6H1342.2V25.5H1340.5M1304.6 6.00002C1307.1 7.70002 1310.1 11.7 1311 14.3C1315.5 2.90002 1330.2 -2.09998 1340.6 3.80003M1324.4 6.00002C1326.9 7.70002 1329.9 11.7 1330.8 14.3C1335.3 2.90003 1350 -2.09997 1360.4 3.80003M1337.1 5.90003C1325.8 1.50003 1313.9 9.60003 1313.3 21.2L1317.4 21.1V25.3H1313.2V29.5L1309.1 29.5V25.3H1304.9V21.1H1309.1C1309.2 16.3 1305.1 9.70003 1301.2 7.70003M1356.8 5.90003C1345.5 1.50003 1333.6 9.60003 1332.9 21.2L1337 21.1V25.3L1332.8 25.3V29.5H1328.7V25.3H1324.5V21.1H1328.7C1328.8 16.3 1324.7 9.70003 1320.8 7.70003M1321 25.5H1319.4V29.6H1316.1V33.7H1312.8V37.8H1309.4V33.7H1306.1V29.6H1302.8V25.5H1301.1M1330.8 37.8H1332.5V33.7H1335.8V29.6H1339.1V25.5H1340.8M1330.9 37.8H1329.2V33.7H1325.9V29.6H1322.6V25.5H1320.9M1265.2 6.00002C1267.7 7.70002 1270.7 11.7 1271.6 14.3C1276.1 2.90002 1290.8 -2.09998 1301.2 3.80002M1284.9 6.00002C1287.4 7.70002 1290.4 11.7 1291.3 14.3C1295.8 2.90002 1310.5 -2.09998 1320.9 3.80002M1297.6 5.90003C1286.3 1.50003 1274.4 9.60003 1273.8 21.2L1277.9 21.1V25.3H1273.7V29.5H1269.6V25.3L1265.4 25.3V21.1L1269.6 21.1C1269.7 16.3 1265.6 9.70003 1261.7 7.70003M1317.4 5.90003C1306.1 1.50003 1294.2 9.60003 1293.5 21.2L1297.6 21.1V25.3H1293.4V29.5L1289.3 29.5V25.3H1285.1V21.1H1289.3C1289.4 16.3 1285.3 9.70003 1281.4 7.70003M1281.7 25.5H1280V29.6H1276.7V33.7H1273.4V37.8H1270V33.7H1266.7V29.6H1263.4V25.5H1261.7M1301.4 25.5H1299.7V29.6H1296.4V33.7H1293.1V37.8H1289.7V33.7H1286.4V29.6H1283.1V25.5H1281.4M1107.5 6C1110 7.7 1113 11.7 1113.9 14.3C1118.4 2.90001 1133.1 -2.09999 1143.5 3.80001M1127.2 6C1129.7 7.7 1132.7 11.7 1133.6 14.3C1138.1 2.90001 1152.8 -2.09999 1163.2 3.80001M1139.9 5.90001C1128.6 1.50001 1116.7 9.60001 1116.1 21.2L1120.2 21.1V25.3L1116 25.3V29.5H1111.9V25.3H1107.7V21.1H1111.9C1112 16.3 1107.9 9.70001 1104 7.70001M1159.7 5.90002C1148.4 1.50001 1136.5 9.60002 1135.8 21.2L1139.9 21.1V25.3L1135.7 25.3V29.5H1131.6V25.3H1127.4V21.1H1131.6C1131.7 16.3 1127.6 9.70002 1123.7 7.70002M1124 25.5H1122.3V29.6H1119V33.7H1115.7V37.8H1112.3V33.7H1109V29.6H1105.7V25.5H1104M1143.7 25.5H1142V29.6H1138.7V33.7H1135.4V37.8H1132V33.7H1128.7V29.6H1125.4V25.5H1123.7M1370.3 1.00003L1084 1M1422.9 6.00001C1425.4 7.70001 1428.4 11.7 1429.3 14.3C1433.8 2.90001 1448.5 -2.09999 1458.9 3.80001M1442.6 6.00001C1445.1 7.70001 1448.1 11.7 1449 14.3C1453.5 2.90001 1468.2 -2.09999 1478.6 3.80001M1455.3 5.90002C1444 1.50002 1432.1 9.60002 1431.5 21.2L1435.6 21.1V25.3H1431.4V29.5H1427.3V25.3H1423.1V21.1H1427.3C1427.4 16.3 1423.3 9.70002 1419.4 7.70002M1475.1 5.90002C1463.8 1.50002 1451.9 9.60002 1451.2 21.2L1455.3 21.1V25.3H1451.1V29.5H1447V25.3H1442.8V21.1H1447C1447.1 16.3 1443 9.70002 1439.1 7.70002M1439.4 25.5H1437.7V29.6L1434.4 29.6V33.7H1431.1V37.8H1427.7V33.7L1424.4 33.7V29.6H1421.1V25.5H1419.4M1459 25.5L1457.4 25.5V29.6H1454.1V33.7H1450.8V37.8H1447.4V33.7H1444.1V29.6H1440.8V25.5H1439.1M1501.8 6.00001C1504.3 7.70001 1507.3 11.7 1508.2 14.3C1512.7 2.90002 1527.4 -2.09998 1537.8 3.80002M1521.5 6.00001C1524 7.70001 1527 11.7 1527.9 14.3C1532.4 2.90002 1547.1 -2.09998 1557.5 3.80002M1534.2 5.90002C1522.9 1.50002 1511 9.60003 1510.4 21.2L1514.5 21.1V25.3H1510.3V29.5H1506.2V25.3H1502V21.1H1506.2C1506.3 16.3 1502.2 9.70002 1498.3 7.70002M1553.9 5.90003C1542.6 1.50003 1530.7 9.60003 1530 21.2L1534.1 21.1V25.3H1529.9V29.5H1525.8V25.3L1521.6 25.3V21.1L1525.8 21.1C1525.9 16.3 1521.8 9.70003 1517.9 7.70003M1508.2 37.8H1509.9V33.7L1513.2 33.7V29.6H1516.5V25.5H1518.2M1508.3 37.8H1506.6V33.7H1503.3V29.6L1500 29.6V25.5H1498.3M1527.9 37.8H1529.6V33.7H1532.9V29.6H1536.2V25.5H1537.9M1528 37.8H1526.3V33.7H1523V29.6H1519.7V25.5H1518M1360.1 3.70001C1366.3 0.500013 1373.9 0.200013 1380.1 3.70001M1363.8 6C1366.3 7.7 1369.3 11.7 1370.2 14.3C1374.7 2.9 1389.4 -2.09999 1399.8 3.80001M1376.5 5.90001C1370.6 3.60001 1364.6 4.70001 1360.1 7.90001M1370.2 37.8H1371.9V33.7H1375.2V29.6H1378.5V25.5H1380.2M1462.4 6.00001C1464.9 7.70001 1467.9 11.7 1468.8 14.3C1473.3 2.90001 1488 -2.09999 1498.4 3.80002M1482.1 6.00001C1484.6 7.70001 1487.6 11.7 1488.5 14.3C1493 2.90001 1507.7 -2.09998 1518.1 3.80002M1494.8 5.90002C1483.5 1.50002 1471.6 9.60002 1471 21.2L1475.1 21.1V25.3H1470.9V29.5H1466.8V25.3H1462.6V21.1H1466.8C1466.9 16.3 1462.8 9.70002 1458.9 7.70002M1514.5 5.90002C1503.2 1.50002 1491.3 9.60002 1490.6 21.2L1494.7 21.1V25.3H1490.5V29.5H1486.4V25.3H1482.2V21.1H1486.4C1486.5 16.3 1482.4 9.70002 1478.5 7.70002M1468.8 37.8L1470.5 37.8V33.7H1473.8V29.6H1477.1V25.5H1478.8M1468.9 37.8H1467.2V33.7H1463.9V29.6H1460.6V25.5H1458.9M1488.5 37.8H1490.2V33.7H1493.5V29.6H1496.8V25.5H1498.5M1488.6 37.8H1486.9V33.7H1483.6V29.6H1480.3V25.5L1478.6 25.5M1620 6.00002C1622.5 7.70002 1625.5 11.7 1626.4 14.3C1629.6 6.10003 1638 1.30003 1646.3 1.30003M1639.7 6.00002C1642.2 7.70002 1645.2 11.7 1646.1 14.3M1646.3 4.70004C1637.2 4.60004 1629.1 11.7 1628.5 21.2L1632.6 21.1V25.3H1628.4V29.5H1624.3V25.3H1620.1V21.1H1624.3C1624.4 16.3 1620.3 9.70003 1616.4 7.70003M1646.3 29.5H1644.1M1644.1 29.5V25.3H1639.9V21.1H1644.1C1644.2 16.3 1640.1 9.70004 1636.2 7.70004M1644.1 29.5L1648.2 29.5V25.3H1652.4V21.1L1648.3 21.2C1649 9.60001 1660.9 1.50001 1672.2 5.90001M1626.4 37.8H1628.1V33.7H1631.4V29.6L1634.7 29.6V25.5H1636.4M1626.5 37.8H1624.8V33.7H1621.5V29.6H1618.2V25.5H1616.5M1580.6 6.00002C1583.1 7.70002 1586.1 11.7 1587 14.3C1591.5 2.90002 1606.2 -2.09998 1616.6 3.80003M1600.4 6.00002C1602.9 7.70002 1605.9 11.7 1606.8 14.3C1611.3 2.90003 1626 -2.09997 1636.4 3.80003M1613.1 5.90003C1601.8 1.50003 1589.9 9.60003 1589.3 21.2L1593.4 21.1V25.3H1589.2V29.5L1585.1 29.5V25.3H1580.9V21.1H1585.1C1585.2 16.3 1581.1 9.70003 1577.2 7.70003M1632.8 5.90003C1621.5 1.50003 1609.6 9.60003 1608.9 21.2L1613 21.1V25.3L1608.8 25.3V29.5H1604.7V25.3H1600.5V21.1H1604.7C1604.8 16.3 1600.7 9.70003 1596.8 7.70003M1597 25.5H1595.4V29.6H1592.1V33.7H1588.8V37.8H1585.4V33.7H1582.1V29.6H1578.8V25.5H1577.1M1606.8 37.8H1608.5V33.7H1611.8V29.6H1615.1V25.5H1616.8M1606.9 37.8H1605.2V33.7H1601.9V29.6H1598.6V25.5H1596.9M1541.2 6.00002C1543.7 7.70002 1546.7 11.7 1547.6 14.3C1552.1 2.90002 1566.8 -2.09998 1577.2 3.80002M1560.9 6.00002C1563.4 7.70002 1566.4 11.7 1567.3 14.3C1571.8 2.90002 1586.5 -2.09998 1596.9 3.80002M1573.6 5.90003C1562.3 1.50003 1550.4 9.60003 1549.8 21.2L1553.9 21.1V25.3H1549.7V29.5H1545.6V25.3L1541.4 25.3V21.1L1545.6 21.1C1545.7 16.3 1541.6 9.70003 1537.7 7.70003M1593.4 5.90003C1582.1 1.50003 1570.2 9.60003 1569.5 21.2L1573.6 21.1V25.3H1569.4V29.5L1565.3 29.5V25.3H1561.1V21.1H1565.3C1565.4 16.3 1561.3 9.70003 1557.4 7.70003M1557.7 25.5H1556V29.6H1552.7V33.7H1549.4V37.8H1546V33.7H1542.7V29.6H1539.4V25.5H1537.7M1577.4 25.5H1575.7V29.6H1572.4V33.7H1569.1V37.8H1565.7V33.7H1562.4V29.6H1559.1V25.5H1557.4M1383.5 6C1386 7.7 1389 11.7 1389.9 14.3C1394.4 2.90001 1409.1 -2.09999 1419.5 3.80001M1403.2 6C1405.7 7.7 1408.7 11.7 1409.6 14.3C1414.1 2.90001 1428.8 -2.09999 1439.2 3.80001M1415.9 5.90001C1404.6 1.50001 1392.7 9.60001 1392.1 21.2L1396.2 21.1V25.3L1392 25.3V29.5H1387.9V25.3H1383.7V21.1H1387.9C1388 16.3 1383.9 9.70001 1380 7.70001M1435.7 5.90002C1424.4 1.50001 1412.5 9.60002 1411.8 21.2L1415.9 21.1V25.3L1411.7 25.3V29.5H1407.6V25.3H1403.4V21.1H1407.6C1407.7 16.3 1403.6 9.70002 1399.7 7.70002M1400 25.5H1398.3V29.6H1395V33.7H1391.7V37.8H1388.3V33.7H1385V29.6H1381.7V25.5H1380M1419.7 25.5H1418V29.6H1414.7V33.7H1411.4V37.8H1408V33.7H1404.7V29.6H1401.4V25.5H1399.7M1646.3 1.00003L1360 1M1698.9 6.00001C1701.4 7.70001 1704.4 11.7 1705.3 14.3C1709.8 2.90001 1724.5 -2.09999 1734.9 3.80001M1718.6 6.00001C1721.1 7.70001 1724.1 11.7 1725 14.3C1729.5 2.90001 1744.2 -2.09999 1754.6 3.80001M1731.3 5.90002C1720 1.50002 1708.1 9.60002 1707.5 21.2L1711.6 21.1V25.3H1707.4V29.5H1703.3V25.3H1699.1V21.1H1703.3C1703.4 16.3 1699.3 9.70002 1695.4 7.70002M1751.1 5.90002C1739.8 1.50002 1727.9 9.60002 1727.2 21.2L1731.3 21.1V25.3H1727.1V29.5H1723V25.3H1718.8V21.1H1723C1723.1 16.3 1719 9.70002 1715.1 7.70002M1715.4 25.5H1713.7V29.6L1710.4 29.6V33.7H1707.1V37.8H1703.7V33.7L1700.4 33.7V29.6H1697.1V25.5H1695.4M1735 25.5L1733.4 25.5V29.6H1730.1V33.7H1726.8V37.8H1723.4V33.7H1720.1V29.6H1716.8V25.5H1715.1M1777.8 6.00001C1780.3 7.70001 1783.3 11.7 1784.2 14.3C1788.7 2.90002 1803.4 -2.09998 1813.8 3.80002M1797.5 6.00001C1800 7.70001 1803 11.7 1803.9 14.3C1808.4 2.90002 1823.1 -2.09998 1833.5 3.80002M1810.2 5.90002C1798.9 1.50002 1787 9.60003 1786.4 21.2L1790.5 21.1V25.3H1786.3V29.5H1782.2V25.3H1778V21.1H1782.2C1782.3 16.3 1778.2 9.70002 1774.3 7.70002M1829.9 5.90003C1818.6 1.50003 1806.7 9.60003 1806 21.2L1810.1 21.1V25.3H1805.9V29.5H1801.8V25.3L1797.6 25.3V21.1L1801.8 21.1C1801.9 16.3 1797.8 9.70003 1793.9 7.70003M1784.2 37.8H1785.9V33.7L1789.2 33.7V29.6H1792.5V25.5H1794.2M1784.3 37.8H1782.6V33.7H1779.3V29.6L1776 29.6V25.5H1774.3M1803.9 37.8H1805.6V33.7H1808.9V29.6H1812.2V25.5H1813.9M1804 37.8H1802.3V33.7H1799V29.6H1795.7V25.5H1794M1636.1 3.70001C1642.3 0.500013 1649.9 0.200013 1656.1 3.70001M1639.8 6C1642.3 7.7 1645.3 11.7 1646.2 14.3C1650.7 2.9 1665.4 -2.09999 1675.8 3.80001M1652.5 5.90001C1646.6 3.60001 1640.6 4.70001 1636.1 7.90001M1646.2 37.8H1647.9V33.7H1651.2V29.6H1654.5V25.5H1656.2M1738.4 6.00001C1740.9 7.70001 1743.9 11.7 1744.8 14.3C1749.3 2.90001 1764 -2.09999 1774.4 3.80002M1758.1 6.00001C1760.6 7.70001 1763.6 11.7 1764.5 14.3C1769 2.90001 1783.7 -2.09998 1794.1 3.80002M1770.8 5.90002C1759.5 1.50002 1747.6 9.60002 1747 21.2L1751.1 21.1V25.3H1746.9V29.5H1742.8V25.3H1738.6V21.1H1742.8C1742.9 16.3 1738.8 9.70002 1734.9 7.70002M1790.5 5.90002C1779.2 1.50002 1767.3 9.60002 1766.6 21.2L1770.7 21.1V25.3H1766.5V29.5H1762.4V25.3H1758.2V21.1H1762.4C1762.5 16.3 1758.4 9.70002 1754.5 7.70002M1744.8 37.8L1746.5 37.8V33.7H1749.8V29.6H1753.1V25.5H1754.8M1744.9 37.8H1743.2V33.7H1739.9V29.6H1736.6V25.5H1734.9M1764.5 37.8H1766.2V33.7H1769.5V29.6H1772.8V25.5H1774.5M1764.6 37.8H1762.9V33.7H1759.6V29.6H1756.3V25.5L1754.6 25.5M1896 6.00002C1898.5 7.70002 1901.5 11.7 1902.4 14.3C1905.6 6.10003 1914 1.30003 1922.3 1.30003M1915.7 6.00002C1918.2 7.70002 1921.2 11.7 1922.1 14.3M1922.3 4.70004C1913.2 4.60004 1905.1 11.7 1904.5 21.2L1908.6 21.1V25.3H1904.4V29.5H1900.3V25.3H1896.1V21.1H1900.3C1900.4 16.3 1896.3 9.70003 1892.4 7.70003M1922.3 29.5H1920.1M1920.1 29.5V25.3H1915.9V21.1H1920.1C1920.2 16.3 1916.1 9.70004 1912.2 7.70004M1920.1 29.5L1924.2 29.5V25.3H1928.4V21.1L1924.3 21.2C1925 9.60001 1936.9 1.50001 1948.2 5.90001M1902.4 37.8H1904.1V33.7H1907.4V29.6L1910.7 29.6V25.5H1912.4M1902.5 37.8H1900.8V33.7H1897.5V29.6H1894.2V25.5H1892.5M1856.6 6.00002C1859.1 7.70002 1862.1 11.7 1863 14.3C1867.5 2.90002 1882.2 -2.09998 1892.6 3.80003M1876.4 6.00002C1878.9 7.70002 1881.9 11.7 1882.8 14.3C1887.3 2.90003 1902 -2.09997 1912.4 3.80003M1889.1 5.90003C1877.8 1.50003 1865.9 9.60003 1865.3 21.2L1869.4 21.1V25.3H1865.2V29.5L1861.1 29.5V25.3H1856.9V21.1H1861.1C1861.2 16.3 1857.1 9.70003 1853.2 7.70003M1908.8 5.90003C1897.5 1.50003 1885.6 9.60003 1884.9 21.2L1889 21.1V25.3L1884.8 25.3V29.5H1880.7V25.3H1876.5V21.1H1880.7C1880.8 16.3 1876.7 9.70003 1872.8 7.70003M1873 25.5H1871.4V29.6H1868.1V33.7H1864.8V37.8H1861.4V33.7H1858.1V29.6H1854.8V25.5H1853.1M1882.8 37.8H1884.5V33.7H1887.8V29.6H1891.1V25.5H1892.8M1882.9 37.8H1881.2V33.7H1877.9V29.6H1874.6V25.5H1872.9M1817.2 6.00002C1819.7 7.70002 1822.7 11.7 1823.6 14.3C1828.1 2.90002 1842.8 -2.09998 1853.2 3.80002M1836.9 6.00002C1839.4 7.70002 1842.4 11.7 1843.3 14.3C1847.8 2.90002 1862.5 -2.09998 1872.9 3.80002M1849.6 5.90003C1838.3 1.50003 1826.4 9.60003 1825.8 21.2L1829.9 21.1V25.3H1825.7V29.5H1821.6V25.3L1817.4 25.3V21.1L1821.6 21.1C1821.7 16.3 1817.6 9.70003 1813.7 7.70003M1869.4 5.90003C1858.1 1.50003 1846.2 9.60003 1845.5 21.2L1849.6 21.1V25.3H1845.4V29.5L1841.3 29.5V25.3H1837.1V21.1H1841.3C1841.4 16.3 1837.3 9.70003 1833.4 7.70003M1833.7 25.5H1832V29.6H1828.7V33.7H1825.4V37.8H1822V33.7H1818.7V29.6H1815.4V25.5H1813.7M1853.4 25.5H1851.7V29.6H1848.4V33.7H1845.1V37.8H1841.7V33.7H1838.4V29.6H1835.1V25.5H1833.4M1659.5 6C1662 7.7 1665 11.7 1665.9 14.3C1670.4 2.90001 1685.1 -2.09999 1695.5 3.80001M1679.2 6C1681.7 7.7 1684.7 11.7 1685.6 14.3C1690.1 2.90001 1704.8 -2.09999 1715.2 3.80001M1691.9 5.90001C1680.6 1.50001 1668.7 9.60001 1668.1 21.2L1672.2 21.1V25.3L1668 25.3V29.5H1663.9V25.3H1659.7V21.1H1663.9C1664 16.3 1659.9 9.70001 1656 7.70001M1711.7 5.90002C1700.4 1.50001 1688.5 9.60002 1687.8 21.2L1691.9 21.1V25.3L1687.7 25.3V29.5H1683.6V25.3H1679.4V21.1H1683.6C1683.7 16.3 1679.6 9.70002 1675.7 7.70002M1676 25.5H1674.3V29.6H1671V33.7H1667.7V37.8H1664.3V33.7H1661V29.6H1657.7V25.5H1656M1695.7 25.5H1694V29.6H1690.7V33.7H1687.4V37.8H1684V33.7H1680.7V29.6H1677.4V25.5H1675.7M1922.3 1.00003L1636 1M1974.9 6.00001C1977.4 7.70001 1980.4 11.7 1981.3 14.3C1985.8 2.90001 2000.5 -2.09999 2010.9 3.80001M1994.6 6.00001C1997.1 7.70001 2000.1 11.7 2001 14.3C2005.5 2.90001 2020.2 -2.09999 2030.6 3.80001M2007.3 5.90002C1996 1.50002 1984.1 9.60002 1983.5 21.2L1987.6 21.1V25.3H1983.4V29.5H1979.3V25.3H1975.1V21.1H1979.3C1979.4 16.3 1975.3 9.70002 1971.4 7.70002M2027.1 5.90002C2015.8 1.50002 2003.9 9.60002 2003.2 21.2L2007.3 21.1V25.3H2003.1V29.5H1999V25.3H1994.8V21.1H1999C1999.1 16.3 1995 9.70002 1991.1 7.70002M1991.4 25.5H1989.7V29.6L1986.4 29.6V33.7H1983.1V37.8H1979.7V33.7L1976.4 33.7V29.6H1973.1V25.5H1971.4M2011 25.5L2009.4 25.5V29.6H2006.1V33.7H2002.8V37.8H1999.4V33.7H1996.1V29.6H1992.8V25.5H1991.1M2053.8 6.00001C2056.3 7.70001 2059.3 11.7 2060.2 14.3C2064.7 2.90002 2079.4 -2.09998 2089.8 3.80002M2073.5 6.00001C2076 7.70001 2079 11.7 2079.9 14.3C2084.4 2.90002 2099.1 -2.09998 2109.5 3.80002M2086.2 5.90002C2074.9 1.50002 2063 9.60003 2062.4 21.2L2066.5 21.1V25.3H2062.3V29.5H2058.2V25.3H2054V21.1H2058.2C2058.3 16.3 2054.2 9.70002 2050.3 7.70002M2105.9 5.90003C2094.6 1.50003 2082.7 9.60003 2082 21.2L2086.1 21.1V25.3H2081.9V29.5H2077.8V25.3L2073.6 25.3V21.1L2077.8 21.1C2077.9 16.3 2073.8 9.70003 2069.9 7.70003M2060.2 37.8H2061.9V33.7L2065.2 33.7V29.6H2068.5V25.5H2070.2M2060.3 37.8H2058.6V33.7H2055.3V29.6L2052 29.6V25.5H2050.3M2079.9 37.8H2081.6V33.7H2084.9V29.6H2088.2V25.5H2089.9M2080 37.8H2078.3V33.7H2075V29.6H2071.7V25.5H2070M1912.1 3.70001C1918.3 0.500013 1925.9 0.200013 1932.1 3.70001M1915.8 6C1918.3 7.7 1921.3 11.7 1922.2 14.3C1926.7 2.9 1941.4 -2.09999 1951.8 3.80001M1928.5 5.90001C1922.6 3.60001 1916.6 4.70001 1912.1 7.90001M1922.2 37.8H1923.9V33.7H1927.2V29.6H1930.5V25.5H1932.2M2014.4 6.00001C2016.9 7.70001 2019.9 11.7 2020.8 14.3C2025.3 2.90001 2040 -2.09999 2050.4 3.80002M2034.1 6.00001C2036.6 7.70001 2039.6 11.7 2040.5 14.3C2045 2.90001 2059.7 -2.09998 2070.1 3.80002M2046.8 5.90002C2035.5 1.50002 2023.6 9.60002 2023 21.2L2027.1 21.1V25.3H2022.9V29.5H2018.8V25.3H2014.6V21.1H2018.8C2018.9 16.3 2014.8 9.70002 2010.9 7.70002M2066.5 5.90002C2055.2 1.50002 2043.3 9.60002 2042.6 21.2L2046.7 21.1V25.3H2042.5V29.5H2038.4V25.3H2034.2V21.1H2038.4C2038.5 16.3 2034.4 9.70002 2030.5 7.70002M2020.8 37.8L2022.5 37.8V33.7H2025.8V29.6H2029.1V25.5H2030.8M2020.9 37.8H2019.2V33.7H2015.9V29.6H2012.6V25.5H2010.9M2040.5 37.8H2042.2V33.7H2045.5V29.6H2048.8V25.5H2050.5M2040.6 37.8H2038.9V33.7H2035.6V29.6H2032.3V25.5L2030.6 25.5M2172 6.00002C2174.5 7.70002 2177.5 11.7 2178.4 14.3C2181.6 6.10003 2190 1.30003 2198.3 1.30003M2191.7 6.00002C2194.2 7.70002 2197.2 11.7 2198.1 14.3M2198.3 4.70004C2189.2 4.60004 2181.1 11.7 2180.5 21.2L2184.6 21.1V25.3H2180.4V29.5H2176.3V25.3H2172.1V21.1H2176.3C2176.4 16.3 2172.3 9.70003 2168.4 7.70003M2198.3 29.5H2196.1V25.3H2191.9V21.1H2196.1C2196.2 16.3 2192.1 9.70004 2188.2 7.70004M2178.4 37.8H2180.1V33.7H2183.4V29.6L2186.7 29.6V25.5H2188.4M2178.5 37.8H2176.8V33.7H2173.5V29.6H2170.2V25.5H2168.5M2198.3 37.8H2196.5V33.7L2193.2 33.7V29.6H2189.9V25.5H2188.2M2132.6 6.00002C2135.1 7.70002 2138.1 11.7 2139 14.3C2143.5 2.90002 2158.2 -2.09998 2168.6 3.80003M2152.4 6.00002C2154.9 7.70002 2157.9 11.7 2158.8 14.3C2163.3 2.90003 2178 -2.09997 2188.4 3.80003M2165.1 5.90003C2153.8 1.50003 2141.9 9.60003 2141.3 21.2L2145.4 21.1V25.3H2141.2V29.5L2137.1 29.5V25.3H2132.9V21.1H2137.1C2137.2 16.3 2133.1 9.70003 2129.2 7.70003M2184.8 5.90003C2173.5 1.50003 2161.6 9.60003 2160.9 21.2L2165 21.1V25.3L2160.8 25.3V29.5H2156.7V25.3H2152.5V21.1H2156.7C2156.8 16.3 2152.7 9.70003 2148.8 7.70003M2149 25.5H2147.4V29.6H2144.1V33.7H2140.8V37.8H2137.4V33.7H2134.1V29.6H2130.8V25.5H2129.1M2158.8 37.8H2160.5V33.7H2163.8V29.6H2167.1V25.5H2168.8M2158.9 37.8H2157.2V33.7H2153.9V29.6H2150.6V25.5H2148.9M2093.2 6.00002C2095.7 7.70002 2098.7 11.7 2099.6 14.3C2104.1 2.90002 2118.8 -2.09998 2129.2 3.80002M2112.9 6.00002C2115.4 7.70002 2118.4 11.7 2119.3 14.3C2123.8 2.90002 2138.5 -2.09998 2148.9 3.80002M2125.6 5.90003C2114.3 1.50003 2102.4 9.60003 2101.8 21.2L2105.9 21.1V25.3H2101.7V29.5H2097.6V25.3L2093.4 25.3V21.1L2097.6 21.1C2097.7 16.3 2093.6 9.70003 2089.7 7.70003M2145.4 5.90003C2134.1 1.50003 2122.2 9.60003 2121.5 21.2L2125.6 21.1V25.3H2121.4V29.5L2117.3 29.5V25.3H2113.1V21.1H2117.3C2117.4 16.3 2113.3 9.70003 2109.4 7.70003M2109.7 25.5H2108V29.6H2104.7V33.7H2101.4V37.8H2098V33.7H2094.7V29.6H2091.4V25.5H2089.7M2129.4 25.5H2127.7V29.6H2124.4V33.7H2121.1V37.8H2117.7V33.7H2114.4V29.6H2111.1V25.5H2109.4M1935.5 6C1938 7.7 1941 11.7 1941.9 14.3C1946.4 2.90001 1961.1 -2.09999 1971.5 3.80001M1955.2 6C1957.7 7.7 1960.7 11.7 1961.6 14.3C1966.1 2.90001 1980.8 -2.09999 1991.2 3.80001M1967.9 5.90001C1956.6 1.50001 1944.7 9.60001 1944.1 21.2L1948.2 21.1V25.3L1944 25.3V29.5H1939.9V25.3H1935.7V21.1H1939.9C1940 16.3 1935.9 9.70001 1932 7.70001M1987.7 5.90002C1976.4 1.50001 1964.5 9.60002 1963.8 21.2L1967.9 21.1V25.3L1963.7 25.3V29.5H1959.6V25.3H1955.4V21.1H1959.6C1959.7 16.3 1955.6 9.70002 1951.7 7.70002M1952 25.5H1950.3V29.6H1947V33.7H1943.7V37.8H1940.3V33.7H1937V29.6H1933.7V25.5H1932M1971.7 25.5H1970V29.6H1966.7V33.7H1963.4V37.8H1960V33.7H1956.7V29.6H1953.4V25.5H1951.7M2198.3 1.00003L1912 1M286.304 37.8H284.504L284.504 33.7L281.204 33.7V29.6H277.904V25.5H276.204L278.004 25.5V29.6H281.304V33.7H284.604V37.8L286.304 37.8ZM562.304 37.8H560.504V33.7L557.204 33.7V29.6H553.904V25.5H552.204L554.004 25.5V29.6H557.304V33.7H560.604V37.8L562.304 37.8ZM838.304 37.8H836.504V33.7L833.204 33.7V29.6H829.904V25.5H828.204L830.004 25.5V29.6H833.304V33.7H836.604V37.8L838.304 37.8ZM1370.3 37.8H1368.5V33.7L1365.2 33.7V29.6H1361.9V25.5H1360.2L1362 25.5V29.6H1365.3V33.7H1368.6V37.8L1370.3 37.8ZM1646.3 37.8H1644.5V33.7L1641.2 33.7V29.6H1637.9V25.5H1636.2L1638 25.5V29.6H1641.3V33.7H1644.6V37.8L1646.3 37.8ZM1922.3 37.8H1920.5V33.7L1917.2 33.7V29.6H1913.9V25.5H1912.2L1914 25.5V29.6H1917.3V33.7H1920.6V37.8L1922.3 37.8Z" stroke="#151C26" stroke-opacity="0.17" stroke-width="1.57" stroke-miterlimit="22.926"/>
</svg>
