<svg width="108" height="108" viewBox="0 0 108 108" fill="none" xmlns="http://www.w3.org/2000/svg">
<path id="Vector" d="M68.8322 61.3289L46.4966 83.6644L54 91.1678L61.5034 83.6644L54 76.1611M46.6711 68.8322L24.3356 46.4966L16.8322 54L24.3356 61.5034L31.8389 54M39.1678 46.4966L61.5034 24.3356L54 16.8322L46.4966 24.3356L54 31.8389M61.5034 39.1678L83.8389 61.5034L91.3423 54L83.8389 46.4966L76.3356 54M61.5034 54L31.8389 83.6644L54.1745 106L76.3356 83.6644L61.5034 68.8322M54 61.3289L24.3356 31.6644L2 54L24.3356 76.3356L39.1678 61.5034M46.4966 54L76.1611 24.3356L54 2L31.6644 24.3356L46.4966 39.1678M54 46.4966L83.6644 76.1611L106 54L83.6644 31.6644L68.8322 46.4966" stroke="white" stroke-opacity="0.33" stroke-width="1.57" stroke-miterlimit="22.926"/>
</svg>
