<svg width="253" height="253" viewBox="0 0 253 253" fill="none" xmlns="http://www.w3.org/2000/svg">
<path id="Vector" d="M166.801 28.2211L186.245 20.6204C180.942 17.262 167.508 11.6056 159.201 9.48451L166.801 28.2211ZM166.801 28.2211L170.337 19.0296M159.377 9.66127L170.337 19.0296M170.337 19.0296L186.068 20.7972M141.348 25.5697L153.368 24.1556M153.368 24.1556L163.973 31.7563M153.368 24.1556L156.726 13.9035M28.5747 85.6683L21.1507 66.2247C17.7922 71.5275 12.1359 84.9613 9.83803 93.269L28.5747 85.6683ZM28.5747 85.6683L19.3831 82.1331M10.0148 93.0923L19.3831 82.1331M19.3831 82.1331L21.1507 66.5782M25.9233 111.122L24.5092 99.1021M24.5092 99.1021L32.1099 88.4965M24.5092 99.1021L14.257 95.7437M93.7993 242.985L82.8402 233.617M82.8402 233.617L67.2852 231.849M82.8402 233.617L86.3754 224.425M111.829 227.077L99.8091 228.491L89.2035 220.89M96.4507 238.92L99.8091 228.668M243.339 158.847L233.97 169.806L232.38 185.538M224.779 166.448L233.97 169.983M227.254 140.818L228.668 152.837L221.067 163.443M239.097 156.196L228.844 153.014M128.091 5.24225L141.171 11.4289L156.726 8.95423M140.111 21.1507L141.171 11.2521M114.834 25.2162L126.147 20.7972M126.147 20.7972L138.343 25.393M126.147 20.7972L126.677 10.0148M21.5042 112.359L9.30777 95.5669C7.3634 101.4 5.24224 115.894 5.24224 124.556L21.5042 112.359ZM21.5042 112.359L11.6056 111.299M5.41901 124.379L11.6056 111.299M11.6056 111.299L9.30777 95.7437M25.5697 137.636L21.1507 126.323L25.7465 114.127M10.1916 125.793L20.974 126.323M113.066 231.496L96.2739 243.692C102.107 245.637 116.601 247.758 125.263 247.581L113.066 231.496ZM113.066 231.496L112.006 241.394M125.086 247.581L112.006 241.394M112.006 241.394L96.4507 243.692M138.343 227.43L127.03 231.849L114.834 227.254M126.5 242.808L127.03 232.026M247.758 127.561L241.571 140.641L244.046 156.196M231.849 139.58L241.748 140.464M227.607 114.304L232.026 125.439L227.43 137.636M242.985 125.97L232.203 125.439M112.536 21.3275L125.616 5.06549C119.43 4.71197 104.935 6.65634 96.6275 8.77746L112.536 21.3275ZM112.536 21.3275L110.945 11.6056M96.8042 8.95423L110.945 11.6056M110.945 11.6056L125.263 5.24225M89.2035 31.7563L98.9253 24.5092M98.9253 24.5092L111.829 25.7465M98.9253 24.5092L96.6275 13.9035M21.5042 139.934L5.41901 126.854C4.88873 133.04 6.8331 147.535 8.95423 155.842L21.5042 139.934ZM21.5042 139.934L11.7824 141.525M9.131 155.665L11.7824 141.525M11.7824 141.525L5.41901 127.03M31.9331 163.266L24.6859 153.544M24.6859 153.544L26.1 140.641M24.6859 153.544L14.0803 155.842M156.373 243.869L142.232 241.218M142.232 241.218L127.737 247.581M142.232 241.218L140.641 231.496M163.973 221.067L154.251 228.314M154.251 228.314L141.348 227.077M154.251 228.314L156.549 238.92M243.869 96.2739L241.218 110.415L247.581 124.732M231.673 112.006L241.394 110.415M221.067 88.6732L228.314 98.3951M228.314 98.3951L227.077 111.299M228.314 98.3951L238.92 96.0972M85.8451 28.5746L94.3296 9.48451C88.143 10.7218 74.7092 16.3782 67.2852 20.6204L85.8451 28.5746ZM85.8451 28.5746L81.7796 19.5599M67.462 20.6204L81.7796 19.5599M81.7796 19.5599L93.9761 9.66127M66.0479 44.6599L73.4718 35.1148M73.4718 35.1148L86.3754 32.9937M73.4718 35.1148L68.5226 25.5697M20.6204 185.008L19.5599 170.513L9.83803 158.14M28.5747 166.625L19.5599 170.69M44.6599 186.599L35.2915 178.998L33.1704 166.094M25.5697 183.947L35.1148 178.998M185.715 232.203L171.22 233.263L158.847 243.162M167.332 224.249L171.397 233.263M187.306 208.163L179.705 217.708L166.801 219.83M184.654 227.43L179.705 217.885M224.249 85.3148L243.339 93.6225C241.925 87.6127 236.445 74.1789 232.026 66.7549L224.249 85.3148ZM224.249 85.3148L233.263 81.2493M232.026 66.9317L233.263 81.2493M233.263 81.2493L243.162 93.4458M207.987 65.5176L217.532 72.9416L219.653 85.8451M227.254 67.9923L217.708 72.9416M61.9824 42.362L65.1641 21.8577C59.6845 24.6859 48.0183 33.5239 42.0085 39.5338L61.9824 42.362ZM61.9824 42.362L55.7958 34.7613M42.1852 39.5338L55.7958 34.7613M55.7958 34.7613L65.1641 22.0345M46.9577 63.043L51.7303 51.907M51.7303 51.907L63.5732 46.6042M51.7303 51.907L44.4831 43.9528M39.5338 210.284L34.7613 196.674M34.7613 196.674L22.0345 187.306M34.7613 196.674L42.362 190.487M63.043 205.689L51.9071 200.916L46.6043 189.073M43.9528 207.987L51.9071 200.739M191.194 210.461L188.013 230.966C193.492 228.314 205.158 219.476 211.168 213.289L191.194 210.461ZM191.194 210.461L197.381 218.062M210.992 213.289L197.381 218.062M197.381 218.062L188.013 230.789M206.219 189.78L201.446 200.916L189.604 206.219M208.694 209.047L201.446 201.093M213.113 41.6549L217.885 55.2655L230.612 64.6338M210.461 61.6289L218.062 55.4423M189.604 46.6042L200.739 51.3768M200.739 51.3768L206.042 63.2197M200.739 51.3768L208.694 44.1296M22.7416 64.2803L34.7613 56.1493L40.4176 41.4782M42.5387 61.8056L34.5845 55.9725M33.3472 85.8451L35.1148 73.8254M35.1148 73.8254L45.1901 65.5176M35.1148 73.8254L26.1 67.9923M61.8056 210.108L41.1247 212.229C45.3669 216.825 56.6796 225.839 64.1035 230.258L61.8056 210.108ZM61.8056 210.108L55.9725 218.062M64.1035 229.905L55.9725 217.885L41.3014 212.052M85.6683 219.299L73.6486 217.532M73.6486 217.532L65.5176 207.456M73.6486 217.532L67.8155 226.546M210.815 191.018L212.936 211.699C217.532 207.456 226.546 195.967 230.966 188.72L210.815 191.018ZM210.815 191.018L218.769 196.851M230.612 188.72L218.592 196.851L212.759 211.522M220.006 167.155L218.239 179.175M218.239 179.175L208.163 187.306M218.239 179.175L227.254 185.008M188.366 22.2113L196.497 34.0542L211.168 39.7106M190.841 42.1852L196.674 34.231M166.801 32.9937L178.821 34.7613L187.129 44.8366M184.654 25.5697L178.821 34.5845M126.5 126.146V28.3979M41.6549 175.286C49.6092 160.792 54.5585 143.646 54.5585 126.854C54.5585 110.061 49.6092 92.9155 41.6549 78.4211M211.345 175.286C203.391 160.792 198.442 143.646 198.442 126.854C198.442 110.061 203.391 92.9155 211.345 78.4211M210.992 174.756C194.376 175.109 177.584 179.528 163.089 188.013C148.595 196.497 136.222 209.401 127.737 223.542M41.6549 77.5373C58.2704 77.1838 75.5929 72.9416 90.0873 64.6338C104.582 56.3261 116.955 43.4225 125.616 29.2817M211.345 77.8908C194.73 77.5373 177.407 73.2951 162.913 64.9873C148.418 56.6796 136.045 43.7761 127.384 29.6352M127.03 224.072C118.546 209.931 105.996 197.027 91.5014 188.72C77.0071 180.412 59.6845 176.17 43.069 175.816M41.3014 78.2444L41.6549 175.109M211.699 78.4211L211.345 174.932M127.737 223.895L210.992 175.109M125.616 28.7514L41.8317 77.5373M126.677 28.3979L211.168 77.7141M126.854 223.718L42.362 175.639L98.5719 175.109L127.384 224.072M42.0085 175.463C50.493 161.145 62.6895 148.772 77.3606 140.111C91.855 131.626 109.354 127.207 126.147 126.677M42.0085 175.463C58.8007 175.109 76.1233 170.513 90.7944 162.029C105.466 153.368 117.839 140.287 126.323 125.97M42.0085 175.463L211.168 77.8908M211.168 175.639C202.684 161.322 190.487 148.949 175.816 140.287C161.322 131.803 143.823 127.384 127.03 126.854M211.522 174.756C194.906 174.579 177.937 170.337 163.266 161.852C148.595 153.544 136.045 140.641 127.207 126.5M41.6549 77.8908C58.2704 78.0676 75.2395 82.4866 89.9106 90.7944C104.582 99.1021 117.132 112.006 125.97 126.323M211.345 78.0676C194.73 78.2444 177.761 82.6634 163.089 90.9711C148.418 99.2789 135.868 112.182 127.03 126.5M126.854 126.677C119.076 141.348 114.127 158.67 114.304 175.639C114.304 192.608 119.076 209.401 127.207 223.895L126.677 126.677L154.958 77.5373M41.4782 77.5373C50.1394 91.8549 62.8662 104.758 77.5374 113.066C92.2085 121.374 109.885 125.616 126.5 125.793M211.522 77.7141C202.861 92.0317 190.311 104.935 175.463 113.243C160.792 121.551 143.115 125.793 126.5 125.97L155.135 175.286M127.03 224.249C134.985 209.577 139.934 192.255 139.757 175.286C139.58 158.317 134.454 140.994 126.323 126.5L98.0415 77.3606M126.323 28.5746C118.369 43.2458 113.42 60.5683 113.42 77.5373C113.42 94.5063 118.546 111.829 126.854 126.323M126.677 28.7514C134.631 43.4225 139.58 60.7451 139.58 77.7141C139.404 94.6831 134.454 112.006 126.147 126.5M210.992 174.932L41.4782 77.7141L69.9366 126.146L41.8317 175.639M210.992 175.463L182.887 126.5L211.345 77.5373M211.699 174.579L154.958 175.109L127.207 224.072M41.4782 77.8908L98.3951 77.5373L126.147 28.7514M211.345 78.2444L154.782 77.8908L127.03 29.1049M183.063 126.323H69.7598M126.854 126.146L98.5719 175.286M164.15 32.1099L156.726 13.55L141.171 25.7465C147.358 26.6303 159.024 29.6352 164.15 32.1099ZM32.4634 88.3197L13.9036 95.7437L26.1 111.475C26.8071 105.112 29.9888 93.4458 32.4634 88.3197ZM67.1084 232.026L86.5521 224.425L94.1528 243.162C85.6683 241.041 72.2345 235.385 67.1084 232.026ZM89.0268 220.537L96.4507 239.096L112.182 226.9C105.819 226.193 94.1529 223.011 89.0268 220.537ZM232.38 185.715L224.779 166.271L243.516 158.67C241.394 166.978 235.738 180.412 232.38 185.715ZM220.89 163.62L239.45 156.196L227.254 140.641C226.37 146.827 223.365 158.494 220.89 163.62ZM156.903 8.95423L140.111 21.3275L127.914 5.24225C136.575 5.06549 151.07 7.00986 156.903 8.95423ZM138.52 25.5697L126.5 9.66127L114.48 25.393C121.02 24.5092 132.863 24.6859 138.52 25.5697ZM25.9233 113.95L10.0148 125.793L25.7465 137.813C24.8627 131.626 24.8627 119.606 25.9233 113.95ZM114.657 227.077L126.677 242.985L138.696 227.254C132.333 228.137 120.313 228.137 114.657 227.077ZM244.046 156.373L231.673 139.58L247.758 127.384C247.935 136.045 245.99 150.363 244.046 156.373ZM227.254 137.989L243.162 125.97L227.254 114.127C228.314 120.49 228.314 132.333 227.254 137.989ZM112.182 25.9232L96.4507 13.55L89.0268 31.9331C94.8599 29.4585 106.526 26.4535 112.182 25.9232ZM26.1 140.287L13.7268 155.842L32.1099 163.443C29.6352 157.61 26.6303 145.944 26.1 140.287ZM127.561 247.581L140.641 231.319L156.549 243.869C148.242 246.167 133.747 247.935 127.561 247.581ZM140.994 226.723L156.726 239.096L164.15 220.713C158.317 223.365 146.651 226.37 140.994 226.723ZM247.758 125.086L231.496 112.006L243.869 96.0972C246.167 104.405 248.111 118.899 247.758 125.086ZM226.9 111.652L239.097 95.9204L220.713 88.4965C223.365 94.3296 226.37 105.996 226.9 111.652ZM86.7289 33.1704L68.3458 25.393L65.8711 45.0134C70.9972 41.1247 81.2493 35.1148 86.7289 33.1704ZM9.66126 158.14L28.7514 166.625L20.7972 185.185C16.3782 177.761 10.8986 164.327 9.66126 158.14ZM33.3472 165.741L25.393 184.124L45.0134 186.599C41.1246 181.649 35.1148 171.22 33.3472 165.741ZM159.024 243.339L167.508 224.249L186.068 232.203C178.468 236.622 165.034 242.101 159.024 243.339ZM166.625 219.653L185.008 227.607L187.482 207.987C182.356 211.875 171.927 217.708 166.625 219.653ZM219.653 86.1986L227.43 67.8155L207.81 65.3408C211.699 70.4669 217.708 80.8958 219.653 86.1986ZM64.1035 46.6042L44.3063 43.7761L46.9577 63.3965C50.8465 58.2704 59.331 49.9627 64.1035 46.6042ZM21.8578 187.306L42.362 190.664L39.3571 210.638C33.3472 204.451 24.6859 192.785 21.8578 187.306ZM46.6043 188.543L43.5993 208.34L63.2197 205.689C58.2704 201.8 49.7859 193.315 46.6043 188.543ZM189.25 206.219L209.047 209.047L206.396 189.427C202.507 194.553 193.846 203.037 189.25 206.219ZM230.789 64.6338L210.284 61.4521L213.113 41.4782C219.299 47.6648 228.137 59.1542 230.789 64.6338ZM206.042 63.5732L208.87 43.7761L189.25 46.6042C194.376 50.493 202.861 58.8007 206.042 63.5732ZM40.4176 41.3014L42.5387 61.9824L22.388 64.457C26.8071 56.8563 35.6451 45.3669 40.4176 41.3014ZM45.5437 65.5176L25.7465 67.8155L33.3472 86.0218C35.8219 80.1887 41.8317 69.9366 45.5437 65.5176ZM65.5176 207.103L67.8155 226.9L86.0218 219.299C80.1887 216.825 69.7599 210.815 65.5176 207.103ZM207.633 187.306L227.43 185.008L219.83 166.801C217.532 172.635 211.345 183.063 207.633 187.306ZM211.345 39.8873L190.664 42.1852L188.189 22.0345C195.79 26.2768 207.28 35.2916 211.345 39.8873ZM187.129 45.1901L184.654 25.393L166.448 33.1704C172.458 35.4683 182.71 41.4782 187.129 45.1901ZM126.323 28.2211C180.235 28.2211 224.249 72.2345 224.249 126.146C224.249 180.058 180.235 224.072 126.323 224.072C72.4113 224.072 28.3979 180.058 28.3979 126.146C28.3979 72.2345 72.4113 28.2211 126.323 28.2211ZM126.5 252C195.613 252 252 195.613 252 126.5C252 57.3866 195.613 1 126.5 1C57.3866 1 1 57.3866 1 126.5C1 195.613 57.3866 252 126.5 252Z" stroke="#42CFEE" stroke-miterlimit="22.926"/>
</svg>
