<svg width="187" height="374" viewBox="0 0 187 374" fill="none" xmlns="http://www.w3.org/2000/svg">
<mask id="mask0_1137_2895" style="mask-type:alpha" maskUnits="userSpaceOnUse" x="0" y="0" width="374" height="374">
<path d="M186.835 162.696V210.643M213.619 300.253C211.304 312.488 200.392 322.077 187.496 322.077C174.6 322.077 163.027 312.819 161.043 299.923M300.253 161.373C312.819 163.688 322.077 174.931 322.077 187.496C322.077 200.392 312.819 211.304 300.253 213.619M161.043 73.416C163.357 60.8507 174.6 51.592 187.165 51.592C200.061 51.592 210.973 60.8507 213.288 73.416M73.416 213.288C60.8507 210.973 51.592 199.731 51.592 187.165C51.592 174.269 60.8507 163.357 73.416 161.043M203.699 296.285C203.368 304.883 196.093 311.827 187.165 311.827C178.237 311.827 170.963 304.883 170.632 295.955M296.616 170.963C305.213 171.293 312.157 178.899 312.157 187.496C312.157 196.093 305.544 203.368 296.616 204.029M170.632 77.384C170.963 68.7867 178.568 61.8427 187.165 61.8427C195.763 61.8427 203.037 68.7867 203.699 77.384M77.384 203.368C68.7867 203.037 61.8427 195.432 61.8427 186.835C61.8427 178.237 68.456 170.963 77.384 170.301M180.883 366.056C182.205 368.701 185.512 372.008 187.496 373C190.803 371.347 193.448 368.701 194.109 366.717M366.717 193.779C369.363 192.456 372.008 189.149 373 187.165C371.347 183.859 368.371 181.544 366.717 180.883M193.779 7.61333C192.456 4.968 189.149 1.992 187.165 1C183.859 2.65333 181.544 5.62933 180.883 7.28267M7.61333 180.552C4.968 181.875 1.992 184.851 1 186.835C2.65333 190.141 5.62934 192.787 7.28267 193.448M177.245 354.152C182.536 355.805 192.456 356.136 197.416 354.152M354.483 196.424C356.136 191.133 355.805 181.875 354.152 176.915M197.085 19.5173C191.795 17.864 182.205 17.864 176.915 19.5173M19.5173 176.253C17.864 181.544 17.864 191.133 19.5173 196.424M175.261 350.845C175.923 349.523 176.584 346.877 176.253 345.555C181.544 347.869 192.456 348.2 198.408 345.555M350.515 199.731C349.523 198.739 347.208 198.077 345.885 198.408C348.2 193.117 348.531 182.205 345.885 176.253M199.4 22.824C198.408 23.816 197.747 26.4613 197.747 27.784M197.747 27.784C192.456 25.4693 181.875 25.4693 175.923 27.784M197.747 27.784C199.731 31.0907 207.336 30.0987 212.957 25.8C220.563 20.5093 228.168 17.5333 235.443 16.872C250.323 16.2107 262.557 25.4693 264.211 41.3413C278.429 31.0907 304.221 40.0187 303.229 63.8267V107.805M22.4933 173.939C23.4853 174.931 26.1307 175.592 27.4533 175.592M27.4533 175.592C25.1387 180.883 25.4693 191.795 28.1147 197.747M27.4533 175.592C30.76 173.608 29.768 166.003 25.4693 160.381C20.1787 152.776 17.2027 145.171 16.5413 137.896C15.88 123.016 25.1387 110.781 41.0107 109.128C30.76 94.9093 39.688 69.1173 63.496 70.1093H107.475M174.269 22.824C175.261 23.816 176.253 26.1307 176.253 27.784C174.269 31.0907 166.664 29.768 161.373 25.4693C153.768 20.1787 146.163 17.2027 138.888 16.5413C124.008 15.5493 111.773 25.1387 110.12 41.0107C95.9013 30.76 70.1093 39.688 71.1013 63.1653V70.44M350.845 174.6C349.853 175.592 347.539 176.584 345.885 176.584M200.061 350.845C199.069 349.853 198.077 347.539 198.077 345.885M23.1547 199.4C24.1467 198.408 26.4613 197.416 28.1147 197.416M27.4533 114.419C20.5093 106.483 26.792 92.5947 37.0427 92.264M258.92 27.784C266.856 20.84 280.744 27.1227 281.075 37.3733M346.216 258.259C353.16 266.195 346.877 280.083 336.627 280.413M115.08 345.885C107.144 352.829 93.256 346.547 92.9253 336.296M115.08 27.1227C107.144 20.1787 93.256 26.4613 92.9253 36.712M346.547 115.411C353.491 107.475 347.208 93.5867 336.957 93.256M259.251 346.216C267.187 353.16 281.075 346.547 281.405 336.627M27.784 258.589C20.84 266.525 27.1227 280.413 37.3733 280.744M176.584 345.885C174.6 342.579 166.664 343.901 161.043 348.2C153.437 353.491 145.832 356.467 138.557 357.128C123.677 358.12 111.443 348.531 109.789 332.659C95.5707 342.909 69.7787 333.981 70.7707 310.173V266.195M70.7707 84.9893V140.211C69.7787 162.035 82.0133 184.52 95.5707 186.504C82.0133 187.827 70.1093 210.643 71.1013 232.467V250.984M78.376 251.315C78.0453 234.781 78.0453 219.571 83.9973 208.328C89.6187 197.085 100.531 188.488 116.072 186.835C100.861 185.181 89.6187 176.253 83.6667 165.011C78.0453 153.768 77.7147 138.557 78.0453 122.024M346.216 176.584C342.909 174.6 343.901 166.995 348.2 161.704C353.491 154.099 356.467 146.493 357.128 139.219C358.12 124.339 348.531 112.104 332.659 110.451C342.909 96.232 333.981 70.44 310.173 71.432H302.899M122.355 70.44H140.872C162.696 69.7787 185.512 82.344 187.165 95.5707C188.488 82.344 211.304 70.1093 233.128 71.1013H288.349M251.645 78.376C235.112 78.0453 219.901 78.0453 208.659 83.9973C197.416 89.6187 188.819 100.531 186.835 115.741C185.181 100.531 176.584 88.9573 165.011 83.336C153.768 77.7147 138.557 77.384 122.024 77.7147M295.624 251.315C295.955 234.781 295.624 219.571 290.003 208.328C284.051 197.085 273.8 188.819 258.589 186.835C273.8 185.181 284.712 176.915 290.333 165.672C295.955 154.429 296.285 139.219 295.955 122.685M303.229 288.019L302.899 232.797C303.56 210.973 291.987 188.819 278.76 186.835C291.987 184.851 303.891 163.357 303.229 141.203V122.685M303.229 122.685C292.648 123.016 277.437 123.016 266.195 123.016M303.229 122.685C322.408 123.677 334.643 141.203 331.997 162.365C331.336 167.987 331.667 172.285 332.989 175.923C335.304 182.205 340.264 185.512 345.555 186.504C346.216 186.504 346.877 186.835 347.539 186.835M198.077 346.216C200.061 342.909 207.667 343.901 213.288 348.2C220.893 353.491 228.499 356.467 235.773 356.797C250.653 357.459 262.888 348.2 264.541 332.328C278.76 342.579 304.552 333.651 303.56 309.843V302.568M122.355 295.293C138.888 295.624 154.099 295.293 165.341 289.672C176.584 284.051 185.181 273.139 186.835 257.928C188.488 273.139 197.085 284.051 208.659 290.003C219.901 295.624 235.443 295.955 251.645 295.293M345.885 197.085C342.579 199.069 343.571 206.675 347.869 211.965C353.16 219.571 356.467 227.176 356.797 234.451C357.789 249.331 348.2 261.565 332.328 263.219C342.579 277.437 333.651 303.229 310.173 302.237H266.195M85.6507 302.899H140.872C162.696 303.56 185.181 291.987 186.835 278.429C188.488 291.656 210.973 303.891 232.797 302.899H251.315M27.784 197.416C31.0907 199.4 30.0987 207.005 25.8 212.296C20.5093 219.901 17.5333 227.507 16.872 234.781C16.2107 249.661 25.4693 261.896 41.3413 263.549C31.0907 277.768 40.0187 303.56 63.8267 302.568H71.1013M122.355 78.0453C158.728 81.0213 185.843 114.419 186.173 153.107M62.8347 114.749C38.0347 114.088 39.0267 78.0453 63.496 77.7147H107.475M295.624 122.685C292.648 159.059 259.581 186.835 220.893 186.835H195.432C195.432 195.432 195.432 203.699 195.432 211.304M258.92 63.1653C259.581 38.696 295.624 39.3573 295.955 63.8267V107.805M251.315 295.293C215.272 292.648 187.496 259.581 187.496 220.893M311.165 258.259C335.635 258.92 334.973 294.963 310.504 295.293L266.525 295.624M78.376 250.984C81.352 214.611 114.419 186.504 153.107 186.504M115.411 310.835C114.749 335.304 78.7067 334.643 78.376 310.173V266.195M78.0453 85.32V117.725C78.376 156.083 112.765 186.504 153.107 186.835H178.568M115.08 62.504C114.419 38.0347 78.376 38.696 78.0453 63.1653V70.44M288.349 78.376H255.944C217.256 79.0373 187.827 113.096 187.827 153.437M311.165 115.411C335.635 114.749 334.973 78.7067 310.504 78.376H303.229M295.955 287.688V255.283C294.963 216.925 260.904 186.835 220.563 186.835M258.92 310.835C259.581 335.304 295.624 334.312 295.955 309.843V302.568M85.6507 295.624H118.056C156.744 294.963 186.173 260.904 186.173 220.563M62.8347 258.259C38.3653 258.92 39.0267 294.963 63.496 295.293H70.7707M178.237 162.035C178.237 169.64 178.237 178.237 178.237 186.835M178.237 162.035C164.349 160.051 155.752 155.091 149.8 148.147C141.533 139.219 144.509 126.653 154.76 124.008C163.357 122.024 170.963 129.629 168.317 137.896C165.341 145.501 155.421 143.187 155.091 137.235C154.76 133.928 158.067 132.275 160.381 132.936C162.696 133.597 163.688 136.243 162.365 137.896M178.237 162.035C180.552 162.365 184.851 162.696 187.165 162.696M122.355 85.6507C148.477 88.296 173.277 108.467 177.576 146.493C177.907 148.477 177.907 150.461 177.907 152.445M70.7707 107.475H65.48C48.9467 107.144 49.2773 85.32 65.1493 85.32H107.805M154.76 124.339C150.131 115.411 131.944 107.144 118.387 107.475H85.6507M288.019 122.685C285.373 148.808 265.203 173.608 227.176 177.907C217.917 178.899 207.336 178.568 195.432 178.568M266.195 71.1013V65.8107C266.525 49.2773 288.349 49.608 288.349 65.48V108.136M249.331 155.421C258.259 150.792 266.525 132.605 266.195 119.048V86.312M249.331 155.421C247.016 145.171 234.12 142.195 225.192 150.461C217.917 156.744 212.957 165.011 211.635 178.899M249.331 155.421C251.315 164.019 243.709 171.624 235.443 168.979C227.837 165.672 230.152 156.083 236.104 155.752C239.411 155.421 241.064 158.728 240.403 160.712C239.741 163.027 237.427 164.019 235.443 162.696M251.645 287.688C225.523 285.043 200.723 265.203 196.424 226.845C196.093 224.861 196.093 222.877 195.763 220.893M302.899 265.533H308.189C324.723 265.864 324.392 287.688 308.52 287.688H265.864M218.909 249.331C223.539 258.259 241.725 266.525 255.613 265.864H288.349M85.9813 250.984C88.9573 224.861 108.797 200.061 146.824 196.093C156.083 195.101 166.664 195.432 178.237 195.432M107.805 302.568V307.859C107.475 324.392 85.6507 324.061 85.6507 308.189V265.533M124.669 218.579C115.741 223.208 107.475 241.395 108.136 254.952V287.688M124.669 218.579C126.984 228.829 139.88 231.805 148.808 223.539C156.083 217.256 161.043 208.989 162.365 195.101M124.669 218.579C122.685 209.981 130.291 202.376 138.557 205.021C146.163 208.328 143.848 217.917 137.896 218.248C134.589 218.579 132.936 215.272 133.597 213.288C134.259 210.973 136.573 209.981 138.557 211.304M85.6507 85.32V115.741C85.6507 144.179 105.491 172.616 146.824 177.245C147.816 177.245 151.123 177.907 154.429 177.907C158.067 178.237 161.373 178.237 162.365 178.237C167.656 178.237 173.277 178.237 178.899 178.568M107.805 107.475V65.1493C107.475 48.616 85.6507 48.9467 85.6507 64.8187V70.44M124.339 154.76C116.403 150.461 108.467 135.251 107.805 122.024M124.339 154.76C126.653 144.179 139.549 141.533 148.477 149.8C155.752 156.083 160.712 164.349 162.035 178.237M124.339 154.76C122.355 163.357 129.96 170.963 138.227 168.317C145.832 165.011 143.517 155.421 137.565 155.091C134.259 154.76 132.605 158.067 133.267 160.051C133.928 162.365 136.243 163.357 138.227 162.035M195.432 162.365C195.101 170.632 195.432 178.899 195.101 187.165M288.349 85.9813H257.928C229.491 85.9813 201.053 106.152 196.424 147.155C196.093 148.808 196.093 150.792 196.093 152.445M266.195 108.136H308.52C325.053 107.805 324.723 85.9813 308.851 85.9813H303.229M218.909 124.669C223.208 116.733 238.419 108.797 251.645 108.136M288.349 288.019V257.597C288.349 229.16 268.179 201.053 226.845 196.424C225.853 196.424 222.547 196.093 219.24 195.763C215.933 195.432 212.296 195.763 211.635 195.432C206.344 195.432 200.723 195.432 195.432 195.432M266.195 265.864V308.189C266.525 324.723 288.349 324.392 288.349 308.52V302.899M249.331 218.579C257.597 222.877 265.203 238.088 266.195 250.984M178.568 211.304C178.568 203.037 178.237 194.771 178.237 186.504M85.6507 288.019H116.072C144.509 288.019 172.947 267.848 177.576 226.845C177.907 225.192 177.907 223.208 177.907 221.555M107.805 265.864H65.48C48.9467 266.195 49.2773 288.019 65.1493 288.019H70.7707M155.091 249C150.792 257.267 135.581 264.872 122.355 265.533M155.421 138.888C157.736 145.501 165.011 150.792 177.907 152.776C179.891 153.107 184.851 153.437 187.496 153.437M234.781 155.752C228.168 158.067 223.539 165.341 221.555 178.237M218.248 234.781C215.933 228.168 208.659 223.208 195.763 221.224C194.109 220.893 189.48 220.563 186.504 220.563M139.219 217.917C145.832 215.603 150.461 208.328 152.445 195.432M138.888 155.421C145.501 157.736 150.131 165.011 152.115 177.907M218.248 139.219C215.603 147.155 205.683 152.445 186.835 153.107M234.781 218.248C228.168 215.933 223.539 208.989 221.555 195.763M155.752 234.451C158.397 226.515 168.317 221.224 187.165 220.232M67.1333 114.749C47.624 114.088 37.0427 115.411 29.4373 122.685C22.1627 129.629 20.84 142.525 27.4533 154.099C32.744 162.035 34.3973 173.608 29.4373 177.576C28.776 178.237 27.784 178.568 26.4613 178.899M258.92 67.7947C259.581 48.2853 257.928 37.704 250.984 30.0987C244.04 22.824 231.144 21.5013 219.571 28.4453C210.973 34.0667 199.069 35.72 195.432 29.4373C195.101 29.1067 194.771 28.1147 194.771 27.1227M306.536 258.259C326.045 258.92 336.627 257.267 344.232 250.323C351.507 243.379 352.829 230.483 345.885 218.909C340.264 210.312 338.611 197.416 345.224 194.44C345.224 194.44 345.885 194.109 346.216 194.109C346.547 194.109 346.877 194.109 346.877 194.109M115.08 306.867C115.08 308.189 115.08 314.141 115.08 315.464C115.411 329.021 117.395 337.288 123.016 343.571C129.96 350.845 142.856 352.168 154.429 345.224C161.043 340.925 169.64 338.941 174.931 340.925C176.584 341.587 178.237 342.909 178.899 344.563C178.899 344.893 179.229 345.555 179.229 345.885M115.08 67.1333C114.419 47.624 116.072 37.0427 123.016 29.4373C129.96 22.1627 142.856 20.84 154.429 27.784C163.027 33.4053 175.261 35.0587 178.899 28.776C179.229 28.4453 179.229 27.784 179.229 27.4533M306.536 115.411C326.045 114.749 336.627 116.403 344.232 123.347C351.507 130.291 352.829 143.187 345.885 154.76C340.264 163.357 338.611 175.592 344.893 179.229C345.224 179.56 345.885 179.56 346.547 179.891M258.92 306.205C259.581 325.715 258.259 336.296 250.984 343.901C244.04 351.176 231.475 352.499 219.571 345.885C210.973 340.264 198.408 338.611 195.101 345.224C194.771 345.555 194.771 346.547 194.771 346.877M67.464 258.589C47.9547 259.251 37.3733 257.597 29.768 250.653C22.4933 243.709 21.1707 230.813 28.1147 219.24C30.0987 216.264 31.4213 212.627 32.4133 209.32C33.736 203.699 33.4053 198.077 30.4293 195.432C29.768 194.771 28.4453 194.44 27.4533 194.109M85.6507 114.749C99.208 114.749 115.411 115.08 119.048 115.08C130.952 115.08 143.848 122.024 148.477 128.307M26.1307 182.536C26.792 182.536 28.4453 182.205 29.1067 181.875C34.728 180.221 38.0347 172.947 37.0427 166.995C35.3893 155.752 33.736 147.816 36.0507 139.549C40.3493 124.008 53.2453 114.419 69.1173 114.419C69.448 114.419 70.1093 114.419 70.44 114.419M258.92 85.9813C258.92 99.5387 258.589 115.741 258.589 119.379C258.589 131.283 251.976 144.179 245.363 148.808M191.133 26.4613C191.133 26.792 191.133 28.1147 191.133 28.4453C191.795 35.0587 200.061 38.696 206.013 37.704C216.925 36.0507 225.192 34.3973 233.459 36.712C249 41.0107 258.589 53.576 258.589 69.7787C258.589 70.1093 258.589 70.7707 258.589 71.1013M288.349 258.589C274.792 258.589 258.589 258.589 254.952 258.589C243.048 258.589 230.152 251.976 225.523 245.693M347.539 190.472C347.208 190.472 345.885 190.803 345.224 190.803C338.941 192.125 335.304 199.731 336.627 205.683C338.28 216.595 339.933 224.861 337.619 233.128C333.32 248.669 320.755 258.259 304.552 258.259C304.221 258.259 303.56 258.259 303.229 258.259M115.08 288.019C115.08 274.461 115.411 258.259 115.411 254.621C115.411 242.717 122.024 229.821 128.637 225.192M182.867 346.877C182.867 346.547 182.867 345.555 182.536 345.224C181.544 338.941 173.608 335.304 167.656 336.296C156.744 337.949 148.477 339.603 140.211 337.288C124.669 332.989 115.08 320.424 115.08 304.221C115.08 303.891 115.08 303.229 115.08 302.899M115.411 122.685C116.733 133.267 122.685 144.179 128.307 148.147M182.867 26.792C182.867 27.1227 182.867 27.784 182.867 28.1147C182.205 34.728 173.939 38.3653 167.987 37.0427C157.075 35.3893 148.808 33.736 140.541 36.0507C125 40.3493 115.411 52.9147 115.411 69.1173C115.411 76.7227 115.411 95.24 115.411 107.475M250.984 115.741C240.403 117.064 229.491 123.016 225.523 128.637M347.208 183.197C346.877 183.197 346.216 183.197 345.885 183.197C339.272 182.536 335.635 174.269 336.627 168.317C338.28 157.405 339.933 149.139 337.619 140.872C333.32 125.331 320.755 115.741 304.552 115.741C296.947 115.741 278.429 115.741 266.195 116.072M258.259 250.653C256.936 240.072 250.984 229.16 245.363 225.192M191.464 347.208C191.464 346.877 191.464 346.216 191.464 345.885C192.125 339.272 200.392 335.635 206.344 336.627C217.587 338.28 225.523 339.933 233.789 337.619C249.331 332.989 258.92 320.424 258.92 304.552C258.92 296.947 258.589 278.429 258.589 266.195M123.016 257.928C133.597 256.605 144.509 250.653 148.477 245.032M26.1307 190.472C27.1227 190.472 29.4373 191.133 30.4293 191.464C35.72 193.448 38.3653 200.392 37.3733 206.013C35.72 216.925 34.0667 225.192 36.3813 233.459C40.68 249 53.2453 258.589 69.448 258.589C77.0533 258.589 95.5707 258.589 107.805 258.259M70.7707 122.024C51.592 123.016 39.3573 140.541 42.0027 161.704C42.664 167.325 42.3333 171.624 41.0107 175.261C38.696 181.213 34.0667 184.52 29.1067 185.843C28.4453 185.843 26.792 186.173 26.1307 186.173M145.171 136.573C143.187 129.96 129.96 122.355 119.379 122.024C112.765 122.024 98.8773 122.024 85.9813 122.024M251.645 71.1013C250.653 51.9227 233.128 39.688 211.965 42.3333C206.344 42.9947 202.045 42.664 198.408 41.3413C192.125 39.0267 188.819 34.0667 187.827 28.4453C187.827 28.1147 187.827 26.792 187.496 26.4613M237.096 145.501C243.709 143.517 250.984 130.291 251.315 119.709C251.315 113.096 251.315 99.208 251.315 86.312M303.229 250.984C322.408 249.992 334.643 232.467 331.667 211.304C331.005 205.683 331.336 201.384 332.659 197.747C334.973 191.133 340.264 187.827 346.216 187.165C346.547 187.165 347.539 187.165 347.869 187.165M228.499 236.765C230.483 243.379 243.709 250.653 254.291 250.984C260.904 250.984 274.792 250.984 287.688 250.984M122.685 302.899C123.677 322.077 141.203 334.312 162.365 331.667C167.987 331.005 172.285 331.336 175.923 332.659C182.205 334.973 185.512 339.933 186.504 345.224C186.504 345.885 186.835 346.877 186.835 347.539M136.904 228.168C130.291 230.152 123.016 243.379 122.685 253.96C122.685 260.573 122.685 274.461 122.685 287.357M122.685 107.475C122.685 96.232 122.685 81.0213 122.685 70.44C123.677 51.2613 141.203 39.0267 162.365 42.0027C167.987 42.664 172.285 42.3333 175.923 41.0107C182.867 38.3653 186.173 32.744 186.504 26.792M136.904 145.171C130.952 143.517 124.339 132.275 123.016 122.355M228.499 137.235C230.152 131.283 241.395 124.669 251.315 123.016M251.315 265.864C251.315 277.107 251.645 292.317 251.645 302.899C250.984 322.077 233.128 334.312 212.296 331.667C206.675 331.005 202.376 331.336 198.739 332.659C191.795 335.304 188.819 340.925 188.157 346.877M236.765 228.499C242.717 230.152 249.331 241.064 250.984 251.315M108.136 250.984C96.8933 250.984 81.6827 250.984 71.1013 251.315C51.9227 250.323 39.688 232.797 42.3333 211.635C42.9947 206.013 42.664 201.715 41.3413 198.077C38.696 191.133 32.4133 187.827 26.1307 187.165M145.501 236.765C143.848 242.717 132.605 249.331 122.685 250.984M211.304 235.773C209.981 237.427 211.304 240.072 213.288 240.733C215.603 241.395 218.579 239.411 218.248 236.435C217.917 230.483 207.997 228.168 205.021 235.773C202.376 244.04 209.981 251.645 218.579 249.661C228.829 247.016 231.805 234.451 223.539 225.523C217.587 218.579 209.32 213.288 195.101 211.965C192.456 211.635 188.157 211.304 186.504 211.635M186.504 163.027C206.013 163.027 216.595 157.736 223.539 149.139C231.805 140.211 228.829 127.315 218.579 125C209.981 123.016 202.376 130.621 205.021 138.888C208.328 146.493 217.917 144.179 218.248 138.227C218.579 134.92 215.272 133.267 213.288 133.928C210.973 134.589 209.981 136.904 211.304 138.888M211.304 195.432C212.957 209.32 217.917 217.587 224.861 223.869C233.789 232.136 246.685 229.16 249 218.909C250.984 210.312 243.379 202.707 235.112 205.352C227.507 208.659 229.821 218.248 235.773 218.579C239.08 218.909 240.733 215.603 240.072 213.619C239.411 211.304 237.096 210.312 235.112 211.635M187.496 210.973C167.987 210.973 157.405 216.595 150.461 224.861C142.195 233.789 145.171 246.685 155.421 249C164.019 250.984 171.624 243.379 168.979 235.112C165.672 227.507 156.083 229.821 155.752 235.773C155.421 239.08 158.728 240.733 160.712 240.072C163.027 239.411 164.019 237.096 162.696 235.112M14.5573 169.64C12.5733 170.301 11.912 173.277 14.2267 175.592C18.5253 178.899 26.1307 174.269 23.1547 167.325C19.5173 160.381 10.5893 160.381 6.29067 166.995C1.992 175.592 8.60534 185.843 18.1947 185.843M203.699 14.888C203.037 12.904 200.061 12.2427 197.747 14.5573C194.44 18.856 199.069 26.4613 206.013 23.4853C212.957 19.848 212.957 10.5893 206.344 6.952C198.077 2.984 188.157 8.936 187.496 18.1947M359.112 203.037C361.096 202.376 361.757 199.4 359.443 197.085C355.144 193.779 347.539 198.408 350.845 205.352C354.152 212.296 363.741 211.965 367.379 205.683C371.347 197.085 365.064 186.835 355.144 186.835M170.301 359.112C170.963 361.096 173.939 361.757 176.253 359.443C179.56 355.144 174.931 347.539 167.987 350.845C161.043 354.483 161.043 363.411 167.656 367.379C176.253 371.347 186.504 365.064 186.504 355.144M170.301 14.2267C170.963 12.2427 173.939 11.5813 176.253 13.896C179.56 18.1947 174.931 25.8 167.987 22.4933C161.043 18.856 161.373 9.59733 167.656 5.96C176.253 1.992 186.504 8.27467 186.504 18.1947M359.443 170.632C361.427 171.293 362.088 174.269 359.773 176.584C355.475 179.891 347.869 175.261 351.176 168.317C354.813 161.373 364.072 161.373 367.709 167.987C371.677 176.584 365.395 186.835 355.475 186.835M204.029 359.112C203.368 361.096 200.392 361.757 198.077 359.443C194.771 355.144 199.4 347.539 206.344 350.515C213.288 354.152 213.288 363.08 206.675 367.048C198.077 371.347 187.827 364.733 187.827 355.144M14.5573 203.368C12.5733 202.707 11.912 199.731 14.2267 197.416C18.5253 194.109 26.1307 198.739 23.1547 205.683C19.848 212.627 10.2587 212.627 6.62134 206.013C2.32267 197.416 8.936 187.165 18.5253 187.165" stroke="#DD264E" stroke-miterlimit="22.926"/>
</mask>
<g mask="url(#mask0_1137_2895)">
<rect x="-153.523" y="-41.9233" width="340.523" height="464.714" fill="#B2B4B8"/>
</g>
</svg>
