<svg width="119" height="228" viewBox="0 0 119 228" fill="none" xmlns="http://www.w3.org/2000/svg">
<path d="M86.4892 13.7206C88.1721 12.7489 90.3441 13.3309 91.3157 15.0138L91.8278 15.9008L89.3299 21.3919L80.613 39.7174L60.3259 38.0025L71.9541 58.1432L70.8648 58.7721C69.1819 59.7437 67.0099 59.1618 66.0383 57.4789L53.9702 36.5763C52.9986 34.8934 53.5806 32.7214 55.2635 31.7498L77.4871 34.3031L86.4888 13.7219L86.4892 13.7206Z" fill="#E75A4D"/>
<path d="M55.2637 31.7491L77.4873 34.3024L86.4899 13.7207L55.2637 31.7491Z" fill="url(#paint0_linear_372_20276)"/>
<path d="M60.3262 38.0009L71.9544 58.1415L100.901 41.4293L89.331 21.3897L80.6133 39.7157L60.3262 38.0009Z" fill="white"/>
<path d="M71.9598 58.1451L80.6187 39.7193L80.5264 39.7107L71.832 57.9238L71.9598 58.1451Z" fill="#EBEBEB"/>
<path d="M89.333 21.3963L100.911 41.4311L80.6153 39.7223L89.333 21.3963Z" fill="#E9E9E9"/>
<path d="M91.8309 15.9058L103.394 35.9218C104.605 38.1889 104.1 39.5398 100.911 41.4303L89.3333 21.3955L91.8312 15.9045L91.8309 15.9058Z" fill="#B2392F"/>
<path d="M55.2637 31.7491L77.4873 34.3024L86.4899 13.7207L55.2637 31.7491Z" fill="url(#paint1_linear_372_20276)"/>
<path d="M55.2637 31.7491L77.4873 34.3024L86.4899 13.7207L55.2637 31.7491Z" fill="url(#paint2_linear_372_20276)"/>
<path d="M55.2637 31.7491L77.4873 34.3024L86.4899 13.7207L55.2637 31.7491Z" fill="url(#paint3_linear_372_20276)"/>
<path d="M55.2637 31.7491L77.4873 34.3024L86.4899 13.7207L55.2637 31.7491Z" fill="url(#paint4_linear_372_20276)"/>
<path d="M55.2637 31.7491L77.4873 34.3024L86.4899 13.7207L55.2637 31.7491Z" fill="url(#paint5_linear_372_20276)"/>
<path d="M55.2637 31.7491L77.4873 34.3024L86.4899 13.7207L55.2637 31.7491Z" fill="url(#paint6_linear_372_20276)"/>
<path d="M55.2637 31.7491L77.4873 34.3024L86.4899 13.7207L55.2637 31.7491Z" fill="url(#paint7_linear_372_20276)"/>
<path d="M55.2637 31.7491L77.4873 34.3024L86.4899 13.7207L55.2637 31.7491Z" fill="white"/>
<path d="M63.572 87.1096C63.0802 84.7709 61.5306 82.0194 57.7125 80.263C56.6019 79.7528 55.544 79.3374 54.4659 78.914M69.2964 93.6129C68.8046 91.2742 67.359 88.4466 63.3802 87.0829C59.4297 85.7285 55.4981 84.5906 51.8678 83.5127M79.2821 103.138C78.6214 99.988 76.6746 96.1787 71.3149 94.3409C63.0113 91.4946 54.7604 89.1291 48.2456 87.0295M62.9289 23.7485C59.2783 23.5362 56.2006 24.7823 53.2999 27.2319C51.3625 29.003 50.4154 30.5711 48.2726 30.7327C47.0283 30.8275 45.9799 30.2826 45.3057 29.1085C45.8043 32.3101 51.1788 38.923 51.1828 46.6044C51.1842 48.8109 50.9248 50.992 50.2844 53.0436C49.3183 56.1396 47.5444 58.7175 45.3435 61.0976C42.0551 64.3646 43.2643 68.6401 48.2834 69.2719C60.089 69.7327 81.7951 89.7676 92.6238 110.275C88.0653 106.529 79.8914 103.091 71.3149 100.147C62.3236 97.0616 53.3053 94.4264 46.4595 92.5124C41.7794 91.1553 38.3788 89.2854 36.3604 86.7904C34.5783 84.5879 33.9149 82.0942 33.7933 79.7515C33.5556 75.1501 37.5047 69.2772 45.0152 70.6422M48.3618 15.2898C49.975 15.2898 51.2909 16.5907 51.2909 18.1855C51.2909 19.7803 49.975 21.0812 48.3618 21.0812C46.7473 21.0812 45.4314 19.7803 45.4314 18.1855C45.4314 16.5907 46.7473 15.2898 48.3618 15.2898Z" stroke="#292526" stroke-width="0.567" stroke-miterlimit="22.926"/>
<path fill-rule="evenodd" clip-rule="evenodd" d="M48.9122 16.9711C49.3753 16.9711 49.7534 17.349 49.7534 17.8116C49.7534 18.2743 49.3753 18.6522 48.9122 18.6522C48.4492 18.6522 48.0723 18.2743 48.0723 17.8116C48.0723 17.349 48.4492 16.9711 48.9122 16.9711Z" fill="#292526"/>
<path d="M48.9122 16.9711C49.3753 16.9711 49.7534 17.349 49.7534 17.8116C49.7534 18.2743 49.3753 18.6522 48.9122 18.6522C48.4492 18.6522 48.0723 18.2743 48.0723 17.8116C48.0723 17.349 48.4492 16.9711 48.9122 16.9711Z" stroke="#292526" stroke-width="0.567" stroke-miterlimit="22.926"/>
<path d="M30.8651 133.192C26.2919 129.543 24.0341 125.414 23.967 122.84C23.8421 120.691 25.1737 118.861 26.9832 118.614C28.7939 118.368 30.2745 119.548 30.7457 121.255C30.8262 121.545 30.8423 121.86 30.8289 122.171C31.296 121.497 31.6745 120.362 31.6678 119.275C31.6531 115.617 27.2959 113.276 24.1509 115.764C24.1576 115.571 24.1455 115.355 24.1119 115.156C23.814 113.403 22.1374 112.214 20.379 112.511C18.6192 112.807 17.4286 114.481 17.7266 116.235C17.7668 116.472 17.7923 116.74 17.8796 116.955C17.2648 116.101 16.2406 115.721 15.2231 115.894C13.5734 116.172 12.458 117.741 12.7358 119.387C12.862 120.133 13.1385 120.676 13.6795 121.141C14.1761 120.779 14.6312 120.663 15.3453 120.663C17.2433 120.663 18.791 122.208 18.791 124.101C18.791 125.995 17.2715 127.596 15.3735 127.596C14.2151 127.596 13.1828 127.105 12.564 126.138C12.3868 126.102 12.1506 126.079 11.9613 126.079C10.2995 126.079 9.05656 127.516 9.05656 129.173C9.05656 130.832 10.4123 132.185 12.0754 132.185C12.2982 132.185 12.5493 132.203 12.7613 132.155C11.8794 132.588 11.3694 133.466 11.3694 134.425C11.3694 135.981 12.6419 137.249 14.2003 137.249C14.909 137.249 15.7091 136.879 16.148 136.242C16.3332 140.636 21.528 141.895 24.3415 140.254C25.0865 139.818 25.8798 138.928 26.2033 138.103C25.9321 138.302 25.6395 138.478 25.3308 138.581C23.5119 139.19 21.4193 138.632 20.5481 136.864C19.6783 135.097 20.3897 132.791 22.277 131.827C22.5723 131.684 25.7939 129.819 30.7658 134.457M44.0171 95.8095C43.6064 96.7735 43.7057 98.6748 44.2158 99.6107C44.4936 98.7056 45.7111 97.3185 46.6521 96.8726M36.9216 93.9457C36.4733 94.9994 36.582 97.0774 37.1391 98.1017C37.4438 97.1123 38.774 95.5952 39.8036 95.1079M32.2383 86.0887C31.7725 87.1826 31.8853 89.3397 32.4638 90.4028C32.7793 89.3758 34.1605 87.8012 35.2303 87.2965M29.2986 92.3711C28.8503 93.4248 28.9577 95.5029 29.5161 96.5271C29.8195 95.5377 31.151 94.0206 32.1806 93.5333M24.3254 84.9158C23.8609 86.0084 23.9723 88.1654 24.5522 89.2299C24.8677 88.2016 26.2489 86.627 27.3174 86.1222M36.6894 62.7281C35.5995 63.1124 34.1269 64.608 33.7444 65.718C34.688 65.2681 36.7216 65.2226 37.7861 65.6537M30.9658 69.3586C30.1631 70.2918 29.598 72.4529 29.8356 73.682C30.4691 72.7675 32.3242 71.6468 33.5363 71.4808M28.6154 78.2626C28.0865 79.5051 28.2141 81.9554 28.8718 83.1631C29.2302 81.9956 30.8007 80.2081 32.0141 79.6323M23.9374 65.1824C22.877 66.287 22.026 68.9341 22.2354 70.4766C23.0851 69.384 25.4677 68.1187 26.9858 67.9969M20.8864 75.3798C20.1843 76.7402 20.1226 79.5185 20.7642 80.9391C21.2676 79.6497 23.1911 77.7605 24.6099 77.2128M42.3634 148.573C42.4251 148.565 42.4896 148.563 42.5526 148.563C43.4668 148.563 44.2104 149.303 44.2104 150.216C44.2104 151.129 43.4668 151.87 42.5526 151.87C41.8184 151.87 41.1727 151.389 40.9633 150.688M47.985 159.958C48.0387 159.953 48.0937 159.949 48.1474 159.949C48.9327 159.949 49.5689 160.585 49.5689 161.368C49.5689 162.15 48.9327 162.786 48.1474 162.786C47.5179 162.786 46.9635 162.373 46.785 161.773M68.9962 111.983C70.1224 109.076 70.8083 101.367 65.1102 97.9263M65.4874 114.867C66.3438 115.147 67.3801 115.807 67.8029 116.503C68.6593 113.541 67.1868 108.962 64.2176 107.551M63.8645 118.88C64.6995 119.216 65.4163 119.849 65.7908 120.573C67.1237 118.082 66.2203 114.338 63.2229 113.094M61.9504 122.662C62.7182 123.156 63.3746 123.938 63.69 124.688C65.3384 122.508 64.7075 118.79 62.2014 117.302M59.2228 126.047C60.0846 126.647 60.7665 127.71 60.9839 128.651C62.9773 126.779 63.0336 123.164 60.9222 121.294M83.363 206.459C86.5805 205.485 88.704 204.278 90.0866 202.783M79.7468 146.438C85.2113 145.768 88.7564 143.422 90.5041 141.895M75.8809 175.155C81.1361 174.511 84.4905 172.368 86.2812 170.927M82.7469 204.353C84.9724 204.331 87.5966 203.449 89.4423 202.532M79.3589 143.322C83.21 143.856 87.6101 142.584 90.4893 140.991M75.5078 172.159C79.2112 172.673 83.4435 171.56 86.2127 170.029M103.601 227.017C91.99 223.955 84.4489 211.726 90.39 202.242C85.0395 204.249 79.6179 197.88 83.2341 191.421C83.5697 193.004 84.908 194.247 86.5241 194.47C88.6544 194.763 90.633 193.269 90.9269 191.144C91.084 190.012 90.6222 188.443 89.6262 187.42C86.9872 184.283 84.7026 181.238 84.3536 177.608C84.0811 174.786 85.0972 171.562 87.2114 170.054C80.7871 170.185 76.9427 160.971 84.4784 156.055C83.963 157.606 84.3523 159.569 85.6557 160.451C87.3913 161.627 89.6504 161.407 90.9766 159.551C91.6826 158.565 91.9336 156.816 91.5001 155.363C90.6531 152.995 89.4678 150.255 89.3564 147.517C89.2692 145.387 89.5752 142.959 91.1229 140.956C85.0879 141.642 80.6622 133.304 87.3241 128.021C86.9738 129.524 87.5121 131.338 88.8168 132.056C90.5524 133.009 92.688 132.537 93.7726 130.676C96.6116 125.802 93.8115 112.548 90.4745 109.032M73.1681 66.3714C76.5158 64.9816 80.2005 63.9867 83.8341 63.4565M33.1256 159.608C28.1134 140.254 31.0436 119.304 39.2157 101.876M37.5874 172.036C36.1095 168.88 34.8827 165.645 33.8934 162.355M44.7245 183.982C42.4761 180.957 40.5177 177.809 38.8358 174.568M74.7802 67.3877C77.5467 66.1304 79.9978 65.0914 83.8127 64.4781M34.9149 157.282C30.6235 139.377 33.245 119.998 40.5204 103.561M35.535 159.681C35.48 159.482 35.425 159.282 35.3713 159.083M39.362 170.141C38.1002 167.415 37.0344 164.622 36.1511 161.782M50.436 186.812C46.244 182.21 42.8265 177.157 40.1942 171.875M33.6263 40.9368C36.6639 39.567 39.7459 38.9698 42.6976 39.0221M33.8934 42.0146C37.029 40.5993 40.1861 40.029 43.1822 40.1575M67.1599 110.621C74.4004 114.926 77.4259 127.679 73.05 134.991C78.9293 130.366 81.0529 118.534 77.1937 111.327C82.3992 114.995 85.0409 124.605 82.5804 130.444C87.2946 126.233 88.4342 116.674 84.963 111.222C89.4437 114.556 91.1739 121.986 90.5994 126.6C93.6719 121.379 93.7605 112.596 89.5296 108.122M42.8721 148.592C44.9191 144.415 46.6467 140.091 47.9823 136.135C49.1233 132.751 49.9461 129.491 50.224 126.963C52.5556 124.942 54.5878 120.828 54.7422 118.618M44.9285 108.018C45.1608 114.764 45.4601 120.891 48.2118 125.843C47.6481 132.116 45.1406 138.973 42.201 145.508C37.6411 154.478 31.9202 161.971 25.8986 167.041C24.8287 167.945 23.222 168.745 22.6341 169.755C21.834 171.135 22.1307 173.048 23.022 174.047C22.677 172.869 22.9441 171.2 23.6878 170.185C24.2193 169.461 25.6918 168.704 26.4462 168.225C27.265 167.704 28.6825 166.819 29.5738 166.028C28.998 167.171 28.7013 167.892 28.0798 168.931C27.3644 170.132 26.6731 171.152 26.5831 172.317C26.465 173.815 27.2248 175.26 28.3939 175.915C27.6838 174.914 27.5053 173.581 27.7187 172.382C27.8758 171.497 28.7027 170.543 29.2678 169.805C30.8826 167.695 31.7484 165.532 32.5927 163.928C33.1887 162.797 34.0625 162.11 34.7444 161.913C35.6988 161.707 36.8545 161.695 37.8626 162.34C38.8304 162.958 39.5271 164.461 39.46 165.685C40.0989 164.511 39.962 162.718 39.0653 161.513C38.3673 160.577 37.0612 159.654 34.9202 159.632C36.1498 158.259 39.5029 154.068 41.2076 151.271M48.3326 159.94C54.4684 150.164 59.9799 134.832 59.8483 126.457M50.8602 97.0841C50.3193 101.892 53.3328 103.828 53.765 107.896C54.4764 114.604 53.5784 120.032 57.9208 125.383C57.5597 142.837 46.4373 164.85 34.735 174.702C33.8907 175.415 32.9632 175.919 32.594 176.766C32.1215 177.855 32.3175 179.127 33.0209 179.915C32.7484 178.986 32.9578 177.946 33.4263 177.105C33.7726 176.485 34.5712 176.015 35.1672 175.636C35.8156 175.225 36.9337 174.526 37.6371 173.901C37.1834 174.805 36.9485 175.374 36.4585 176.193C35.8921 177.142 35.3471 177.948 35.276 178.868C35.1833 180.051 35.7834 181.067 36.8599 181.491C36.3002 180.701 36.0048 179.865 36.1726 178.919C36.2975 178.22 36.9498 177.466 37.3955 176.884C38.6707 175.218 39.3539 173.51 40.021 172.245C40.4908 171.35 41.1808 170.808 41.7191 170.654C42.4734 170.491 43.3849 170.481 44.1809 170.99C44.9446 171.477 45.4963 172.665 45.4426 173.632C45.9474 172.704 45.84 171.289 45.1312 170.338C44.5809 169.597 43.6735 168.901 42.0761 168.852C42.7043 167.985 45.7245 163.839 46.1393 163.152C46.4024 162.801 46.6668 162.435 46.9299 162.059M70.1425 81.5791C72.901 82.4963 75.6527 82.1348 76.646 80.6044M66.4606 73.441C70.019 75.9864 73.6097 78.8624 75.6165 79.9309C79.3468 82.1884 83.7724 82.4187 85.1536 80.2897M69.0888 69.7415C76.3145 74.0918 83.8677 79.6966 87.8262 81.8041C93.4062 85.0751 99.4412 85.5826 101.444 82.4977M69.4459 64.0778C70.8915 68.3932 67.6525 74.1989 62.9706 75.6878M64.4484 60.9473C66.176 65.6323 63.329 71.5678 58.7544 72.8184M49.3756 69.0506C49.181 65.2668 50.9247 62.3478 53.3408 60.7799C56.5865 58.6738 61.784 58.9389 66.6928 62.3559C86.9671 75.274 103.189 85.9133 117 86.6056C106.406 90.4979 85.3402 90.2528 74.8554 86.1624M67.4767 110.89C70.9909 113.342 72.5748 119.731 71.1801 124.945C69.8284 129.995 65.7518 134.623 63.2632 137.273C57.6966 143.63 58.5114 153.015 65.2283 156.624C50.7314 165.192 55.067 185.015 68.6311 185.528C60.0524 206.882 75.7386 226.828 103.955 227.116C100.115 225.12 97.2505 221.175 95.8116 216.064C93.9619 209.494 94.2236 200.628 95.2237 187.637C96.2197 174.681 98.7486 161.292 100.095 145.024C102.776 121.053 94.3834 100.752 75.2098 86.5091M39.7996 89.4334C50.1837 89.2486 56.5946 78.6763 54.9945 70.881M36.0156 86.0245C44.9956 85.9615 52.5663 77.2142 50.9663 69.4188M32.5041 13.6477C35.2276 15.9052 40.6372 17.4048 45.2399 17.5213M30.4853 16.2881C34.1068 17.9203 41.0412 18.5241 45.2856 17.9243M18.7615 15.2062C25.814 19.7305 37.8988 20.0974 45.3957 18.3648M27.4637 2.66297C33.2746 7.86612 35.1968 15.8864 45.3943 16.9696M31.4061 7.11631C32.2692 8.23835 32.8571 9.72591 32.8571 11.1599C32.8571 14.838 29.849 17.8386 26.1617 17.8386C25.4556 17.8386 24.124 17.6177 23.4703 17.4088M45.6359 19.1213C43.9191 20.2607 43.1379 23.422 44.0721 25.4452M53.961 109.51C47.0387 110.325 41.46 107.3 39.8398 101.74C31.3618 103.135 24.0636 97.2783 23.3643 89.6945C16.3373 85.7607 13.9587 78.2398 15.9789 71.7981C17.7615 66.113 22.583 61.1388 31.4275 60.4626C38.8774 59.8815 43.4493 55.4844 44.4493 49.2931C45.0896 45.3245 43.9527 40.7225 41.2345 36.225C37.2935 29.616 36.1283 23.8183 37.2357 19.357M47.5152 24.8895C54.6522 22.5838 66.1022 22.6628 70.7291 25.1251C68.3586 22.695 62.9303 19.7894 60.1262 19.5632C60.8631 18.259 60.0698 17.0928 59.0483 16.833C58.1449 16.6027 57.0322 16.9174 56.6416 17.9363C55.9288 10.3807 47.1501 8.80204 41.566 12.8885C40.7002 13.5232 39.9445 14.2502 39.3056 15.0643M18.0366 189.343C17.8138 188.858 17.693 188.305 17.7051 187.768C17.7467 185.777 19.481 184.029 21.5361 184.073C23.1388 184.108 24.5777 185.16 25.0274 186.64C24.9898 186.399 24.9495 186.129 24.9563 185.875C24.9979 183.884 26.755 182.355 28.81 182.399C30.6759 182.439 32.1819 183.943 32.3779 185.741C32.3967 185.211 32.5685 184.69 32.8222 184.212C33.7605 182.442 36.0169 181.742 37.8465 182.654C39.3136 183.385 40.1392 184.894 39.8734 186.444C40.0184 185.933 40.2855 185.431 40.6439 185.022C41.9754 183.506 44.3393 183.324 45.9057 184.616C47.1286 185.625 47.5568 187.32 46.942 188.74C47.0695 188.53 47.2145 188.299 47.385 188.104C48.7165 186.59 51.1488 186.436 52.7153 187.728C54.1381 188.901 54.5704 190.848 53.4482 192.591C57.3651 190.988 61.2497 193.534 64.1437 196.577L1 196.587C4.13162 193.636 8.28608 191.754 11.8674 193.496C11.5372 193.073 11.2378 192.453 11.1224 191.928C10.6928 189.98 11.9841 188.055 13.9949 187.642C15.6084 187.313 17.2312 187.979 18.0366 189.343ZM76.0568 202.601C78.3132 202.268 80.4126 203.821 80.7482 206.07C81.0824 208.32 79.5253 210.415 77.2702 210.749C75.0151 211.083 72.9144 209.53 72.5802 207.279C72.2446 205.03 73.803 202.936 76.0568 202.601ZM71.9318 140.704C74.6071 140.704 76.7776 142.869 76.7776 145.538C76.7776 148.206 74.6071 150.372 71.9318 150.372C69.2553 150.372 67.0861 148.206 67.0861 145.538C67.0861 142.869 69.2553 140.704 71.9318 140.704ZM68.3653 169.642C70.9399 169.642 73.0258 171.724 73.0258 174.29C73.0258 176.857 70.9399 178.938 68.3653 178.938C65.7921 178.938 63.7062 176.857 63.7062 174.29C63.7062 171.724 65.7921 169.642 68.3653 169.642ZM76.5534 200.867C79.7387 200.396 82.7052 202.589 83.1791 205.768C83.6516 208.945 81.4515 211.904 78.2662 212.375C75.0796 212.848 72.1131 210.654 71.6406 207.476C71.1667 204.299 73.3668 201.339 76.5534 200.867ZM72.807 138.776C76.5856 138.776 79.6515 141.833 79.6515 145.604C79.6515 149.374 76.5856 152.431 72.807 152.431C69.0271 152.431 65.9612 149.374 65.9612 145.604C65.9612 141.833 69.0271 138.776 72.807 138.776ZM69.207 167.787C72.8419 167.787 75.7897 170.728 75.7897 174.353C75.7897 177.979 72.8419 180.92 69.207 180.92C65.572 180.92 62.6242 177.979 62.6242 174.353C62.6242 170.728 65.572 167.787 69.207 167.787ZM96.519 72.6564C96.7432 72.789 96.9606 72.9269 97.1982 73.0139C98.7258 73.5722 100.405 72.8251 100.963 71.3014C101.522 69.7777 100.633 68.1067 99.2278 67.48C98.9902 67.3943 97.213 66.3593 93.0894 68.8658C92.6021 69.131 92.0571 69.3854 91.5108 69.5326C88.0114 70.482 84.9308 68.7935 83.9791 65.3016C83.0274 61.8096 85.0677 58.5265 88.5027 57.4634C90.0303 56.9921 93.1323 56.6975 95.5257 57.5866C99.2627 58.9737 103.188 62.4965 103.468 68.2205C103.449 70.727 102.516 72.1061 101.531 72.9282C100.63 73.678 99.217 73.9766 98.1405 73.745C97.4935 73.6071 96.919 73.2268 96.519 72.6564ZM23.3052 56.3869C23.1025 56.5944 22.9092 56.8073 22.6797 56.9693C21.2005 58.015 19.1763 57.7017 18.1293 56.2262C17.0823 54.7507 17.548 52.694 18.8756 51.6108C19.1065 51.4488 20.7132 49.818 25.8825 51.3096C26.4838 51.4528 27.1442 51.568 27.7738 51.568C31.8168 51.568 34.6343 48.8526 34.6343 44.821C34.6343 40.7895 31.4772 37.8532 27.4718 37.7126C25.6918 37.6496 22.269 38.2374 19.9561 39.8924C16.3453 42.4739 13.156 47.4066 14.5332 53.642C15.2876 56.3333 16.6943 57.5437 17.995 58.1395C19.1843 58.6845 20.7911 58.5921 21.881 58.0297C22.5347 57.6923 23.0421 57.1166 23.3052 56.3869ZM22.677 1C26.8932 1 30.3336 4.43038 30.3336 8.63735C30.3336 12.8443 26.8932 16.2747 22.677 16.2747C18.4595 16.2747 15.0191 12.8443 15.0191 8.63735C15.0191 4.43038 18.4595 1 22.677 1Z" stroke="#292526" stroke-width="0.567" stroke-miterlimit="22.926"/>
<defs>
<linearGradient id="paint0_linear_372_20276" x1="64.2133" y1="34.2755" x2="84.165" y2="22.7564" gradientUnits="userSpaceOnUse">
<stop stop-color="#F8F6EF"/>
<stop offset="1" stop-color="#E7E4D6"/>
</linearGradient>
<linearGradient id="paint1_linear_372_20276" x1="64.2133" y1="34.2755" x2="84.165" y2="22.7564" gradientUnits="userSpaceOnUse">
<stop stop-color="#F8F6EF"/>
<stop offset="1" stop-color="#E7E4D6"/>
</linearGradient>
<linearGradient id="paint2_linear_372_20276" x1="64.2133" y1="34.2755" x2="84.165" y2="22.7564" gradientUnits="userSpaceOnUse">
<stop stop-color="#F8F6EF"/>
<stop offset="1" stop-color="#E7E4D6"/>
</linearGradient>
<linearGradient id="paint3_linear_372_20276" x1="64.2133" y1="34.2755" x2="84.165" y2="22.7564" gradientUnits="userSpaceOnUse">
<stop stop-color="#F8F6EF"/>
<stop offset="1" stop-color="#E7E4D6"/>
</linearGradient>
<linearGradient id="paint4_linear_372_20276" x1="64.2133" y1="34.2755" x2="84.165" y2="22.7564" gradientUnits="userSpaceOnUse">
<stop stop-color="#F8F6EF"/>
<stop offset="1" stop-color="#E7E4D6"/>
</linearGradient>
<linearGradient id="paint5_linear_372_20276" x1="64.2133" y1="34.2755" x2="84.165" y2="22.7564" gradientUnits="userSpaceOnUse">
<stop stop-color="#F8F6EF"/>
<stop offset="1" stop-color="#E7E4D6"/>
</linearGradient>
<linearGradient id="paint6_linear_372_20276" x1="64.2133" y1="34.2755" x2="84.165" y2="22.7564" gradientUnits="userSpaceOnUse">
<stop stop-color="#F8F6EF"/>
<stop offset="1" stop-color="#E7E4D6"/>
</linearGradient>
<linearGradient id="paint7_linear_372_20276" x1="64.2133" y1="34.2755" x2="84.165" y2="22.7564" gradientUnits="userSpaceOnUse">
<stop stop-color="#F8F6EF"/>
<stop offset="1" stop-color="#E7E4D6"/>
</linearGradient>
</defs>
</svg>
