<svg width="30" height="18" viewBox="0 0 30 18" fill="none" xmlns="http://www.w3.org/2000/svg">
<g id="Group 10550">
<path id="Vector" d="M24.5212 7.57468C24.5212 7.49961 24.5345 7.42455 24.5345 7.34961C24.5345 3.2873 21.0651 0 16.7852 0C13.6971 0 11.0448 1.71241 9.7989 4.18726C9.25649 3.93111 8.64693 3.7811 8.00392 3.7811C6.0281 3.7811 4.38047 5.14975 4.06565 6.93723C1.69452 7.69966 0 9.8183 0 12.3126C0 15.4501 2.68584 17.9937 5.99454 18H24.5279C27.5551 17.9874 30 15.6564 30 12.7876C30.0068 9.9122 27.5485 7.58077 24.5212 7.57468Z" fill="#DD264E"/>
<path id="Arrow 173" d="M15.5303 8.46967C15.2374 8.17678 14.7626 8.17678 14.4697 8.46967L9.6967 13.2426C9.40381 13.5355 9.40381 14.0104 9.6967 14.3033C9.98959 14.5962 10.4645 14.5962 10.7574 14.3033L15 10.0607L19.2426 14.3033C19.5355 14.5962 20.0104 14.5962 20.3033 14.3033C20.5962 14.0104 20.5962 13.5355 20.3033 13.2426L15.5303 8.46967ZM15.75 17.5L15.75 9L14.25 9L14.25 17.5L15.75 17.5Z" fill="white"/>
</g>
</svg>
