<svg width="27" height="33" viewBox="0 0 27 33" fill="none" xmlns="http://www.w3.org/2000/svg">
<path d="M14.001 21.0013C14.001 21.4072 14.0072 21.7631 13.9996 22.1188C13.9888 22.6232 13.5973 23.0075 13.1137 22.9999C12.6395 22.9925 12.2724 22.6234 12.2595 22.1266C12.2503 21.7719 12.2577 21.4167 12.2577 21.0015C11.7531 21.0015 11.2753 20.9969 10.7975 21.0031C10.4748 21.0074 10.1705 20.9606 9.94746 20.7149C9.71918 20.4632 9.62933 20.1695 9.77607 19.848C9.94034 19.4879 10.235 19.299 10.6441 19.2974C11.5426 19.2939 12.4412 19.2963 13.3398 19.2955C13.6162 19.2954 13.8931 19.3023 14.1691 19.2896C14.825 19.2592 15.3373 18.7615 15.3745 18.1304C15.4109 17.5116 14.9434 16.9272 14.2886 16.8739C13.6249 16.8199 12.9543 16.8406 12.2867 16.8371C11.0717 16.8307 10.1151 16.3636 9.51993 15.324C8.48207 13.511 9.63335 11.316 11.7555 11.0269C11.9033 11.0067 12.0521 10.9939 12.2565 10.9716C12.2565 10.6451 12.254 10.3158 12.257 9.98649C12.2625 9.39297 12.6249 8.99037 13.1407 9.00018C13.6434 9.00981 13.9976 9.41144 14.0012 9.97907C14.0033 10.3008 14.0016 10.6226 14.0016 10.9917C14.5485 10.9917 15.0739 10.984 15.5988 10.9941C16.0238 11.0022 16.3746 11.2924 16.4625 11.6822C16.5437 12.0424 16.3308 12.4442 15.9411 12.6019C15.7885 12.6636 15.6059 12.6749 15.4367 12.676C14.3769 12.6823 13.3169 12.6729 12.2571 12.6815C11.4613 12.6879 10.9094 13.1653 10.8807 13.8483C10.8505 14.5695 11.3911 15.1215 12.154 15.1413C12.9592 15.1623 13.7745 15.1071 14.5675 15.2118C15.8398 15.3798 16.6703 16.1396 17.0112 17.3271C17.3346 18.4539 17.0049 19.4395 16.1189 20.2386C15.5362 20.7645 14.8222 20.9817 14.001 21.0013Z" fill="#189387"/>
<rect x="1" y="1" width="25" height="31" rx="3" stroke="#189387" stroke-width="2"/>
</svg>
