<svg width="29" height="30" viewBox="0 0 29 30" fill="none" xmlns="http://www.w3.org/2000/svg">
<g id="Group 10572">
<path id="Ellipse 643" d="M22.2205 9.06974C22.2205 13.2504 18.8315 16.6395 14.6508 16.6395C10.4701 16.6395 7.08105 13.2504 7.08105 9.06974C7.08105 4.88909 10.4701 1.5 14.6508 1.5C18.8315 1.5 22.2205 4.88909 22.2205 9.06974Z" stroke="#EE8842" stroke-width="3"/>
<path id="Subtract" d="M2.9417 28.5003C2.43191 28.5003 2.00808 28.2967 1.75943 28.0396C1.52971 27.8021 1.45668 27.542 1.52493 27.258C2.85242 21.733 8.03741 17.5469 14.3023 17.5469C20.5672 17.5469 25.7522 21.733 27.0796 27.258C27.1479 27.542 27.0749 27.8021 26.8451 28.0396C26.5965 28.2967 26.1727 28.5003 25.6629 28.5003H2.9417Z" stroke="#EE8842" stroke-width="3"/>
</g>
</svg>
