<svg width="38" height="34" viewBox="0 0 38 34" fill="none" xmlns="http://www.w3.org/2000/svg">
<g id="Group 10478">
<path id="Vector" d="M0.858398 25.8008C1.00565 25.433 1.29949 25.2197 1.62816 25.0226C3.62769 23.8237 5.6027 22.5826 7.62124 21.417C9.74969 20.188 12.0485 19.6129 14.5084 20.0105C15.3719 20.15 16.2091 20.4609 17.0529 20.7117C18.661 21.1898 20.2652 21.6801 21.8708 22.1668C22.5373 22.3689 22.75 22.6584 22.7483 23.3508C22.7441 25.0157 21.5602 26.3247 19.9131 26.532C18.0934 26.761 16.27 26.7264 14.4453 26.6605C13.8387 26.6386 13.424 26.2207 13.4468 25.6889C13.4696 25.1591 13.9143 24.8015 14.5264 24.8015C15.9762 24.8014 17.4261 24.8023 18.8757 24.7825C19.2227 24.7778 19.571 24.7065 19.9145 24.6427C20.3689 24.5581 20.6633 24.2816 20.8113 23.8127C20.7098 23.7737 20.6156 23.7308 20.5174 23.7009C18.693 23.1462 16.8632 22.6084 15.0447 22.035C13.3845 21.5115 11.7678 21.7355 10.177 22.2858C9.56625 22.497 8.97307 22.789 8.41522 23.1176C6.42737 24.2886 4.45853 25.4919 2.48178 26.6817C1.72765 27.1355 1.26861 27.0081 0.858591 26.2363C0.858398 26.0911 0.858398 25.946 0.858398 25.8008Z" fill="#DD264E"/>
<path id="Vector_2" d="M35.6725 20.6997C34.9784 20.3058 34.3618 20.4756 33.7536 20.7602C31.3923 21.8652 29.0307 22.9696 26.6732 24.0826C26.3721 24.2247 26.0772 24.2873 25.7691 24.1566C25.431 24.0131 25.2247 23.753 25.2142 23.3763C25.2026 22.9653 25.3818 22.6505 25.7565 22.4696C26.6696 22.0291 27.5838 21.5904 28.502 21.1607C30.0106 20.4547 31.5224 19.7556 33.0334 19.0549C33.864 18.6697 34.7266 18.4702 35.6367 18.6921C36.5169 18.9068 37.2122 19.4087 37.726 20.1534C38.1615 20.7849 38.0826 21.2544 37.47 21.7077C36.7124 22.2683 35.9501 22.8225 35.1897 23.3793C31.6215 25.9921 28.0441 28.5923 24.4894 31.2233C22.8868 32.4095 21.1471 32.7781 19.1895 32.4415C15.8339 31.8645 12.4675 31.3505 9.10351 30.8232C8.96359 30.8013 8.77233 30.8762 8.65634 30.9697C7.92267 31.5615 7.20289 32.1705 6.47993 32.7756C6.23116 32.9838 5.96087 33.1339 5.62342 33.0781C5.25953 33.0179 4.99455 32.8142 4.88859 32.4595C4.77164 32.0679 4.86881 31.714 5.18696 31.4457C5.96309 30.7911 6.77078 30.1714 7.51545 29.4833C8.05294 28.9866 8.59574 28.8455 9.32401 28.9688C12.7288 29.5451 16.1461 30.0474 19.5511 30.6223C20.9719 30.8622 22.2106 30.593 23.373 29.7337C27.3567 26.7887 31.3607 23.8711 35.3566 20.9426C35.4515 20.873 35.5433 20.7993 35.6725 20.6997Z" fill="#DD264E"/>
<path id="Vector_3" d="M26.1221 13.9297C26.1279 16.9098 23.7129 19.3343 20.7359 19.3371C17.7626 19.3399 15.338 16.9223 15.3272 13.9438C15.3165 10.9811 17.7495 8.54143 20.7222 8.5342C23.6953 8.52696 26.1163 10.946 26.1221 13.9297ZM20.7402 17.4835C22.6805 17.4722 24.2639 15.8886 24.2751 13.9482C24.2863 12.0048 22.6673 10.3903 20.7186 10.4016C18.7682 10.4129 17.1927 11.9875 17.1847 13.9333C17.1767 15.8764 18.7974 17.4948 20.7402 17.4835Z" fill="#DD264E"/>
<path id="Vector_4" d="M27.0358 8.77813C24.7055 8.76173 22.8234 6.85388 22.8479 4.53272C22.8722 2.22595 24.7772 0.339805 27.0726 0.349648C29.3999 0.359683 31.2783 2.25692 31.2682 4.58734C31.258 6.92586 29.3708 8.79454 27.0358 8.77813ZM24.7168 4.57219C24.7177 5.8696 25.7681 6.9276 27.062 6.93426C28.3628 6.94092 29.4489 5.85204 29.4348 4.5553C29.4207 3.26204 28.3541 2.20896 27.063 2.2134C25.7673 2.21794 24.7158 3.27507 24.7168 4.57219Z" fill="#DD264E"/>
</g>
</svg>
