<svg width="24" height="24" viewBox="0 0 24 24" fill="none" xmlns="http://www.w3.org/2000/svg">
<g id="Group 10559">
<path id="Vector 1261" d="M7.91994 10.9318L7.06751 15.7622C6.94608 16.4503 7.54982 17.0477 8.23659 16.9189L12.7019 16.0816L21.5874 7.1962C22.3684 6.41515 22.3684 5.14882 21.5874 4.36777L19.6083 2.38873C18.8373 1.61771 17.5908 1.60638 16.8059 2.36326L7.91994 10.9318Z" stroke="#DD264E" stroke-width="2"/>
<path id="Subtract" fill-rule="evenodd" clip-rule="evenodd" d="M8.90451 1H6C2.68629 1 0 3.68629 0 7V18C0 21.3137 2.68629 24 6 24H17C20.3137 24 23 21.3137 23 18V15.0969H21V18C21 20.2091 19.2091 22 17 22H6C3.79086 22 2 20.2091 2 18V7C2 4.79086 3.79086 3 6 3H8.90451V1Z" fill="#DD264E"/>
<path id="Vector 1262" d="M14.4805 5.25928L19.5916 10.3704" stroke="#DD264E" stroke-width="2"/>
</g>
</svg>
