<svg width="32" height="26" viewBox="0 0 32 26" fill="none" xmlns="http://www.w3.org/2000/svg">
<path d="M1.94028 0.255281C1.42028 -0.154719 0.665281 -0.0597189 0.255281 0.460281C-0.154719 0.980281 -0.0597189 1.73528 0.460281 2.14528L30.0603 25.3453C30.5803 25.7553 31.3353 25.6603 31.7453 25.1403C32.1553 24.6203 32.0603 23.8653 31.5403 23.4553L26.2803 19.3353C28.2603 17.3053 29.6003 15.0303 30.2753 13.4153C30.4403 13.0203 30.4403 12.5803 30.2753 12.1853C29.5303 10.4003 27.9653 7.80028 25.6253 5.63028C23.2753 3.44028 20.0403 1.60028 16.0003 1.60028C12.5903 1.60028 9.75028 2.91528 7.53528 4.64028L1.94028 0.255281ZM11.1553 7.47528C12.4303 6.31028 14.1353 5.60028 16.0003 5.60028C19.9753 5.60028 23.2003 8.82528 23.2003 12.8003C23.2003 14.0453 22.8853 15.2153 22.3303 16.2353L20.4003 14.7253C20.8203 13.7603 20.9303 12.6553 20.6403 11.5603C20.0853 9.48528 18.2503 8.09028 16.2103 8.00528C15.9203 7.99528 15.7503 8.31028 15.8403 8.59028C15.9453 8.91028 16.0053 9.25028 16.0053 9.60528C16.0053 10.1153 15.8853 10.5953 15.6753 11.0203L11.1603 7.48028L11.1553 7.47528ZM18.6503 19.4953C17.8303 19.8203 16.9353 20.0003 16.0003 20.0003C12.0253 20.0003 8.80028 16.7753 8.80028 12.8003C8.80028 12.4553 8.82528 12.1203 8.87028 11.7903L4.15528 8.07528C3.01528 9.56028 2.20028 11.0403 1.72528 12.1853C1.56028 12.5803 1.56028 13.0203 1.72528 13.4153C2.47028 15.2003 4.03528 17.8003 6.37528 19.9703C8.72528 22.1603 11.9603 24.0003 16.0003 24.0003C18.3903 24.0003 20.4953 23.3553 22.3103 22.3753L18.6503 19.4953Z" fill="#333333"/>
</svg>
