<svg width="32" height="25" viewBox="0 0 32 25" fill="none" xmlns="http://www.w3.org/2000/svg">
<path d="M15.9986 0C11.5097 0 7.91528 2.04444 5.29861 4.47778C2.69861 6.88889 0.959722 9.77778 0.1375 11.7611C-0.0458333 12.2 -0.0458333 12.6889 0.1375 13.1278C0.959722 15.1111 2.69861 18 5.29861 20.4111C7.91528 22.8444 11.5097 24.8889 15.9986 24.8889C20.4875 24.8889 24.0819 22.8444 26.6986 20.4111C29.2986 17.9944 31.0375 15.1111 31.8653 13.1278C32.0486 12.6889 32.0486 12.2 31.8653 11.7611C31.0375 9.77778 29.2986 6.88889 26.6986 4.47778C24.0819 2.04444 20.4875 0 15.9986 0ZM7.99861 12.4444C7.99861 10.3227 8.84147 8.28788 10.3418 6.78759C11.842 5.2873 13.8769 4.44444 15.9986 4.44444C18.1203 4.44444 20.1552 5.2873 21.6555 6.78759C23.1558 8.28788 23.9986 10.3227 23.9986 12.4444C23.9986 14.5662 23.1558 16.601 21.6555 18.1013C20.1552 19.6016 18.1203 20.4444 15.9986 20.4444C13.8769 20.4444 11.842 19.6016 10.3418 18.1013C8.84147 16.601 7.99861 14.5662 7.99861 12.4444ZM15.9986 8.88889C15.9986 10.85 14.4042 12.4444 12.4431 12.4444C12.0486 12.4444 11.6708 12.3778 11.3153 12.2611C11.0097 12.1611 10.6542 12.35 10.6653 12.6722C10.6819 13.0556 10.7375 13.4389 10.8431 13.8222C11.6042 16.6667 14.5319 18.3556 17.3764 17.5944C20.2208 16.8333 21.9097 13.9056 21.1486 11.0611C20.5319 8.75556 18.4931 7.20556 16.2264 7.11111C15.9042 7.1 15.7153 7.45 15.8153 7.76111C15.9319 8.11667 15.9986 8.49444 15.9986 8.88889Z" fill="#333333"/>
</svg>
