<svg width="301" height="301" viewBox="0 0 301 301" fill="none" xmlns="http://www.w3.org/2000/svg">
<path d="M28.112 89.5567L28.1619 89.559L28.112 89.5567C27.3967 105.382 27.2395 110.12 27.2395 150.177C27.2395 190.234 27.3847 194.985 28.112 210.797C28.777 225.427 31.2143 233.384 33.2755 238.669C35.9925 245.678 39.2485 250.676 44.5072 255.928C49.766 261.179 54.7689 264.43 61.7787 267.159C67.0664 269.219 75.0208 271.656 89.6513 272.322C105.459 273.049 110.197 273.195 150.256 273.195C190.315 273.195 195.066 273.049 210.879 272.322C225.509 271.657 233.466 269.22 238.751 267.159C245.761 264.43 250.771 261.174 256.023 255.928C261.274 250.681 264.526 245.678 267.254 238.669L267.212 238.652L267.255 238.669C269.303 233.381 271.752 225.427 272.418 210.797C273.145 194.972 273.291 190.234 273.291 150.177C273.291 110.12 273.145 105.382 272.418 89.5567C271.753 74.9268 269.316 66.9703 267.254 61.6852C264.526 54.6757 261.282 49.6658 256.023 44.4144C250.764 39.1631 245.761 35.9001 238.751 33.1832L238.733 33.2298L238.751 33.1831C233.45 31.1413 225.509 28.6861 210.879 28.0198C195.053 27.3046 190.297 27.1474 150.256 27.1474C110.215 27.1474 105.464 27.2926 89.6513 28.0198C75.021 28.6849 67.0641 31.122 61.7788 33.1832C54.7569 35.9 49.7588 39.1559 44.5072 44.4145C39.2556 49.673 36.0045 54.6757 33.2755 61.6852L33.2755 61.6854C31.2335 66.9858 28.7782 74.9267 28.112 89.5567ZM88.4138 1.13413L88.4115 1.08418L88.4138 1.13413C104.415 0.394982 109.531 0.225781 150.268 0.225781C191.005 0.225781 196.117 0.406981 212.11 1.13413L212.112 1.08418L212.11 1.13413C228.062 1.84912 238.963 4.39218 248.505 8.09798C258.35 11.9249 266.718 17.0452 275.048 25.3883C283.379 33.7315 288.502 42.0859 292.34 51.9427C296.045 61.4662 298.577 72.3712 299.304 88.3361C300.031 104.329 300.2 109.441 300.2 150.176C300.2 190.911 300.031 196.011 299.304 212.016C298.589 227.979 296.045 238.879 292.34 248.409C288.502 258.266 283.392 266.633 275.048 274.963C266.705 283.293 258.35 288.416 248.493 292.254C238.963 295.959 228.064 298.49 212.098 299.217C196.105 299.957 190.993 300.126 150.256 300.126C109.519 300.126 104.415 299.945 88.4138 299.217C72.4495 298.49 61.5609 295.959 52.019 292.254C42.1558 288.416 33.8058 283.29 25.4635 274.963C17.1213 266.637 11.9996 258.266 8.17252 248.409C4.46658 238.879 1.9354 227.98 1.20838 212.016L1.15844 212.018L1.20838 212.015C0.469207 196.023 0.3 190.911 0.3 150.176C0.3 109.441 0.469207 104.329 1.20838 88.3361L1.15844 88.3338L1.20838 88.3361C1.9354 72.3724 4.46658 61.4722 8.17251 51.9427L8.17253 51.9427C11.9996 42.0799 17.1201 33.7183 25.4635 25.3884C33.8071 17.0584 42.1558 11.9248 52.019 8.098L52.019 8.09798C61.5429 4.39219 72.4495 1.86111 88.4138 1.13413ZM150.256 100.122C122.614 100.122 100.212 122.535 100.212 150.176C100.212 177.817 122.614 200.23 150.256 200.23C177.898 200.23 200.312 177.817 200.312 150.176C200.312 122.535 177.898 100.122 150.256 100.122ZM150.256 227.149C107.742 227.149 73.2797 192.688 73.2797 150.176C73.2797 107.663 107.742 73.2026 150.256 73.2026C192.77 73.2026 227.232 107.663 227.232 150.176C227.232 192.688 192.77 227.149 150.256 227.149ZM215.402 80.0723C213.431 77.1196 212.379 73.6488 212.381 70.0986C212.385 65.3399 214.278 60.7774 217.644 57.4131C221.009 54.0489 225.573 52.158 230.332 52.1558H230.339C233.889 52.1572 237.359 53.2113 240.31 55.1849C243.262 57.1584 245.561 59.9628 246.919 63.2432C248.276 66.5237 248.63 70.133 247.936 73.6147C247.242 77.0964 245.531 80.2941 243.02 82.8034C240.508 85.3128 237.309 87.0211 233.827 87.7123C230.344 88.4035 226.735 88.0466 223.456 86.6867C220.176 85.3268 217.373 83.0249 215.402 80.0723Z" fill="white" stroke="white" stroke-width="0.1"/>
</svg>
