<svg width="17" height="17" viewBox="0 0 17 17" fill="none" xmlns="http://www.w3.org/2000/svg">
<path id="Vector" d="M1.53173 5.06279L1.53173 5.06277C1.56972 4.22848 1.70996 3.7735 1.82743 3.46859L1.82749 3.46842C1.98447 3.06522 2.17227 2.7762 2.47453 2.47353C2.7768 2.17086 3.0656 1.98276 3.46956 1.82645C3.77382 1.7078 4.22977 1.56863 5.06391 1.53071C5.06391 1.53071 5.06392 1.53071 5.06393 1.53071L5.0662 1.58066L1.53173 5.06279ZM1.53173 5.06279C1.49115 5.96064 1.48224 6.22993 1.48224 8.50007C1.48224 10.7701 1.49046 11.0402 1.53173 11.9374M1.53173 5.06279L1.53173 11.9374M4.99813 0.101423L4.9981 0.101424C4.09791 0.142417 3.485 0.284975 2.95068 0.492881L2.95064 0.492898C2.39744 0.707536 1.92998 0.994961 1.46209 1.46209C0.994279 1.92915 0.707584 2.39729 0.492916 2.95052L0.492902 2.95055C0.284982 3.4852 0.142421 4.09775 0.101426 4.99789L0.101425 4.99793C0.0595889 5.90307 0.05 6.1919 0.05 8.5C0.05 10.8081 0.0595889 11.0969 0.101425 12.0021L0.101426 12.0021C0.142421 12.9023 0.284982 13.5148 0.492902 14.0494L0.492912 14.0495C0.707586 14.6024 0.994355 15.0711 1.46209 15.5379C1.92989 16.0048 2.39741 16.2918 2.95065 16.5071C3.48602 16.715 4.09792 16.8576 4.9981 16.8986C5.90378 16.9397 6.19219 16.95 8.50034 16.95C10.8085 16.95 11.0974 16.9404 12.0026 16.8986L12.0026 16.8986C12.9028 16.8576 13.5153 16.715 14.05 16.5071M4.99813 0.101423L14.0681 16.5537M4.99813 0.101423C5.90378 0.0595885 6.19283 0.05 8.50102 0.05C10.8092 0.05 11.0981 0.0602676 12.0033 0.101424L12.0033 0.101426C12.9027 0.141739 13.5153 0.284961 14.0507 0.492892C14.603 0.707557 15.0715 0.994249 15.5385 1.46204C16.0057 1.92988 16.2925 2.39766 16.5078 2.95056C16.7157 3.48486 16.8583 4.09767 16.8993 4.99789C16.9404 5.90305 16.95 6.19191 16.95 8.5C16.95 10.8081 16.9404 11.0963 16.8993 12.0021L16.8993 12.0021C16.8589 12.9022 16.7157 13.5148 16.5078 14.0494M4.99813 0.101423L16.5544 14.0676M14.05 16.5071L14.0681 16.5537M14.05 16.5071C14.05 16.5071 14.05 16.5071 14.05 16.5071L14.0681 16.5537M14.05 16.5071C14.6029 16.2918 15.0707 16.005 15.5386 15.5379C16.0064 15.0709 16.2925 14.6024 16.5078 14.0494M14.0681 16.5537C14.627 16.3361 15.1008 16.0456 15.5739 15.5733C16.047 15.101 16.3368 14.6265 16.5544 14.0676M16.5078 14.0494L16.5544 14.0676M16.5078 14.0494C16.5078 14.0494 16.5078 14.0494 16.5078 14.0494L16.5544 14.0676M15.1742 13.5316L15.1742 13.5317C15.0172 13.9349 14.8294 14.224 14.5271 14.526C14.2249 14.828 13.9354 15.016 13.5322 15.173C13.2279 15.2916 12.772 15.4308 11.9378 15.4687M15.1742 13.5316L11.9355 15.4188M15.1742 13.5316C15.2921 13.2274 15.432 12.7716 15.47 11.9374L15.1742 13.5316ZM11.9378 15.4687L11.9355 15.4188M11.9378 15.4687C11.9378 15.4687 11.9378 15.4687 11.9378 15.4687L11.9355 15.4188M11.9378 15.4687C11.0406 15.51 10.7705 15.5182 8.50034 15.5182C6.23017 15.5182 5.96082 15.51 5.06393 15.4687M11.9355 15.4188C11.0395 15.46 10.7703 15.4682 8.50034 15.4682C6.23034 15.4682 5.96194 15.46 5.0662 15.4188M5.06393 15.4687L5.0662 15.4188M5.06393 15.4687C5.06392 15.4687 5.06391 15.4687 5.06391 15.4687L5.0662 15.4188M5.06393 15.4687C4.22971 15.4308 3.7739 15.2916 3.46952 15.173C3.46951 15.173 3.46951 15.173 3.46951 15.173L3.48766 15.1264L5.0662 15.4188M1.82747 13.5317C1.82748 13.5317 1.82749 13.5317 1.8275 13.5317L1.87409 13.5136L1.82747 13.5316C1.82747 13.5316 1.82747 13.5317 1.82747 13.5317ZM1.82747 13.5317C1.70881 13.2274 1.56965 12.7715 1.53173 11.9374M1.82747 13.5317L1.53173 11.9374M1.53173 11.9374L1.58168 11.9351L1.53173 11.9374C1.53173 11.9374 1.53173 11.9374 1.53173 11.9374ZM12.0679 3.96234C12.0678 4.15417 12.1247 4.34173 12.2312 4.50128C12.3377 4.66084 12.4892 4.78523 12.6664 4.85871C12.8436 4.9322 13.0386 4.95149 13.2268 4.91414C13.415 4.87678 13.5879 4.78447 13.7236 4.64887C13.8593 4.51326 13.9518 4.34046 13.9893 4.15232C14.0268 3.96417 14.0077 3.76913 13.9343 3.59186C13.861 3.41458 13.7367 3.26304 13.5772 3.15639C13.4177 3.04975 13.2302 2.99278 13.0384 2.9927C13.0384 2.9927 13.0384 2.9927 13.0383 2.9927H13.038L12.0679 3.96234ZM12.0679 3.96234C12.0681 3.70517 12.1704 3.45861 12.3523 3.27681C12.5342 3.09501 12.7808 2.99283 13.038 2.9927L12.0679 3.96234ZM8.50034 5.61644C6.9079 5.61644 5.61735 6.90765 5.61735 8.5C5.61735 10.0923 6.9079 11.3836 8.50034 11.3836C10.0928 11.3836 11.384 10.0924 11.384 8.5C11.384 6.90764 10.0928 5.61644 8.50034 5.61644ZM8.50034 12.8146C6.11726 12.8146 4.18552 10.883 4.18552 8.5C4.18552 6.11702 6.11726 4.18535 8.50034 4.18535C10.8834 4.18535 12.8152 6.11702 12.8152 8.5C12.8152 10.883 10.8834 12.8146 8.50034 12.8146ZM15.47 5.06275C15.4321 4.2286 15.2929 3.77268 15.1742 3.46842L15.47 11.9374C15.5112 11.0395 15.5195 10.7702 15.5195 8.50007C15.5195 6.22997 15.5112 5.96065 15.47 5.06275Z" fill="white" stroke="white" stroke-width="0.1"/>
</svg>
