<svg width="300" height="300" viewBox="0 0 300 300" fill="none" xmlns="http://www.w3.org/2000/svg">
<path d="M27.862 89.3809L27.9119 89.3832L27.862 89.3809C27.1467 105.206 26.9895 109.944 26.9895 150.001C26.9895 190.059 27.1347 194.809 27.862 210.621C28.527 225.251 30.9643 233.208 33.0255 238.493C35.7425 245.503 38.9985 250.5 44.2572 255.752C49.516 261.003 54.5189 264.254 61.5287 266.983C66.8164 269.043 74.7708 271.48 89.4013 272.146C105.209 272.874 109.947 273.019 150.006 273.019C190.065 273.019 194.816 272.874 210.629 272.146C225.259 271.481 233.216 269.044 238.501 266.983C245.511 264.254 250.521 260.998 255.773 255.752C261.024 250.505 264.276 245.502 267.004 238.493L266.962 238.476L267.005 238.493C269.053 233.206 271.502 225.251 272.168 210.621C272.895 194.796 273.041 190.059 273.041 150.001C273.041 109.944 272.895 105.206 272.168 89.3809C271.503 74.7511 269.066 66.7945 267.004 61.5095C264.276 54.5 261.032 49.49 255.773 44.2386C250.514 38.9873 245.511 35.7243 238.501 33.0074L238.483 33.054L238.501 33.0073C233.2 30.9655 225.259 28.5103 210.629 27.8441C194.803 27.1288 190.047 26.9716 150.006 26.9716C109.965 26.9716 105.214 27.1168 89.4013 27.8441C74.771 28.5091 66.8141 30.9462 61.5288 33.0074C54.5069 35.7243 49.5088 38.9801 44.2572 44.2387C39.0056 49.4972 35.7545 54.4999 33.0255 61.5095L33.0255 61.5096C30.9835 66.8101 28.5282 74.7509 27.862 89.3809ZM88.1638 0.958348L88.1615 0.9084L88.1638 0.958347C104.165 0.219201 109.281 0.05 150.018 0.05C190.755 0.05 195.867 0.2312 211.86 0.958348L211.862 0.9084L211.86 0.95835C227.812 1.67334 238.713 4.2164 248.255 7.9222C258.1 11.7491 266.468 16.8694 274.798 25.2125C283.129 33.5557 288.252 41.9101 292.09 51.7669C295.795 61.2904 298.327 72.1954 299.054 88.1603C299.781 104.153 299.95 109.265 299.95 150C299.95 190.735 299.781 195.835 299.054 211.84C298.339 227.803 295.795 238.704 292.09 248.233C288.252 258.09 283.142 266.457 274.798 274.787C266.455 283.117 258.1 288.24 248.243 292.078C238.713 295.784 227.814 298.315 211.848 299.042C195.855 299.781 190.743 299.95 150.006 299.95C109.269 299.95 104.165 299.769 88.1638 299.042C72.1995 298.315 61.3109 295.784 51.769 292.078C41.9058 288.24 33.5558 283.114 25.2135 274.787C16.8713 266.461 11.7496 258.09 7.92252 248.233C4.21658 238.704 1.6854 227.805 0.958385 211.84L0.908436 211.842L0.958383 211.84C0.219207 195.847 0.05 190.735 0.05 150C0.05 109.265 0.219207 104.153 0.958383 88.1603L0.908436 88.158L0.958385 88.1603C1.6854 72.1966 4.21658 61.2964 7.92251 51.7669L7.92253 51.7669C11.7496 41.9041 16.8701 33.5425 25.2135 25.2126C33.5571 16.8826 41.9058 11.7491 51.769 7.92221L51.769 7.9222C61.2929 4.21641 72.1995 1.68533 88.1638 0.958348ZM150.006 99.946C122.364 99.946 99.962 122.359 99.962 150C99.962 177.641 122.364 200.054 150.006 200.054C177.648 200.054 200.062 177.641 200.062 150C200.062 122.359 177.648 99.946 150.006 99.946ZM150.006 226.973C107.492 226.973 73.0297 192.512 73.0297 150C73.0297 107.488 107.492 73.0268 150.006 73.0268C192.52 73.0268 226.982 107.488 226.982 150C226.982 192.512 192.52 226.973 150.006 226.973ZM215.152 79.8965C213.181 76.9439 212.129 73.473 212.131 69.9228C212.135 65.1641 214.028 60.6016 217.394 57.2374C220.759 53.8731 225.323 51.9822 230.082 51.98H230.089C233.639 51.9814 237.109 53.0356 240.06 55.0091C243.012 56.9827 245.311 59.787 246.669 63.0675C248.026 66.3479 248.38 69.9572 247.686 73.4389C246.992 76.9206 245.281 80.1183 242.77 82.6276C240.258 85.137 237.059 86.8453 233.577 87.5365C230.094 88.2277 226.485 87.8708 223.206 86.5109C219.926 85.151 217.123 82.8492 215.152 79.8965Z" fill="#151C26" stroke="#151C26" stroke-width="0.1"/>
</svg>
