<svg width="24" height="24" viewBox="0 0 24 24" fill="none" xmlns="http://www.w3.org/2000/svg">
<g id="Group">
<g id="Group_2">
<path id="Vector" d="M12 24C5.37966 24 0 18.6203 0 12C0 5.37966 5.37966 0 12 0C18.6203 0 24 5.37966 24 12C24 18.6203 18.6203 24 12 24ZM12 1.11864C6 1.11864 1.11864 6 1.11864 12C1.11864 18 6 22.8814 12 22.8814C18 22.8814 22.8814 18 22.8814 12C22.8814 6 18 1.11864 12 1.11864ZM13.3525 7.18983C12.539 7.18983 11.8678 6.52881 11.8678 5.70508C11.8678 4.89153 12.5288 4.22034 13.3525 4.22034C14.1763 4.22034 14.8373 4.88136 14.8373 5.70508C14.8373 6.52881 14.1661 7.18983 13.3525 7.18983ZM9.62034 9.79322C9.62034 9.67119 9.62034 9.54915 9.62034 9.42712C10.8 8.95932 12.6102 9.1322 13.8203 8.70508C13.8712 8.70508 13.9119 8.70508 13.9627 8.70508C13.3729 11.6746 12.1424 14.3695 11.8576 17.4C11.9186 17.4508 11.9186 17.4407 12 17.4712C12.9153 17.7763 13.4339 15.661 14.0237 15.8034C14.6237 15.9458 13.6475 17.0034 13.5153 17.1763C12.9864 17.8678 11.9695 19.0475 10.7593 19.0576C9.90508 19.0576 9.03051 18.5288 9.16271 17.1051C9.30508 15.6814 10.0983 13.6983 10.5356 12.1017C10.9119 10.8305 11.3695 9.75254 9.62034 9.79322Z" fill="#C73154"/>
</g>
</g>
</svg>
