<svg width="200" height="201" viewBox="0 0 200 201" fill="none" xmlns="http://www.w3.org/2000/svg">
<path d="M178.15 71.7001L178.636 71.586L178.15 71.7001C180.274 80.7659 180.605 89.9544 179.927 99.0997C178.457 118.931 183.291 137.341 196.694 153.632C200.013 157.665 200.298 162.544 198.023 166.379C195.746 170.218 190.842 173.104 183.603 172.97C163.941 172.608 144.265 172.684 124.595 172.76C116.419 172.791 108.245 172.823 100.073 172.823H99.5729V172.838C91.5893 172.838 83.6056 172.839 75.622 172.84C55.9289 172.842 36.2358 172.845 16.5432 172.833C9.33568 172.829 4.33937 170.586 2.0137 167.164C-0.289577 163.775 -0.093193 159.041 3.50284 153.744C10.7292 143.102 17.6906 132.228 19.3565 119.63C20.3508 112.109 20.2216 104.528 20.0931 96.9917C20.042 93.9929 19.991 91.0012 20.011 88.0232C20.1295 70.4011 26.1713 54.6221 39.5906 41.0532C49.8046 30.7263 62.5362 23.6403 77.697 19.8664C79.4327 19.4345 80.8617 18.9962 81.8642 18.1506C82.9074 17.2705 83.4247 16.0129 83.5139 14.1219C83.6778 10.6531 85.5933 7.50556 88.5426 5.18171C91.4916 2.85809 95.4467 1.38328 99.6099 1.26291L99.5971 0.818595L99.6099 1.26291C103.601 1.14723 107.572 2.46308 110.669 4.70202C113.767 6.94176 115.956 10.0786 116.451 13.5862L116.946 13.5163L116.451 13.5862C116.68 15.2099 116.956 16.6393 117.799 17.7344C118.662 18.8558 120.048 19.5446 122.285 19.8909C124.578 20.2458 125.754 21.2353 126.398 22.5099C127.067 23.834 127.197 25.5288 127.227 27.3659C127.501 44.0592 139.205 58.0262 156.981 63.4552L157.101 63.0647L156.981 63.4553C161.19 64.7403 165.499 65.3078 169.893 65.397C172.426 65.4485 174.239 66.0322 175.533 67.0655C176.826 68.0974 177.664 69.6281 178.15 71.7001Z" fill="#313A4B" stroke="black"/>
<path d="M100.341 182.631C106.631 182.627 112.926 182.755 119.21 182.58C123.126 182.472 124.253 183.904 123.307 186.939C120.999 194.346 109.607 200.953 99.5464 200.751C89.4952 200.548 78.6737 193.942 76.5285 186.719C75.6749 183.844 76.7731 182.539 80.3599 182.601C87.0188 182.718 93.681 182.636 100.341 182.631Z" fill="#313A4B"/>
</svg>
