<svg width="18" height="18" viewBox="0 0 18 18" fill="none" xmlns="http://www.w3.org/2000/svg">
<g id="Vector">
<path d="M0 18L1.29353 13.1845C0.561349 11.8666 0.176149 10.3888 0.176149 8.88991C0.176149 3.98765 4.17451 0 9.08756 0C14.0017 0 18 3.98871 18 8.88991C18 13.7922 14.0017 17.7798 9.08756 17.7798C7.61258 17.7798 6.15564 17.4083 4.85151 16.7022L0 18ZM5.09237 14.8994L5.39799 15.0815C6.51961 15.7484 7.7951 16.1009 9.08756 16.1009C13.0732 16.1009 16.3149 12.867 16.3149 8.89097C16.3149 4.91496 13.0732 1.68102 9.08756 1.68102C5.103 1.68102 1.86017 4.91496 1.86017 8.89097C1.86017 10.2036 2.22521 11.4961 2.91706 12.6288L3.10489 12.9358L2.38331 15.6246L5.09237 14.8994Z" fill="#313A4B"/>
<path fill-rule="evenodd" clip-rule="evenodd" d="M12.4025 10.1274C12.0354 9.90825 11.5579 9.66373 11.126 9.84051C10.7949 9.97601 10.5827 10.4936 10.3683 10.7583C10.258 10.8938 10.1264 10.915 9.95767 10.8472C8.71296 10.3529 7.75901 9.52399 7.07246 8.38179C6.95573 8.20395 6.97695 8.06422 7.11702 7.90014C7.325 7.65667 7.58498 7.37932 7.64122 7.05116C7.69746 6.723 7.54253 6.33874 7.4067 6.04658C7.23268 5.6729 7.0385 5.14044 6.66286 4.92872C6.31799 4.73395 5.86383 4.84298 5.5561 5.0928C5.02553 5.52364 4.76979 6.19901 4.77722 6.86803C4.77934 7.05858 4.80269 7.24806 4.84726 7.43119C4.95444 7.87262 5.15923 8.2844 5.38843 8.67608C5.56246 8.97142 5.75029 9.25829 5.95402 9.53352C6.61935 10.4354 7.44809 11.2198 8.40629 11.8052C8.88486 12.0974 9.40164 12.3546 9.93539 12.5303C10.5349 12.7283 11.0687 12.9337 11.716 12.8109C12.393 12.6828 13.0615 12.2646 13.3299 11.6126C13.4095 11.4199 13.4499 11.205 13.4053 11.0018C13.3162 10.5815 12.7442 10.3306 12.4025 10.1274Z" fill="#313A4B"/>
</g>
</svg>
