<svg width="23" height="19" viewBox="0 0 23 19" fill="none" xmlns="http://www.w3.org/2000/svg">
<path id="Vector" d="M8.25651 16.857L8.25647 16.8569L6.29429 11.6795L1.7154 10.1672L8.25651 16.857ZM8.25651 16.857C8.26926 16.8905 8.28477 16.9221 8.30271 16.9517C8.3587 17.0727 8.45623 17.1738 8.58229 17.2347L8.58345 17.2352C8.66531 17.2735 8.75368 17.2934 8.84263 17.2934C8.97915 17.2934 9.1153 17.2467 9.22522 17.158L9.2262 17.1572L11.8199 15.0083L15.4983 17.7356L15.4983 17.7357C15.8215 17.9751 16.2092 18.1 16.6031 18.1C16.8082 18.1 17.0126 18.0659 17.2141 17.9992L17.2152 17.9989C17.7969 17.7987 18.2343 17.3297 18.3847 16.7428L18.3848 16.7427L22.0641 2.35973L22.0642 2.35955C22.1725 1.93285 22.031 1.48711 21.6961 1.19611C21.3614 0.905323 20.8932 0.821529 20.4755 0.976711M8.25651 16.857L20.4755 0.976711M20.4755 0.976711L1.67393 7.95728C1.67392 7.95728 1.67391 7.95729 1.6739 7.95729C1.19545 8.13475 0.890426 8.57466 0.900229 9.07717C0.900228 9.07714 0.900228 9.0771 0.900227 9.07706L20.4755 0.976711ZM12.4067 8.57697L7.47968 11.4691L8.38037 13.8456L8.45593 12.1984L8.45593 12.1983L8.45613 12.1983C8.46055 12.1013 8.4894 12.0075 8.53951 11.9253L12.4067 8.57697ZM12.4067 8.57697L8.67323 11.7737M12.4067 8.57697L8.67323 11.7737M8.57444 11.8744C8.59908 11.8424 8.6273 11.8127 8.65887 11.786C8.65895 11.7859 8.65903 11.7858 8.6591 11.7858L8.67323 11.7737M8.57444 11.8744L8.83137 11.7699L8.7979 11.697C8.79797 11.697 8.79803 11.6969 8.7981 11.6969M8.57444 11.8744C8.60298 11.8373 8.63611 11.8034 8.67323 11.7737M8.57444 11.8744L8.67323 11.7737M8.67323 11.7737C8.71095 11.7435 8.75278 11.7176 8.7981 11.6969M8.7981 11.6969L8.83141 11.7699L8.97539 11.6466C8.91481 11.6541 8.85497 11.6708 8.7981 11.6969ZM9.49647 15.4081L9.39242 15.4942L9.49363 13.2834L9.59045 13.3552M9.49647 15.4081L9.49029 15.543L10.9315 14.3496L10.8488 14.2882M9.49647 15.4081L9.59045 13.3552M9.49647 15.4081L10.8488 14.2882M10.8488 14.2882L10.849 14.288L9.59046 13.3549L9.59045 13.3552M10.8488 14.2882L9.59045 13.3552M9.9882 12.1904L18.1818 5.1725L9.9882 12.1904ZM9.9882 12.1904L16.2129 16.8065C16.213 16.8065 16.213 16.8065 16.213 16.8065C16.3891 16.9371 16.6094 16.9711 16.8193 16.8987C17.0291 16.8264 17.1773 16.6666 17.2307 16.4578L20.9101 2.07484L20.9102 2.07441C20.9107 2.07252 20.9109 2.07121 20.9109 2.07045L20.9109 2.07019C20.9105 2.06961 20.9096 2.06866 20.9082 2.06744L20.9064 2.06587L20.9064 2.06585C20.9037 2.06347 20.902 2.06285 20.9016 2.06274L20.9003 2.06267C20.8994 2.06272 20.897 2.06296 20.8926 2.06455L2.09199 9.04479C2.09186 9.04484 2.09173 9.04489 2.09161 9.04494C2.08721 9.04661 2.08564 9.04726 2.08395 9.04815C2.08392 9.04816 2.08389 9.04818 2.08386 9.04819C2.08366 9.04951 2.08347 9.05156 2.08351 9.05449C2.08354 9.05676 2.08369 9.05847 2.08387 9.05969C2.08521 9.06026 2.0869 9.06085 2.08995 9.06179L2.09181 9.06236L2.0918 9.06238L6.68154 10.5773L17.4877 4.23486C17.4877 4.23484 17.4877 4.23482 17.4877 4.2348C17.7502 4.08028 18.0893 4.14781 18.2709 4.38991L18.2711 4.39009C18.4536 4.63462 18.4147 4.97418 18.1821 5.17227L9.9882 12.1904ZM8.45613 12.1984C8.45544 12.2137 8.45535 12.229 8.45588 12.2444L8.45613 12.1984ZM8.54103 12.5255L8.46967 14.0812L8.54103 12.5255Z" fill="#313A4B" stroke="#313A4B" stroke-width="0.2"/>
</svg>
