<svg width="16" height="24" viewBox="0 0 16 24" fill="none" xmlns="http://www.w3.org/2000/svg">
<path id="Vector" d="M11.8248 6.32299L11.8252 6.32299L13.0008 6.32247C13.967 6.32205 14.75 5.53867 14.75 4.57247V3.03464C14.75 2.15407 14.0859 1.3873 13.169 1.32687C12.5613 1.28682 11.7336 1.25 10.8304 1.25C9.12448 1.25 7.60504 1.73596 6.50471 2.74872C5.39544 3.7697 4.79703 5.24828 4.79703 7.05649V8.87752C4.79703 9.01559 4.6851 9.12752 4.54703 9.12752H3C2.0335 9.12752 1.25 9.91102 1.25 10.8775V12.7028C1.25 13.6693 2.0335 14.4528 3 14.4528H4.54703C4.6851 14.4528 4.79703 14.5648 4.79703 14.7028V21C4.79703 21.9665 5.58053 22.75 6.54703 22.75H8.78908C9.75557 22.75 10.5391 21.9665 10.5391 21L10.5392 14.7028C10.5392 14.5648 10.6511 14.4528 10.7892 14.4528H12.4561C13.3298 14.4528 14.0697 13.8084 14.1895 12.9429L14.4423 11.1176C14.5879 10.0657 13.7707 9.12752 12.7088 9.12752H10.7891C10.651 9.12752 10.5391 9.01559 10.5391 8.87752V7.43522C10.5391 6.92115 10.6245 6.70153 10.7237 6.59177C10.8103 6.49597 11.0579 6.32299 11.8248 6.32299Z" stroke="#313A4B" stroke-width="1.5"/>
</svg>
