<svg width="21" height="17" viewBox="0 0 21 17" fill="none" xmlns="http://www.w3.org/2000/svg">
<path id="Shape" d="M2.85508 16.008C2.46937 16.037 2.08176 15.9883 1.7152 15.8648C1.34864 15.7413 1.0106 15.5455 0.721082 15.289C0.206487 14.692 -0.0499727 13.915 0.00808189 13.129V2.87498C-0.047802 2.09865 0.19269 1.33001 0.681082 0.723978C0.929951 0.47906 1.22726 0.288852 1.55393 0.165552C1.88061 0.0422511 2.22945 -0.0114205 2.57808 0.00797817H17.1671C17.5518 -0.0206901 17.9383 0.0280812 18.3038 0.151407C18.6693 0.274733 19.0064 0.470109 19.2951 0.725978C19.5508 1.01882 19.7455 1.3597 19.868 1.72869C19.9904 2.09768 20.038 2.48737 20.0081 2.87498V13.129C20.0655 13.9087 19.8254 14.6812 19.3361 15.291C19.0871 15.5368 18.7894 15.7278 18.4622 15.8516C18.135 15.9755 17.7854 16.0294 17.4361 16.01L2.85508 16.008ZM2.79708 14.582H17.2191C17.4541 14.5875 17.6877 14.5443 17.9051 14.455L12.5051 8.97598L11.9161 9.56998C11.6458 9.85705 11.3269 10.094 10.9741 10.27C10.6797 10.4098 10.358 10.4829 10.0321 10.484C9.70491 10.4826 9.38201 10.4095 9.08608 10.27C8.73304 10.0963 8.41506 9.85899 8.14808 9.56998L7.55808 8.97598L2.13508 14.47C2.34635 14.5502 2.57113 14.589 2.79708 14.584V14.582ZM1.39408 2.87498V13.129C1.39408 13.183 1.39408 13.2353 1.39408 13.286L6.59408 8.01698L1.39408 2.77998C1.39408 2.81131 1.39408 2.84298 1.39408 2.87498ZM18.6201 13.261C18.6201 13.2196 18.6201 13.1776 18.6201 13.135V2.88698C18.6201 2.85964 18.6201 2.83264 18.6201 2.80598L13.4501 8.01998L18.6201 13.261ZM8.93008 8.47698C9.09196 8.65065 9.27988 8.79808 9.48708 8.91398C9.65279 9.00341 9.83779 9.05112 10.0261 9.05298C10.2114 9.05038 10.3933 9.00267 10.5561 8.91398C10.7655 8.79739 10.9563 8.65009 11.1221 8.47698L17.9431 1.57698C17.7159 1.47302 17.4679 1.4224 17.2181 1.42898H2.79708C2.55679 1.42351 2.31811 1.46954 2.09708 1.56398L8.93008 8.47698Z" fill="#313A4B"/>
</svg>
