<svg width="253" height="253" viewBox="0 0 253 253" fill="none" xmlns="http://www.w3.org/2000/svg">
<g id="Group 10512">
<path id="Vector" d="M94.6124 49.9412C96.5832 55.8536 96.5832 66.3645 94.4482 70.963C89.6855 71.2914 80.16 66.6929 75.3973 61.6017M95.4336 49.777C99.0467 56.6748 99.7036 69.4849 96.9117 75.3972C89.5212 74.9046 78.1892 68.4995 74.2476 62.7514M86.0724 48.9558C90.0139 49.1201 95.4336 45.9997 96.7475 42.715M110.05 35.8173C107.587 40.0873 100.853 43.7004 96.5832 42.715C94.6124 39.5946 89.1928 37.4596 86.0724 38.6092M87.222 44.1931C86.7293 45.3427 84.5943 45.507 83.6089 44.1931C81.8023 41.8939 84.9227 36.8026 89.0285 39.1019C92.9701 41.2369 91.9847 46.8208 87.5504 48.7916C83.4446 50.4339 78.1892 46.1639 78.6819 41.2369C79.0104 38.9377 79.6673 36.8026 82.1308 34.6676C84.1016 32.8611 87.222 32.5326 89.5212 32.6968C91.8205 32.8611 94.4482 33.8465 98.0613 35.8173C102.988 38.6092 107.423 38.2807 110.215 35.3246C106.766 48.2989 91.9847 53.8828 82.7877 48.2989M86.0724 91.6563C79.9958 88.0431 70.4703 88.0431 65.0506 91.3278C65.2148 97.4044 70.7987 105.616 76.2184 108.901M86.2366 90.0139C78.5177 84.7585 67.1856 83.2804 59.4667 88.0431C59.7952 96.5832 68.171 106.93 74.9046 109.886M18.5729 68.9922C18.7371 71.9484 19.5583 75.7257 20.2152 76.5469M15.6167 94.6124C25.7991 73.5907 61.109 68.9922 85.2512 89.1928M22.5144 61.9302C25.1422 60.4521 28.9195 59.3025 29.9049 59.6309M86.2366 105.78C82.4592 106.766 78.5177 111.364 78.3534 114.813M68.171 125.324C69.1564 120.561 74.2476 115.306 78.5177 114.977C81.3096 117.276 86.8935 117.605 89.5212 115.634M86.4008 110.707C86.565 109.558 88.3716 108.901 89.6855 109.722C90.8351 110.379 91.3278 111.528 91.1636 112.842C90.8351 114.649 89.0285 116.455 86.4008 115.963C82.1308 115.141 81.4738 109.722 84.7585 106.601C86.565 105.123 89.0285 105.123 91.1636 106.109C92.9701 106.93 94.6124 108.736 95.1051 110.707C95.5978 112.842 95.5978 115.634 94.1197 117.933C92.3132 120.561 90.5066 121.382 88.2074 121.875C86.0724 122.368 82.9519 122.203 79.0104 121.547C73.9192 120.725 69.8134 122.532 67.6783 125.488C67.1856 112.678 79.3388 103.153 89.357 105.288M88.3716 102.167C87.3862 98.3898 89.357 92.8059 92.1489 90.8351M92.1489 90.8351C90.5066 87.0577 92.4774 79.9957 96.0905 76.7111M92.1489 90.8351C95.5978 92.1489 98.7182 96.7475 98.2256 100.032M92.6416 99.8679C91.6563 100.525 91.9847 102.496 93.2986 103.317C94.284 103.974 95.7621 103.809 96.7475 102.988C98.2255 101.839 98.8825 99.3752 97.0759 97.2401C94.1197 93.9555 89.1928 96.0905 88.2074 100.525C87.5505 104.795 92.4774 108.408 97.0759 107.258C99.2109 106.601 101.51 105.288 102.824 102.66C104.138 99.8679 103.809 97.7328 103.317 95.5978C102.824 93.4628 101.017 91.1635 98.554 88.0431C95.2694 83.9373 94.9409 79.6673 96.419 76.2184C85.087 82.1308 82.9519 97.4044 89.8497 104.959M211.71 175.907L160.634 146.51M217.951 174.265C213.024 157.678 201.199 146.181 182.969 138.791C182.805 138.791 181.82 138.298 181.656 138.298M164.247 168.845C164.411 169.01 165.068 169.502 165.068 169.667C182.148 183.134 200.05 187.075 218.936 180.506C224.684 179.028 231.09 182.805 233.389 188.718C227.312 189.703 221.071 185.926 219.429 180.342M243.407 155.214C245.049 148.809 245.378 142.568 244.064 137.806M244.064 137.806C243.243 137.477 238.48 134.192 234.703 131.236M244.064 137.806C245.378 136.656 247.677 133.371 248.498 131.565M220.086 177.057C224.028 176.072 229.94 176.072 232.075 176.564C236.181 172.623 239.63 166.546 241.929 160.141M244.064 160.634C241.436 169.667 237.659 178.207 233.881 184.119M233.881 184.119C231.418 179.521 226.491 176.729 220.743 177.221C219.101 177.386 217.458 177.878 215.652 178.371M233.881 184.119C233.717 181.163 232.896 177.386 232.239 176.564M240.943 154.557C242.586 147.331 241.765 138.791 234.374 130.744C238.644 133.207 245.378 133.7 248.662 131.072C248.991 137.313 247.841 146.346 245.542 155.378M165.397 166.218C165.561 166.382 166.382 167.039 166.71 167.203C183.626 180.67 203.334 182.477 218.279 177.55C228.298 174.101 236.181 167.696 239.63 159.32M194.958 223.042C194.63 224.849 192.988 228.298 191.674 230.104M214.666 211.71C221.071 204.812 226.655 197.422 229.94 191.181C224.028 191.345 218.444 187.404 216.473 181.163C216.473 181.327 216.473 181.491 216.473 181.491C218.279 191.674 216.637 201.363 211.217 208.261M207.933 212.039C202.513 217.13 194.63 220.579 183.955 218.279C188.225 220.743 192.002 226.327 191.345 230.433C196.929 227.641 204.155 222.057 210.725 215.487M180.013 140.762C180.342 140.926 181.491 141.254 181.656 141.419C199.228 148.481 210.232 161.619 214.83 175.25M206.126 209.904C196.601 219.593 180.342 216.966 173.772 208.425M216.473 213.188L208.754 206.29C207.933 207.604 206.947 208.59 205.798 209.411L212.367 216.966M196.436 185.926C191.51 185.926 185.104 190.031 183.791 194.137M183.791 194.137C185.597 197.422 184.612 203.334 181.984 205.469M183.791 194.137C180.342 193.645 174.922 196.765 173.115 200.214M178.042 201.528C176.729 201.363 175.579 203.17 176.4 204.812C177.55 207.604 183.134 207.276 183.298 202.513C183.298 198.079 178.207 195.944 174.265 198.9C170.816 201.692 171.966 208.261 176.236 210.396C181.491 212.695 186.583 210.068 189.046 205.305C190.031 203.334 190.524 200.542 190.688 196.272C190.688 190.524 193.152 186.911 197.093 185.926C184.119 182.477 172.13 192.495 172.294 203.17M211.874 176.072C207.276 162.769 195.944 150.123 179.849 144.046C179.685 143.882 178.207 143.554 178.042 143.389M209.247 206.455C214.009 199.557 215.159 190.853 213.517 182.148M246.527 161.455L236.509 158.17C237.166 156.856 237.495 155.543 237.823 154.065L248.005 156.2M209.575 213.845C204.812 218.444 199.557 221.892 194.794 223.042C194.137 222.385 188.882 220.086 184.448 218.279M216.966 182.805C217.787 186.418 221.071 191.838 222.385 193.48C221.071 199.064 217.622 204.977 213.024 210.232M238.152 154.229C241.929 141.09 230.925 129.101 220.414 127.787M155.378 177.714L172.951 207.769M166.053 203.334C165.232 201.528 165.232 198.243 166.382 196.272C168.517 196.108 171.309 197.258 172.951 198.243M164.411 202.842C163.097 200.214 162.769 194.794 163.754 191.674C166.875 192.331 171.802 194.794 173.444 196.765M157.842 203.17C155.871 197.258 155.871 186.747 158.006 182.148C162.769 181.82 172.294 186.418 177.057 191.51M157.021 203.334C153.408 196.436 152.751 183.626 155.543 177.714C162.933 178.207 174.265 184.612 178.207 190.36M166.218 203.991C162.276 203.827 156.856 206.947 155.543 210.232M142.404 217.294C144.868 213.024 151.601 209.411 155.871 210.396C157.842 213.517 163.262 215.652 166.382 214.502M165.068 208.918C165.561 207.768 167.696 207.604 168.681 208.918C170.488 211.217 167.367 216.309 163.262 214.009C159.32 211.874 160.305 206.29 164.74 204.32C168.845 202.677 174.101 206.947 173.608 211.874C173.28 214.174 172.13 216.637 169.995 218.444C168.024 219.922 165.232 220.579 162.933 220.414C160.634 220.25 158.006 219.265 154.393 217.294C149.466 214.502 145.032 214.83 142.24 217.787C145.689 204.812 160.47 199.228 169.667 204.812M166.218 161.455C172.294 165.068 181.82 165.068 187.239 161.783C187.075 155.707 181.491 147.495 176.072 144.211M166.218 163.097C173.937 168.353 185.269 169.831 192.988 165.068C192.659 156.528 184.283 146.181 177.55 143.225M236.838 158.499C226.655 179.356 191.345 184.119 167.203 163.918M229.94 191.017C227.312 192.495 223.535 193.645 222.549 193.316M166.053 147.167C169.831 146.181 173.772 141.583 173.937 138.134M173.937 138.134C178.207 137.806 183.298 132.55 184.283 127.787M173.937 138.134C171.145 135.835 165.561 135.506 162.933 137.477M165.889 142.404C165.725 143.554 163.918 144.211 162.605 143.389C161.455 142.733 160.962 141.583 161.127 140.269C161.455 138.298 163.262 136.656 165.889 137.149C170.159 137.97 170.816 143.389 167.532 146.51C165.725 147.988 163.262 147.988 161.127 147.003C159.32 146.181 157.678 144.375 157.185 142.404C156.692 140.269 156.692 137.477 158.17 135.178C159.977 132.55 161.783 131.729 164.083 131.236C166.218 130.744 169.338 130.908 173.28 131.565C178.371 132.386 182.477 130.579 184.612 127.623C185.104 140.433 172.951 149.959 162.933 147.824M164.083 150.944C165.068 154.721 163.097 160.305 160.305 162.276M160.305 162.276C161.948 166.053 159.977 173.115 156.364 176.4M160.305 162.276C156.856 160.962 153.736 156.364 154.229 153.079M159.813 153.079C160.798 152.422 160.47 150.451 159.156 149.63C158.17 148.973 156.692 149.138 155.707 149.959C154.229 151.108 153.572 153.572 155.378 155.707C158.335 158.992 163.262 156.856 164.247 152.422C164.904 148.152 159.977 144.539 155.378 145.689C153.243 146.346 150.944 147.659 149.63 150.287C148.316 153.079 148.645 155.214 149.138 157.349C149.63 159.484 151.437 161.783 153.9 164.904C157.185 169.01 157.513 173.28 156.035 176.729C167.367 170.816 169.502 155.543 162.605 147.988M91.492 146.181L40.2515 175.25C54.047 178.042 70.7988 174.758 84.1016 163.918C84.2658 163.754 85.4154 162.769 85.5797 162.605M38.6092 181.491C55.3609 185.597 71.4557 181.327 86.8935 169.338C87.0577 169.174 87.8789 168.517 88.0431 168.353M70.4703 137.806C70.3061 137.806 69.4849 138.134 69.3207 138.134C49.1201 146.017 36.4742 159.484 32.6968 179.028C31.0545 184.612 24.6495 188.389 18.4086 187.404C20.7079 181.656 27.1129 178.207 32.6968 179.521M42.0581 213.024C46.6566 217.622 52.0763 221.236 56.839 222.385M56.839 222.385C57.4959 221.728 62.7514 219.429 67.1856 217.622M56.839 222.385C57.1675 224.192 58.8098 227.641 59.9594 229.447M34.9961 181.82C33.8465 185.761 30.8903 190.853 29.4122 192.331C30.7261 197.915 34.1749 203.991 38.6092 209.247M37.1311 210.889C30.7261 203.991 25.3064 196.436 22.0217 190.196M22.0217 190.196C27.2772 190.36 32.0399 187.404 34.6676 182.312C35.4888 180.834 35.8173 179.192 36.31 177.221M22.0217 190.196C24.6495 191.674 28.4268 192.823 29.4122 192.659M43.8647 211.217C49.2843 216.309 57.0032 219.922 67.6783 217.622C63.4083 220.086 59.6309 225.67 60.1236 229.776C54.5397 226.819 47.4778 221.236 40.7442 214.666M72.1126 140.269C71.7841 140.433 70.963 140.762 70.6345 140.926C50.4339 148.809 38.9377 164.74 35.653 180.177C33.518 190.524 35.1603 200.707 40.58 207.769M8.22623 136.82C6.91237 135.671 4.61312 132.386 3.79196 130.415M8.062 159.648C10.6897 168.681 14.3028 177.221 18.0802 183.134M18.0802 183.134C20.8721 178.042 27.1129 175.086 33.518 176.564M18.0802 183.134C18.2444 180.177 19.0656 176.4 19.8867 175.579M11.0182 153.736C9.37586 146.346 10.3613 137.97 17.7517 129.922C13.4817 132.386 6.74813 132.714 3.46349 130.251C3.13502 136.492 4.28465 145.524 6.41967 154.557M33.3538 176.564C33.1895 176.564 33.0253 176.4 33.0253 176.4C23.3356 172.951 15.7809 166.382 12.6605 158.335M86.7293 165.725C86.5651 165.889 85.5797 166.71 85.2512 166.875C70.3061 178.535 53.2259 181.327 39.2661 178.371M13.8101 153.243C10.197 140.105 20.8721 127.459 31.5472 125.981M5.76274 160.47L15.4525 157.349C14.7955 156.035 14.4671 154.721 14.3028 153.243L4.44889 155.05M39.4304 156.856C42.0581 152.586 41.7296 145.032 38.7734 141.747C34.9961 141.583 30.3976 137.806 29.9049 134.357M35.3246 133.207C36.1457 132.222 35.1603 130.251 33.3538 130.087C30.3976 129.594 27.7699 134.685 31.8757 137.149C35.653 139.448 40.0873 136.163 39.5946 131.072C38.9377 126.802 32.6968 124.338 28.7553 126.966C24.1568 130.415 23.6641 135.999 26.6203 140.597C27.9341 142.568 30.0691 144.211 33.518 146.51C38.445 149.466 40.4158 153.408 39.1019 157.185C48.6274 147.824 46.1639 132.222 36.8027 127.13M15.124 157.513C18.7371 165.068 25.6349 170.488 34.0107 173.444M34.9961 212.531L42.8792 205.469C43.7004 206.783 44.5216 207.769 45.8354 208.59L38.7734 216.309M8.5547 154.229C7.07661 147.824 6.74814 141.583 8.062 136.82C8.88316 136.492 13.6459 133.207 17.4232 130.251M31.7115 176.236C28.0983 175.086 21.8575 175.086 19.7225 175.579C15.6167 171.637 12.1678 165.561 10.0328 158.992M38.9377 129.594C41.0727 133.043 40.9085 139.119 38.7734 141.911M45.6712 209.082C55.0324 218.936 71.9484 216.473 78.6819 207.933M67.1856 125.817H32.2041M39.7588 121.875C41.7296 122.203 44.5216 123.846 45.8354 125.817C44.85 127.787 42.5508 129.43 40.9085 130.415M41.0727 120.725C44.0289 120.89 48.9558 123.353 50.9266 125.817C48.6274 128.28 44.0289 131.236 41.5654 131.729M44.1931 114.977C50.2697 116.291 59.3025 121.711 62.2587 125.817C60.1236 130.087 51.2551 135.999 44.6858 137.477M44.5216 114.156C52.2405 114.649 63.7368 120.397 67.3499 125.817C63.2441 131.893 51.912 138.462 44.85 138.955M39.1019 121.711C41.2369 118.426 41.2369 112.185 39.1019 109.393M39.7588 94.4482C42.2223 98.7182 41.8939 106.273 38.9377 109.558C35.1603 109.722 30.7261 113.171 30.0691 116.62M35.4888 118.426C36.31 119.412 35.3246 121.382 33.6822 121.547C30.7261 121.875 27.9341 116.62 32.0399 114.156C35.9815 111.857 40.0873 115.47 39.5946 120.233C38.9377 124.667 32.6968 126.966 28.591 124.174C26.7845 122.86 25.3064 120.397 24.8137 117.769C24.4852 115.306 25.4706 112.514 26.6203 110.543C27.7699 108.572 30.0691 106.93 33.6822 104.795C38.6092 101.839 40.58 98.0613 39.4304 94.1197C48.7916 103.645 46.1639 119.247 36.8027 124.338M75.7257 143.389C69.4849 146.838 64.7222 155.05 64.7222 161.291C70.1418 164.247 79.8315 163.59 85.5797 160.634M74.4119 142.568C65.8718 146.51 58.974 155.707 59.1382 164.575C66.6929 168.517 79.8315 166.546 85.9081 162.276M42.5508 205.798C29.7407 186.418 43.3719 153.572 73.2622 143.061M88.2074 150.451C87.222 154.229 89.1928 159.977 91.9847 161.948M91.9847 161.948C90.3424 165.725 92.149 172.787 95.7621 176.072M91.9847 161.948C95.4336 160.634 98.554 156.035 98.2256 152.751M92.4774 152.751C91.492 152.094 91.8205 150.123 93.2986 149.466C94.284 148.809 95.7621 148.973 96.7475 149.794C98.2255 150.944 98.8825 153.408 97.0759 155.543C94.1197 158.827 89.1928 156.692 88.2074 152.094C87.8789 149.794 89.1928 147.659 90.9993 146.346C92.6416 145.196 94.9409 144.703 97.0759 145.36C99.2109 146.017 101.51 147.331 102.824 149.959C104.138 152.751 103.974 154.886 103.317 157.021C102.66 159.156 100.853 161.619 98.3898 164.74C95.1051 168.845 94.6124 173.115 96.0905 176.564C84.7585 170.652 82.7877 155.214 89.6855 147.659M85.9081 146.674C82.1308 145.524 78.3534 141.09 78.025 137.641M68.0068 127.295C68.9922 132.057 74.0834 137.313 78.1892 137.806C80.9811 135.506 86.5651 135.178 89.1928 137.313M86.2366 141.911C86.4008 143.061 88.2074 143.882 89.5212 143.061C90.6709 142.404 91.1636 141.09 90.9993 139.776C90.6709 137.806 88.8643 135.999 86.2366 136.492C81.9665 137.313 81.3096 142.733 84.5943 145.853C87.8789 148.481 93.627 146.181 94.9409 141.747C95.4336 139.612 95.4336 136.82 93.9555 134.521C92.149 131.893 90.1782 131.072 88.0431 130.415C85.9081 129.758 82.9519 130.087 79.0104 130.744C73.7549 131.565 69.8134 129.594 67.6783 126.638C67.0214 139.448 79.1746 148.973 89.1928 146.838M212.039 77.8607L160.798 106.93M213.845 71.6199C197.093 67.5141 180.999 71.7841 165.561 83.7731C165.397 83.9373 164.575 84.5943 164.411 84.7585M181.984 115.306C182.148 115.306 182.969 114.977 183.134 114.977C203.334 107.094 215.98 93.627 219.757 74.0834C221.4 68.4995 227.805 64.7221 234.046 65.7075C231.746 71.4557 225.341 74.9045 219.757 73.5907M210.232 39.9231C205.634 35.3246 200.214 31.7114 195.451 30.5618C194.794 31.2187 189.539 33.518 185.104 35.3246M217.294 71.1272C218.444 67.1856 221.4 62.0944 222.878 60.6163C221.564 55.0324 218.115 48.9558 213.681 43.7004M215.323 42.2223C221.728 49.1201 227.148 56.6748 230.433 62.9156C225.177 62.7513 220.414 65.7075 217.787 70.7987C216.966 72.2768 216.637 73.9191 216.144 75.8899M208.59 41.8938C203.17 36.8026 195.451 33.1895 184.776 35.4888C189.046 33.0253 192.823 27.4414 192.331 23.3356C197.915 26.2918 204.977 31.8757 211.71 38.445M180.342 112.842C180.67 112.678 181.491 112.35 181.82 112.185C202.02 104.302 213.517 88.3716 216.801 72.9338C218.936 62.5871 217.294 52.4047 211.874 45.3427M244.228 116.291C245.542 117.441 247.841 120.725 248.662 122.696M244.228 116.291C245.542 111.528 245.213 105.288 243.735 98.8825M244.228 116.291C243.407 116.62 238.644 119.904 234.867 122.86M244.392 93.4628C241.765 84.43 238.152 75.8899 234.374 69.9776C231.582 75.0688 225.341 78.025 218.936 76.5469M241.436 99.3752C243.078 106.766 242.093 115.141 234.703 123.189C238.973 120.725 245.706 120.397 248.991 122.86C249.319 116.62 248.17 107.587 246.035 98.554M219.101 76.3826C219.265 76.3826 219.429 76.5469 219.429 76.5469C229.119 79.9957 236.673 86.565 239.794 94.6124M165.725 87.3862C165.889 87.222 166.875 86.4008 167.203 86.2366C182.148 74.5761 199.228 71.7841 213.188 74.7403M238.644 99.8679C242.257 113.006 231.582 125.652 220.907 127.13M246.692 92.6416L237.002 95.7621C237.659 97.0759 237.987 98.3898 238.152 99.8679L248.005 98.0613M213.024 96.0905C210.396 100.361 210.725 107.915 213.681 111.2C217.458 111.364 222.057 115.141 222.549 118.59M217.13 119.904C216.309 120.89 217.294 122.86 219.101 123.025C222.057 123.517 224.684 118.426 220.579 115.963C216.801 113.663 212.367 116.948 212.86 122.039C213.517 126.309 219.757 128.773 223.699 126.145C228.298 122.696 228.79 117.112 225.834 112.514C224.52 110.543 222.385 108.901 218.936 106.601C214.009 103.645 212.039 99.7036 213.352 95.9263C203.827 105.288 206.29 120.89 215.652 125.981M212.203 77.8607C198.407 75.0688 181.656 78.3534 168.353 89.1928C168.189 89.357 167.039 90.3424 166.875 90.5066M237.166 95.5978C233.553 88.0431 226.655 82.6235 218.279 79.6673M217.458 40.4158L209.575 47.4778C208.754 46.1639 207.933 45.1785 206.619 44.3573L213.681 36.6384M220.743 76.7111C224.356 77.8607 230.597 77.8607 232.732 77.368C236.838 81.3096 240.287 87.3862 242.422 93.9555M213.352 123.517C211.217 120.068 211.382 113.992 213.517 111.2M195.615 30.7261C195.287 28.9195 193.645 25.4706 192.495 23.6641M206.783 44.0289C197.422 34.1749 180.67 36.3099 174.101 44.85M185.104 127.295H220.086M185.104 127.295C188.882 132.714 200.214 138.462 207.933 138.955M185.104 127.295C189.21 121.218 200.542 114.649 207.604 114.156M212.695 131.072C210.725 130.744 207.933 129.101 206.619 127.13C207.604 125.16 209.904 123.517 211.546 122.532M211.382 132.222C208.425 132.057 203.498 129.594 201.528 127.13C203.827 124.667 208.425 121.711 210.889 121.218M208.261 138.134C202.185 136.82 193.152 131.4 190.196 127.295C192.331 123.025 201.199 117.112 207.769 115.634M213.352 131.236C211.217 134.521 211.217 140.762 213.352 143.554M213.352 143.554C210.396 146.838 210.068 154.393 212.531 158.663M213.352 143.554C217.13 143.389 221.564 139.941 222.221 136.492M216.801 134.685C215.98 133.7 216.966 131.729 218.608 131.565C221.564 131.236 224.356 136.492 220.25 138.955C216.309 141.254 212.203 137.641 212.695 132.879C213.352 128.444 219.593 126.145 223.699 128.937C225.506 130.251 226.984 132.714 227.476 135.342C227.805 137.806 226.819 140.597 225.67 142.568C224.356 144.539 222.221 146.181 218.608 148.316C213.681 151.273 211.71 155.05 212.86 158.992C203.498 149.466 206.126 133.864 215.487 128.773M176.564 109.722C182.805 106.273 187.568 98.0613 187.568 91.8205C182.148 88.8643 172.459 89.5212 166.71 92.4774M178.042 110.543C186.583 106.601 193.48 97.4044 193.316 88.5358C185.761 84.5943 172.623 86.565 166.546 90.8351M230.268 62.9156C227.641 61.4375 223.863 60.2879 222.878 60.4521M209.739 47.3135C222.549 66.6929 208.918 99.5394 179.028 110.05M234.374 69.8133C234.21 72.7695 233.389 76.5469 232.568 77.368M164.247 102.66C165.232 98.8825 163.262 93.1343 160.47 91.1635M160.47 91.1635C162.112 87.3862 160.305 80.3242 156.692 77.0396M160.47 91.1635C157.021 92.4774 153.9 97.0759 154.229 100.361M159.977 100.361C160.962 101.017 160.634 102.988 159.156 103.809C158.006 104.466 156.692 104.302 155.707 103.481C154.229 102.331 153.572 99.7036 155.378 97.7328C158.335 94.4482 163.262 96.5832 164.247 101.182C164.575 103.481 163.262 105.616 161.455 106.93C159.813 108.079 157.513 108.572 155.378 107.915C153.243 107.258 150.944 105.944 149.63 103.317C148.316 100.525 148.481 98.3898 149.138 96.2547C149.794 94.1197 151.601 91.6562 154.065 88.5358C157.349 84.43 157.842 80.16 156.364 76.7111C167.696 82.6235 169.667 98.0613 162.769 105.616M166.382 106.273C170.159 107.423 173.937 111.857 174.265 115.306M174.265 115.306C178.371 115.798 183.462 121.054 184.448 125.817M174.265 115.306C171.473 117.605 165.889 117.933 163.262 115.798M166.053 111.036C165.889 109.886 164.083 109.065 162.769 109.886C161.619 110.543 161.127 111.857 161.291 113.171C161.619 115.141 163.426 116.948 166.053 116.455C170.324 115.634 170.98 110.214 167.696 107.094C164.411 104.466 158.663 106.766 157.349 111.2C156.856 113.335 156.856 116.127 158.335 118.426C160.141 121.054 162.112 121.875 164.247 122.532C166.382 123.189 169.338 122.86 173.28 122.203C178.371 121.382 182.477 123.353 184.612 126.309C185.269 113.499 173.115 103.974 163.097 106.109M126.145 225.177V166.218M130.579 229.94C142.404 217.458 146.674 201.363 143.882 181.984C143.882 181.82 143.718 180.67 143.718 180.506M108.408 180.506C108.408 180.67 108.244 181.491 108.244 181.656C105.123 203.17 110.543 220.743 125.652 233.717C129.758 237.823 129.758 245.378 125.817 250.305C121.875 245.542 122.039 238.151 125.981 234.046M159.813 242.422C166.053 240.615 171.802 237.823 175.251 234.21M175.251 234.21C175.086 233.225 175.579 227.641 176.236 222.878M175.251 234.21C176.893 234.703 180.834 235.195 182.969 234.867M129.265 233.06C132.222 236.016 135.014 241.108 135.671 243.078C141.09 244.721 148.152 244.721 154.886 243.407M155.378 245.706C146.181 247.841 136.984 248.827 129.922 248.662C132.714 244.228 132.55 238.48 129.43 233.881C128.444 232.568 127.295 231.254 125.817 229.94M159.156 239.958C166.382 237.823 173.28 232.732 176.564 222.385C176.564 227.312 179.521 233.389 183.298 234.867C178.042 238.316 169.667 241.765 160.634 244.228M111.364 180.342C111.364 180.67 111.2 181.656 111.2 181.984C108.079 203.334 116.127 221.4 127.952 231.746C135.835 238.808 145.524 242.422 154.393 241.108M76.8753 234.21C75.233 234.703 71.2914 235.195 69.1564 234.867M96.5832 245.706C105.616 247.841 114.977 248.991 122.039 248.662M122.039 248.662C118.919 243.735 119.576 236.838 124.01 232.075M122.039 248.662C119.576 247.02 116.62 244.392 116.291 243.407M92.9701 240.122C85.7439 237.987 78.8461 232.896 75.7257 222.385C75.7257 227.312 72.7695 233.389 68.9922 234.867C74.2476 238.316 82.6235 241.765 91.6563 244.228M123.846 232.075C123.682 232.239 123.682 232.239 123.517 232.403C115.634 239.137 106.273 242.421 97.7328 241.272M140.762 180.177C140.762 180.506 140.926 181.656 141.09 181.984C143.718 200.707 137.806 216.966 128.28 227.641M93.9555 237.495C80.8169 234.21 74.9046 218.608 79.0104 208.754M96.0905 248.005L98.2256 237.987C96.7475 237.987 95.4336 237.659 93.9555 237.002L90.6709 246.527M109.722 216.966C107.258 212.695 100.525 209.247 96.2548 210.068C94.284 213.188 88.7001 215.323 85.4154 214.174M87.0577 208.754C86.5651 207.604 84.43 207.44 83.4446 208.918C81.6381 211.217 84.5943 215.98 88.8643 213.845C92.8059 211.71 91.9847 206.126 87.3862 204.155C83.2804 202.677 78.1892 206.783 78.5177 211.71C79.1746 217.458 83.9373 220.579 89.357 220.25C91.6563 220.086 94.284 219.101 97.8971 217.13C102.824 214.338 107.258 214.666 110.05 217.622C106.601 204.648 91.8205 199.228 82.7877 204.648M125.981 225.341C135.178 214.666 140.597 198.571 137.806 181.491C137.806 181.327 137.477 179.849 137.477 179.521M98.2256 238.316C106.601 238.973 114.649 235.688 121.547 229.776M155.871 248.334L153.736 237.987C155.214 237.987 156.528 237.659 158.006 237.002L161.291 246.856M92.1489 242.422C85.9081 240.615 80.16 237.823 76.7111 234.21C76.8753 233.225 76.3826 227.641 75.7257 222.878M122.696 233.224C119.904 235.688 116.784 241.272 116.127 243.243C110.707 244.885 103.645 244.885 96.9117 243.571M85.7439 203.827C89.6855 203.663 95.1051 206.783 96.419 210.068M158.17 237.33C171.309 234.046 177.221 218.608 173.115 208.59M96.419 177.386L79.1746 207.769M96.419 177.386C90.0139 178.042 79.3388 184.94 75.0688 191.51M96.419 177.386C99.7036 183.955 99.8679 197.093 96.7475 203.334M79.5031 199.393C80.6527 197.915 83.6089 196.272 85.9081 196.108C87.0578 197.915 87.3862 200.871 87.5504 202.677M79.0104 197.75C80.4885 195.287 85.2512 192.166 88.2074 191.674C89.1928 194.794 89.5212 200.214 88.7001 202.677M75.5615 192.166C79.6673 187.404 88.8643 182.312 93.9555 181.82C96.5832 185.761 97.4044 196.436 95.4336 202.842M79.0104 199.885C77.2038 196.436 71.7841 193.316 68.3353 193.809M55.6894 185.761C60.6163 185.761 67.0214 189.867 68.3353 193.973C66.5287 197.258 67.5141 203.006 69.9776 205.141M74.2476 201.363C75.5615 201.199 76.7111 203.006 76.0542 204.484C74.9046 207.276 68.9922 207.112 68.828 202.349C68.828 197.915 74.0834 196.108 77.8607 198.736C81.4739 201.528 80.3242 208.097 75.89 210.232C73.7549 211.053 70.963 211.382 68.3353 210.232C66.036 209.411 64.0652 207.112 63.0798 205.141C62.0944 203.17 61.6017 200.378 61.4375 196.108C61.4375 190.36 58.974 186.747 55.0324 185.761C68.0068 182.313 80.16 192.331 79.9958 203.006M115.963 178.699C115.798 185.926 120.725 193.973 126.145 197.093C131.4 193.973 135.671 185.104 135.835 178.699M114.485 179.521C113.828 188.882 118.262 199.393 126.145 203.663C133.371 199.064 138.134 186.583 137.313 179.356M130.087 248.498C132.55 246.856 135.506 244.228 135.835 243.243M153.736 238.316C130.579 239.958 108.901 211.71 114.32 180.67M128.116 171.473C130.908 174.101 136.82 175.251 139.941 173.772M139.941 173.772C142.404 177.221 149.466 179.028 154.065 177.55M139.941 173.772C140.597 170.159 137.97 165.068 135.014 163.918M132.222 168.845C131.072 169.338 129.594 168.024 129.758 166.382C129.758 165.068 130.579 163.918 131.729 163.59C133.536 162.933 135.999 163.59 136.82 166.218C138.298 170.324 133.864 173.608 129.594 172.294C127.459 171.473 126.145 169.338 125.981 167.039C125.817 164.904 126.474 162.769 128.116 161.291C129.758 159.813 132.057 158.335 134.849 158.663C137.97 158.827 139.612 160.141 141.254 161.783C142.733 163.426 144.046 166.218 145.524 169.995C147.331 174.922 150.944 177.386 154.557 177.714C143.718 184.612 129.43 178.699 126.309 169.01M123.846 171.473C121.054 174.101 115.141 175.415 112.021 173.772M98.0613 177.55C102.66 179.028 109.722 177.221 112.185 173.772C111.528 170.159 113.992 165.232 117.112 163.918M119.904 168.845C121.054 169.338 122.532 168.024 122.532 166.546C122.532 165.397 121.711 164.247 120.397 163.754C118.59 163.097 116.127 163.754 115.306 166.382C113.828 170.488 118.262 173.772 122.532 172.459C126.474 170.98 127.295 164.904 124.01 161.455C122.368 159.977 120.068 158.663 117.276 158.827C114.156 158.991 112.514 160.305 110.871 161.948C109.229 163.426 108.079 166.218 106.766 169.995C104.959 174.922 101.346 177.386 97.5686 177.714C108.244 184.612 122.696 178.864 125.817 169.01M126.309 27.7699V86.7293M121.711 23.1714C109.886 35.653 105.616 51.7478 108.408 71.1272C108.408 71.2914 108.572 72.4411 108.572 72.6053M143.882 72.4411C143.882 72.2768 144.046 71.4557 144.046 71.2914C147.167 49.777 141.747 32.2041 126.638 19.2298C122.532 15.124 122.532 7.56929 126.474 2.64232C130.415 7.40506 130.251 14.7955 126.309 18.9013M92.4774 10.6897C86.2366 12.4963 80.4885 15.2882 77.0396 18.9013C77.2038 19.8867 76.7111 25.4706 76.0542 30.2334M123.189 19.8867C120.233 16.9305 117.441 11.8393 116.784 9.86854C111.364 8.22622 104.302 8.22622 97.5686 9.54008M96.9117 7.40506C105.944 5.27004 115.306 4.28465 122.368 4.44888C119.576 8.88315 119.74 14.6313 122.86 19.2298C123.846 20.5436 124.995 21.8575 126.474 23.1714M93.2986 12.989C86.0724 15.124 79.1746 20.2152 75.89 30.5618C75.89 25.6348 72.9338 19.5583 69.1564 18.0802C74.4119 14.6313 82.7877 11.1824 91.8205 8.71892M141.09 72.7695C141.09 72.4411 141.254 71.4557 141.254 71.1272C144.375 49.777 136.327 31.7114 124.503 21.3648C116.62 14.3028 106.93 10.6897 98.0613 12.0036M175.579 18.9013C177.221 18.4086 181.163 17.9159 183.298 18.2444M155.871 7.40506C146.838 5.27004 137.477 4.12041 130.415 4.44888M130.415 4.44888C133.536 9.37585 132.879 16.2736 128.444 21.0363M130.415 4.44888C132.879 6.0912 135.835 8.71892 136.163 9.70431M159.484 12.989C166.71 15.124 173.608 20.2152 176.729 30.5618C176.729 25.6348 179.685 19.5583 183.462 18.0802C178.207 14.6313 169.831 11.1824 160.798 8.71892M128.609 21.0363C128.773 20.8721 128.773 20.8721 128.937 20.7079C136.82 13.9744 146.181 10.6897 154.721 11.8393M111.693 72.7695C111.693 72.4411 111.528 71.2914 111.364 70.963C108.736 52.2405 114.649 35.9815 124.174 25.3064M158.499 15.6167C171.637 18.9013 177.55 34.5034 173.444 44.3573M156.2 4.94158L154.065 14.9597C155.543 14.9597 156.856 15.2882 158.335 15.9451L161.619 6.41967M142.733 35.9815C145.196 40.2515 151.93 43.7004 156.2 42.8792C158.17 39.7588 163.754 37.6238 167.039 38.7734M165.397 44.1931C165.889 45.3427 168.024 45.507 169.01 44.0289C170.816 41.7296 167.86 36.9669 163.59 39.1019C159.648 41.2369 160.47 46.8208 165.068 48.7916C169.174 50.2697 174.265 46.1639 173.937 41.2369C173.28 35.4888 168.517 32.3684 163.097 32.6968C160.798 32.8611 158.17 33.8465 154.557 35.8173C149.63 38.6092 145.196 38.2807 142.404 35.3246C145.853 48.2989 160.634 53.7186 169.667 48.2989M126.474 27.6056C117.277 38.2807 111.857 54.3755 114.649 71.4557C114.649 71.6199 114.977 73.098 114.977 73.4265M154.065 14.6313C145.689 13.9744 137.641 17.259 130.744 23.1714M96.419 4.77734L98.554 15.124C97.0759 15.124 95.7621 15.4524 94.284 16.1094L90.9993 6.25543M160.305 10.6897C166.546 12.4963 172.294 15.2882 175.743 18.9013C175.579 19.8867 176.072 25.4706 176.729 30.2334M129.594 19.8867C132.386 17.4232 135.506 11.8393 136.163 9.86854C141.583 8.22622 148.645 8.22622 155.378 9.54008M166.71 49.2843C162.769 49.4485 157.349 46.3281 156.035 43.0435M77.2038 18.7371C75.5615 18.2444 71.6199 17.7517 69.4849 18.0802M94.284 15.6167C81.1454 18.9013 75.233 34.3392 79.3388 44.3573M156.035 75.7257L173.28 45.3427M156.035 75.7257C162.44 75.0688 173.116 68.171 177.386 61.6017M156.035 75.7257C152.751 69.1564 152.586 56.0178 155.707 49.777M172.951 53.5543C171.802 55.0324 168.845 56.6748 166.546 56.839C165.397 55.0324 165.068 52.0763 164.904 50.2697M173.28 55.3609C171.802 57.8244 167.039 60.9448 164.083 61.4375C163.097 58.3171 162.769 52.8974 163.59 50.4339M176.893 60.9448C172.787 65.7075 163.59 70.7987 158.499 71.2914C155.871 67.3499 155.05 56.6748 157.021 50.2697M173.444 53.0616C175.251 56.5105 180.67 59.6309 184.119 59.1382M184.119 59.1382C185.433 63.2441 191.838 67.3499 196.765 67.3499M184.119 59.1382C185.926 55.8536 184.94 50.1055 182.477 47.9704M178.207 51.7478C176.893 51.912 175.743 50.1055 176.4 48.6274C177.55 45.8354 183.462 45.9997 183.626 50.7624C183.626 55.1967 178.371 57.0032 174.594 54.3755C170.98 51.5836 172.13 45.0143 176.564 42.8792C178.699 42.0581 181.491 41.7296 184.119 42.8792C186.418 43.7004 188.389 45.9997 189.374 47.9704C190.36 49.9412 190.853 52.7332 191.017 57.0032C191.017 62.7514 193.48 66.3645 197.422 67.3499C184.448 70.7987 172.294 60.7806 172.459 50.1055M136.492 74.4118C136.656 67.1856 131.729 59.1382 126.309 56.0178C121.054 59.1382 116.784 68.0068 116.62 74.4118M137.97 73.5907C138.627 64.2294 134.192 53.7186 126.309 49.4485C119.083 54.047 114.32 66.5287 115.141 73.7549M122.368 4.61311C119.904 6.25543 116.948 8.88315 116.62 9.86854M98.7182 14.6313C121.875 12.989 143.554 41.2369 138.134 72.2768M124.174 81.6381C121.382 79.0104 115.47 77.8607 112.35 79.3388M112.35 79.3388C109.886 75.8899 102.824 74.0834 98.2256 75.5615M112.35 79.3388C111.693 82.9519 114.32 88.0431 117.276 89.1928M120.068 84.2658C121.218 83.7731 122.696 85.087 122.532 86.7293C122.532 88.0431 121.711 89.1928 120.561 89.5212C118.755 90.1782 116.291 89.5212 115.47 86.8935C113.992 82.7877 118.426 79.503 122.696 80.8169C124.831 81.6381 126.145 83.7731 126.309 86.0723C126.474 88.2074 125.652 90.3424 124.174 91.8205C122.532 93.2986 120.233 94.7767 117.441 94.4482C114.32 94.284 112.678 92.9701 111.036 91.3278C109.558 89.6855 108.244 86.8935 106.766 83.1162C104.959 78.1892 101.346 75.7257 97.7328 75.3972C108.572 68.4995 122.86 74.4118 125.981 84.1016M128.444 81.6381C131.236 79.0104 137.149 77.6965 140.269 79.3388M140.269 79.3388C142.733 75.8899 149.795 74.0834 154.393 75.5615M140.269 79.3388C140.926 82.9519 138.462 87.8789 135.342 89.1928M132.55 84.2658C131.4 83.7731 129.922 85.0869 129.922 86.565C129.922 87.7147 130.744 88.8643 132.057 89.357C133.864 90.0139 136.327 89.357 137.149 86.7293C138.627 82.6235 134.192 79.3388 129.922 80.6527C125.981 82.1308 125.16 88.2074 128.444 91.6563C130.087 93.1343 132.386 94.4482 135.178 94.284C138.298 94.1197 139.941 92.8059 141.583 91.1635C143.225 89.6855 144.375 86.8935 145.689 83.1162C147.495 78.1892 151.108 75.7257 154.886 75.3972C144.211 68.4995 129.758 74.2476 126.638 84.1016M188.389 234.21C183.134 233.06 179.028 225.998 180.177 220.086C185.597 222.385 189.703 229.283 188.389 234.21ZM1.82116 125.488C5.59851 121.547 13.6459 121.547 18.0802 125.488C13.4817 129.101 5.43427 129.101 1.82116 125.488ZM250.633 127.623C246.856 131.565 238.808 131.565 234.374 127.623C238.808 123.846 247.02 123.846 250.633 127.623ZM63.901 234.21C62.2587 228.954 66.3645 221.892 71.9484 220.086C72.7695 225.834 68.828 232.896 63.901 234.21ZM188.553 18.9013C190.196 24.1568 186.09 31.2187 180.506 33.0253C179.521 27.2772 183.626 20.2152 188.553 18.9013ZM126.309 1C195.287 1 251.619 57.3317 251.619 126.309C251.619 195.287 195.287 251.783 126.309 251.783C57.3317 251.783 1 195.451 1 126.473C1 57.4959 57.1675 1 126.309 1ZM125.981 164.247L115.306 145.853L93.2986 145.032L104.302 126.966L93.627 107.915L115.141 108.079L126.309 89.0285L136.984 108.079L158.827 108.244L147.824 126.966L158.499 145.689L136.984 145.853L125.981 164.247ZM126.309 157.842L117.441 142.404L99.5394 142.24L108.408 126.802L99.7036 111.2H117.441L126.638 95.7621L135.506 111.2L153.408 111.364L144.539 126.802L153.243 142.404H135.506L126.309 157.842ZM126.474 151.437L119.412 139.119H105.123L112.185 126.802L105.123 114.485H119.412L126.474 102.167L133.535 114.485H147.824L140.762 126.802L147.824 139.119H133.535L126.474 151.437Z" stroke="white" stroke-miterlimit="22.926"/>
<path id="Vector_2" d="M40.7459 77.2035L91.8222 106.601M34.5051 78.8458C39.4321 95.4333 51.2568 106.93 69.4866 114.32C69.6508 114.32 70.6362 114.813 70.8004 114.813M88.2091 84.2655C88.0448 84.1013 87.3879 83.6086 87.3879 83.4444C70.3078 69.9773 52.4064 66.0357 33.5197 72.605C27.7716 74.0831 21.3665 70.3058 19.0673 64.3934C25.1439 63.408 31.3847 67.1854 33.027 72.7693M9.04908 97.8968C7.40676 104.302 7.07829 110.543 8.39215 115.305M8.39215 115.305C9.21331 115.634 13.9761 118.919 17.7534 121.875M8.39215 115.305C7.07829 116.455 4.77904 119.74 3.95788 121.546M32.2058 76.0539C28.2643 77.0393 22.3519 77.0393 20.2169 76.5466C16.1111 80.4882 12.6622 86.5648 10.3629 92.9698M8.39215 92.4771C11.0199 83.4444 14.7972 74.9043 18.5746 68.9919C21.038 73.5904 25.965 76.3824 31.7132 75.8897C33.3555 75.7254 34.9978 75.2327 36.8044 74.74M11.3483 98.3895C9.70601 105.78 10.5272 114.156 17.9176 122.203C13.6476 119.74 6.91407 119.247 3.62942 121.875C3.30096 115.634 4.45057 106.601 6.74983 97.5683M87.0594 86.729C86.8952 86.5648 86.0741 85.9078 85.7456 85.7436C68.8297 72.4408 49.1218 70.47 34.1766 75.5612C24.1585 79.0101 16.2753 85.4151 12.8264 93.791M57.4976 30.0688C57.8261 28.2623 59.4684 24.8134 60.7823 23.0069M57.4976 30.0688C52.7349 31.2185 47.4795 34.6674 42.7167 39.2659M57.4976 30.0688C58.1546 30.7258 63.41 33.025 67.8443 34.8316M37.7897 41.4009C31.3847 48.2986 25.8008 55.6891 22.5161 61.9299C28.4285 61.7657 34.0124 65.7073 35.9832 71.9481M44.359 41.0724C49.7787 35.9812 57.6619 32.5323 68.337 34.8316C64.0669 32.3681 60.2896 26.7842 60.9465 22.6784C55.3626 25.4703 48.1364 31.0542 41.5671 37.6235M35.9832 71.7839C35.9832 71.6196 35.9832 71.4554 35.9832 71.4554C34.1766 61.273 35.819 51.5833 41.2386 44.6855M72.4428 112.349C72.1143 112.185 70.9647 111.857 70.8004 111.692C53.2276 104.63 42.224 91.4917 37.6255 77.8605M46.1656 43.2074C55.6911 33.5177 72.1143 36.1454 78.6836 44.6855M35.819 39.9228L43.5379 46.8205C44.359 45.5067 45.3444 44.5213 46.4941 43.7001L39.9248 36.1454M56.0195 67.0211C60.9465 67.0211 67.3516 62.9153 68.6654 58.8095C66.8589 55.5249 67.8443 49.6125 70.472 47.4775M74.4136 51.5833C75.7274 51.7475 76.877 49.941 76.0559 48.2986C74.9063 45.5067 69.3223 45.8352 69.1581 50.5979C69.1581 55.0322 74.2493 57.1672 78.1909 54.211C81.6398 51.4191 80.4902 44.8498 76.2201 42.7147C70.9647 40.4155 65.8735 42.879 63.41 47.8059C62.4246 49.7767 61.9319 52.5687 61.7677 56.8387C61.7677 62.5868 59.3042 66.2 55.3626 67.1854C68.337 70.6342 80.3259 60.6161 80.1617 49.941M40.5817 77.0393C45.1802 90.3421 56.5122 102.988 72.607 109.065C72.7712 109.229 74.2493 109.557 74.4136 109.722M43.2094 46.4921C38.4467 53.3898 37.2971 62.0942 38.9394 70.7985M5.76444 91.4917L15.7826 94.7764C15.1257 96.0902 14.7972 97.4041 14.4688 98.8822L4.28634 96.7472M35.4905 70.3058C34.6693 66.6927 31.3847 61.273 30.0708 59.6307C31.3847 54.0468 34.8336 48.1344 39.4321 42.879M79.3405 52.8971C77.534 56.346 72.1143 59.4664 68.6654 58.9737M14.1403 98.8822C10.3629 112.021 21.3665 123.846 32.0416 125.324M96.9134 75.2327L79.3405 45.1782M86.4025 49.6125C87.2237 51.4191 87.2237 54.7037 86.0741 56.6745C83.939 56.8387 81.1471 55.6891 79.5048 54.7037M88.0448 50.1052C89.3587 52.7329 89.6872 58.1526 88.7018 61.273C85.5814 60.6161 80.6544 58.1526 79.0121 56.1818M64.0669 18.7368C69.3224 19.8864 73.4282 26.9484 72.2785 32.8608C66.8589 30.7258 62.7531 23.6638 64.0669 18.7368Z" stroke="white" stroke-miterlimit="22.926"/>
</g>
</svg>
