<svg width="20" height="19" viewBox="0 0 20 19" fill="none" xmlns="http://www.w3.org/2000/svg">
<g id="Group 5751">
<path id="Stroke-18" fill-rule="evenodd" clip-rule="evenodd" d="M19.0024 11.1366V16.4273C19.0024 16.9796 18.5547 17.4273 18.0024 17.4273H15.9532C15.4009 17.4273 14.9532 16.9796 14.9532 16.4273V11.5717C14.9532 10.0395 14.3204 8.9946 12.9277 8.9946C11.8618 8.9946 11.2684 9.7001 10.9939 10.3789C10.8895 10.6246 10.9064 10.964 10.9064 11.305V16.4273C10.9064 16.9796 10.4587 17.4273 9.90639 17.4273H7.89958C7.34532 17.4273 6.89675 16.9787 6.89918 16.4244C6.90847 14.3066 6.9272 9.39104 6.91194 7.17009C6.908 6.5961 7.3774 6.11344 7.9514 6.11344H10.6758C10.8031 6.11344 10.9064 6.2167 10.9064 6.34407V6.34407C10.9064 6.6091 11.6707 6.88114 11.8907 6.73337C12.5047 6.32098 13.3789 6.00537 14.4703 6.00537C17.0082 6.00537 19.0024 7.63127 19.0024 11.1366Z" stroke="#313A4B" stroke-width="1.5" stroke-linejoin="round"/>
<path id="Stroke-19" fill-rule="evenodd" clip-rule="evenodd" d="M1.14453 16.4145C1.14453 16.9668 1.59225 17.4145 2.14453 17.4145H3.71465C4.26693 17.4145 4.71465 16.9668 4.71465 16.4145V7.10107C4.71465 6.54879 4.26693 6.10107 3.71465 6.10107H2.14453C1.59225 6.10107 1.14453 6.54879 1.14453 7.10107V16.4145Z" stroke="#313A4B" stroke-width="1.5" stroke-linejoin="round"/>
<path id="Stroke-20" fill-rule="evenodd" clip-rule="evenodd" d="M4.6576 2.82759C4.6576 3.84818 3.95131 4.6573 2.82001 4.6573H2.79708C1.7063 4.6573 1 3.85198 1 2.8297C1 1.7876 1.72732 1 2.84103 1C3.95131 1 4.63467 1.78591 4.6576 2.82759Z" stroke="#313A4B" stroke-width="1.5" stroke-linejoin="round"/>
</g>
</svg>
