<svg width="18" height="18" viewBox="0 0 18 18" fill="none" xmlns="http://www.w3.org/2000/svg">
<path id="Vector" d="M1.62477 5.36073L1.62477 5.36072C1.66498 4.47768 1.8134 3.99625 1.93767 3.67368L1.93773 3.67352C2.1038 3.24697 2.30242 2.94129 2.62218 2.62111C2.94193 2.30093 3.24737 2.10198 3.67472 1.93663C3.99658 1.81111 4.47903 1.66383 5.36192 1.62369C5.36193 1.62369 5.36194 1.62369 5.36194 1.62369L5.36421 1.67364L1.62477 5.36073ZM1.62477 5.36073C1.5818 6.31134 1.57237 6.59641 1.57237 9.00007C1.57237 11.4037 1.58108 11.6896 1.62477 12.6394M1.62477 5.36073L1.98433 14.3085M16.0641 14.3265L16.0641 14.3266C15.898 14.7532 15.6994 15.0589 15.3796 15.3784C15.0598 15.6978 14.7537 15.8967 14.3271 16.0628M16.0641 14.3265L14.309 16.0162M16.0641 14.3265C16.1888 14.0047 16.3368 13.5224 16.377 12.6394C16.4207 11.6888 16.4294 11.4037 16.4294 9.00007C16.4294 6.59645 16.4207 6.31134 16.377 5.36072C16.3369 4.47778 16.1896 3.99534 16.0641 3.67349L16.0641 14.3265ZM14.3271 16.0628L14.309 16.0162M14.3271 16.0628C14.3271 16.0628 14.3271 16.0628 14.3272 16.0628L14.309 16.0162M14.3271 16.0628C14.0053 16.1883 13.5228 16.3356 12.6399 16.3757C11.69 16.4194 11.4041 16.4281 9.00036 16.4281C6.59664 16.4281 6.31152 16.4194 5.36194 16.3757C4.47896 16.3355 3.99666 16.1882 3.67466 16.0628C3.24811 15.8967 2.94242 15.6981 2.62222 15.3784C2.30203 15.0586 2.10308 14.7532 1.93771 14.3266M14.309 16.0162C13.9922 16.1397 13.5151 16.2859 12.6376 16.3258C11.6889 16.3694 11.4039 16.3781 9.00036 16.3781C6.59683 16.3781 6.31264 16.3694 5.36421 16.3258C4.48672 16.2858 4.00977 16.1397 3.69281 16.0162C3.2726 15.8526 2.97278 15.6578 2.65755 15.343C2.34233 15.0282 2.1472 14.7287 1.98433 14.3085M1.93771 14.3266C1.93772 14.3266 1.93773 14.3266 1.93774 14.3267L1.98433 14.3085M1.93771 14.3266C1.93771 14.3266 1.93771 14.3266 1.93771 14.3266L1.98433 14.3085M1.93771 14.3266C1.81219 14.0047 1.6649 13.5223 1.62477 12.6394M1.62477 12.6394L1.67472 12.6372L1.62477 12.6394C1.62477 12.6394 1.62477 12.6394 1.62477 12.6394ZM5.292 0.104451L5.29197 0.104452C4.33855 0.147869 3.68927 0.298867 3.12318 0.519133L3.12314 0.51915C2.53704 0.746552 2.04174 1.0511 1.54602 1.54602C1.05038 2.04085 0.746601 2.53689 0.519169 3.12302L0.519155 3.12305C0.298875 3.68948 0.147873 4.33838 0.104454 5.29175L0.104453 5.29179C0.0601529 6.25024 0.05 6.55612 0.05 9C0.05 11.4439 0.0601529 11.7498 0.104453 12.7082L0.104454 12.7082C0.147873 13.6617 0.298875 14.3105 0.519155 14.8769L0.519165 14.877C0.746604 15.4628 1.05046 15.9594 1.54601 16.454C2.04164 16.9487 2.53701 17.2528 3.12315 17.4809C3.69035 17.7011 4.33856 17.8521 5.29197 17.8955C6.251 17.9391 6.55642 17.95 9.00036 17.95C11.4443 17.95 11.7502 17.9398 12.7087 17.8955L12.7088 17.8955C13.6622 17.8521 14.3111 17.7011 14.8775 17.4809M5.292 0.104451L14.8957 17.5275M5.292 0.104451C6.25099 0.0601525 6.5571 0.05 9.00108 0.05C11.445 0.05 11.7509 0.0608716 12.7095 0.104452L12.7095 0.104454C13.6621 0.147151 14.3111 0.298853 14.8783 0.519144C15.4634 0.746573 15.9598 1.05034 16.4546 1.54596C16.9496 2.04163 17.2535 2.53728 17.4816 3.12306C17.7018 3.68912 17.8528 4.3383 17.8963 5.29175C17.9398 6.25023 17.95 6.55612 17.95 9C17.95 11.4439 17.9398 11.7491 17.8963 12.7083L17.8963 12.7083C17.8536 13.6616 17.7019 14.3105 17.4816 14.8769M5.292 0.104451L17.5282 14.8951M14.8775 17.4809L14.8957 17.5275M14.8775 17.4809C14.8775 17.4809 14.8775 17.4809 14.8775 17.4809L14.8957 17.5275M14.8775 17.4809C15.4634 17.2528 15.959 16.9489 16.4547 16.454C16.9503 15.9592 17.2535 15.4628 17.4816 14.8769M14.8957 17.5275C15.4875 17.2971 15.9891 16.9895 16.49 16.4894C16.991 15.9893 17.2978 15.4868 17.5282 14.8951M17.4816 14.8769L17.5282 14.8951M17.4816 14.8769C17.4816 14.8769 17.4816 14.8769 17.4816 14.8769L17.5282 14.8951M12.7749 4.19541C12.7748 4.39912 12.8351 4.59827 12.9482 4.76769C13.0613 4.93712 13.2221 5.0692 13.4103 5.14724C13.5985 5.22527 13.8056 5.24575 14.0054 5.20609C14.2053 5.16643 14.3888 5.0684 14.533 4.92441C14.6771 4.78042 14.7752 4.59693 14.8151 4.39715C14.8549 4.19736 14.8346 3.99026 14.7567 3.80202C14.6788 3.61378 14.5468 3.45286 14.3775 3.33962C14.2082 3.22637 14.009 3.16589 13.8053 3.1658C13.8053 3.1658 13.8053 3.1658 13.8053 3.1658H13.8049L12.7749 4.19541ZM12.7749 4.19541C12.7751 3.92234 12.8837 3.66053 13.0768 3.46748C13.27 3.27444 13.5318 3.16593 13.8049 3.1658L12.7749 4.19541ZM9.00036 5.94976C7.31587 5.94976 5.95072 7.31561 5.95072 9C5.95072 10.6844 7.31587 12.0502 9.00036 12.0502C10.6848 12.0502 12.0507 10.6844 12.0507 9C12.0507 7.31559 10.6848 5.94976 9.00036 5.94976ZM9.00036 13.5714C6.47547 13.5714 4.42878 11.5248 4.42878 9C4.42878 6.47522 6.47547 4.42861 9.00036 4.42861C11.5252 4.42861 13.5719 6.47522 13.5719 9C13.5719 11.5248 11.5252 13.5714 9.00036 13.5714Z" fill="#313A4B" stroke="#313A4B" stroke-width="0.1"/>
</svg>
