<svg width="109" height="109" viewBox="0 0 109 109" fill="none" xmlns="http://www.w3.org/2000/svg">
<mask id="mask0_213_77" style="mask-type:alpha" maskUnits="userSpaceOnUse" x="0" y="0" width="109" height="109">
<circle cx="54.5" cy="54.5" r="54.5"/>
</mask>
<g mask="url(#mask0_213_77)">
<rect x="-8.75391" y="-31.3457" width="130.744" height="164.347"/>
<circle cx="54.5" cy="54.5" r="54.5" fill="#313A4B" fill-opacity="0.66"/>
</g>
<path fill-rule="evenodd" clip-rule="evenodd" d="M64.5387 56.9515C67.8592 54.009 69.9696 49.5981 69.9696 44.6677C69.9696 35.8086 63.1562 28.627 54.7514 28.627C46.3467 28.627 39.5333 35.8086 39.5333 44.6677C39.5333 49.53 41.5857 53.887 44.8272 56.8287C36.9761 60.1167 31.146 67.2711 29.7177 75.9108C29.3561 78.0982 31.1834 79.9139 33.4005 79.9139H75.6772C77.8943 79.9139 79.7215 78.0982 79.3599 75.9108C77.9492 67.3771 72.244 60.2926 64.5387 56.9515Z" fill="white"/>
</svg>
