<svg width="34" height="26" viewBox="0 0 34 26" fill="none" xmlns="http://www.w3.org/2000/svg">
<g id="Subtract">
<path d="M31.2348 25.9952H2.76917V25.9992C2.32322 26.009 1.87952 25.9325 1.46255 25.7739L12.1663 14.9162L13.3308 16.0901C13.8577 16.6613 14.4853 17.1302 15.1821 17.4735C15.7662 17.7493 16.4036 17.8936 17.0493 17.8964C17.6926 17.8942 18.3275 17.7498 18.9086 17.4735C19.605 17.1257 20.2345 16.6574 20.7679 16.0901L21.9304 14.9162L32.5887 25.7442C32.1596 25.9207 31.6986 26.0062 31.2348 25.9952Z" fill="#313A4B"/>
<path d="M0 2.6711L10.2635 13.0209L0 23.434V2.6711Z" fill="#313A4B"/>
<path d="M34 23.3846L23.7957 13.0269L34 2.72245V23.3846Z" fill="#313A4B"/>
<path d="M15.9736 14.7936C15.5646 14.5646 15.1938 14.2732 14.8743 13.93L1.38752 0.267961C1.82378 0.0812903 2.29489 -0.00967045 2.76917 0.00111605H31.2328C31.7258 -0.0118438 32.2152 0.088213 32.6638 0.29364L19.2007 13.93C18.8735 14.2721 18.4969 14.5632 18.0836 14.7936C17.7623 14.9689 17.4033 15.0632 17.0375 15.0683C16.6658 15.0646 16.3007 14.9704 15.9736 14.7936Z" fill="#313A4B"/>
</g>
</svg>
