<svg width="20" height="21" viewBox="0 0 20 21" fill="none" xmlns="http://www.w3.org/2000/svg">
<path id="Shape" d="M14.8674 20.0007C13.81 19.9832 12.7636 19.7829 11.7744 19.4087C10.5993 18.9646 9.48144 18.3818 8.44443 17.6727C7.24461 16.8566 6.12492 15.9284 5.10043 14.9007C4.06503 13.8779 3.13102 12.7574 2.31143 11.5547C1.60408 10.5139 1.02647 9.39058 0.591426 8.20973C0.214678 7.22098 0.0146346 6.17372 0.000425511 5.11573C-0.00557087 4.58017 0.0518282 4.04579 0.171426 3.52373C0.275072 3.06613 0.453826 2.62888 0.700426 2.22973C0.962953 1.81988 1.28249 1.4495 1.64943 1.12973L1.70743 1.08073L1.76943 1.02773L1.77743 1.01973C1.82148 0.983348 1.86261 0.943558 1.90043 0.900726C2.20235 0.621254 2.54618 0.390794 2.91943 0.217726C3.21723 0.0771011 3.5421 0.00305034 3.87143 0.000726223C3.88374 -0.000242074 3.89611 -0.000242074 3.90843 0.000726223C4.28641 0.0141702 4.65386 0.128826 4.97243 0.332726C5.36472 0.600137 5.70074 0.941928 5.96143 1.33873L8.02542 4.31673C8.32961 4.7377 8.49811 5.24146 8.50843 5.76073C8.50443 6.02607 8.44632 6.28781 8.33765 6.52991C8.22898 6.77202 8.07203 6.98939 7.87643 7.16873L7.09443 7.95773C6.99511 8.04336 6.92836 8.16061 6.90543 8.28973C6.89149 8.40514 6.91992 8.52169 6.98543 8.61773C7.14306 8.86522 7.31502 9.10329 7.50043 9.33073C7.68043 9.55173 7.89143 9.79773 8.18543 10.1257C8.40843 10.3697 8.66043 10.6337 8.95643 10.9257C9.28443 11.2517 9.54343 11.4957 9.79543 11.7187C10.0674 11.9667 10.3654 12.2187 10.6814 12.4787C10.9041 12.6662 11.1379 12.8402 11.3814 12.9997C11.4643 13.0594 11.5625 13.0941 11.6644 13.0997C11.6814 13.1007 11.6984 13.1007 11.7154 13.0997C11.8452 13.0766 11.9629 13.009 12.0484 12.9087L12.8364 12.1217C13.0129 11.9283 13.2269 11.7728 13.4653 11.6647C13.7037 11.5566 13.9617 11.4981 14.2234 11.4927H14.2444C14.7633 11.5024 15.2669 11.6706 15.6874 11.9747L18.6664 14.0387C19.0641 14.2986 19.4081 14.6327 19.6794 15.0227C19.8865 15.3414 19.998 15.7127 20.0004 16.0927C19.9963 16.4348 19.92 16.7722 19.7764 17.0827C19.6096 17.4575 19.3811 17.8016 19.1004 18.1007C19.0585 18.1397 19.02 18.1821 18.9854 18.2277C18.9484 18.2687 18.9094 18.3097 18.8644 18.3527C18.4003 18.9029 17.8136 19.3366 17.1514 19.6187C16.4216 19.8914 15.6462 20.0211 14.8674 20.0007ZM3.90843 1.74673C3.74703 1.74887 3.58803 1.78606 3.44243 1.85573C3.27371 1.93322 3.11681 2.03422 2.97643 2.15573C2.96243 2.16773 2.94843 2.17873 2.93443 2.18873H2.92843C2.91067 2.20175 2.89396 2.21612 2.87843 2.23173C2.85143 2.25473 2.81543 2.28473 2.77843 2.31973C2.38656 2.65388 2.07834 3.07512 1.87843 3.54973C1.6812 4.04573 1.57451 4.57307 1.56343 5.10673C1.57283 6.07675 1.77686 7.03501 2.16343 7.92473C2.61594 9 3.18608 10.0219 3.86343 10.9717C4.58224 11.992 5.38826 12.9479 6.27243 13.8287C7.14634 14.6979 8.0924 15.4914 9.10043 16.2007C10.0284 16.8636 11.0297 17.4172 12.0844 17.8507C12.9345 18.2123 13.8459 18.4078 14.7694 18.4267H14.8784C15.4147 18.4226 15.9454 18.3171 16.4424 18.1157C16.92 17.9186 17.3435 17.61 17.6774 17.2157C17.709 17.1847 17.7381 17.1513 17.7644 17.1157C17.7727 17.1026 17.782 17.0902 17.7924 17.0787L17.7984 17.0727C17.8124 17.0547 17.8254 17.0377 17.8384 17.0177C18.0854 16.7684 18.2308 16.4363 18.2464 16.0857C18.248 15.9406 18.2165 15.7969 18.1544 15.6657C18.0753 15.5276 17.965 15.4098 17.8324 15.3217L14.8534 13.3377C14.7056 13.2383 14.5316 13.1847 14.3534 13.1837C14.2593 13.1878 14.1671 13.2118 14.0829 13.2542C13.9988 13.2966 13.9247 13.3564 13.8654 13.4297L12.9654 14.3297C12.826 14.4895 12.6553 14.6191 12.4639 14.7104C12.2725 14.8018 12.0644 14.8529 11.8524 14.8607H11.8324C11.429 14.8559 11.0379 14.7209 10.7174 14.4757C10.4074 14.2467 10.1054 14.0007 9.81743 13.7457C9.46543 13.4457 9.12442 13.1457 8.79943 12.8457C8.44143 12.5117 8.14943 12.2307 7.90743 11.9887C7.49143 11.5887 7.05143 11.1037 6.63643 10.6427C6.19243 10.1347 5.81943 9.67573 5.52643 9.28173C5.27264 8.96327 5.13476 8.56794 5.13543 8.16073C5.14204 7.94672 5.19238 7.73633 5.28336 7.54251C5.37434 7.34869 5.50402 7.17554 5.66443 7.03373L6.56443 6.13373C6.70543 6.00879 6.79193 5.83363 6.80543 5.64573C6.80446 5.46662 6.74862 5.29212 6.64543 5.14573L4.66143 2.16673C4.58453 2.03614 4.47424 1.9284 4.3419 1.85458C4.20955 1.78076 4.05993 1.74354 3.90843 1.74673Z" fill="#313A4B"/>
</svg>
