<svg width="302" height="302" viewBox="0 0 302 302" fill="none" xmlns="http://www.w3.org/2000/svg">
<path d="M91.9202 185.021L176.283 123.848L111.459 192.411C110.984 192.877 110.563 193.413 110.206 194.003C110.051 194.259 109.907 194.525 109.776 194.801C109.22 195.971 108.891 197.302 108.84 198.694L107.467 235.692L91.9202 185.021ZM105.904 280.231C106.065 280.754 106.264 281.247 106.495 281.707C107.158 283.533 108.34 285.067 109.889 285.991L109.89 285.992C110.889 286.568 111.962 286.867 113.038 286.867C114.694 286.867 116.346 286.165 117.676 284.839L117.677 284.838L155.526 246.103L208.901 294.991C213.287 299.004 218.549 301.1 223.901 301.1C226.685 301.1 229.467 300.528 232.219 299.404L232.22 299.403C240.121 296.045 246.035 288.192 248.068 278.396L300.63 24.5781L300.532 24.5578L300.63 24.5779C302.049 17.6743 300.201 10.4549 295.794 5.72463C291.385 0.991746 285.201 -0.382941 279.677 2.15236L11.0827 125.339C4.75813 128.237 0.77407 135.378 0.903041 143.507C1.01773 151.637 5.23184 158.588 11.6292 161.191L77.6455 188.125L105.904 280.231L105.987 280.206L105.904 280.231ZM120.913 258.907L122.508 215.862L143.868 235.425L120.913 258.907ZM217.545 281.283L127.255 198.572L245.601 73.357C248.389 70.4275 248.848 65.4323 246.67 61.8291L246.67 61.829C244.489 58.2366 240.384 57.2117 237.204 59.5253C237.204 59.5253 237.204 59.5254 237.204 59.5254L82.3171 171.824L16.1872 144.86L16.185 144.86C16.0532 144.809 15.8004 144.709 15.5777 144.462C15.3567 144.217 15.1572 143.819 15.1503 143.16C15.1434 142.501 15.3329 142.094 15.5464 141.838C15.7579 141.585 15.9997 141.471 16.1284 141.411L16.134 141.408L16.1348 141.408L284.728 18.2215C285.084 18.0592 285.387 18.0612 285.637 18.1417C285.89 18.2229 286.097 18.3869 286.254 18.5595L286.255 18.5613C286.566 18.8871 286.907 19.4752 286.716 20.3845L286.716 20.3848L234.153 274.202C233.273 278.45 230.821 281.693 227.417 283.142C224.015 284.591 220.416 283.912 217.545 281.283Z" fill="#151C26" stroke="#151C26" stroke-width="0.2"/>
</svg>
