<svg width="78" height="153" viewBox="0 0 78 153" fill="none" xmlns="http://www.w3.org/2000/svg">
<path id="Vector" d="M27.3795 2.84875C25.4954 2.54488 22.6694 3.05134 21.6227 3.76037C23.8207 3.76037 26.4375 4.46941 26.8561 5.07715M29.7869 10.4456C24.5534 9.23006 22.8787 16.8269 14.7145 15.2062C15.9705 16.9282 19.2153 17.9411 21.204 17.1307C21.7273 18.6501 24.7627 18.8527 25.0768 17.232C25.9141 18.7514 29.2635 18.1436 28.7402 16.1178C29.9962 17.232 31.7756 16.523 31.8803 15.0036M48.3133 10.1417C48.104 11.3572 44.9639 12.3701 42.0332 11.9649M52.5001 7.812C52.2908 10.1417 46.3246 10.952 40.5678 9.33136M36.381 8.11587C38.4744 2.03843 49.5694 8.31845 56.5822 5.38102C54.9075 8.31845 47.162 9.53394 40.9865 7.60942M38.1604 15.5101C32.2989 17.3333 28.3215 13.2817 30.2055 7.50812M31.5662 7.20425C28.0075 9.02748 24.7627 4.77328 28.2168 1.83585C31.1476 0.113907 34.6017 2.13972 35.3343 5.38102C35.6483 9.02748 40.0445 12.5727 44.1266 12.2688C50.6161 12.4714 58.4663 15.4088 59.827 18.2449C56.7915 18.5488 53.3375 19.8656 52.8141 20.9798C51.3487 17.3333 45.4873 14.2946 41.0911 14.8011M13.8771 37.6927C10.9464 39.4147 13.1445 43.7702 16.3892 41.6431M12.8304 45.6947C14.5052 48.227 19.634 46.9102 19.3199 43.8715M8.43434 39.6173C6.75963 37.6927 8.12033 33.8437 11.6791 34.0463M13.7725 37.794C6.96897 37.3889 7.49232 43.1624 3.30555 49.2399C8.32967 46.0999 15.0285 46.9102 16.7032 42.1495M19.948 39.3134C19.2153 33.7424 27.5888 31.3114 31.7756 35.4643M15.2378 132.602C16.9126 133.818 20.576 134.223 22.3554 134.83M58.8849 148.403C58.7803 147.998 57.7336 147.694 56.8962 147.897C52.9188 146.378 51.5581 143.339 52.5001 141.414M57.2102 148.403C58.3616 148.403 59.7223 149.214 59.9316 150.125M56.6869 149.112C58.1522 149.416 59.5129 150.429 59.3036 151.138M49.046 140.807C49.046 141.82 48.2087 143.744 47.3713 144.554C46.0106 146.074 46.848 147.694 48.8367 147.593C50.1974 147.492 52.0814 148.403 53.1281 149.619C53.7561 150.733 54.4888 150.936 55.8495 151.341C56.7915 152.151 58.0476 152.05 58.3616 151.138C58.1522 150.733 56.8962 150.024 55.9542 149.72M36.9044 151.442C37.8464 138.882 45.5919 137.464 53.4421 135.843M37.009 151.847C37.5324 149.011 38.4744 146.985 39.4164 145.365C44.2312 137.363 50.1974 142.326 56.4775 141.718C54.9075 141.212 53.1281 139.794 53.0234 138.882C54.8028 140.098 58.6756 140.705 60.769 140.098C59.4083 139.692 57.6289 138.376 57.3149 137.464C59.7223 138.882 63.595 139.389 64.8511 138.274C63.8044 138.173 61.9203 137.16 61.5017 136.451C64.3277 137.667 68.2005 137.059 69.2472 135.033C68.2005 135.438 66.1071 135.134 65.2698 134.628C68.8285 134.223 71.3406 131.994 71.3406 129.766C70.6079 130.88 68.4098 132.197 66.7351 131.994C74.2713 128.956 69.6659 117.915 75.632 118.523M29.1589 149.214C29.4729 149.011 31.2522 148.707 31.5662 149.518M35.9624 55.216C24.7627 52.8863 15.8659 70.9161 31.0429 75.069C29.6822 77.9051 26.9608 78.6142 25.3908 77.6012C26.5421 80.2348 22.6694 81.0451 21.7273 78.918C21.832 81.1464 18.5873 81.9567 17.5406 79.4245M25.2861 128.044C25.3908 128.449 25.3908 129.766 25.1814 130.678C24.9721 131.488 24.2394 132.501 23.7161 133.007C22.3554 134.425 20.9947 137.16 21.0993 139.996C21.204 141.313 19.948 144.757 18.5873 146.783C16.4939 149.619 17.4359 151.949 20.3666 151.341C21.6227 150.936 24.5534 150.834 26.1235 151.138C27.6935 151.949 29.7869 152.252 30.3102 151.543C31.5663 151.949 32.7176 151.543 32.6129 150.936C31.6709 150.328 29.9962 150.024 29.0542 150.227M23.9254 132.602C24.4487 132.501 19.1106 128.145 18.6919 127.74C19.1106 128.854 19.634 130.678 19.634 131.488C18.9013 129.361 16.4939 126.423 14.8192 125.714C15.3425 127.132 15.6565 128.956 15.5518 129.361C15.1332 127.132 12.4118 123.688 10.109 122.574C11.1557 124.094 11.7838 126.626 11.3651 127.538C8.64368 120.042 3.41021 121.359 2.36352 111.939C2.15418 115.484 -0.35788 124.701 4.66625 127.335C3.51488 127.639 1.73551 126.626 1.00282 125.208C0.898151 128.145 3.72422 131.488 6.55029 131.893C6.13161 132.197 4.24757 132.096 2.7822 131.589C3.72422 133.716 8.01566 135.236 11.1557 134.628C10.9464 135.236 9.06236 135.843 7.49232 135.843C9.48103 137.363 13.9818 137.565 16.4939 136.249C16.2845 137.059 14.9238 138.173 13.6678 138.376C16.7032 139.692 20.4713 139.186 21.0993 138.781M28.4262 137.869C30.1009 138.578 33.1363 141.921 34.497 144.656M28.4262 137.869C28.8448 136.856 30.7289 134.324 32.0896 133.007C33.4503 131.589 34.0783 128.956 33.3456 127.74M28.4262 137.869C27.6935 139.389 24.9721 143.643 22.774 146.378C22.2507 147.492 22.8787 148.201 24.5534 148.1C26.2281 147.897 28.4262 149.011 29.8915 149.416C30.8336 149.315 32.4036 149.416 32.2989 150.429M27.0655 140.199C31.3569 141.009 36.2764 146.783 36.695 151.847M29.4729 136.147C33.241 138.376 36.9044 146.175 36.7997 151.847M56.5822 130.07C59.0943 124.195 58.8849 115.99 56.3729 112.04C55.0122 109.609 48.418 106.773 41.8238 105.557M47.0573 117.105C47.162 117.915 48.8367 119.232 50.302 120.346C50.9301 120.852 51.3487 121.561 51.3487 122.473C51.3487 123.081 51.2441 123.688 50.7207 124.398C49.5694 125.917 49.1507 128.956 49.8834 131.285M36.7997 151.543C36.067 143.744 40.0445 134.527 44.6499 133.007C44.0219 133.919 43.3939 135.641 43.4985 136.552C45.2779 131.994 49.046 131.792 52.3954 130.374C50.9301 131.387 49.36 133.311 49.046 134.425C51.0347 131.285 55.2215 130.981 58.2569 129.462C57.2102 130.475 56.0589 132.399 55.9542 133.109C57.5242 131.285 60.8736 128.652 62.653 127.841C61.8157 128.854 61.2923 130.678 61.6063 131.387C62.967 126.626 67.4678 130.678 72.0733 119.738C73.0153 116.699 77.0974 117.206 76.9927 118.827C77.0974 119.839 76.0507 120.245 75.4227 120.042C74.69 119.839 74.2713 118.928 75.318 118.219M56.2682 79.4245C58.2569 87.3252 68.3052 91.3768 76.26 87.5277C74.4807 90.9716 70.3986 93.3013 68.0958 91.9845C69.2472 94.1116 65.6884 96.0361 64.3277 93.4026C64.6417 95.3271 62.653 96.4413 61.2923 96.0361C62.653 94.3142 62.1297 91.9845 60.0363 91.3768C58.2569 90.6677 56.3729 91.9845 55.9542 93.7065C55.5355 95.9349 57.5242 97.4542 60.2456 96.8465C59.9316 98.062 59.5129 99.0749 58.6756 99.6826C57.7336 100.392 56.3729 100.493 55.3262 99.8852C56.5822 102.215 53.0234 104.342 51.3487 102.114C50.5114 104.95 47.0573 105.861 42.0332 105.76M53.5468 45.4921C54.0701 43.9728 54.3841 41.3392 54.0701 40.3263M52.0814 45.1882C52.6048 44.1753 53.0234 41.6431 52.7094 40.225M51.2441 39.6173C51.5581 40.7315 51.3487 42.7573 50.8254 43.6689C50.5114 44.3779 50.1974 45.087 50.0927 46.4037C49.674 46.505 49.046 45.796 49.046 44.1753C49.2554 43.1624 48.8367 42.0482 48.3133 42.0482C47.476 45.087 48.3133 49.7463 50.0927 51.367C51.6627 52.3799 53.8608 54.8109 53.6515 57.3431C53.5468 62.6102 53.7561 69.3967 54.3842 72.3341C54.2795 72.1316 53.0234 72.2328 52.1861 72.2328M52.1861 72.2328C51.5581 73.0432 51.2441 74.9677 51.3487 77.3987C51.8721 87.1226 48.9413 92.8961 45.8013 96.9478C42.3472 101.101 35.753 103.836 32.2989 102.114M52.1861 72.2328C52.6048 71.5238 53.3375 71.5238 54.0701 72.2328M40.9865 67.2696C42.1378 67.8773 43.2892 67.3709 43.2892 66.358M41.3005 52.785C43.4985 53.3928 46.2199 55.7225 46.848 57.5457M39.5211 53.0889C39.4164 53.6967 40.4631 54.6083 41.7192 54.8109C43.3939 55.1147 45.5919 57.5457 46.1153 59.6728M51.3487 59.0651C51.7674 62.6102 49.5694 67.3709 46.9526 68.8903M49.8834 56.8367C50.7207 59.7741 48.6273 64.7373 45.5919 66.8644M48.418 55.4186C49.2554 58.2547 47.3713 62.6102 44.6499 64.0283M46.848 54.3044C47.5806 56.938 46.4293 60.4831 44.4406 61.3947M21.204 41.1366C21.0993 41.5418 20.6806 41.7444 20.262 41.7444C18.7966 41.7444 18.3779 39.2121 20.7853 39.1108C22.5647 39.2121 23.402 40.934 22.5647 42.5547C21.518 44.3779 18.7966 44.5805 17.2266 43.0611C15.6565 41.6431 15.8659 39.0095 17.3312 37.4902C14.9238 38.6043 12.5164 37.6927 11.8884 35.6669C11.0511 33.6411 12.6211 31.514 14.7145 31.3114C16.5985 31.3114 17.8546 32.8308 17.1219 34.3501C15.8659 36.2747 13.6678 34.9579 14.2958 33.6411C14.5052 33.2359 15.0285 33.0334 15.4472 33.1347M37.7417 45.4921C38.3698 46.6063 40.0445 46.2011 40.1491 44.6818C40.1491 43.9728 39.7305 43.4663 39.2071 43.1624C38.6838 42.8586 38.0557 42.9598 37.5324 43.0611C36.695 43.365 35.9624 44.074 35.3343 45.3908C34.0783 47.5179 33.241 48.4295 31.8803 49.3412C32.8223 51.367 36.5904 53.3928 38.9978 53.2915M33.9736 35.2618C35.5437 37.4902 36.067 40.4276 35.5437 43.0611C36.5904 41.5418 38.9978 41.2379 40.3585 42.5547C41.8238 43.7702 41.6145 45.9986 40.1491 46.9102C39.4164 47.2141 38.6838 47.2141 38.1604 47.0115C37.6371 46.8089 37.2184 46.3024 37.1137 45.6947C37.0091 43.8715 39.3118 43.9728 39.3118 45.1882C39.2071 45.9986 38.4744 46.2011 37.8464 45.6947M15.6565 35.1605C17.6452 35.363 22.774 29.4882 29.8915 32.223C31.0429 32.6282 32.0896 33.2359 32.8223 33.945M11.2604 78.3103C10.7371 78.3103 9.5857 78.209 10.0044 76.2845C8.43434 78.6142 5.29426 76.7909 7.07364 74.2587C4.45691 75.4741 2.88687 72.1316 5.39893 71.1187C2.7822 71.2199 2.57286 67.9786 5.08492 67.4722C3.09621 65.1425 5.18959 61.2935 8.95769 60.4831C6.02695 64.2309 9.37636 68.3838 14.2958 66.4593C16.7032 65.5477 19.8433 62.1038 23.1927 58.1534C25.6001 55.3173 30.7289 53.2915 34.0783 53.5954C31.7756 52.6838 30.1009 50.3541 29.0542 47.8218C27.9028 44.7831 24.0301 44.7831 23.6114 47.3153C23.402 49.0373 25.4954 49.645 26.3328 48.4295C25.6001 49.0373 24.7627 48.8347 24.6581 47.9231C24.7627 46.505 27.3795 46.3024 27.1701 48.4295C26.9608 49.9489 25.1814 50.6579 23.6114 49.9489C21.832 48.936 21.6227 46.3024 23.2974 44.8844C24.8674 43.365 27.7982 43.7702 28.9495 45.4921C27.9028 40.5289 31.2522 34.1476 35.3343 32.1217C36.1717 31.6153 38.2651 30.6024 40.1491 30.1972C41.6145 29.7921 42.8705 29.083 43.6032 28.1714C44.6499 26.8546 44.2312 25.0314 42.5565 24.8288C40.9865 24.8288 40.3585 26.2469 41.5098 26.9559M54.2795 26.9559C53.3375 26.9559 53.0234 25.5379 54.1748 25.1327C55.4308 24.9301 56.2682 25.7404 56.1635 26.7533C56.1635 27.8675 55.2215 28.5766 53.7561 28.9817C52.7094 29.2856 51.4534 29.2856 50.302 29.2856C48.2087 29.1843 46.0106 29.2856 44.4406 29.4882C45.6966 28.5766 46.1153 26.2469 44.8592 24.7275C43.6032 23.3095 41.4052 23.4108 40.3585 24.8288C39.6258 26.0443 40.1491 27.5637 41.5098 27.8675C43.3939 28.0701 43.3939 25.8417 42.1378 25.7404C41.4052 25.7404 40.8818 26.3482 41.4052 26.9559M52.2908 34.8566C51.1394 35.0592 51.1394 36.4772 52.5001 36.8824C54.0701 37.1863 54.9075 36.2747 54.8028 34.9579C54.8028 33.2359 51.2441 31.6153 47.79 31.4127C44.2312 30.9063 38.4744 31.8179 36.1717 33.3372C31.4616 35.7682 28.9495 42.9598 30.9382 47.6192C34.0783 45.1882 34.9157 39.516 32.6129 36.376M58.2569 38.7056C60.769 40.3263 64.2231 38.7056 63.6997 35.7682M61.083 24.2211C63.6997 23.4108 65.7931 26.1456 64.4324 28.0701M59.5129 35.5656C62.025 36.376 64.8511 35.5656 67.8865 33.8437C69.2472 33.1347 71.2359 32.3243 73.6433 32.223C71.3406 31.9192 68.7238 30.9063 67.6771 30.1972C64.7464 28.0701 61.711 26.7533 59.1989 27.5637M58.2569 28.5766C61.9203 28.2727 62.339 32.8308 59.0943 32.9321M54.2795 30.0959C58.9896 29.9946 62.5484 24.3224 61.397 18.5488C60.8736 21.4862 57.7336 22.9043 53.7561 22.6004C51.2441 22.3978 50.0927 24.2211 49.988 25.7404C49.8834 27.2598 51.1394 29.083 53.8608 28.9817M54.3842 33.8437C51.7674 31.6153 48.2087 33.8437 49.1507 37.1863C49.988 39.8198 53.3375 40.8327 56.3729 39.9211C61.397 38.0979 60.455 30.5011 54.3842 30.0959M51.4534 80.1335C55.0122 80.1335 59.7223 78.8167 60.769 77.6012C61.5017 77.2974 62.1297 76.0819 61.9203 75.069C62.5484 71.3212 59.5129 60.9896 55.8495 54.4057C54.6982 53.0889 54.5935 49.1386 55.3262 46.3024C55.8495 44.8844 55.7449 41.7444 55.5355 40.0224M36.7997 84.7929C39.1024 83.1722 41.1958 79.6271 42.0332 77.3987C43.8126 72.4354 46.9526 69.0928 48.418 70.6122M36.1717 55.0134C35.9624 56.0263 37.3231 57.1405 39.3118 57.5457C41.7192 58.1534 42.9752 60.787 42.8705 63.8257C42.7659 66.8644 44.7546 70.1057 46.7433 70.5109C44.4406 69.8019 40.9865 73.4483 39.2071 77.7025C38.1604 80.0322 36.1717 82.058 34.6017 82.5645M36.7997 76.1832C28.1122 79.1206 31.1476 91.1742 40.9865 88.1355M31.2522 91.3768C32.7176 92.8961 36.695 92.2884 39.2071 90.06C42.1378 87.8316 44.7546 81.1464 45.2779 76.7909C46.3246 71.2199 48.5227 69.3967 50.4067 70.9161M17.7499 103.025C19.1106 102.316 20.4713 104.241 19.2153 105.557C18.5873 106.165 17.8546 106.267 16.9126 106.165C15.9705 105.963 15.1332 105.355 14.8192 104.241C14.0865 101.911 15.8659 99.8852 18.2733 99.5813C21.9367 99.2774 24.8674 102.519 24.1347 106.672M16.8079 109.001C18.6919 109.913 21.3087 109.001 22.0413 106.874C22.9834 103.734 20.89 100.999 17.7499 101.607C16.0752 102.012 15.7612 104.139 17.0172 104.848C17.3312 104.95 17.6452 105.051 18.0639 105.051C19.1106 104.848 19.3199 103.633 18.6919 103.126C18.4826 103.025 18.1686 102.924 17.8546 103.025M26.6468 91.1742C27.4842 94.9219 27.4842 101.202 26.6468 103.937M24.7627 119.232C22.0413 118.016 20.7853 114.37 21.6227 110.926C22.0413 109.305 22.6694 108.09 24.2394 106.57C28.1122 103.126 31.4616 97.5555 30.8336 95.5297M41.7192 108.596C43.8125 110.521 43.4985 114.978 40.9865 118.016C39.5211 119.839 37.9511 120.954 35.9624 121.764C33.4503 122.777 30.3102 122.979 27.3795 122.979C22.6694 122.878 19.3199 126.018 20.4713 129.259M37.7417 106.57C40.5678 110.825 38.8931 117.408 33.6596 119.333C31.7756 120.143 28.5308 120.852 27.2748 121.156M41.6145 105.659C44.7546 106.976 46.7433 112.04 45.5919 115.788M34.6017 108.9C36.381 110.318 36.1717 114.066 33.869 115.99C32.0896 118.016 26.7515 119.029 24.1347 119.232C20.89 119.637 19.4246 122.878 21.0993 125.714M26.5421 111.432C26.1234 112.952 27.1701 114.066 29.0542 113.559C30.5196 113.154 30.9382 111.23 29.9962 109.812M10.6324 120.346C15.3425 120.346 17.5406 116.497 15.0285 112.547C13.2491 110.116 11.6791 107.786 11.5744 105.254C11.3651 102.823 12.2024 100.493 14.5052 98.6697C18.7966 95.631 25.7048 97.4542 26.7515 103.836M19.5293 109.204C20.262 110.825 20.3666 112.547 20.1573 113.965C19.634 117.915 15.9705 120.751 10.6324 120.245M31.8803 109.407C33.1363 110.521 33.4503 113.863 31.5662 115.687C29.6822 117.307 26.9608 117.105 25.7048 115.484C24.1347 113.256 24.8674 110.419 26.9608 108.799C28.2168 107.786 29.1589 107.482 30.3102 107.178C32.5083 106.57 35.125 106.368 36.9044 106.57C39.4164 106.976 43.2892 105.254 44.9639 103.633C49.8834 99.0749 53.4421 91.3768 53.7561 84.8942C53.8608 82.3619 53.5468 80.5387 53.4421 80.0322M22.9834 127.538C24.1347 125.917 28.3215 125.208 32.7176 125.714C35.439 126.018 38.0557 126.018 39.3118 124.6M24.1347 132.501C22.6694 131.488 22.8787 129.462 24.5534 128.55C26.2281 127.132 31.1476 127.436 34.3923 127.943C36.381 128.247 38.8931 127.943 40.6725 126.93C42.2425 126.018 43.2892 124.499 43.8125 123.283C46.534 116.294 53.0234 109.407 55.1168 110.723M18.3779 69.0928C17.5406 71.8277 16.0752 74.5625 13.7725 76.2845C11.3651 77.8038 8.74834 80.4374 8.74834 82.1593C9.27169 81.4503 10.6324 80.5387 11.4698 80.3361C9.69037 81.4503 8.43434 84.1851 9.06236 85.9071C9.37636 85.0968 10.3184 84.1851 11.0511 83.9826C9.89971 85.198 9.37636 87.8316 9.69037 89.2497C10.0044 88.4393 10.8417 87.5277 11.3651 87.3252C10.109 88.8445 11.4697 91.3768 11.3651 92.8961C12.0978 91.5794 14.6098 89.351 13.8771 87.3252C14.7145 88.2368 14.7145 89.7561 14.5052 90.2626C16.0752 88.7432 16.9125 85.8058 16.0752 84.3877C16.7032 84.8942 16.9125 85.8058 17.1219 86.4135C19.1106 81.5516 15.9705 76.3858 17.2266 74.1574M41.5098 73.7522C41.3005 73.7522 40.8818 73.7522 40.5678 73.8535C31.6709 74.7651 24.6581 82.9697 26.4375 90.6677C28.4262 96.6439 35.753 98.4671 40.8818 94.3142C44.3359 91.5794 47.2666 84.8942 47.5806 79.1206C47.9993 72.4354 50.4067 68.8903 52.2908 72.1316M33.241 65.1425C33.4503 65.8515 32.9269 66.2567 32.0896 65.9528C31.5662 65.4464 30.8336 65.0412 30.6242 65.1425C29.9962 65.0412 29.8915 64.2309 30.5196 63.4206C31.3569 62.1038 32.9269 60.4831 33.869 60.078C33.3456 59.1664 33.869 57.7483 34.811 57.2418C36.5904 53.1902 42.3472 51.5696 46.3246 53.8992C53.3375 57.7483 54.8028 66.0541 49.046 70.207C48.418 70.1057 47.6853 69.498 47.0573 68.8903C45.6966 67.4722 44.6499 65.1425 44.6499 62.9141C44.6499 59.8754 42.2425 56.4315 39.8351 56.2289C38.6838 56.0263 37.6371 55.0134 37.7417 54.0005M34.3923 61.1922C36.4857 60.8883 38.4744 62.5089 38.3698 64.5348C36.1717 64.7373 34.0783 63.5219 34.2876 62.1038M34.811 59.6728C36.695 58.5586 39.2071 60.3818 39.9398 63.4206M31.3569 65.4464C31.4616 65.6489 31.2522 66.4593 30.7289 66.9657C30.5196 67.4722 30.8336 67.6748 31.3569 67.5735C32.6129 67.8773 32.4036 69.0928 31.2522 69.1941C30.3102 68.9915 30.1009 69.8019 30.9382 71.0174C30.6242 75.4741 35.3343 74.9677 40.5678 70.1057C40.8818 69.8019 40.9865 68.8903 40.8818 68.789M30.7289 2.3423C31.4616 2.3423 32.0896 2.95005 32.0896 3.65908C32.0896 4.36811 31.4616 4.97586 30.7289 4.97586C29.9962 4.97586 29.3682 4.36811 29.3682 3.65908C29.3682 2.84876 29.9962 2.3423 30.7289 2.3423Z" stroke="black" stroke-width="0.5" stroke-miterlimit="22.926"/>
</svg>
