<svg width="703" height="691" viewBox="0 0 703 691" fill="none" xmlns="http://www.w3.org/2000/svg">
<path d="M351.189 300.487V389.245M401.517 555.132C397.168 577.781 376.664 595.532 352.432 595.532C328.2 595.532 306.453 578.393 302.725 554.52M564.307 298.038C587.917 302.323 605.315 323.135 605.315 346.396C605.315 370.269 587.917 390.469 564.307 394.754M302.725 135.212C307.075 111.951 328.2 94.8114 351.811 94.8114C376.043 94.8114 396.547 111.951 400.896 135.212M138.072 394.142C114.461 389.857 97.064 369.045 97.064 345.784C97.064 321.911 114.461 301.711 138.072 297.426M382.877 547.786C382.256 563.702 368.587 576.556 351.811 576.556C335.035 576.556 321.365 563.702 320.744 547.174M557.472 315.79C573.627 316.402 586.675 330.481 586.675 346.396C586.675 362.312 574.248 375.778 557.472 377.003M320.744 142.557C321.365 126.642 335.656 113.787 351.811 113.787C367.965 113.787 381.635 126.642 382.877 142.557M145.528 375.778C129.373 375.166 116.325 361.087 116.325 345.172C116.325 329.257 128.752 315.79 145.528 314.566M340.005 676.945C342.491 681.843 348.704 687.964 352.432 689.8C358.645 686.74 363.616 681.843 364.859 678.17M689.195 358.027C694.165 355.578 699.136 349.457 701 345.784C697.893 339.663 692.301 335.378 689.195 334.154M364.237 13.3983C361.752 8.5013 355.539 2.99215 351.811 1.15576C345.597 4.2164 341.248 9.72556 340.005 12.7862M14.4267 333.541C9.456 335.99 3.864 341.499 2 345.172C5.10667 351.293 10.6987 356.19 13.8053 357.414M333.171 654.909C343.112 657.97 361.752 658.582 371.072 654.909M666.205 362.924C669.312 353.13 668.691 335.99 665.584 326.808M370.451 35.4349C360.509 32.3743 342.491 32.3743 332.549 35.4349M36.7947 325.584C33.688 335.378 33.688 353.13 36.7947 362.924M329.443 648.788C330.685 646.339 331.928 641.442 331.307 638.994C341.248 643.278 361.752 643.891 372.936 638.994M658.749 369.045C656.885 367.209 652.536 365.984 650.051 366.596C654.4 356.802 655.021 336.602 650.051 325.584M374.8 41.5562C372.936 43.3926 371.693 48.2896 371.693 50.7382M371.693 50.7382C361.752 46.4533 341.869 46.4533 330.685 50.7382M371.693 50.7382C375.421 56.8594 389.712 55.0231 400.275 47.0654C414.565 37.2713 428.856 31.7622 442.525 30.5379C470.485 29.3137 493.475 46.4533 496.581 75.8354C523.299 56.8594 571.763 73.3869 569.899 117.46V198.873M42.3867 321.299C44.2507 323.135 49.2213 324.36 51.7067 324.36M51.7067 324.36C47.3573 334.154 47.9787 354.354 52.9493 365.372M51.7067 324.36C57.92 320.687 56.056 306.608 47.9787 296.202C38.0373 282.123 32.4453 268.044 31.2027 254.577C29.96 227.031 47.3573 204.382 77.1813 201.322C57.92 175 74.696 127.254 119.432 129.091H202.069M327.579 41.5562C329.443 43.3926 331.307 47.6775 331.307 50.7382C327.579 56.8594 313.288 54.4109 303.347 46.4533C289.056 36.6592 274.765 31.1501 261.096 29.9258C233.136 28.0894 210.147 45.8411 207.04 75.2233C180.323 56.2473 131.859 72.7748 133.723 116.236V129.703M659.371 322.523C657.507 324.36 653.157 326.196 650.051 326.196M376.043 648.788C374.179 646.951 372.315 642.666 372.315 639.606M43.6293 368.433C45.4933 366.596 49.8427 364.76 52.9493 364.76M51.7067 211.116C38.6587 196.425 50.464 170.715 69.7253 170.103M486.64 50.7382C501.552 37.8835 527.648 49.5139 528.269 68.4899M650.672 477.392C663.72 492.083 651.915 517.792 632.653 518.404M216.36 639.606C201.448 652.46 175.352 640.83 174.731 621.854M216.36 49.5139C201.448 36.6592 175.352 48.2897 174.731 67.2656M651.293 212.952C664.341 198.261 652.536 172.552 633.275 171.94M487.261 640.218C502.173 653.072 528.269 640.83 528.891 622.466M52.328 478.004C39.28 492.695 51.0853 518.404 70.3467 519.016M331.928 639.606C328.2 633.484 313.288 635.933 302.725 643.891C288.435 653.685 274.144 659.194 260.475 660.418C232.515 662.254 209.525 644.503 206.419 615.121C179.701 634.096 131.237 617.569 133.101 573.496V492.083M133.101 156.636V258.862C131.237 299.262 154.227 340.887 179.701 344.56C154.227 347.008 131.859 389.245 133.723 429.646V463.925M147.392 464.537C146.771 433.931 146.771 405.773 157.955 384.96C168.517 364.148 189.021 348.233 218.224 345.172C189.643 342.111 168.517 325.584 157.333 304.771C146.771 283.959 146.149 255.801 146.771 225.195M650.672 326.196C644.459 322.523 646.323 308.444 654.4 298.65C664.341 284.571 669.933 270.492 671.176 257.025C673.04 229.48 655.021 206.831 625.197 203.77C644.459 177.449 627.683 129.703 582.947 131.539H569.277M230.029 129.703H264.824C305.832 128.478 348.704 151.739 351.811 176.224C354.296 151.739 397.168 129.091 438.176 130.927H541.939M472.971 144.394C441.904 143.782 413.323 143.782 392.197 154.8C371.072 165.206 354.917 185.406 351.189 213.564C348.083 185.406 331.928 163.982 310.181 153.576C289.056 143.17 260.475 142.557 229.408 143.17M555.608 464.537C556.229 433.931 555.608 405.773 545.045 384.96C533.861 364.148 514.6 348.845 486.019 345.172C514.6 342.111 535.104 326.808 545.667 305.996C556.229 285.183 556.851 257.025 556.229 226.419M569.899 532.483L569.277 430.258C570.52 389.857 548.773 348.845 523.92 345.172C548.773 341.499 571.141 301.711 569.899 260.698V226.419M569.899 226.419C550.016 227.031 521.435 227.031 500.309 227.031M569.899 226.419C605.936 228.255 628.925 260.698 623.955 299.874C622.712 310.281 623.333 318.238 625.819 324.972C630.168 336.602 639.488 342.723 649.429 344.56C650.672 344.56 651.915 345.172 653.157 345.172M372.315 640.218C376.043 634.096 390.333 635.933 400.896 643.891C415.187 653.685 429.477 659.194 443.147 659.806C471.107 661.03 494.096 643.891 497.203 614.508C523.92 633.484 572.384 616.957 570.52 572.884V559.417M230.029 545.95C261.096 546.562 289.677 545.95 310.803 535.544C331.928 525.138 348.083 504.937 351.189 476.78C354.296 504.937 370.451 525.138 392.197 536.156C413.323 546.562 442.525 547.174 472.971 545.95M650.051 364.148C643.837 367.821 645.701 381.9 653.779 391.694C663.72 405.773 669.933 419.852 670.555 433.318C672.419 460.864 654.4 483.513 624.576 486.574C643.837 512.895 627.061 560.641 582.947 558.805H500.309M161.061 560.029H264.824C305.832 561.253 348.083 539.829 351.189 514.731C354.296 539.217 396.547 561.865 437.555 560.029H472.349M52.328 364.76C58.5413 368.433 56.6773 382.512 48.6 392.306C38.6587 406.385 33.0667 420.464 31.824 433.931C30.5813 461.476 47.9787 484.125 77.8027 487.186C58.5413 513.507 75.3173 561.253 120.053 559.417H133.723M230.029 143.782C298.376 149.291 349.325 211.116 349.947 282.735M118.189 211.728C71.5893 210.504 73.4533 143.782 119.432 143.17H202.069M555.608 226.419C550.016 293.753 487.883 345.172 415.187 345.172H367.344C367.344 361.087 367.344 376.39 367.344 390.469M486.64 116.236C487.883 70.9384 555.608 72.1627 556.229 117.46V198.873M472.349 545.95C404.624 541.053 352.432 479.84 352.432 408.221M584.811 477.392C630.789 478.616 629.547 545.338 583.568 545.95L500.931 546.562M147.392 463.925C152.984 396.591 215.117 344.56 287.813 344.56M216.981 574.72C215.739 620.018 148.013 618.793 147.392 573.496V492.083M146.771 157.249V217.237C147.392 288.244 212.011 344.56 287.813 345.172H335.656M216.36 115.012C215.117 69.7141 147.392 70.9384 146.771 116.236V129.703M541.939 144.394H481.048C408.352 145.618 353.053 208.667 353.053 283.347M584.811 212.952C630.789 211.728 629.547 145.006 583.568 144.394H569.899M556.229 531.871V471.882C554.365 400.876 490.368 345.172 414.565 345.172M486.64 574.72C487.883 620.018 555.608 618.181 556.229 572.884V559.417M161.061 546.562H221.952C294.648 545.338 349.947 482.289 349.947 407.609M118.189 477.392C72.2107 478.616 73.4533 545.338 119.432 545.95H133.101M335.035 299.262C335.035 313.341 335.035 329.257 335.035 345.172M335.035 299.262C308.939 295.59 292.784 286.408 281.6 273.553C266.067 257.025 271.659 233.765 290.92 228.868C307.075 225.195 321.365 239.274 316.395 254.577C310.803 268.656 292.163 264.371 291.541 253.353C290.92 247.231 297.133 244.171 301.483 245.395C305.832 246.619 307.696 251.516 305.211 254.577M335.035 299.262C339.384 299.874 347.461 300.487 351.811 300.487M230.029 157.861C279.115 162.758 325.715 200.097 333.792 270.492C334.413 274.165 334.413 277.838 334.413 281.511M133.101 198.261H123.16C92.0933 197.649 92.7147 157.249 122.539 157.249H202.691M290.92 229.48C282.221 212.952 248.048 197.649 222.573 198.261H161.061M541.317 226.419C536.347 274.777 498.445 320.687 426.992 328.644C409.595 330.481 389.712 329.869 367.344 329.869M500.309 130.927V121.133C500.931 90.5265 541.939 91.1386 541.939 120.521V199.485M468.621 287.02C485.397 278.45 500.931 244.783 500.309 219.686V159.085M468.621 287.02C464.272 268.044 440.04 262.535 423.264 277.838C409.595 289.468 400.275 304.771 397.789 330.481M468.621 287.02C472.349 302.935 458.059 317.014 442.525 312.117C428.235 305.996 432.584 288.244 443.768 287.632C449.981 287.02 453.088 293.141 451.845 296.814C450.603 301.099 446.253 302.935 442.525 300.487M472.971 531.871C423.885 526.974 377.285 490.246 369.208 419.239C368.587 415.567 368.587 411.894 367.965 408.221M569.277 490.858H579.219C610.285 491.471 609.664 531.871 579.84 531.871H499.688M411.459 460.864C420.157 477.392 454.331 492.695 480.427 491.471H541.939M161.683 463.925C167.275 415.567 204.555 369.657 276.008 362.312C293.405 360.475 313.288 361.087 335.035 361.087M202.691 559.417V569.211C202.069 599.817 161.061 599.205 161.061 569.823V490.858M234.379 403.936C217.603 412.506 202.069 446.173 203.312 471.27V531.871M234.379 403.936C238.728 422.912 262.96 428.421 279.736 413.118C293.405 401.488 302.725 386.185 305.211 360.475M234.379 403.936C230.651 388.021 244.941 373.942 260.475 378.839C274.765 384.96 270.416 402.712 259.232 403.324C253.019 403.936 249.912 397.815 251.155 394.142C252.397 389.857 256.747 388.021 260.475 390.469M161.061 157.249V213.564C161.061 266.207 198.341 318.85 276.008 327.42C277.872 327.42 284.085 328.644 290.299 328.644C297.133 329.257 303.347 329.257 305.211 329.257C315.152 329.257 325.715 329.257 336.277 329.869M202.691 198.261V119.909C202.069 89.3023 161.061 89.9144 161.061 119.297V129.703M233.757 285.795C218.845 277.838 203.933 249.68 202.691 225.195M233.757 285.795C238.107 266.207 262.339 261.31 279.115 276.614C292.784 288.244 302.104 303.547 304.589 329.257M233.757 285.795C230.029 301.711 244.32 315.79 259.853 310.893C274.144 304.771 269.795 287.02 258.611 286.408C252.397 285.795 249.291 291.917 250.533 295.59C251.776 299.874 256.125 301.711 259.853 299.262M367.344 299.874C366.723 315.178 367.344 330.481 366.723 345.784M541.939 158.473H484.776C431.341 158.473 377.907 195.813 369.208 271.717C368.587 274.777 368.587 278.45 368.587 281.511M500.309 199.485H579.84C610.907 198.873 610.285 158.473 580.461 158.473H569.899M411.459 230.092C419.536 215.401 448.117 200.71 472.971 199.485M541.939 532.483V476.167C541.939 423.524 504.037 371.493 426.371 362.924C424.507 362.924 418.293 362.312 412.08 361.699C405.867 361.087 399.032 361.699 397.789 361.087C387.848 361.087 377.285 361.087 367.344 361.087M500.309 491.471V569.823C500.931 600.429 541.939 599.817 541.939 570.435V560.029M468.621 403.936C484.155 411.894 498.445 440.052 500.309 463.925M335.656 390.469C335.656 375.166 335.035 359.863 335.035 344.56M161.061 532.483H218.224C271.659 532.483 325.093 495.143 333.792 419.239C334.413 416.179 334.413 412.506 334.413 409.445M202.691 491.471H123.16C92.0933 492.083 92.7147 532.483 122.539 532.483H133.101M291.541 460.252C283.464 475.555 254.883 489.634 230.029 490.858M292.163 256.413C296.512 268.656 310.181 278.45 334.413 282.123C338.141 282.735 347.461 283.347 352.432 283.347M441.283 287.632C428.856 291.917 420.157 305.384 416.429 329.257M410.216 433.931C405.867 421.688 392.197 412.506 367.965 408.833C364.859 408.221 356.16 407.609 350.568 407.609M261.717 402.712C274.144 398.427 282.843 384.96 286.571 361.087M261.096 287.02C273.523 291.305 282.221 304.771 285.949 328.644M410.216 257.025C405.245 271.717 386.605 281.511 351.189 282.735M441.283 403.324C428.856 399.039 420.157 386.185 416.429 361.699M292.784 433.318C297.755 418.627 316.395 408.833 351.811 406.997M126.267 211.728C89.608 210.504 69.7253 212.952 55.4347 226.419C41.7653 239.274 39.28 263.147 51.7067 284.571C61.648 299.262 64.7547 320.687 55.4347 328.032C54.192 329.257 52.328 329.869 49.8427 330.481M486.64 124.806C487.883 88.6901 484.776 69.102 471.728 55.0231C458.68 41.5562 434.448 39.1077 412.701 51.9624C396.547 62.3686 374.179 65.4292 367.344 53.7988C366.723 53.1867 366.101 51.3503 366.101 49.5139M576.112 477.392C612.771 478.616 632.653 475.555 646.944 462.701C660.613 449.846 663.099 425.973 650.051 404.548C639.488 388.633 636.381 364.76 648.808 359.251C648.808 359.251 650.051 358.639 650.672 358.639C651.293 358.639 651.915 358.639 651.915 358.639M216.36 567.375C216.36 569.823 216.36 580.841 216.36 583.29C216.981 608.387 220.709 623.69 231.272 635.321C244.32 648.788 268.552 651.236 290.299 638.381C302.725 630.424 318.88 626.751 328.821 630.424C331.928 631.648 335.035 634.096 336.277 637.157C336.277 637.769 336.899 638.994 336.899 639.606M216.36 123.581C215.117 87.4659 218.224 67.8778 231.272 53.7988C244.32 40.332 268.552 37.8835 290.299 50.7382C306.453 61.1443 329.443 64.205 336.277 52.5746C336.899 51.9624 336.899 50.7382 336.899 50.126M576.112 212.952C612.771 211.728 632.653 214.789 646.944 227.643C660.613 240.498 663.099 264.371 650.051 285.795C639.488 301.711 636.381 324.36 648.187 331.093C648.808 331.705 650.051 331.705 651.293 332.317M486.64 566.15C487.883 602.266 485.397 621.854 471.728 635.933C458.68 649.4 435.069 651.848 412.701 639.606C396.547 629.199 372.936 626.139 366.723 638.381C366.101 638.994 366.101 640.83 366.101 641.442M126.888 478.004C90.2293 479.228 70.3467 476.167 56.056 463.313C42.3867 450.458 39.9013 426.585 52.9493 405.161C56.6773 399.651 59.1627 392.918 61.0267 386.797C63.512 376.39 62.8907 365.984 57.2987 361.087C56.056 359.863 53.5707 359.251 51.7067 358.639M161.061 211.728C186.536 211.728 216.981 212.34 223.816 212.34C246.184 212.34 270.416 225.195 279.115 236.825M49.2213 337.214C50.464 337.214 53.5707 336.602 54.8133 335.99C65.376 332.929 71.5893 319.463 69.7253 308.444C66.6187 287.632 63.512 272.941 67.8613 257.638C75.9387 228.868 100.171 211.116 129.995 211.116C130.616 211.116 131.859 211.116 132.48 211.116M486.64 158.473C486.64 183.57 486.019 213.564 486.019 220.298C486.019 242.334 473.592 266.207 461.165 274.777M359.267 48.2896C359.267 48.9018 359.267 51.3503 359.267 51.9624C360.509 64.205 376.043 70.9384 387.227 69.102C407.731 66.0414 423.264 62.9807 438.797 67.2656C468 75.2233 486.019 98.4842 486.019 128.478C486.019 129.091 486.019 130.315 486.019 130.927M541.939 478.004C516.464 478.004 486.019 478.004 479.184 478.004C456.816 478.004 432.584 465.761 423.885 454.131M653.157 351.905C652.536 351.905 650.051 352.517 648.808 352.517C637.003 354.966 630.168 369.045 632.653 380.063C635.76 400.263 638.867 415.567 634.517 430.87C626.44 459.64 602.829 477.392 572.384 477.392C571.763 477.392 570.52 477.392 569.899 477.392M216.36 532.483C216.36 507.386 216.981 477.392 216.981 470.658C216.981 448.622 229.408 424.749 241.835 416.179M343.733 641.442C343.733 640.83 343.733 638.994 343.112 638.381C341.248 626.751 326.336 620.018 315.152 621.854C294.648 624.915 279.115 627.975 263.581 623.69C234.379 615.733 216.36 592.472 216.36 562.477C216.36 561.865 216.36 560.641 216.36 560.029M216.981 226.419C219.467 246.007 230.651 266.207 241.213 273.553M343.733 48.9018C343.733 49.5139 343.733 50.7382 343.733 51.3503C342.491 63.5929 326.957 70.3263 315.773 67.8778C295.269 64.8171 279.736 61.7565 264.203 66.0414C235 73.999 216.981 97.2599 216.981 127.254C216.981 141.333 216.981 175.612 216.981 198.261M471.728 213.564C451.845 216.013 431.341 227.031 423.885 237.437M652.536 338.439C651.915 338.439 650.672 338.439 650.051 338.439C637.624 337.214 630.789 321.911 632.653 310.893C635.76 290.693 638.867 275.389 634.517 260.086C626.44 231.316 602.829 213.564 572.384 213.564C558.093 213.564 523.299 213.564 500.309 214.176M485.397 463.313C482.912 443.725 471.728 423.524 461.165 416.179M359.888 642.054C359.888 641.442 359.888 640.218 359.888 639.606C361.131 627.363 376.664 620.63 387.848 622.466C408.973 625.527 423.885 628.587 439.419 624.302C468.621 615.733 486.64 592.472 486.64 563.09C486.64 549.011 486.019 514.731 486.019 492.083M231.272 476.78C251.155 474.331 271.659 463.313 279.115 452.906M49.2213 351.905C51.0853 351.905 55.4347 353.13 57.2987 353.742C67.24 357.415 72.2107 370.269 70.3467 380.675C67.24 400.876 64.1333 416.179 68.4827 431.482C76.56 460.252 100.171 478.004 130.616 478.004C144.907 478.004 179.701 478.004 202.691 477.392M133.101 225.195C97.064 227.031 74.0747 259.474 79.0453 298.65C80.288 309.056 79.6667 317.014 77.1813 323.747C72.832 334.766 64.1333 340.887 54.8133 343.336C53.5707 343.336 50.464 343.948 49.2213 343.948M272.901 252.128C269.173 239.886 244.32 225.807 224.437 225.195C212.011 225.195 185.915 225.195 161.683 225.195M472.971 130.927C471.107 95.4235 438.176 72.7748 398.411 77.6718C387.848 78.8961 379.771 78.2839 372.936 75.8354C361.131 71.5505 354.917 62.3686 353.053 51.9624C353.053 51.3503 353.053 48.9018 352.432 48.2896M445.632 268.656C458.059 264.983 471.728 240.498 472.349 220.91C472.349 208.667 472.349 182.958 472.349 159.085M569.899 463.925C605.936 462.088 628.925 429.646 623.333 390.469C622.091 380.063 622.712 372.106 625.197 365.372C629.547 353.13 639.488 347.008 650.672 345.784C651.293 345.784 653.157 345.784 653.779 345.784M429.477 437.603C433.205 449.846 458.059 463.313 477.941 463.925C490.368 463.925 516.464 463.925 540.696 463.925M230.651 560.029C232.515 595.532 265.445 618.181 305.211 613.284C315.773 612.06 323.851 612.672 330.685 615.121C342.491 619.405 348.704 628.587 350.568 638.381C350.568 639.606 351.189 641.442 351.189 642.666M257.368 421.688C244.941 425.361 231.272 449.846 230.651 469.434C230.651 481.677 230.651 507.386 230.651 531.259M230.651 198.261C230.651 177.449 230.651 149.291 230.651 129.703C232.515 94.1993 265.445 71.5505 305.211 77.0597C315.773 78.2839 323.851 77.6718 330.685 75.2233C343.733 70.3263 349.947 59.9201 350.568 48.9018M257.368 268.044C246.184 264.983 233.757 244.171 231.272 225.807M429.477 253.353C432.584 242.334 453.709 230.092 472.349 227.031M472.349 491.471C472.349 512.283 472.971 540.441 472.971 560.029C471.728 595.532 438.176 618.181 399.032 613.284C388.469 612.06 380.392 612.672 373.557 615.121C360.509 620.018 354.917 630.424 353.675 641.442M445.011 422.3C456.195 425.361 468.621 445.561 471.728 464.537M203.312 463.925C182.187 463.925 153.605 463.925 133.723 464.537C97.6853 462.701 74.696 430.258 79.6667 391.082C80.9093 380.675 80.288 372.718 77.8027 365.984C72.832 353.13 61.0267 347.008 49.2213 345.784M273.523 437.603C270.416 448.622 249.291 460.864 230.651 463.925M397.168 435.767C394.683 438.828 397.168 443.725 400.896 444.949C405.245 446.173 410.837 442.5 410.216 436.991C409.595 425.973 390.955 421.688 385.363 435.767C380.392 451.07 394.683 465.149 410.837 461.476C430.099 456.579 435.691 433.318 420.157 416.791C408.973 403.936 393.44 394.142 366.723 391.694C361.752 391.082 353.675 390.469 350.568 391.082M350.568 301.099C387.227 301.099 407.109 291.305 420.157 275.389C435.691 258.862 430.099 234.989 410.837 230.704C394.683 227.031 380.392 241.11 385.363 256.413C391.576 270.492 409.595 266.207 410.216 255.189C410.837 249.068 404.624 246.007 400.896 247.231C396.547 248.456 394.683 252.741 397.168 256.413M397.168 361.087C400.275 386.797 409.595 402.1 422.643 413.73C439.419 429.033 463.651 423.524 468 404.548C471.728 388.633 457.437 374.554 441.904 379.451C427.613 385.572 431.963 403.324 443.147 403.936C449.36 404.548 452.467 398.427 451.224 394.754C449.981 390.469 445.632 388.633 441.904 391.082M352.432 389.857C315.773 389.857 295.891 400.263 282.843 415.567C267.309 432.094 272.901 455.967 292.163 460.252C308.317 463.925 322.608 449.846 317.637 434.543C311.424 420.464 293.405 424.749 292.784 435.767C292.163 441.888 298.376 444.949 302.104 443.725C306.453 442.5 308.317 438.215 305.832 434.543M27.4747 313.341C23.7467 314.566 22.504 320.075 26.8533 324.36C34.9307 330.481 49.2213 321.911 43.6293 309.056C36.7947 296.202 20.0187 296.202 11.9413 308.444C3.864 324.36 16.2907 343.336 34.3093 343.336M382.877 26.8652C381.635 23.1924 376.043 21.9681 371.693 26.253C365.48 34.2107 374.179 48.2896 387.227 42.7805C400.275 36.0471 400.275 18.9075 387.848 12.1741C372.315 4.82853 353.675 15.8468 352.432 32.9864M674.904 375.166C678.632 373.942 679.875 368.433 675.525 364.148C667.448 358.027 653.157 366.596 659.371 379.451C665.584 392.306 683.603 391.694 690.437 380.063C697.893 364.148 686.088 345.172 667.448 345.172M320.123 664.091C321.365 667.764 326.957 668.988 331.307 664.703C337.52 656.745 328.821 642.666 315.773 648.788C302.725 655.521 302.725 672.048 315.152 679.394C331.307 686.74 350.568 675.109 350.568 656.745M320.123 25.6409C321.365 21.9681 326.957 20.7439 331.307 25.0288C337.52 32.9864 328.821 47.0654 315.773 40.9441C302.725 34.2107 303.347 17.0711 315.152 10.3377C331.307 2.99215 350.568 14.6226 350.568 32.9864M675.525 315.178C679.253 316.402 680.496 321.911 676.147 326.196C668.069 332.317 653.779 323.747 659.992 310.893C666.827 298.038 684.224 298.038 691.059 310.281C698.515 326.196 686.709 345.172 668.069 345.172M383.499 664.091C382.256 667.764 376.664 668.988 372.315 664.703C366.101 656.745 374.8 642.666 387.848 648.175C400.896 654.909 400.896 671.436 388.469 678.782C372.315 686.74 353.053 674.497 353.053 656.745M27.4747 375.778C23.7467 374.554 22.504 369.045 26.8533 364.76C34.9307 358.639 49.2213 367.209 43.6293 380.063C37.416 392.918 19.3973 392.918 12.5627 380.675C4.48534 364.76 16.912 345.784 34.9307 345.784" stroke="#313A4B" stroke-opacity="0.11" stroke-width="2" stroke-miterlimit="22.926"/>
</svg>
