<svg width="85" height="153" viewBox="0 0 85 153" fill="none" xmlns="http://www.w3.org/2000/svg">
<path id="Vector" d="M12.2087 39.2115C12.1156 40.7758 12.5812 42.2481 13.6986 43.6284M13.6986 43.6284C13.8848 56.2351 10.812 63.6886 11.9294 68.7497C13.3261 75.191 19.0061 75.8352 20.3097 75.8352C23.5687 75.8352 25.8035 73.6267 26.7346 71.2342C27.5726 69.1178 27.4795 66.4492 26.1759 64.7009C25.0585 63.1365 23.7549 62.4004 21.7995 62.3083C19.6579 62.1243 17.6094 63.4126 17.33 65.621M13.6986 43.6284C16.8645 44.1805 19.2854 43.1683 20.8684 40.4998C22.7307 46.6651 23.7549 51.5421 23.9412 55.0388M13.4192 34.9786C11.7432 35.0706 11.2776 36.4509 11.5569 37.7392C11.7432 38.6594 12.4881 39.6716 13.4192 40.8678C13.9779 40.9599 14.9091 40.2237 14.3504 39.1195M14.3504 34.0584C12.4881 35.2547 12.8605 37.1871 14.9091 40.0397C15.4678 40.1317 16.3058 39.3955 15.7471 38.3833C15.4678 37.5552 15.2815 37.003 15.2815 36.5429M20.6822 40.6838C21.7995 35.2547 19.5648 32.6781 14.2573 33.0462C14.071 33.6903 14.2573 34.4265 14.9091 34.9786C15.2815 35.2547 16.0264 35.4387 16.9576 35.4387C17.0507 35.9908 17.33 36.4509 17.8887 36.727C16.6782 37.3711 15.8402 38.6594 16.2127 40.3157M59.4178 24.1203C58.6729 23.9363 58.1142 23.9363 57.183 23.8443M27.4795 24.1203C28.2244 23.9363 28.7831 23.9363 29.7143 23.8443M59.1384 25.9607C58.3935 25.6847 57.6486 25.5006 56.8106 25.3166M27.6657 25.9607C28.4107 25.6847 29.1556 25.5006 29.9936 25.3166M58.766 27.7091C57.928 27.341 57.0899 26.9729 56.0657 26.6969M28.0382 27.7091C28.8762 27.341 29.7143 26.9729 30.7385 26.6969M58.4866 29.4575C57.4624 28.9053 56.6243 28.4452 55.4139 27.8931M28.3175 29.4575C29.3418 28.9053 30.1798 28.4452 31.3903 27.8931M58.1142 31.3899C56.9968 30.4697 55.7863 29.7335 54.4827 28.9974M28.8762 31.2978C29.9936 30.3776 31.111 29.7335 32.4146 28.9974M57.3693 33.3223C56.0657 32.126 54.8552 31.2058 53.1791 30.2856M29.4349 33.3223C30.7385 32.126 31.949 31.2058 33.6251 30.2856M56.7175 35.3467C55.4139 33.7824 54.0171 32.6781 52.0617 31.3899M30.1798 35.2547C31.4834 33.6903 32.787 32.6781 34.7424 31.3899M55.7863 37.7392C54.4827 35.8988 52.8998 34.1504 50.8513 32.6781M31.111 37.6472C32.4146 35.8068 33.9044 34.1504 35.9529 32.6781M54.8552 15.8386C51.6893 13.5381 48.5234 14.1822 46.2886 13.8142C44.7057 13.6301 43.6814 12.802 43.4021 11.2376C43.1228 12.802 42.0985 13.6301 40.5155 13.8142C38.2808 14.1822 35.1149 13.5381 31.949 15.8386M40.5155 34.1504C42.0054 35.0706 43.5883 35.3467 45.5437 34.6105M17.5163 33.3223C17.1438 31.5739 16.5851 30.0096 15.9333 28.4452C15.654 27.8931 14.9091 27.7091 14.5366 28.0772C14.1642 28.3532 14.071 28.9053 14.2573 29.7335C14.6297 30.9298 15.0022 32.034 15.1884 33.0462M19.9372 34.8866C19.4717 32.4941 18.8199 30.1936 17.8887 28.0772C17.6094 27.433 16.8645 27.341 16.492 27.7091C16.1196 27.9851 16.0264 28.5373 16.2127 29.3654M48.0578 2.67983C47.1267 6.08454 46.568 8.93714 45.9162 11.5137M38.7464 2.67983C39.6775 6.08454 40.2362 8.93714 40.888 11.5137M66.4945 20.7156C63.8873 21.1757 61.4663 21.4518 58.6729 21.9119M20.3097 20.7156C22.9169 21.1757 25.3379 21.4518 28.1313 21.9119M66.7738 27.525C63.7942 27.065 61.5594 26.8809 59.1384 26.6049M20.1235 27.525C23.1031 27.065 25.3379 26.8809 27.7589 26.6049M31.3903 46.7571C23.6618 42.4322 18.913 34.3345 18.913 25.5926C18.913 12.1578 29.9936 1.20752 43.5883 1.20752C57.183 1.20752 68.2637 12.1578 68.2637 25.5926C68.2637 33.5063 64.3528 40.8678 57.9279 45.4688M12.0225 61.1121C15.8402 61.9403 19.1923 61.2041 21.8927 58.9036M13.6055 47.3092C16.8645 48.2294 20.1235 46.9411 21.8927 44.3646M13.3261 51.266C17.1438 52.2782 20.5891 50.6219 22.8238 47.8613M12.8605 55.959C17.0507 56.9712 20.9615 55.4069 23.6618 52.7383M29.7143 19.7034C33.6251 16.1146 40.2362 16.2987 42.2847 19.3353C41.9123 24.3044 41.6329 28.0772 41.4467 30.8377C42.471 31.2978 43.309 31.4819 44.147 31.2058M54.5758 40.1317C52.1549 35.8068 49.6408 32.9542 45.3575 30.7457C45.1713 27.9851 44.985 24.2123 44.5195 19.2433C46.568 16.2067 53.2722 15.9306 57.4624 19.1513M32.3215 40.1317C34.6493 35.8988 37.3497 33.0462 41.5398 30.9298M34.37 42.0641C34.6493 41.42 35.1149 40.4078 35.4874 39.7636M35.4874 39.7636C35.5805 39.5796 35.6736 39.3955 35.7667 39.3035C37.4428 36.4509 40.05 33.9664 43.4021 32.4941C47.8716 34.4265 50.7581 38.2913 52.7135 42.5242M35.4874 39.7636C36.2323 41.1439 37.629 42.9843 36.8841 44.8247C36.1392 46.9411 33.532 48.2294 31.4834 50.2538M46.6611 36.727C48.0578 40.2237 49.6408 44.8247 50.2926 47.1252M39.8637 37.003C38.5601 40.9599 37.7221 43.9965 37.0703 46.389M41.2605 37.2791C40.2362 42.1561 39.5844 45.8369 39.2119 48.3214M45.2644 37.1871C46.568 42.5242 47.4991 46.297 47.8716 49.1496M42.5641 37.3711C42.2847 43.4444 42.0985 47.7693 42.0054 50.2538M43.9608 37.3711C44.5195 42.9843 44.985 47.3092 45.2644 50.6219M61.0938 125.71C60.5352 132.887 63.7942 136.844 68.6361 139.329C73.8505 141.905 80.1823 144.298 82.3239 146.506C81.1134 142.181 80.2754 135.648 80.1823 132.151C79.5305 121.201 80.2754 114.851 74.3161 107.214C70.8709 102.797 65.4702 99.2081 59.1384 97.0916C58.5798 93.871 58.3935 91.0184 58.3004 88.0738C58.2073 86.9695 58.2073 85.5892 58.1142 84.485C63.1424 86.8775 67.9843 85.6813 70.5915 83.1967C73.2918 80.6202 74.3161 75.7432 73.8505 70.406C72.9194 60.9281 66.8669 51.174 56.0657 44.1805C53.7378 42.7082 53.3653 42.2481 55.1345 39.0275C57.4624 34.4265 58.9522 29.4575 59.4178 24.0283M44.7988 50.898C45.0782 55.3149 45.1713 59.2717 45.2644 62.5844M36.3254 45.7449C38.467 47.9533 41.0742 50.2538 43.9608 51.174C46.8473 50.4379 49.0821 48.5055 51.7824 45.5608M33.9975 48.1374C36.6979 49.7017 38.8395 51.5421 40.3293 53.7506C41.9123 56.2351 42.7503 59.1797 43.1227 62.7684M55.2276 48.2294C53.3653 46.6651 51.1306 45.4688 50.4788 43.7204C49.9201 42.2481 50.5719 40.8678 51.2237 39.6716M83.6275 115.035C82.2308 115.588 80.4617 115.588 78.5063 115.219M1.03501 111.723C2.43173 112.735 3.92156 113.287 5.41139 113.379M76.2715 97.9198C74.9679 98.748 74.1299 100.312 74.1299 101.877C74.1299 104.637 76.4577 106.938 79.3443 107.122C80.8341 107.214 82.2308 106.57 83.2551 105.557M9.22909 96.1715C10.6258 97.1837 11.3707 98.748 11.4638 100.312C11.4638 103.073 9.22908 105.189 6.34254 105.097C4.75959 105.005 3.26976 104.269 2.2455 102.981M76.3646 110.25C77.2958 110.711 78.6925 110.895 79.3443 110.895C80.9272 110.987 82.5102 110.618 83.8138 109.974M71.5227 96.1715C70.4984 97.6438 69.8466 99.3921 69.8466 101.325C69.8466 101.877 69.9397 102.337 70.0328 102.889M8.39105 108.778C7.73925 108.87 7.08745 108.962 6.34254 108.87C4.48025 108.778 2.71107 108.134 1.12813 107.122M13.9779 94.8832C15.0953 96.4475 15.7471 98.2879 15.7471 100.22C15.7471 101.417 15.5609 102.521 15.0953 103.625M24.1274 68.5657C23.5687 72.2464 20.8684 74.3629 17.2369 75.099M13.1399 71.7863C17.6094 72.0624 21.2409 69.7619 21.8927 66.0811M24.8723 73.9948C25.5241 71.5103 24.593 68.3816 22.6376 66.7253C21.1477 65.437 19.0992 65.0689 17.2369 65.621C16.3058 67.8295 13.8848 67.9215 11.6501 67.4614M20.6822 62.2163C22.0789 57.1553 24.593 53.0144 28.2244 49.5177C29.7143 48.0454 33.1595 45.3768 33.9044 43.6284C34.1838 42.9843 33.8113 42.6162 33.532 42.0641C30.1798 36.635 28.1313 30.5617 27.4795 23.9363C30.9248 8.20099 54.2965 5.71647 59.4178 23.9363M10.9051 146.506C24.2205 151.935 35.9529 151.935 42.7503 151.935M42.7503 151.935C48.8027 151.935 58.1142 152.395 71.8951 145.034M42.7503 151.935C36.046 151.843 24.4067 150.739 16.2127 143.929M42.7503 151.935C48.8027 151.935 59.1384 150.187 66.4014 142.549M19.9372 141.169C26.8277 146.874 37.0703 147.886 42.8434 147.702C47.9647 147.518 57.183 145.862 62.863 140.065M22.3582 137.212C28.9694 142.549 36.6979 143.377 42.5641 143.193C47.6854 143.009 54.3896 141.537 60.1627 137.212M23.4756 131.967C28.9694 137.764 38.1877 138.776 42.471 138.684C47.5922 138.592 52.8067 137.304 58.0211 133.255M27.0139 128.654C30.7385 132.151 38.1877 134.175 42.471 134.083C47.5922 133.991 51.9686 132.703 57.0899 128.47M29.3418 124.421C32.6008 127.458 38.0946 128.93 42.3778 128.838C47.4991 128.746 52.248 127.09 57.3693 122.765M30.6454 119.82C37.1634 124.513 47.1267 125.158 54.8552 118.992M30.7385 114.391C37.2565 120.004 47.0336 120.096 53.5516 115.035M39.8637 80.8042C41.9123 81.8164 44.5195 81.9085 46.9404 81.0803M39.5844 85.6813C41.6329 86.7855 44.4263 87.0615 46.9404 86.1413M39.2119 91.2024C41.5398 92.3066 44.4263 92.5827 46.9404 91.6625M38.9326 96.9076C41.3536 98.1039 44.6126 98.3799 47.2198 97.1837M38.5601 102.521C41.3536 103.625 44.7988 103.901 47.5922 102.705M38.3739 108.134C42.3778 109.606 46.9404 109.238 50.665 106.478M30.9248 109.422C37.7221 115.403 47.1267 115.956 53.6447 109.698M67.6119 95.3433C66.2151 96.4475 65.4702 97.9198 65.0978 99.5762M17.8887 94.3311C19.751 95.9874 20.6822 98.4719 20.6822 100.772M62.4906 91.6625C61.0007 91.3864 59.4178 91.5705 58.4866 92.4907M62.4906 91.6625C61.8388 88.8099 61.5594 87.1536 61.187 85.4972M62.4906 91.6625C63.701 92.1226 65.0047 93.5949 65.1909 94.9752C66.2151 95.1592 66.0289 95.0672 66.96 95.2513C73.4781 96.5395 77.482 97.8278 80.6479 101.048C84.5587 105.189 84.2793 110.526 83.2551 118.716C82.7895 122.949 79.5305 130.955 82.3239 146.322M23.6618 91.2944C25.8966 91.2944 27.3864 91.8465 28.4107 92.9508M65.1909 94.8832C62.9561 95.1592 60.9076 95.5273 59.1384 96.9996M21.4271 93.963C23.5687 95.3433 24.7792 97.0916 25.2448 99.3001M26.1759 72.1544C25.7103 77.3995 25.0585 82.7366 23.6618 91.3865C22.4513 91.6625 21.6133 92.7667 21.4271 94.055C13.233 94.7912 8.39105 95.5273 4.94582 99.0241C-0.827277 104.637 0.662554 113.563 3.5491 130.955M29.8074 109.698C32.6008 119.36 29.528 127.642 23.1963 132.059M28.2244 49.6097C31.3903 49.7937 34.7424 51.4501 36.9772 54.3027C38.7464 56.6032 39.8637 59.5478 40.3293 63.0445M47.3129 73.3507L45.5437 73.4427L45.2644 68.0135L52.6204 67.4614L53.1791 71.6943M47.0336 76.0192L43.0296 76.1112L42.471 65.621L55.2276 64.7009L56.5312 74.6389M46.9404 78.6878L40.4224 78.9638L39.6775 63.1365L57.6486 61.5722L59.7902 75.191M82.3239 146.414C82.6964 148.07 83.2551 149.819 84 151.567C81.6721 149.083 74.3161 145.954 68.4499 143.469C59.5109 139.513 55.7863 132.611 57.5555 122.949M22.4513 128.01C24.593 135.74 21.4271 140.709 17.0507 143.377C12.3019 146.23 6.34254 147.886 4.57336 150.187C5.13205 145.862 4.8527 140.985 4.48025 137.488C3.08353 126.63 1.77993 118.9 6.715 111.079C10.5327 105.005 19.4717 100.496 27.9451 98.564C29.3418 83.8409 30.1798 74.3629 30.273 68.1056C30.3661 61.5722 26.5484 58.0755 21.7995 59.3637M22.7307 112.459C23.7549 115.403 23.3825 120.465 21.7995 123.317C18.913 128.102 12.2087 128.838 9.50843 134.083C8.76351 135.556 8.29794 137.488 8.29794 139.881M18.5405 131.047C20.8684 140.341 10.2533 141.077 8.29794 143.929C8.48417 141.077 8.20483 138.316 7.92548 136.016C7.45991 131.691 6.99434 127.918 6.99434 124.605C6.90122 118.992 8.76351 113.563 14.4435 109.054C18.1681 106.11 23.7549 103.717 31.3903 101.785C32.787 86.4174 33.2526 75.7432 33.6251 68.1976C33.8113 64.4248 33.0664 61.2041 31.4834 59.0877C29.4349 56.2351 26.0828 55.3149 23.1963 56.051M57.5555 108.778C56.6243 112.367 56.9037 116.232 59.1384 118.992C61.2801 121.569 63.9804 122.949 66.6807 124.329C69.2879 125.71 72.4538 126.906 74.5954 129.943C75.7128 131.415 76.5508 133.347 77.0164 135.832M64.9115 127.55C64.7253 131.139 66.2151 133.163 68.2637 134.728C71.6158 137.304 76.3646 138.132 77.8544 139.881C77.1095 136.936 76.7371 134.175 76.5508 131.783C76.2715 127.918 76.2715 123.869 75.899 120.649C75.4335 116.416 74.1299 112.459 70.8709 108.962C67.1463 105.005 61.9319 101.877 55.2276 99.5762C54.5758 94.4231 54.2034 90.0982 54.0171 80.7122M61.0007 110.618C60.6283 112.919 61.0007 115.219 62.2112 117.06C63.4217 118.808 65.284 119.82 67.0532 120.741C69.381 121.937 71.6158 122.857 72.9194 124.053C73.0125 119.084 72.1745 115.68 68.7292 111.999C65.0978 108.134 59.5109 104.913 51.7824 102.797C50.5719 94.5151 50.1994 84.7611 50.5719 73.5347C52.9929 77.1235 56.4381 78.8718 59.9765 78.3197C61.7456 78.0436 63.4217 77.3075 65.0978 76.0192C68.1705 73.5347 73.385 75.2831 72.7331 79.9761M19.5648 114.575C19.8441 116.784 19.751 119.176 19.0061 120.833C16.8645 125.342 12.395 126.078 10.9983 128.102C10.4396 125.342 10.6258 122.397 11.3707 120.096C11.9294 118.256 12.7674 116.508 13.9779 115.035C17.7956 110.342 24.593 106.754 34.9287 104.913C35.5805 94.055 36.3254 82.8287 37.2565 70.7741C37.629 63.8727 36.5116 58.9036 33.8113 55.775C31.7628 53.4745 28.5969 52.0942 25.431 52.8304M14.9091 133.531C15.1884 134.451 14.9091 135.28 14.3504 135.924C13.6986 136.752 12.4881 137.028 12.0225 137.672C12.395 135.372 14.071 133.991 17.0507 132.059C18.8199 130.863 22.172 129.206 24.4999 125.986C26.8277 122.765 28.1313 117.98 26.3621 111.079M69.4741 130.127C69.4741 131.047 69.8466 131.507 70.4053 132.059C71.1502 132.887 72.1745 133.163 72.7331 133.715C71.9882 131.415 69.9397 130.127 66.4945 128.378C62.3974 126.262 50.2926 122.397 54.1103 107.49M47.9647 62.4004C48.7096 60.1919 48.989 57.7074 49.5476 55.4989C50.5719 51.174 52.8998 48.6895 55.7863 48.1374C58.5797 47.4932 61.5594 48.2294 63.7942 50.6219M51.5031 62.0323C53.086 60.1919 54.0171 57.3393 54.6689 54.9468C55.4139 51.9102 57.0899 50.3458 59.1384 49.7937C61.0938 49.2416 63.1424 49.7937 64.7253 51.4501M55.7863 61.7562C57.2761 60.56 57.8348 58.9957 58.3935 57.1553C59.604 52.1862 64.1666 51.082 66.8669 54.0266M57.9279 63.9647C58.1142 63.8727 58.3004 63.8727 58.3935 63.7807C59.6971 63.0445 60.2558 62.1243 61.0007 60.3759C62.9561 55.5909 67.6119 55.2229 69.8466 58.4435M58.5797 67.5534C58.9522 67.4614 59.2316 67.4614 59.604 67.2774C61.0938 66.7253 61.7456 65.8971 62.7699 64.1487C65.4702 59.5478 70.3122 59.7318 72.1745 63.4126M59.1384 71.3262C59.5109 71.3262 59.7902 71.2342 60.1627 71.1422C61.6525 70.6821 62.3974 69.9459 63.6079 68.2896C66.7738 63.7807 71.8951 64.7008 73.5712 68.7497M65.1909 113.379C65.1909 114.391 65.4702 115.311 65.9358 115.956C66.6807 116.876 67.8912 117.336 68.543 117.888C67.1463 114.207 63.701 111.907 60.0696 109.974C55.6932 107.766 53.3653 106.938 47.8716 105.926C47.1267 95.5273 46.2886 83.1047 47.406 72.0624C47.7785 68.7497 51.1306 68.1976 52.9929 71.0502C54.4827 74.0868 57.183 75.4671 59.8834 75.007C61.187 74.823 62.4906 74.0868 63.701 72.8906C67.3325 68.6577 72.5469 70.13 73.9436 74.0868M40.1431 74.915C39.3051 88.8099 38.5601 98.4719 38.467 108.134C31.5766 108.87 25.8035 110.526 21.6133 113.103C18.1681 115.219 14.9091 118.256 13.9779 121.661C14.9091 120.741 16.3989 119.36 16.3058 117.52M50.4788 19.9795C49.4545 19.9795 48.6165 20.8076 48.6165 21.7278C48.6165 22.74 49.4545 23.4762 50.4788 23.4762C51.5031 23.4762 52.3411 22.648 52.3411 21.7278C52.248 20.8076 51.5031 19.9795 50.4788 19.9795ZM36.5116 19.8874C37.5359 19.8874 38.3739 20.7156 38.3739 21.6358C38.3739 22.648 37.5359 23.3842 36.5116 23.3842C35.4874 23.3842 34.6493 22.556 34.6493 21.6358C34.6493 20.7156 35.4874 19.8874 36.5116 19.8874ZM45.4506 22.0039C47.6854 17.3109 52.8998 17.679 55.6932 22.0959C52.7135 26.0527 47.406 25.7767 45.4506 22.0039ZM41.8191 22.0959C39.5844 17.4029 33.3457 17.3109 31.0179 22.372C34.1838 25.8687 39.3051 25.8687 41.8191 22.0959ZM79.4374 100.864C78.5994 100.864 77.8544 101.509 77.8544 102.337C77.8544 103.165 78.5994 103.901 79.4374 103.993C80.2754 104.085 81.0203 103.349 81.0203 102.521C81.1135 101.601 80.3685 100.864 79.4374 100.864ZM6.06319 98.84C6.99434 98.84 7.64614 99.5762 7.64614 100.496C7.64614 101.325 6.90122 102.061 6.06319 101.969C5.22516 101.877 4.48025 101.233 4.48025 100.312C4.48025 99.4842 5.22516 98.748 6.06319 98.84Z" stroke="black" stroke-width="0.5" stroke-miterlimit="22.926"/>
</svg>
