<svg width="22" height="22" viewBox="0 0 22 22" fill="none" xmlns="http://www.w3.org/2000/svg">
<g id="Group 10202">
<path id="Rectangle 5004" d="M1 6.84229C1 5.73772 1.89543 4.84229 3 4.84229L19 4.84229C20.1045 4.84229 21 5.73772 21 6.84229V8.9143C21 9.92875 20.2405 10.7825 19.2329 10.9007L11.233 11.839C11.0782 11.8571 10.9218 11.8571 10.767 11.839L2.76703 10.9007C1.75949 10.7825 1 9.92875 1 8.9143L1 6.84229Z" stroke="#189387" stroke-width="2"/>
<g id="Mask group">
<mask id="mask0_1099_125" style="mask-type:alpha" maskUnits="userSpaceOnUse" x="6" y="0" width="10" height="9">
<rect id="Rectangle 5004_2" x="7.59766" y="1.22949" width="6.79998" height="5.80265" rx="2" stroke="#189387" stroke-width="2"/>
</mask>
<g mask="url(#mask0_1099_125)">
<rect id="Rectangle 5005" x="4.83398" y="-2.8916" width="10.56" height="7.02239" fill="#189387"/>
</g>
</g>
<g id="Mask group_2">
<mask id="mask1_1099_125" style="mask-type:alpha" maskUnits="userSpaceOnUse" x="0" y="3" width="22" height="19">
<rect id="Rectangle 5003" x="1.44531" y="4.69727" width="19.12" height="16.2062" rx="2" stroke="#189387" stroke-width="2"/>
</mask>
<g mask="url(#mask1_1099_125)">
<rect id="Rectangle 5006" x="-2.19531" y="10.6343" width="29.9199" height="11.2705" fill="#189387"/>
</g>
</g>
<g id="Rectangle 5007">
<mask id="path-6-inside-1_1099_125" fill="white">
<rect x="8.25" y="9.26074" width="5.49999" height="6.32159" rx="1"/>
</mask>
<rect x="8.25" y="9.26074" width="5.49999" height="6.32159" rx="1" fill="white" stroke="#189387" stroke-width="4" mask="url(#path-6-inside-1_1099_125)"/>
</g>
</g>
</svg>
