<svg width="35" height="29" viewBox="0 0 35 29" fill="none" xmlns="http://www.w3.org/2000/svg">
<g id="Group 10238">
<g id="Group 5857">
<rect id="Rectangle 5045" x="1" y="27.1333" width="16.2707" height="21.1818" rx="2" transform="rotate(-90 1 27.1333)" stroke="#42CFEE" stroke-width="2"/>
<path id="Vector 1072" d="M6.17969 23.9463L6.17969 17.8561" stroke="#42CFEE" stroke-width="2" stroke-linecap="round"/>
<path id="Vector 1073" d="M14.6797 23.9463L14.6797 22.4237" stroke="#42CFEE" stroke-width="2" stroke-linecap="round"/>
<path id="Vector 1074" d="M10.8203 23.9463L10.8203 15.5722" stroke="#42CFEE" stroke-width="2" stroke-linecap="round"/>
</g>
<path id="Star 1" d="M19.9171 6.42041C20.2192 5.50469 21.5145 5.50469 21.8165 6.4204L22.4134 8.23031C22.819 9.45996 23.9677 10.2907 25.2625 10.2907H27.1299C28.1023 10.2907 28.5026 11.5379 27.712 12.1038L26.2528 13.1483C25.1856 13.9122 24.7388 15.281 25.1499 16.5274L25.7193 18.254C26.0223 19.1727 24.9742 19.9434 24.1876 19.3803L22.613 18.2533C21.5688 17.5059 20.1648 17.5059 19.1207 18.2533L17.5461 19.3803C16.7595 19.9434 15.7114 19.1727 16.0144 18.254L16.5838 16.5274C16.9949 15.281 16.5481 13.9122 15.4809 13.1483L14.0217 12.1038C13.231 11.5379 13.6314 10.2907 14.6037 10.2907H16.4712C17.766 10.2907 18.9147 9.45996 19.3202 8.23031L19.9171 6.42041Z" fill="#F5F5F5" stroke="#42CFEE" stroke-width="2"/>
</g>
</svg>
