<svg width="152" height="148" viewBox="0 0 152 148" fill="none" xmlns="http://www.w3.org/2000/svg">
<g id="Group 10239">
<path id="Vector" d="M19.9689 89.0394C19.7071 90.974 21.0162 92.5217 23.2417 92.7797M19.7071 88.1366C21.1471 87.6207 22.5872 88.0076 23.6345 89.0394C24.9436 90.4581 25.2055 92.5217 26.2528 94.1984M21.9326 87.3627C27.0382 86.9758 27.0382 91.7479 30.3111 93.8115M5.04466 91.8768C3.86644 90.3291 4.78284 88.2656 7.66295 88.3945C10.9358 87.2338 17.0888 86.4599 19.9689 86.9758C26.1219 84.2673 33.453 87.1048 34.6313 92.7797M34.6313 92.7797C35.4168 94.7143 38.2969 96.5199 40.5224 96.391M34.6313 92.7797C35.9404 91.4899 38.035 90.974 39.606 91.8768C42.0934 93.1666 44.0571 96.6489 46.1517 97.2938C43.6643 99.3574 38.4278 99.0994 35.5477 96.7779C36.595 102.066 30.7038 104.774 24.6818 101.55C21.9326 99.8733 18.267 98.4546 14.7323 97.5517C11.9831 96.9069 9.23392 97.0358 7.53203 96.7779C6.35381 96.6489 6.09198 96.004 5.96106 95.3592C7.2702 94.8433 11.8522 94.7143 15.1251 94.8433C12.114 93.9404 8.05569 93.5535 5.56832 93.6825C5.17558 93.6825 4.65192 93.5535 4.52101 93.1666C4.12826 92.6507 4.39009 91.6189 5.43741 91.7479C6.09198 91.8768 6.61563 92.0058 7.00838 91.7479C7.53203 91.4899 7.79386 90.845 7.53203 90.2002C7.27021 89.6843 6.74655 89.5553 6.35381 89.6843C5.96106 89.8132 5.56832 90.2002 5.43741 90.7161M19.3143 98.9705C26.9073 103.743 31.7512 118.059 30.9657 126.958M58.3267 101.163C57.0176 97.9387 56.363 89.8132 57.6722 84.6543C56.2321 84.3963 54.5302 83.8804 53.8757 83.3645C52.8283 85.0412 51.6501 89.1684 52.1738 92.9086C49.1628 81.5589 50.7337 65.8239 56.4939 60.278C52.4356 61.0519 45.6281 60.407 42.8789 58.9883C43.9262 61.4388 44.3189 69.8222 43.7953 75.755M51.1265 107.483C57.1485 105.032 62.1233 97.0358 62.1233 91.232M76.7856 100.389C74.8219 103.227 74.0365 108.902 75.2147 111.868M66.1816 88.5235C66.1816 87.2338 65.6579 86.3309 64.4797 85.815C62.9087 85.1702 60.1595 86.7179 58.3267 85.815C57.934 89.6843 61.4687 92.3927 65.6579 91.103C64.4797 97.4228 69.5854 102.195 76.1311 100.647C79.4039 99.6153 82.9386 99.6153 84.1168 99.8733C87.2588 100.131 88.8297 98.0676 88.6988 95.8751C87.3897 96.133 86.4733 96.004 84.7714 95.7461C88.0443 95.6171 88.9607 94.3274 88.8297 92.9086M37.6423 112.513C30.9657 118.575 29.2638 130.44 33.453 136.115M35.5477 135.47C32.2748 128.377 36.7259 118.317 44.188 115.479M36.2022 147.207C26.7764 146.691 27.1692 134.181 39.0824 135.47M71.4182 121.67C66.1816 131.859 71.8109 143.209 82.5459 147.207M9.88849 147.207H85.6878C90.1389 147.336 90.1389 140.887 85.1642 139.855M85.0332 130.569C83.9859 130.311 82.6768 131.214 82.9386 132.504C83.3314 135.083 87.2588 135.47 88.5679 132.375C89.8771 129.022 86.2115 125.797 82.415 126.958C77.9639 128.377 77.1784 135.083 81.6295 138.179C83.7241 139.598 86.6042 140.242 88.437 139.726C93.9354 138.179 96.4228 130.311 90.7935 123.605C83.0695 111.481 59.7668 104.387 43.7953 108.515" stroke="#292526" stroke-width="0.7" stroke-miterlimit="22.926"/>
<path id="Vector_2" d="M22.0883 90.3292C22.6667 90.3292 23.1356 89.8673 23.1356 89.2974C23.1356 88.7276 22.6667 88.2656 22.0883 88.2656C21.5099 88.2656 21.041 88.7276 21.041 89.2974C21.041 89.8673 21.5099 90.3292 22.0883 90.3292Z" fill="#292526"/>
<path id="Vector_3" d="M22.0883 90.3292C22.6667 90.3292 23.1356 89.8673 23.1356 89.2974C23.1356 88.7276 22.6667 88.2656 22.0883 88.2656C21.5099 88.2656 21.041 88.7276 21.041 89.2974C21.041 89.8673 21.5099 90.3292 22.0883 90.3292Z" stroke="#292526" stroke-width="0.7" stroke-miterlimit="22.926"/>
<path id="Vector_4" d="M77.9776 88.5234C78.894 90.845 77.5848 93.0375 75.2284 92.9086M72.4792 93.6824C72.741 90.845 75.3593 88.0075 77.5848 88.1365M70.2536 91.1029C70.7773 89.0393 73.5265 87.1047 75.4902 87.3627M16.0551 68.4034C15.5315 69.8221 14.6151 70.8539 13.0441 71.7567C9.64034 73.6913 5.582 73.0465 1 73.9493C3.09463 70.8539 4.6656 65.9528 7.93845 63.7603C10.164 62.2126 12.6514 61.5677 15.6624 61.6967M24.0409 64.6631C31.7648 61.0518 41.5834 66.0818 43.8089 74.7231M22.9936 57.6985C33.3358 57.0536 43.8089 65.9528 43.8089 75.497M22.9936 68.2744C22.339 69.0482 20.768 68.9193 20.2444 67.7585C19.0662 65.5659 22.0772 63.1154 24.6955 64.921C27.5756 66.8557 26.3974 71.2408 22.7318 72.2726C18.8043 73.3044 14.3532 69.4352 16.317 65.05C16.8406 63.7603 18.1498 62.7285 19.1971 62.3415C18.1498 62.4705 16.4479 62.2126 15.4006 61.3097C11.6041 58.2144 13.8296 52.7974 17.757 51.8946C21.4226 51.1207 24.5646 54.4741 22.8627 57.5695C21.2917 60.4069 17.6261 59.6331 17.6261 57.0536C17.6261 55.7638 18.9352 54.99 19.8516 55.3769M125.892 52.7974C125.107 53.0554 124.19 52.5395 124.19 51.5077C124.19 49.573 127.07 49.0572 128.249 51.1207C129.427 53.4423 127.07 55.8928 124.321 55.3769M49.831 60.5359C49.5692 61.9546 49.3073 64.4051 49.0455 65.4369M48.5219 60.5359C48.3909 61.8257 48.1291 64.2762 47.8673 65.308M43.2853 27.7763C43.678 21.0696 49.831 14.7499 57.9477 11.7834C50.8783 17.2004 53.8893 22.3594 52.0565 27.6473M70.3845 27.3894C73.6574 21.9725 84.3924 18.8771 92.6399 20.2958C79.5485 22.1014 81.7741 31.6456 76.9302 34.612M44.8563 30.8717C44.9872 28.4212 42.6307 26.7445 40.5361 27.1314C38.7033 27.3894 36.8705 29.195 37.0014 32.6774M69.8609 31.3876C72.4792 27.7763 69.0754 24.5519 66.0644 25.7127M48.1291 31.3876C48.3909 27.3894 52.0565 26.6155 54.0203 28.2922M72.741 33.9671C78.763 32.1615 80.2031 39.513 74.5738 40.8028M60.1732 28.8081C60.6969 27.5184 62.3988 25.7127 63.7079 25.4548M58.0786 32.6774C58.8641 31.3876 60.9587 29.8399 62.2679 29.453M55.3294 37.5784C56.3767 35.7728 59.1259 33.9671 60.6969 33.7092M49.3073 60.278C48.7837 55.7638 52.0565 50.0889 55.984 48.9282M52.0565 44.4141C53.1039 42.0925 56.6385 39.2551 59.1259 38.7392M57.424 43.5112C54.8057 44.2851 51.402 46.8646 49.831 51.5077M64.2316 19.7799C59.6496 33.5802 48.1291 43.6402 49.1764 60.5359M73.0028 43.7692C70.5154 43.1243 66.7189 43.6402 64.2316 44.801M34.1213 35.5148C33.074 37.8363 32.8122 41.5766 33.5976 44.1561M68.9445 46.9936C65.4098 45.5748 60.1732 46.8646 57.424 49.573M36.7396 40.1579C34.7759 43.3823 35.0377 48.6702 37.1323 51.8946M65.6716 50.2179C62.1369 48.7992 56.5076 49.96 54.1512 52.7974M39.2269 43.7692C37.1323 46.8646 37.3942 52.6684 39.7506 55.5059M62.3988 53.3133C58.8641 51.5077 53.4966 52.9264 51.5329 56.4087M51.5329 56.4087C51.2711 56.6667 50.3547 58.4723 49.5692 60.4069M51.5329 56.4087C57.9477 45.8328 73.2646 38.2233 87.7961 40.1579C81.7741 40.6738 81.2504 42.6084 78.763 44.4141C76.9302 45.7038 75.3593 45.0589 74.5738 44.4141M41.8452 47.6384C39.3579 50.7338 39.8815 56.2797 42.8925 58.7303M58.995 56.2797C55.7221 54.3451 51.0092 55.8928 50.3547 58.7303M44.2017 51.3787C41.7143 54.2161 42.238 58.4723 44.8563 59.7621M61.3514 57.3115C61.3514 58.2144 60.8278 59.1172 59.2568 59.6331C58.4713 59.891 57.424 60.149 56.3767 60.4069M45.6417 49.1861C46.5581 49.3151 47.2127 50.0889 47.4745 51.8946C47.8673 54.3451 47.0818 58.0854 48.6528 60.5359M65.6716 54.732C65.6716 56.9246 62.9224 58.0854 60.566 56.9246M58.7332 45.9618C59.3877 46.4777 59.6496 47.1225 59.6496 47.8964M63.8388 27.5184C66.3262 26.8735 66.8499 23.7781 65.4098 23.2622C66.588 21.5855 66.1953 18.4901 65.6716 13.7181C64.4934 18.6191 59.3877 21.4566 60.4351 23.5201M60.4351 23.7781C58.995 22.6173 56.1149 25.0678 57.0313 28.1632M64.4934 27.3894C65.9334 27.9053 65.2789 31.0007 62.6606 31.7745M56.7695 27.6473C55.0676 26.3576 52.4493 29.0661 53.4966 32.5484M63.1843 31.5166C64.8861 32.1615 64.1007 35.5148 61.0896 36.4176M53.2348 31.7745C51.2711 31.2586 49.1764 34.741 50.7474 37.4494M61.6133 36.0307C62.7915 37.0625 62.1369 40.2869 59.3877 41.0607M47.4745 41.4476C45.9036 41.1897 44.4635 42.9953 44.8563 45.0589M50.2237 36.5466C48.1291 36.2886 46.5581 39.2551 47.7364 41.8346M59.9114 40.8028C61.6133 42.0925 60.6969 45.3169 57.8168 46.3487M43.8089 44.672C46.0345 45.0589 46.6891 47.8964 45.1181 50.0889M69.3372 51.5077C69.73 53.7002 67.1117 55.3769 64.6243 54.3451M41.3216 40.5448C43.5471 40.5448 44.7254 43.3823 43.2853 45.5748M73.0028 48.2833C73.3956 50.4759 70.7773 52.1525 68.2899 51.1207M38.7033 36.4176C40.9288 36.4176 42.1071 39.2551 40.667 41.4476M76.2757 45.0589C76.6684 47.2515 74.0501 48.9282 71.5628 47.8964M36.085 32.5484C38.3106 32.5484 39.4888 35.3858 38.0487 37.5784M43.678 59.2462C33.8595 51.2497 28.6229 34.612 33.2049 20.5537C32.6812 26.4866 34.514 27.3894 35.8232 30.0979C36.7396 32.0325 35.8232 33.5802 35.1686 34.0961M59.1259 100.131C57.9477 102.195 57.8168 105.419 57.9477 106.967M60.9587 96.6488C59.9114 99.8732 60.1732 103.871 61.3514 106.193M62.006 92.6506C61.3514 96.3909 62.1369 101.421 64.2316 104.516M63.577 91.3609C62.7915 94.9722 64.4934 100.518 66.8499 102.582M11.9968 147.078C17.2334 147.207 24.6955 145.53 27.8374 143.467M8.3312 131.601C-1.7492 133.536 -0.963714 147.078 9.77125 147.207C16.4479 146.949 20.5062 140.371 17.757 134.052C16.7097 131.859 17.2334 129.021 18.9352 128.248M28.8847 112.771C15.2697 116.253 5.32017 128.764 8.06937 140.758M27.4447 133.665C28.0992 135.083 30.3248 136.76 31.8958 137.018M31.2412 129.279C22.9936 129.537 21.9463 140.371 29.6702 142.306M46.9509 137.147C53.8893 139.855 60.9587 139.855 65.6716 136.76C66.1953 136.373 66.8498 136.115 67.2426 136.244C67.7662 136.373 68.0281 136.76 67.7662 137.405C67.5044 137.792 67.1117 137.792 66.8499 138.05C66.3262 138.437 66.4571 138.953 66.7189 139.21C66.9808 139.468 67.8972 139.597 68.2899 138.824C68.9445 137.405 69.8609 136.502 70.6464 135.986M40.5361 142.177C47.3436 144.112 56.6385 143.596 62.5297 139.726C63.9697 138.824 65.5407 139.339 65.0171 140.758C64.6243 141.274 64.1006 141.403 63.8388 141.661C63.1843 142.177 63.3152 142.822 63.577 143.209C63.9697 143.596 65.0171 143.725 65.5407 142.822C66.9808 139.726 69.9918 138.824 71.6937 142.306C72.8719 144.241 74.312 145.53 77.0612 147.207M51.9256 116.898C54.9367 121.928 53.7584 128.893 49.3073 130.956C46.2963 132.504 45.6417 136.244 47.8673 138.695C50.3547 141.532 44.4635 144.112 37.7869 141.532M145.398 118.188C146.446 121.283 146.838 127.474 146.184 130.569M143.173 115.092C144.351 118.704 144.351 126.313 143.042 130.182M133.747 146.949C135.318 143.983 138.853 138.05 140.816 135.341M139.507 133.02C140.031 135.857 143.827 138.05 147.362 137.405M141.34 141.532C146.838 139.984 151.29 133.536 150.242 128.506M110.837 127.474C114.503 121.412 120.001 124.249 125.107 120.767C130.212 117.156 131.783 111.223 130.736 106.322M105.339 120.638C107.302 124.12 107.041 129.666 104.684 131.73M104.422 140.371C106.517 141.919 106.648 145.788 104.815 147.207M98.9238 115.995C95.651 122.186 95.7819 129.537 98.7929 133.02C101.149 135.728 104.946 136.244 108.873 133.665M93.8182 133.794C94.08 135.083 94.4727 136.244 95.1273 137.018C97.7456 140.5 101.935 141.79 106.386 139.339M95.2582 121.025C94.2109 123.347 93.6873 125.926 93.5564 128.377M111.492 139.855C113.979 141.403 114.634 144.885 112.67 146.949M112.277 131.988C113.979 135.728 112.015 140.887 108.35 142.306M130.736 134.052C134.663 136.889 136.103 143.338 133.616 146.949M128.118 134.825C131.26 138.179 132.045 144.112 129.689 146.82M124.452 135.212C126.678 137.147 127.856 141.403 126.939 143.725M121.179 135.083C124.583 138.695 125.107 144.369 122.096 146.562M113.979 124.249C119.216 130.311 130.474 128.635 133.485 122.057M130.343 104C132.176 112.642 127.201 119.219 120.656 117.027C116.074 115.221 115.157 108.643 117.514 103.871M128.51 97.5517C131.129 105.032 133.747 120.122 133.878 127.732M130.605 88.7814C133.747 88.5234 137.674 89.6842 138.853 90.845M127.987 89.9421C130.605 89.9421 133.878 91.4898 135.187 93.1665M138.853 78.5924C136.627 80.1401 134.14 84.9121 133.878 88.0075M126.939 90.4581C129.165 92.1347 131.26 95.1011 131.521 97.5517M124.845 92.1347C126.678 93.0375 127.987 95.746 127.594 97.4227M124.845 92.1347C121.31 91.7478 117.906 92.3927 115.943 93.8114C114.503 94.8432 113.848 96.5199 114.895 98.1965M124.845 92.1347C127.987 89.1683 135.056 86.9757 139.638 87.7496M131.391 20.2958C130.081 22.8753 128.772 26.3576 128.772 27.2604M110.052 13.0732C110.052 15.9106 109.659 20.4248 109.266 22.1014M105.993 21.7145C114.11 22.2304 127.201 25.9707 132.176 29.195M109.004 48.4123C109.397 50.6048 108.481 53.5713 107.171 54.2161M107.171 54.2161C97.3529 57.1826 88.058 69.1772 88.7125 78.0765C87.1416 89.8132 99.0547 95.3591 112.539 88.9103M107.171 54.2161C108.088 56.2797 109.921 57.6985 112.146 58.2144M118.954 73.6913C118.561 64.921 124.19 58.8592 130.212 59.891M99.1857 60.5359C107.041 60.278 113.717 69.5641 114.764 74.5941M111.099 81.6878C109.659 84.1383 108.35 88.6524 108.35 90.587M107.041 69.6931C109.135 72.1436 109.921 77.8185 108.611 81.0429M102.459 69.1772C99.7093 72.9175 100.102 78.7213 103.244 80.9139M95.9128 74.9811C96.0437 77.9475 99.4475 81.0429 102.589 81.0429M107.041 32.8063C107.957 34.354 109.79 34.741 111.492 33.9671M113.979 34.483C115.157 36.6756 118.692 36.9335 120.263 34.354M106.517 31.2586C108.088 30.2268 109.79 30.6138 111.099 31.3876C111.623 31.6456 112.015 32.0325 112.539 32.5484M114.241 32.9353C115.812 31.9035 117.252 32.2904 118.561 33.0643C119.739 33.7092 120.525 35.1279 122.357 35.6438M114.241 30.7427C116.728 29.453 120.525 30.4848 121.834 32.9353M106.517 27.2604C109.921 26.8735 112.932 29.324 112.539 32.1615C111.884 35.1279 111.23 37.9653 110.706 40.2869C111.23 40.4158 111.884 40.5448 112.801 40.6738C113.586 41.4476 114.895 41.3187 115.157 40.4158M114.241 50.4759C115.157 50.4759 116.205 50.2179 117.383 49.831M105.731 24.8099C106.779 27.2604 107.564 31.7745 106.648 35.5148C105.077 42.0925 107.041 47.5095 110.837 49.4441M122.619 41.9635C122.619 43.6402 121.441 46.4777 120.263 47.8964C120.132 50.4759 120.917 53.5713 122.75 55.2479M123.667 28.0343C126.547 30.2268 126.939 35.9017 124.19 39.384C127.332 40.6738 125.761 45.8328 120.917 46.9936M127.725 18.7481C130.998 20.0378 133.616 21.3276 135.318 22.4884C133.616 24.5519 131.783 29.195 131.652 31.6456M131.652 31.6456C133.354 36.4176 130.343 41.8346 125.63 42.3505M131.652 31.6456C125.892 28.0343 112.932 24.8099 105.6 25.0678C106.386 20.8117 106.124 14.4919 105.077 12.1704C108.742 12.8152 112.932 13.847 117.121 15.1368M140.293 102.195C141.078 108.386 140.293 116.769 135.973 123.605M140.555 94.4563C141.733 101.034 138.46 110.191 134.009 112.642M116.335 133.923C121.441 137.147 121.31 144.369 116.859 146.562M109.266 129.666C118.168 138.308 134.402 136.76 141.078 125.926M140.162 111.481C142.911 114.318 145.791 118.832 147.493 121.799C154.562 134.696 151.159 147.852 136.627 147.207C132.176 146.949 126.547 146.691 120.656 146.691C115.288 146.691 109.79 147.078 104.946 147.207M91.3308 138.437C92.7709 143.854 97.3529 147.465 105.208 147.207M102.328 112.513C101.935 112.9 101.411 113.416 101.018 113.802C97.091 117.801 94.3418 122.057 92.6399 126.313M104.684 105.161C100.626 112.513 101.542 123.089 106.648 127.732M104.16 101.808C104.422 109.03 109.921 117.672 115.026 118.961M113.324 64.921C114.372 65.05 116.205 64.7921 116.99 64.2762M120.394 107.741C121.834 108.515 124.714 107.999 126.154 106.709M120.525 81.1719L112.801 44.93C112.015 45.3169 110.706 45.5748 110.052 45.3169L116.205 82.0747M122.881 92.0057L122.619 90.716M119.477 102.582L121.048 111.61C122.357 112.642 125.63 112.126 126.809 110.707L124.583 100.389M117.514 90.2001L117.906 92.7796M119.085 74.3362C125.761 66.7267 139.114 68.5323 143.173 77.9475M88.7125 78.2054C93.5563 67.6295 108.481 66.2108 114.895 75.239M113.979 82.9775C111.884 84.7832 111.753 87.7496 112.539 89.0393C113.193 90.0711 115.812 90.458 118.037 90.0711C120.132 89.6842 123.012 90.0711 122.75 91.4898M120.525 87.6206C123.012 87.3627 124.452 88.3944 124.583 89.5552C124.583 90.0711 124.452 91.2319 123.012 91.7478M120.263 85.557C122.096 85.2991 123.798 85.557 124.714 86.2019C125.761 86.9757 125.892 88.5234 124.714 89.6842M119.216 83.7514C123.143 82.2037 126.416 84.1383 125.499 87.3627M97.091 87.6206C98.7929 83.8803 104.422 80.527 108.35 81.0429M93.5564 84.6542C98.2693 80.398 108.742 79.6242 114.372 83.1065C118.692 80.1401 123.798 80.656 124.714 84.0093M103.375 95.746C101.804 103.227 108.481 108.386 116.728 106.064M101.149 91.6188C101.411 96.004 106.779 98.7124 112.277 97.5517C112.539 97.4227 113.717 97.2937 114.372 96.9068M115.812 58.7303C118.823 58.6013 121.179 57.4405 122.619 55.2479C137.282 57.4405 147.886 79.8821 142.911 91.3609C142.256 92.9086 141.34 93.9404 140.031 94.9722C136.889 97.5517 130.736 98.3255 127.201 97.4227C126.416 99.4863 123.012 101.808 120.132 102.582C119.87 102.582 118.954 102.84 118.823 102.84M63.1843 85.686C64.3625 82.4616 69.3372 82.0747 71.0391 84.7832M61.8751 89.2973C63.0533 89.9421 65.4098 89.5552 66.0644 88.5234C67.2426 85.815 69.9918 84.5252 73.0028 84.6542C75.6211 84.7832 78.2394 86.8468 80.8577 88.0075C82.1668 88.6524 85.5706 89.6842 87.5343 90.0711C90.1526 90.587 89.498 93.8114 86.8797 93.4245C85.5706 93.2955 85.1778 92.0057 85.5706 91.2319M41.8452 103.227C42.6307 106.064 42.238 111.094 40.7979 113.029M40.2743 101.163C40.9288 103.356 40.667 107.612 39.7506 109.675M38.7033 99.2283C39.8815 102.195 38.8342 108.128 36.6087 111.223M37.2632 97.9386C38.0487 100.26 37.5251 105.161 36.085 107.741M36.085 97.0358C37.3942 100.776 34.7759 107.096 32.2885 109.03M35.8232 96.9068C41.1907 100.518 45.1181 107.999 43.8089 111.739M47.7364 107.87C48.9146 95.617 42.8925 78.9793 35.4304 73.4334C36.2159 72.6595 37.1323 70.8539 37.3942 69.6931C40.667 71.6277 45.1181 76.7867 46.6891 80.398M27.0519 80.269C27.0519 82.2037 25.7428 85.0411 24.4336 86.0729M23.2554 86.0729C22.8627 85.1701 22.7318 83.7514 23.2554 82.5906C24.1718 80.398 26.0046 79.8821 27.3138 76.9157C30.3248 79.8821 30.8484 84.5252 28.7538 86.5888M43.9399 65.4369C47.3436 64.921 51.7947 65.6949 52.7111 66.9846M46.0345 61.6967C46.5581 61.6967 46.9509 62.0836 46.9509 62.5995C46.9509 63.1154 46.5581 63.5023 46.0345 63.5023C45.5108 63.5023 45.1181 63.1154 45.1181 62.5995C45.1181 62.0836 45.6417 61.6967 46.0345 61.6967ZM51.6638 62.3415C52.1875 62.3415 52.5802 62.7285 52.5802 63.2444C52.5802 63.7603 52.1875 64.1472 51.6638 64.1472C51.1401 64.1472 50.7474 63.7603 50.7474 63.2444C50.6165 62.7285 51.1401 62.3415 51.6638 62.3415ZM122.619 103.484C123.274 103.484 123.667 104 123.667 104.516C123.667 105.161 123.143 105.548 122.488 105.548C121.834 105.548 121.441 105.032 121.441 104.516C121.441 104 121.965 103.484 122.619 103.484ZM126.809 22.4884C123.405 23.6491 116.728 22.1014 113.848 19.5219C117.645 16.0396 121.179 6.62446 120.787 1.20752C126.285 5.07676 129.296 15.7817 126.809 22.4884Z" stroke="#292526" stroke-width="0.7" stroke-miterlimit="22.926"/>
<path id="Vector_5" fill-rule="evenodd" clip-rule="evenodd" d="M75.4965 89.04C76.0202 89.04 76.5439 89.427 76.5439 90.0718C76.5439 90.5877 76.1511 91.1036 75.4965 91.1036C74.842 91.1036 74.4492 90.7167 74.4492 90.0718C74.5801 89.5559 74.9729 89.04 75.4965 89.04Z" fill="#292526"/>
<path id="Vector_6" d="M75.4965 89.04C76.0202 89.04 76.5439 89.427 76.5439 90.0718C76.5439 90.5877 76.1511 91.1036 75.4965 91.1036C74.842 91.1036 74.4492 90.7167 74.4492 90.0718C74.5801 89.5559 74.9729 89.04 75.4965 89.04Z" stroke="#292526" stroke-width="0.7" stroke-miterlimit="22.926"/>
<path id="Vector_7" d="M115.288 43.1251C113.979 43.2541 113.455 42.6092 112.67 42.7382C112.146 42.8672 111.884 42.9961 111.492 43.512C111.23 42.9961 110.968 42.7382 110.575 42.7382C109.79 42.4803 109.135 42.9961 108.481 42.8672M124.976 44.2859C123.536 46.6074 123.405 49.8318 124.714 50.3477M59.1259 27.2612C58.8641 29.4538 57.6859 33.1941 57.2931 34.2259M55.5912 31.6464C55.5912 34.0969 54.9367 38.0951 54.1512 39.7718M52.5802 35.2577C52.842 38.482 52.4493 43.512 51.6638 45.3177M49.7001 40.0297C50.6165 42.8672 50.7474 48.0262 50.0928 50.2187M47.6055 44.9308C48.7837 46.4785 49.5692 51.6375 49.1764 54.8618M121.179 98.5843C117.906 99.2291 115.812 101.68 117.121 103.485C117.645 104.259 118.823 104.775 119.87 104.646M120.263 96.6496C117.252 97.2945 115.026 99.3581 115.812 101.035C115.943 101.293 116.205 101.68 116.728 102.067M119.346 94.715C116.074 95.3599 114.11 97.6814 115.157 99.3581C115.157 99.3581 115.55 100.003 115.681 100.003M134.14 74.208C133.092 78.5932 132.569 85.5578 133.092 88.1373M121.441 72.1444C125.63 75.8847 128.772 84.784 127.594 90.0719M126.285 70.0808C129.689 74.8529 131.652 84.397 130.081 89.0401M69.0754 83.2363C68.9445 80.9147 71.0391 78.3352 73.1337 78.0773C72.2173 81.0437 74.8356 81.6886 74.0501 84.784M91.1999 102.454C91.9854 108.515 97.4838 111.482 102.459 110.708M90.5453 93.1673C91.9854 99.2291 98.2693 102.711 103.375 99.4871M89.2362 83.8811C90.9381 91.1037 91.9854 109.934 91.7236 124.637M140.424 104.259C141.209 108.386 145.66 112.643 149.326 112.771M143.827 88.0083C147.624 98.7132 151.159 120.639 150.897 131.989M132.569 97.5525C132.831 98.9712 133.223 101.164 133.354 102.196M137.02 96.5207C137.151 97.9394 136.103 101.551 134.925 103.872M130.474 104.388C131.652 107.87 135.711 109.418 138.46 107.355M129.165 116.125C129.558 119.478 126.809 123.992 123.928 125.024M66.588 132.118C66.7189 133.149 66.9808 134.181 67.6353 135.213M67.1117 124.637C66.8499 126.056 66.588 127.217 66.4571 128.377M63.7079 132.376C63.9697 133.794 64.2316 134.826 64.8861 136.116M64.2316 124.121C63.8388 125.54 63.577 126.959 63.4461 128.248M60.8278 132.505C61.0896 134.181 61.4824 135.471 62.1369 136.89M61.4824 123.476C60.9587 124.895 60.6969 126.443 60.566 127.991M57.5549 132.247C57.8168 134.31 58.2095 135.858 58.995 137.277M58.4713 123.218C58.0786 124.637 57.6859 126.056 57.5549 127.604M51.0092 131.344C51.0092 133.407 51.5329 135.342 52.1875 136.89M54.413 131.86C54.5439 133.794 55.0676 135.6 55.7222 137.148M55.4603 122.703C55.0676 123.992 54.6748 125.54 54.5439 127.088" stroke="#292526" stroke-width="0.7" stroke-miterlimit="22.926"/>
<path id="Vector_8" fill-rule="evenodd" clip-rule="evenodd" d="M118.696 33.331C117.387 35.6525 115.031 34.7497 115.161 32.6861C116.209 32.2992 117.911 32.6861 118.696 33.331Z" fill="#292526"/>
<path id="Vector_9" d="M118.696 33.331C117.387 35.6525 115.031 34.7497 115.161 32.6861C116.209 32.2992 117.911 32.6861 118.696 33.331Z" stroke="#292526" stroke-width="0.7" stroke-miterlimit="22.926"/>
<path id="Vector_10" fill-rule="evenodd" clip-rule="evenodd" d="M110.446 31.2552C109.791 33.4477 107.173 32.9318 107.304 30.8682C108.351 30.6103 109.66 30.7393 110.446 31.2552Z" fill="#292526"/>
<path id="Vector_11" d="M110.446 31.2552C109.791 33.4477 107.173 32.9318 107.304 30.8682C108.351 30.6103 109.66 30.7393 110.446 31.2552Z" stroke="#292526" stroke-width="0.7" stroke-miterlimit="22.926"/>
</g>
</svg>
