<svg width="32" height="23" viewBox="0 0 32 23" fill="none" xmlns="http://www.w3.org/2000/svg">
<g id="Group 10241">
<path id="Ellipse 541" d="M14.2374 6.23443C14.2374 8.98456 11.9703 11.2394 9.14211 11.2394C6.31397 11.2394 4.04688 8.98456 4.04688 6.23443C4.04688 3.4843 6.31397 1.22949 9.14211 1.22949C11.9703 1.22949 14.2374 3.4843 14.2374 6.23443Z" stroke="#6442EE" stroke-width="2"/>
<path id="Ellipse 542" d="M27.9516 8.86143C27.9516 10.9897 26.1962 12.7404 23.9993 12.7404C21.8023 12.7404 20.0469 10.9897 20.0469 8.86143C20.0469 6.73313 21.8023 4.98242 23.9993 4.98242C26.1962 4.98242 27.9516 6.73313 27.9516 8.86143Z" stroke="#6442EE" stroke-width="2"/>
<path id="Subtract" d="M9.14286 13.9271C10.5527 13.9271 11.864 13.4969 12.9581 12.7611C15.4651 14.9345 17.1098 18.1384 17.2724 21.748H1.01328C1.17587 18.1384 2.82063 14.9345 5.32766 12.7611C6.42178 13.4969 7.73312 13.9271 9.14286 13.9271Z" stroke="#6442EE" stroke-width="2"/>
<path id="Subtract_2" d="M19.8681 22.7481C19.8681 22.7481 19.8622 22.6821 19.8643 22.7481H31.9942C31.9977 22.6394 31.9994 22.5303 31.9994 22.4208C31.9994 22.3113 31.9977 22.2021 31.9942 22.0934C31.9745 21.4785 31.8997 20.8765 31.774 20.2916C31.2004 17.621 29.5687 15.3058 27.303 13.7407C26.3856 14.4588 25.2015 14.8914 23.9088 14.8914C22.6348 14.8914 21.4663 14.4713 20.5545 13.7717L20.5145 13.7407C19.6778 14.3187 18.9276 14.999 18.2852 15.7617C18.7321 16.6048 19.0932 17.5016 19.3566 18.4399C19.734 17.8095 20.2002 17.2247 20.7444 16.7C21.7161 17.1185 22.7892 17.348 23.9088 17.348C25.0283 17.348 26.1014 17.1185 27.0732 16.7C28.1198 17.7092 28.8783 18.9408 29.2698 20.2916H19.7395C19.8034 20.7639 19.8431 21.2441 19.8574 21.7307C19.8614 21.8667 19.8635 22.0032 19.8635 22.1402C19.8635 22.2771 19.8614 22.4136 19.8574 22.5496L19.8681 22.7481Z" fill="#6442EE"/>
</g>
</svg>
