<svg width="61" height="153" viewBox="0 0 61 153" fill="none" xmlns="http://www.w3.org/2000/svg">
<g id="Group 10242">
<path id="Vector" d="M30.2649 44.8819C30.5804 44.2602 32.4735 43.8717 33.9723 44.1048M29.4761 50.3218C29.2394 47.5241 28.9239 44.3379 28.845 43.9494C29.7916 41.8511 33.1835 41.3849 35.5499 42.9391M21.0358 44.6488C22.6923 42.7837 25.9264 42.5505 27.5829 44.1825C27.6618 45.4259 27.8984 49.1561 27.9773 51.5652C27.9773 52.1092 28.845 52.1869 29.6338 51.6429M22.3768 45.4259C23.56 44.2602 26.0053 44.2602 27.4252 45.2705M30.5015 47.0579C31.4481 48.0681 33.7356 47.7573 34.6033 46.6693M22.6134 47.6796C23.56 48.6898 25.8475 48.379 26.7152 47.291M29.7916 46.747C30.7382 45.1151 33.1046 44.7265 34.84 45.7368M26.9519 46.3585C25.2165 45.3482 22.8501 45.7368 21.9035 47.3687C21.5091 49.2338 23.4811 54.052 25.6898 57.0051C27.3463 59.4141 30.8959 59.725 32.8679 57.6268M46.4355 82.961C51.0106 80.1634 55.8223 77.3657 55.9801 77.4434M52.036 70.9156C48.8808 72.3921 44.5423 75.0344 43.3591 76.0446C44.1479 77.5989 45.8833 80.008 46.8299 80.8628C47.9342 80.0857 52.1149 77.6766 55.2702 76.0446M41.7026 91.4317C41.6237 88.2455 42.7281 82.5725 43.8324 80.0079M55.0335 119.02C56.1379 117.932 57.0844 119.33 58.4254 118.864M43.0436 100.679C43.438 102.778 51.5628 112.414 59.372 119.874C58.5832 121.196 56.9267 119.408 55.9012 120.03M39.0996 99.6692C39.0996 99.9801 39.2573 100.446 39.3362 100.679M38.5474 93.9962C37.6008 92.1311 38.3107 90.3437 39.9672 90.4214C41.5449 90.4991 42.5703 92.2088 42.0182 94.3848M42.7281 98.3481C40.125 97.7264 36.7331 98.1927 35.9443 99.2806C35.7077 99.6692 35.9443 100.135 36.4176 100.213C37.2853 99.8246 39.7306 99.5915 41.3871 99.7469C43.6747 101.301 47.6976 102.389 49.433 102.001M35.471 98.8144C35.1555 98.6589 35.0766 98.1927 35.3133 97.8818C36.2598 96.5607 40.0461 96.0944 42.8858 96.9493M35.1555 97.3378C34.7611 97.1824 34.6822 96.6384 35.0766 96.1721C36.6542 94.9287 40.4405 94.6956 42.7281 95.6282M47.6187 94.851C49.9063 95.0065 52.4305 97.1824 52.6671 99.2029M47.4609 95.395C49.2752 96.0944 51.1684 98.8144 51.0895 100.757M35.1555 95.2396C36.2598 93.9962 39.8095 93.6076 42.3337 94.4625C42.8858 94.307 45.41 95.0065 47.4609 95.939C49.0386 97.1047 49.9851 100.213 49.3541 102.078C51.405 101.612 56.6112 94.6956 59.9242 88.4009C58.9776 79.1531 48.3286 63.5329 38.6263 57.3159M49.3541 76.9772C49.5907 77.1326 49.9063 77.0549 49.9851 76.744C50.064 76.1223 49.2752 75.7338 48.723 76.2778C48.092 77.0549 48.5653 77.9874 49.5907 78.0651C50.6162 78.1428 51.4839 76.9772 50.9317 75.8115C50.5373 74.9566 48.9597 74.0241 47.1454 74.4127M53.0615 74.9566C53.1404 75.2675 52.9037 75.5006 52.5882 75.5006C51.9572 75.3452 51.8783 74.4904 52.5882 74.1795C53.5348 73.8687 54.2447 74.6458 54.0081 75.6561C53.6926 76.5886 52.3516 76.9772 51.405 76.0446C50.7739 75.3452 50.4584 73.5578 51.4839 72.0813M20.4836 83.3496C20.6414 82.8056 20.247 82.417 19.6159 82.417C18.5905 82.6502 18.3538 84.2044 19.6159 84.8261C21.3513 85.3701 22.5345 83.9713 22.0612 82.2616C21.5091 80.5519 19.0638 79.9302 17.4073 81.5622C16.8551 82.1062 16.3029 83.1164 16.224 84.2821M47.6187 77.9874C47.6976 78.2983 47.4609 78.5314 47.1454 78.5314C46.5144 78.376 46.4355 77.5212 47.1454 77.2103C48.092 76.8995 48.8019 77.6766 48.5653 78.6868C48.2498 79.6194 46.9088 80.0079 45.9622 79.0754C45.3312 78.376 45.0156 76.5886 46.0411 75.1121M28.2928 53.9743C28.5295 54.1297 29.2394 54.1297 29.6338 53.8966M27.8196 55.7617C28.214 56.0725 29.5549 55.9948 30.5804 55.6062M26.9519 54.6737C27.504 55.2954 29.6338 55.14 31.1326 54.2851M28.214 63.9215C30.5015 64.6209 34.7611 64.5432 36.6542 63.766M26.7152 62.0564C30.5015 62.9889 35.471 62.9889 36.6542 62.0564M36.4176 58.1707C36.812 61.357 36.6542 67.3408 36.1021 70.1385C37.2853 69.7499 39.5728 69.5945 40.5194 69.7499M34.6822 56.6165C35.471 59.1033 39.0996 58.3262 38.8629 56.1502M35.5499 62.4449C35.6288 61.6678 35.2344 59.6473 34.7611 58.4039C34.5244 57.3936 34.6033 55.9948 34.9189 54.9068C35.6288 53.6634 36.2598 50.7881 36.3387 49.8555C37.6797 50.3995 38.7052 46.0476 36.8909 46.4362C37.6008 44.5711 37.4431 41.6957 36.5754 40.6077M33.2624 121.351C34.7611 123.605 37.7586 121.196 36.4965 119.564M11.0968 100.99C13.5421 100.524 17.0917 101.068 18.1961 101.923M51.405 121.973C53.1404 122.75 55.1913 121.584 55.5857 119.564M52.4305 123.682C54.3236 124.382 56.3745 122.905 56.4534 120.729C49.5907 112.803 45.6467 107.829 44.3846 105.731M2.89314 142.411C7.86265 144.509 16.3029 144.121 19.7737 141.634M2.2621 140.701C7.38937 142.8 16.4607 142.489 20.0103 139.924M2.10433 133.63C7.07384 135.728 15.5141 135.339 18.906 132.852M3.60307 129.433C6.44279 131.609 13.3054 131.531 17.4861 129.278M4.70741 127.879C6.8372 129.822 12.6744 129.744 16.3818 127.646M21.3513 148.006C19.7737 148.706 18.1172 149.638 17.1706 150.26C16.6973 150.493 14.8831 151.503 13.621 152.047C17.3284 151.97 20.6414 152.436 21.9824 151.581C23.56 150.804 25.9264 151.037 27.6618 151.659C29.6338 152.125 30.817 150.882 29.7916 149.561C29.1605 148.317 29.5549 146.219 30.1071 145.753M41.3082 146.452C39.3362 146.996 35.7077 148.55 34.13 149.638C33.6568 149.871 31.9214 150.726 30.5804 151.27C34.2878 151.737 38.3896 151.581 38.8629 151.037C39.9672 150.493 42.807 150.493 44.5423 151.115C46.5144 151.581 47.4609 150.726 46.4355 149.405C45.8044 148.162 45.6467 146.374 46.1988 145.908M37.2853 141.945C35.1555 141.323 34.6033 139.38 35.1555 137.748C35.7077 136.039 37.7586 134.873 39.8095 136.039M21.9035 145.442C27.5829 143.11 33.3412 142.489 33.4201 144.198C33.2624 145.286 35.0766 145.286 36.9698 144.043C38.153 142.877 41.3082 142.877 41.2293 143.81C41.1505 144.82 43.2802 144.509 46.1988 143.188C48.2498 142.256 51.4839 141.479 52.6671 141.634M26.2419 100.99C23.3233 105.264 21.3513 121.584 22.2979 133.707C22.9289 138.759 22.3768 145.986 21.1147 148.162C26.2419 145.597 31.527 144.82 31.6847 146.53C32.0003 147.696 34.84 147.462 37.1275 145.908C38.9418 144.976 40.6772 144.976 40.5983 146.064C40.5194 146.918 44.0691 146.685 47.5398 145.442C50.064 144.276 53.2193 143.654 53.9292 144.121C51.1684 138.525 48.092 128.578 47.3821 123.061C47.3032 122.594 47.3032 121.895 47.2243 121.506M12.911 85.7587C14.8042 85.3701 18.9849 86.6135 21.2724 88.1678M13.3054 84.049C15.8296 83.9713 20.0892 85.2924 21.8246 86.6912M14.8042 77.288C18.0383 77.5989 22.5345 79.7748 23.7966 81.6399M15.1197 75.8115C18.1172 75.7338 22.9289 77.832 24.7432 79.9302M24.7432 60.3467C24.901 60.4244 25.1376 60.5798 25.2165 60.7353C28.6084 63.2221 32.3158 70.527 32.7102 75.8892M46.2777 63.8438C39.3362 66.7968 34.6822 82.0285 36.8909 94.2293M38.5474 57.2382C38.8629 58.3262 38.784 63.4552 38.4685 67.3408C39.7306 67.2631 41.6237 67.2631 42.097 67.2631M22.7712 59.1033C23.56 59.4142 24.191 58.637 23.7177 57.7822C23.0078 56.6942 21.3513 57.0828 21.0358 58.3262C20.6414 59.725 21.7457 60.9684 23.1656 60.8907C24.191 60.8907 25.2165 60.1136 25.532 59.2587C25.9264 58.4039 25.7687 57.7045 25.7687 57.0828M38.3896 54.4406C37.5219 54.6737 37.0486 53.8966 37.3642 53.0417C38.0741 51.9538 39.7306 52.3423 40.125 53.6634C40.5194 55.14 39.494 56.3056 37.9163 56.3056C36.4176 56.3056 35.3921 55.6062 35.2344 53.9743M21.2724 55.2954C22.0612 55.684 22.6134 54.7514 22.219 53.9743C21.5091 52.964 19.9315 53.2749 19.6159 54.596C19.2215 55.9948 20.4836 57.2382 21.7457 57.1605C22.7712 57.0828 23.7177 56.4611 23.9544 55.5285M28.845 5.17085C29.2394 8.12393 29.8705 20.6356 29.9493 30.1943M27.6618 5.17085C27.3463 8.04622 27.2674 20.4025 27.4252 29.8834M37.7586 36.0227C39.0207 34.3907 39.7306 31.5931 39.7306 29.8834C39.7306 28.4846 38.4685 28.4069 37.0486 29.8057C36.6542 30.1943 36.181 30.7383 35.8654 31.2045C34.9977 32.3702 33.7356 33.4582 32.7102 34.313C31.4481 35.3233 30.1071 35.7119 29.3183 35.6341M20.878 36.6444C19.6159 35.0124 18.3538 31.6708 18.4327 29.9611C18.4327 29.1063 19.0638 28.7177 19.6948 28.8732C20.1681 28.9509 20.6414 29.3394 21.1936 29.8834C21.5091 30.3497 21.9035 30.7383 22.2979 31.2045C23.2445 32.3702 24.191 33.5359 25.1376 34.313C26.3997 35.3233 27.4252 35.6341 28.3717 35.5564M39.494 36.3336C42.4914 32.2148 44.5423 26.4641 42.8858 24.055C41.3082 21.2573 37.2064 23.2001 34.84 26.6195C33.1046 29.0286 30.8959 30.4274 28.9239 30.3497M19.3004 37.4992C16.3029 33.3805 14.3309 26.7749 15.9874 24.3658C17.565 21.5682 21.588 22.6562 23.7177 26.2309C25.2165 28.7954 26.873 30.1166 28.845 30.3497M36.0232 39.986C33.4201 36.9553 26.2419 37.3438 21.7457 40.6854C20.5625 41.3849 20.1681 43.4054 20.9569 44.7265C21.1147 45.2705 21.588 46.6693 21.8246 47.4464M21.0358 50.3218C20.6414 52.1092 21.6668 53.9743 23.0078 53.9743M19.7737 45.3482C18.7482 47.2133 19.6948 49.8555 21.6668 50.5549M20.4047 46.0476C16.934 42.9391 16.7762 38.2764 20.3259 36.8775C23.4022 35.5564 32.5524 35.1679 38.7051 36.1004C41.7815 36.8775 40.0461 41.2294 37.4431 39.8306M19.8526 22.967C23.4022 -1.35699 33.1835 -0.813003 37.8375 23.6664M47.3821 95.939C47.7765 93.1414 49.3541 88.1678 50.5373 85.9141C47.0665 84.3598 42.4126 79.0754 41.2293 75.4229C43.5169 73.6355 48.4075 70.7602 50.9317 69.5945M18.7482 65.3203C25.2954 65.5534 30.4226 83.1942 28.9239 100.602M11.0179 103.011C12.1222 82.961 17.8805 61.9009 22.4556 60.8907M17.9594 103.943C18.4327 96.6384 22.1401 83.9713 25.4531 78.6091M11.4912 103.477C10.7812 103.166 10.939 102.778 11.8067 102.7C13.8576 102.545 16.6185 102.933 17.2495 103.399C18.1172 103.788 18.1172 104.332 17.2495 104.487M16.6184 110.16C16.7762 110.782 16.6973 111.948 16.3818 112.492M11.3334 113.891C9.51915 111.715 9.20363 107.285 10.7024 105.031C11.2545 104.177 11.8067 103.089 11.7278 102.778M12.2011 114.979C10.8601 114.357 10.4657 110.704 11.3334 108.062M13.4632 116.844C11.7278 115.523 11.6489 111.326 13.3054 108.606M14.1731 118.32C12.6744 116.688 13.0688 112.103 14.8831 109.15M16.6973 113.813C18.1961 113.036 19.0638 109.15 18.1172 106.741C17.4073 105.342 16.934 103.633 17.0917 103.322M16.934 108.14C17.1706 109.383 16.4607 110.471 16.1452 110.86C15.4352 111.715 14.6464 113.347 14.6464 114.357C14.6464 117.155 13.9365 120.807 12.9899 121.817C12.4378 119.175 11.6489 117.465 11.2545 116.377C10.7813 115.445 10.6235 114.357 11.1757 113.813M49.2752 126.325C51.1684 125.625 52.5093 123.915 51.9572 122.983M39.8095 102.545C25.0587 105.808 21.588 98.7367 22.3768 85.3701C22.2979 98.115 27.8196 103.866 39.2573 100.524C39.4151 101.534 44.1479 114.979 50.2218 128.423C51.7994 127.49 53.2193 125.547 52.9826 124.537C48.4864 117.465 42.5703 106.663 41.1505 102.855M10.1502 111.404C9.91356 111.482 9.67692 111.637 9.36139 112.103C8.17818 109.927 4.94405 107.44 2.97203 107.13C2.6565 107.907 1.94657 108.606 1 109.539C8.17818 111.015 9.99244 120.108 4.62853 127.723C-0.340979 135.339 1.23664 145.053 7.86265 147.074C7.54713 147.851 6.8372 148.706 6.20615 149.327C7.94153 150.182 12.8322 150.26 15.593 149.094C14.8831 148.395 14.252 147.229 14.3309 146.841C20.7991 146.064 21.9035 136.66 16.5396 128.034C15.6719 126.869 14.6464 125.003 14.5675 124.304C16.8551 120.418 17.4861 113.657 15.593 111.326M28.2928 5.09314C29.3972 5.09314 30.2649 4.23831 30.2649 3.15033C30.2649 2.06236 29.3972 1.20752 28.2928 1.20752C27.1885 1.20752 26.3208 2.06236 26.3208 3.15033C26.3208 4.23831 27.2674 5.09314 28.2928 5.09314Z" stroke="#292526" stroke-width="0.5" stroke-miterlimit="22.926"/>
<path id="Vector_2" fill-rule="evenodd" clip-rule="evenodd" d="M24.8232 45.8926C25.4542 47.5245 23.0089 47.8354 23.0878 46.2811C23.4822 46.1257 24.1921 45.9703 24.8232 45.8926Z" fill="#292526"/>
<path id="Vector_3" d="M24.8232 45.8926C25.4542 47.5245 23.0089 47.8354 23.0878 46.2811C23.4822 46.1257 24.1921 45.9703 24.8232 45.8926Z" stroke="#292526" stroke-width="0.5" stroke-miterlimit="22.926"/>
<path id="Vector_4" fill-rule="evenodd" clip-rule="evenodd" d="M32.7138 45.2671C33.3449 46.8991 30.8996 47.2099 30.9784 45.6557C31.3728 45.5002 32.0828 45.2671 32.7138 45.2671Z" fill="#292526"/>
<path id="Vector_5" d="M32.7138 45.2671C33.3449 46.8991 30.8996 47.2099 30.9784 45.6557C31.3728 45.5002 32.0828 45.2671 32.7138 45.2671Z" stroke="#292526" stroke-width="0.5" stroke-miterlimit="22.926"/>
<path id="Vector_6" d="M43.2837 121.736C43.5992 122.902 45.2557 123.445 46.5967 122.902C44.8613 122.513 43.9936 120.492 43.6781 118.86M28.3751 120.104C29.2428 121.27 30.8204 121.114 31.6881 119.638M32.3192 114.12C26.5609 115.208 27.3497 121.736 25.7721 122.746C27.7441 122.746 29.0851 121.425 28.454 120.104M32.0825 108.058C32.0825 110.234 29.3217 111.322 28.1385 109.69C29.0062 111.478 27.1919 113.265 24.51 113.265C26.7186 111.866 25.0621 105.261 31.2937 105.261M32.6347 120.182C31.2149 122.668 35.0011 125.388 37.3676 122.513M42.9681 123.445C39.4185 124.611 39.5762 131.217 43.9936 130.595M43.2837 125.077C48.1743 125.311 49.3575 131.061 45.3346 133.16M48.1743 134.792C51.014 136.501 50.4618 140.542 47.701 141.475M23.169 133.626C25.2988 136.501 29.8739 133.548 27.6652 130.44M33.8179 129.818C37.1309 129.507 38.7086 133.548 36.2632 135.335M4.63193 143.107C4.71081 143.651 5.1841 144.661 5.49962 145.05M6.60396 143.495C6.68284 144.195 6.99836 145.05 7.15612 145.205M8.49711 143.728C8.49711 144.272 8.73374 145.05 8.81262 145.283M17.8839 142.563C17.7262 143.34 17.4107 144.272 17.2529 144.428M15.9908 143.262C15.9908 143.728 15.7542 144.506 15.5964 144.894M14.2554 143.495C14.3343 143.962 14.1765 144.739 14.0188 145.05M12.3623 143.806C12.4412 144.195 12.4412 144.894 12.3623 145.205M10.3902 143.806C10.3902 144.117 10.3902 144.816 10.548 145.205M1.87109 135.025C7.47165 137.356 16.2274 137.045 19.3827 134.325M7.55053 133.315C7.78717 134.014 8.4971 134.558 9.3648 134.558C10.6269 134.636 11.5735 133.704 11.3368 132.538C10.9424 131.294 9.20703 131.217 8.97039 132.305C8.73375 133.16 9.60144 133.704 10.2325 133.237C10.4691 133.004 10.4691 132.616 10.2325 132.46M23.7211 119.404C22.3013 118.316 21.9858 116.063 23.4845 114.819C25.2199 113.576 27.4286 115.363 26.6398 116.995C26.0087 118.316 24.3522 118.161 24.0367 116.918C23.9578 116.374 24.3522 115.83 24.9044 115.985M37.2098 106.815C38.1564 106.116 38.3141 104.561 37.3676 103.784C36.1844 103.007 34.7645 104.173 35.2378 105.261C35.6322 106.116 36.7365 106.038 36.9732 105.183C37.0521 104.795 36.7365 104.484 36.421 104.561M41.4694 107.204C41.1539 106.893 40.6017 106.66 40.2073 106.504C38.7874 106.038 37.0521 106.426 36.2632 107.825C35.3167 109.924 37.6831 111.866 39.2607 110.778C40.5228 109.846 40.0495 108.136 38.6297 108.058C37.9986 108.136 37.5253 108.602 37.762 109.146M41.3905 116.84C39.9707 118.083 37.3676 117.928 36.3421 116.141C35.3955 114.042 37.762 112.099 39.3396 113.187C40.6017 114.12 40.1284 115.83 38.7086 115.907C38.0775 115.83 37.6042 115.363 37.8409 114.819M27.5074 141.863C26.4031 142.796 24.51 142.718 23.8 141.319C23.0901 139.765 24.8255 138.289 26.0087 139.143C26.9553 139.843 26.5609 141.086 25.5354 141.164C25.0621 141.164 24.7466 140.698 24.9044 140.387M27.823 136.89C27.113 137.822 27.113 140.542 28.3751 141.475C29.1639 142.174 30.5838 142.096 31.136 141.086C31.6881 139.921 30.3472 138.833 29.4795 139.454C28.7695 139.998 29.0062 140.931 29.795 140.931C30.1105 140.931 30.426 140.62 30.2683 140.309M29.9528 133.393C29.2428 134.325 29.2428 137.045 30.5049 137.978C31.2937 138.677 32.7136 138.599 33.2658 137.589C33.8179 136.423 32.4769 135.335 31.6093 135.957C30.8993 136.501 31.136 137.434 31.9248 137.434C32.2403 137.434 32.5558 137.123 32.3981 136.812M23.6423 130.051C24.8255 130.051 26.9553 128.264 26.8764 126.709C26.8764 125.621 25.9298 124.611 24.7466 124.844C23.4845 125.155 23.4845 126.865 24.5888 127.176C25.4565 127.409 26.0087 126.554 25.5354 125.932C25.2988 125.699 24.9044 125.699 24.7466 125.932M28.1385 124.3C27.4286 125.233 27.5863 127.953 28.9273 128.885C29.795 129.507 31.136 129.429 31.6881 128.341C32.1614 127.176 30.8204 126.165 29.9528 126.787C29.2428 127.331 29.5583 128.264 30.3472 128.264C30.6627 128.186 30.8993 127.875 30.8204 127.642M27.9807 113.809C30.1894 114.275 34.2123 112.255 34.3701 108.68C34.5279 106.504 32.8714 105.183 30.8993 105.338C28.7695 105.649 28.454 108.525 30.1894 109.146C31.6093 109.613 32.6347 108.369 32.0037 107.281C31.6093 106.815 30.9782 106.737 30.7416 107.204M38.6297 124.456C37.6042 126.476 38.4719 130.75 41.9427 131.916C44.0725 132.616 45.8078 131.45 46.2023 129.507C46.4389 127.409 43.7569 126.321 42.6526 127.797C41.7849 128.963 42.7315 130.362 43.9936 129.973C44.5458 129.74 44.7824 129.118 44.388 128.73M42.4948 116.607C43.8358 117.617 44.4669 121.192 42.5737 122.591C41.5483 123.445 39.8918 123.523 39.0241 122.28C38.1564 120.881 39.6551 119.327 40.8383 120.026C41.7849 120.57 41.6272 121.736 40.6017 121.969C40.1284 121.969 39.8129 121.658 39.8918 121.27M35.2378 114.275C33.739 113.421 30.1894 114.275 29.6372 116.529C29.2428 117.772 29.8739 119.327 31.2937 119.638C32.8714 119.871 33.8179 117.928 32.7136 117.073C31.8459 116.451 30.8204 117.073 30.9782 118.006C31.136 118.394 31.6093 118.627 31.8459 118.316M31.9248 123.601C31.4515 124.767 32.3981 127.564 34.0546 128.186C35.1589 128.652 36.5788 128.108 36.8154 126.865C36.9732 125.466 35.2378 124.767 34.5279 125.777C33.9757 126.554 34.6067 127.409 35.3955 127.176C35.79 127.02 35.8688 126.632 35.7111 126.399M43.9147 131.994C42.6526 133.237 42.1793 137.589 43.9147 139.299C45.019 140.465 47.2277 140.62 48.2532 139.143C49.2786 137.434 47.3855 135.569 45.9656 136.423C44.7824 137.123 45.0979 138.599 46.2811 138.755C46.8333 138.755 47.2277 138.366 47.0699 137.9M41.706 134.792C42.6526 135.802 43.047 139.066 41.6272 140.387C40.7595 141.319 39.103 141.397 38.2353 140.231C37.4465 138.91 38.8663 137.434 40.0495 138.133C40.9172 138.677 40.7595 139.843 39.8129 139.998C39.4185 139.998 39.0241 139.687 39.1818 139.299M31.5304 129.507C30.8204 130.44 30.8204 133.16 32.0825 134.092C32.8714 134.792 34.2912 134.714 34.8434 133.704C35.3955 132.538 34.0546 131.45 33.1869 132.072C32.4769 132.616 32.7136 133.548 33.5024 133.548C33.8179 133.548 34.1335 133.237 33.9757 132.926M11.3368 132.616C11.5735 131.916 12.2834 131.372 13.1511 131.372C14.4132 131.294 15.2809 132.149 15.0442 133.315C14.6498 134.481 12.9933 134.558 12.7567 133.548C12.52 132.693 13.3877 132.149 14.0188 132.616C14.2554 132.849 14.2554 133.237 14.0188 133.393M14.5709 131.605C14.8076 130.984 15.4386 130.595 16.1486 130.595C17.3318 130.517 18.1206 131.372 17.9628 132.382C17.5684 133.47 16.0697 133.548 15.7542 132.538C15.5964 131.761 16.3063 131.217 16.9374 131.683C17.174 131.916 17.174 132.227 16.9374 132.382M3.60647 131.605C3.21207 132.926 4.15864 134.17 5.5785 134.17C6.91948 134.248 7.94494 133.315 7.70829 131.994C7.23501 130.673 5.42074 130.595 5.10522 131.761C4.86857 132.693 5.73626 133.315 6.44619 132.771C6.76172 132.538 6.76172 132.072 6.44619 131.916M15.6753 77.4397C17.174 78.1391 18.0417 80.2374 17.3318 81.7139M15.1231 78.8385C16.4641 79.6934 16.7007 81.7916 15.5964 83.035M17.8051 84.7447C17.6473 82.1802 19.9349 81.1699 20.9603 82.491M31.6881 64.3063C31.767 65.3166 31.6881 68.5028 31.6093 70.7564M33.4235 64.3063C33.4235 65.3943 33.5024 68.2696 33.5813 70.1347M32.4769 74.0204C32.9502 70.7564 35.0011 66.0937 36.5788 64.6172M39.4974 43.7125C40.6017 47.7536 38.7086 49.6964 37.4465 53.1157M39.6551 39.5938C41.3116 40.5263 40.6017 44.2565 38.2353 43.8679M26.8764 103.551C27.2708 103.551 27.5863 103.862 27.5863 104.251C27.5863 104.639 27.2708 104.95 26.8764 104.95C26.482 104.95 26.1665 104.639 26.1665 104.251C26.1665 103.862 26.482 103.551 26.8764 103.551ZM46.9911 133.16C47.3855 133.16 47.701 133.47 47.701 133.859C47.701 134.248 47.3855 134.558 46.9911 134.558C46.5967 134.558 46.2811 134.248 46.2811 133.859C46.2023 133.548 46.5967 133.16 46.9911 133.16ZM25.2988 130.75C25.8509 130.75 26.3242 131.217 26.3242 131.761C26.3242 132.305 25.8509 132.771 25.2988 132.771C24.7466 132.771 24.2733 132.305 24.2733 131.761C24.2733 131.217 24.7466 130.75 25.2988 130.75ZM17.7262 137.356C18.0417 137.356 18.3572 137.667 18.3572 138.055C18.3572 138.444 18.1206 138.755 17.7262 138.755C17.4107 138.755 17.0951 138.444 17.0951 138.055C17.174 137.667 17.4107 137.356 17.7262 137.356ZM13.3088 138.522C13.7033 138.522 14.0188 138.833 14.0188 139.221C14.0188 139.61 13.7033 139.921 13.3088 139.921C12.9144 139.921 12.5989 139.61 12.5989 139.221C12.5989 138.833 12.9144 138.522 13.3088 138.522ZM3.922 137.667C4.23752 137.667 4.55305 137.978 4.55305 138.366C4.55305 138.755 4.31641 139.066 3.922 139.066C3.5276 139.066 3.29095 138.755 3.29095 138.366C3.29095 137.978 3.5276 137.667 3.922 137.667ZM8.33934 138.599C8.73374 138.599 9.04927 138.91 9.04927 139.299C9.04927 139.687 8.73374 139.998 8.33934 139.998C7.94493 139.998 7.62941 139.687 7.62941 139.299C7.62941 138.833 7.94493 138.599 8.33934 138.599ZM17.7262 135.957C18.7516 135.957 19.6193 136.89 19.6193 138.133C19.6193 139.299 18.7516 140.309 17.7262 140.309C16.7007 140.309 15.833 139.377 15.833 138.133C15.833 136.89 16.7007 135.957 17.7262 135.957ZM13.3088 137.123C14.4921 137.123 15.5175 138.055 15.5175 139.299C15.5175 140.465 14.5709 141.475 13.3088 141.475C12.1256 141.475 11.1002 140.542 11.1002 139.299C11.1002 138.055 12.0468 137.123 13.3088 137.123ZM3.922 136.268C4.94745 136.268 5.81515 137.201 5.81515 138.444C5.81515 139.61 4.94745 140.62 3.922 140.62C2.89655 140.62 2.02885 139.687 2.02885 138.444C1.94997 137.201 2.81767 136.268 3.922 136.268ZM8.33934 137.123C9.52256 137.123 10.548 138.055 10.548 139.299C10.548 140.465 9.60144 141.475 8.33934 141.475C7.15612 141.475 6.13067 140.542 6.13067 139.299C6.13067 138.133 7.15612 137.123 8.33934 137.123Z" stroke="#292526" stroke-width="0.5" stroke-miterlimit="22.926"/>
</g>
</svg>
