<svg width="31" height="24" viewBox="0 0 31 24" fill="none" xmlns="http://www.w3.org/2000/svg">
<g id="hands-helping">
<path id="Path" d="M29.9024 9.64428L29.5286 9.00376C29.4292 8.83404 29.2657 8.71006 29.0737 8.65903C28.8817 8.608 28.677 8.63409 28.5045 8.73158L23.982 11.3366C23.8994 10.7178 23.5915 10.1497 23.1157 9.73772C22.6398 9.32578 22.0283 9.09808 21.3949 9.09696H14.2852V12.0392C14.3013 12.2425 14.2744 12.4469 14.2065 12.6395C14.1385 12.8321 14.0309 13.0087 13.8903 13.1584C13.7497 13.3081 13.5793 13.4275 13.3896 13.5091C13.2 13.5908 12.9952 13.633 12.7882 13.633C12.5813 13.633 12.3765 13.5908 12.1869 13.5091C11.9972 13.4275 11.8268 13.3081 11.6862 13.1584C11.5456 13.0087 11.438 12.8321 11.37 12.6395C11.302 12.4469 11.2752 12.2425 11.2912 12.0392V8.06295C11.2918 7.81348 11.3563 7.56819 11.4789 7.3499C11.6015 7.13162 11.7782 6.94742 11.9924 6.81445L13.554 5.85145C14.0296 5.55932 14.5792 5.40549 15.1396 5.40767H20.0645L25.6682 2.26424C25.84 2.16717 25.9659 2.00713 26.0185 1.819C26.0711 1.63086 26.0461 1.42987 25.949 1.25982L25.5811 0.61634C25.4826 0.447056 25.3201 0.322993 25.1291 0.271179C24.9382 0.219366 24.7342 0.244001 24.5616 0.339717L19.4775 3.20061H15.1411C14.1604 3.20099 13.1995 3.47263 12.3678 3.98462L10.8002 4.94762C10.3838 5.20251 10.0232 5.53674 9.73958 5.93071C9.45596 6.32469 9.25504 6.77048 9.14858 7.24196L6.36929 8.87802C5.81499 9.20767 5.35667 9.67297 5.03885 10.2287C4.72102 10.7844 4.5545 11.4117 4.55547 12.0496V13.6205L0.438335 15.9622C0.266059 16.06 0.140215 16.2212 0.0884187 16.4104C0.0366228 16.5995 0.0631062 16.8012 0.162057 16.9711L0.535933 17.6116C0.585105 17.6962 0.650778 17.7704 0.729174 17.83C0.80757 17.8895 0.89714 17.9332 0.992731 17.9585C1.08832 17.9838 1.18805 17.9902 1.28617 17.9774C1.38429 17.9646 1.47887 17.9327 1.56447 17.8838L6.80022 14.9016V12.054C6.79965 11.7979 6.8666 11.546 6.99451 11.323C7.12243 11.1 7.30693 10.9135 7.52996 10.7818L9.04498 9.87801V11.8232C9.024 12.7631 9.35399 13.6779 9.97232 14.394C10.5907 15.11 11.4543 15.5775 12.3993 15.7078C12.9209 15.7615 13.448 15.7066 13.9466 15.5466C14.4452 15.3867 14.9042 15.1253 15.2936 14.7794C15.6831 14.4335 15.9944 14.0108 16.2074 13.5388C16.4204 13.0667 16.5303 12.5558 16.53 12.0392V11.2996H21.3949C21.4939 11.3 21.5888 11.3389 21.6588 11.4079C21.7288 11.4769 21.7684 11.5703 21.7688 11.6679V13.1472C21.7684 13.2447 21.7288 13.3382 21.6588 13.4072C21.5888 13.4762 21.4939 13.5151 21.3949 13.5155H19.8934V16.2803C19.8934 16.62 19.7564 16.9458 19.5125 17.1861C19.2687 17.4263 18.9379 17.5613 18.5931 17.5613H17.4654V18.6678C17.4654 19.0601 17.3072 19.4364 17.0257 19.7138C16.7441 19.9912 16.3622 20.1471 15.9639 20.1471H9.94889L7.01043 21.8231C6.83816 21.9209 6.71231 22.0821 6.66052 22.2712C6.60872 22.4603 6.63521 22.662 6.73416 22.8319L7.10803 23.4724C7.20734 23.6422 7.37093 23.7661 7.56291 23.8172C7.75489 23.8682 7.95958 23.8421 8.13206 23.7446L10.545 22.3674H15.9639C16.7873 22.3666 17.5875 22.0992 18.2414 21.6063C18.8953 21.1134 19.3665 20.4224 19.5826 19.6397C20.318 19.4259 20.9638 18.9838 21.4237 18.3793C21.8837 17.7748 22.1332 17.0402 22.1351 16.2847V15.6264C22.5404 15.5057 22.9101 15.29 23.2123 14.9979C23.5146 14.7058 23.7406 14.3459 23.8709 13.9489L29.6277 10.6531C29.7997 10.5551 29.9252 10.3938 29.9767 10.2047C30.0282 10.0155 30.0015 9.81403 29.9024 9.64428Z" fill="#C12DD9"/>
</g>
</svg>
