<svg width="71" height="153" viewBox="0 0 71 153" fill="none" xmlns="http://www.w3.org/2000/svg">
<g id="Group 10240">
<path id="Vector" d="M45.6315 101.847C45.8151 101.847 46.0905 101.757 46.2742 101.757C47.9268 101.757 49.2122 103.023 49.2122 104.651C49.2122 106.189 47.9268 107.455 46.366 107.546M40.949 89.2743C42.418 89.7266 43.3362 91.0834 43.3362 92.6211C43.3362 94.5206 41.7753 96.1487 39.8473 96.1487M40.2145 99.2241C40.8572 98.591 40.3981 96.601 39.2046 95.1537C37.4601 92.9829 38.4701 90.0884 41.0408 89.1839C42.6017 88.822 44.2543 87.5557 44.3461 86.6512M36.542 104.109C38.2864 102.842 38.3782 99.3146 36.6338 97.0533C34.2467 93.8874 35.532 89.0934 39.2046 87.3748C40.6736 86.7416 43.0607 83.7567 44.0707 81.4049C44.8052 79.234 48.9368 80.4099 46.4578 82.8522C44.5297 85.5657 47.7432 85.7466 47.4677 82.4903C46.7332 78.239 51.783 78.8722 50.1303 83.0331C46.5496 87.3748 49.5795 89.003 49.6713 83.7567M50.314 82.219C52.1502 82.3094 51.9666 84.2994 49.4876 89.9979C47.5596 94.4301 44.6215 100.219 40.49 105.827C36.2665 111.073 37.1847 117.767 42.3262 119.214C42.418 118.762 42.7853 117.405 43.1525 116.501C43.7034 114.963 43.0607 112.521 41.7753 111.707C40.8572 110.893 40.6736 109.264 41.4081 108.36M33.7876 86.1989C37.3683 101.033 36.542 115.506 39.48 125.636C38.3783 126.631 35.532 126.631 33.8794 125.727C32.135 124.732 28.9215 125.184 27.4525 126.631C25.6162 128.531 22.4946 129.164 21.1174 127.898C18.7302 125.727 14.0478 127.807 8.99805 132.782C9.82437 125.727 10.7425 117.677 10.6507 116.772M24.5145 89.4552C24.9735 90.5406 26.2589 100.581 27.177 109.717M21.8519 89.3648C21.6683 92.4402 20.0156 102.661 18.5466 109.807M13.5887 82.0381C11.7524 82.4903 11.2016 84.8421 12.4869 86.8321C19.832 90.9929 31.0332 90.2693 34.7057 85.3848C35.6239 84.2089 35.6239 81.8572 34.5221 80.5004M24.8817 108.179C24.8817 108.541 24.9735 110.802 24.9735 112.702M22.4946 113.154C22.4028 110.169 22.4028 110.35 22.4946 108.179M37.9192 117.224C38.011 116.772 36.542 116.41 34.9812 116.32C33.5122 116.41 33.2367 115.596 34.2467 114.782C35.6239 113.425 33.1449 112.883 29.2887 113.697C25.1572 114.239 23.6881 112.883 26.3507 110.893C27.8197 109.807 27.3607 108.541 25.6162 108.269C24.1472 107.817 21.301 108.089 20.0156 108.631C18.0875 109.445 18.2712 110.531 20.4747 110.983C24.0554 112.611 23.0455 114.511 18.5466 114.963C13.956 114.963 10.5589 116.048 9.27349 118.491C9.73255 105.827 11.477 89.9075 12.6706 86.4703" stroke="#292526" stroke-width="0.5" stroke-miterlimit="22.926"/>
<path id="Vector_2" d="M39.7463 93.4367C40.304 93.4367 40.7562 92.9913 40.7562 92.4418C40.7562 91.8922 40.304 91.4468 39.7463 91.4468C39.1885 91.4468 38.7363 91.8922 38.7363 92.4418C38.7363 92.9913 39.1885 93.4367 39.7463 93.4367Z" fill="#292526"/>
<path id="Vector_3" d="M39.7463 93.4367C40.304 93.4367 40.7562 92.9913 40.7562 92.4418C40.7562 91.8922 40.304 91.4468 39.7463 91.4468C39.1885 91.4468 38.7363 91.8922 38.7363 92.4418C38.7363 92.9913 39.1885 93.4367 39.7463 93.4367Z" stroke="#292526" stroke-width="0.5" stroke-miterlimit="22.926"/>
<path id="Vector_4" fill-rule="evenodd" clip-rule="evenodd" d="M46.1779 103.663C46.7288 103.663 47.1879 104.115 47.1879 104.567C47.1879 105.11 46.7288 105.472 46.1779 105.472C45.6271 105.472 45.2598 105.019 45.2598 104.567C45.168 104.115 45.6271 103.663 46.1779 103.663Z" fill="#292526"/>
<path id="Vector_5" d="M46.1779 103.663C46.7288 103.663 47.1879 104.115 47.1879 104.567C47.1879 105.11 46.7288 105.472 46.1779 105.472C45.6271 105.472 45.2598 105.019 45.2598 104.567C45.168 104.115 45.6271 103.663 46.1779 103.663Z" stroke="#292526" stroke-width="0.5" stroke-miterlimit="22.926"/>
<path id="Vector_6" d="M34.1471 31.023C35.157 32.1989 37.1769 32.1085 38.095 30.7517M34.0553 29.5758C35.5243 28.219 37.5442 28.3999 38.095 29.7567M25.9757 31.2039C27.4447 32.7416 29.9237 32.6512 30.9336 31.1135M23.864 30.7517C24.5985 30.6612 25.333 30.2994 25.8839 29.7567C27.4447 28.219 30.0155 28.3094 30.9336 29.8471M18.2634 43.2342C16.7026 44.5005 16.6108 46.7618 18.1716 47.7568M18.3552 40.1588C17.3453 42.0583 18.3552 44.3196 20.3751 44.6814M17.1616 34.5507C15.7844 37.7166 17.5289 40.792 20.6505 40.7015M17.1616 34.5507C14.8663 33.5557 15.1418 30.9326 17.4371 30.209C17.0698 29.7567 17.0698 28.7617 17.4371 27.5858M17.1616 34.5507C19.0897 35.1839 21.1096 33.9175 21.2014 32.018C21.2014 31.023 21.1096 30.209 21.2014 29.3949C21.385 27.5858 21.8441 26.0481 22.1196 25.9577M19.916 34.1889C20.0997 35.9075 21.385 37.3547 22.4868 37.1738C23.1295 40.3397 22.395 45.4051 21.0178 47.395M37.636 44.6814C38.1869 45.8573 36.8097 47.0332 35.8915 46.1287M39.1968 42.1487C40.0231 43.9578 37.8196 45.586 36.4424 44.2292M40.4822 39.0733C41.4921 41.3347 38.7377 43.4151 36.9015 41.6965M41.4003 34.8221C42.8693 36.6311 41.1249 39.7065 39.1968 39.2543M41.5839 29.3044C43.3284 31.3848 42.6857 34.3698 40.4822 35.2743M41.4921 24.9627C42.7775 26.6813 42.3184 29.3044 40.4822 30.2994M32.6781 136.129C34.1471 136.763 35.6161 136.491 35.6161 135.587M32.5863 134.23C33.3208 134.501 34.698 134.501 35.3406 134.139M18.9061 137.305C20.4669 138.029 22.5786 137.486 23.1295 136.31M18.7225 134.592C20.3751 135.406 22.395 135.225 22.7622 134.139M36.2588 126.36C36.2588 127.627 35.8915 131.154 35.5243 133.325C34.9734 134.953 36.2588 137.848 38.5541 139.295C42.3184 141.557 44.0629 146.893 42.6857 151.506C38.6459 151.145 34.6979 147.979 34.7898 145.175C34.7898 144.361 34.7898 143.185 34.3307 142.28C33.8716 141.104 32.9535 140.109 32.0354 139.838C29.8319 139.114 29.6482 137.124 30.8418 135.406C31.4845 133.958 31.0254 131.969 30.2909 130.883C28.9137 128.531 28.4547 125.908 28.8219 125.637M16.519 127.627C17.8043 133.416 17.5289 139.114 15.8763 140.471C12.571 143.185 11.7447 147.165 13.6727 151.868C17.4371 150.692 20.0997 148.16 20.3751 145.536C20.5587 143.546 21.6605 141.828 22.9459 141.285C24.5985 140.652 24.8739 138.481 23.4049 136.943C22.4868 135.768 22.6704 131.516 23.6804 128.35M29.0055 113.787C29.0973 115.325 29.281 118.039 29.3728 119.215M26.2511 113.697C26.1593 116.139 26.0675 121.657 26.0675 124.732M20.4669 114.782C20.4669 115.958 20.4669 117.858 20.3751 118.581M18.0798 115.054C17.988 115.506 17.7125 118.31 17.4371 120.571M14.9581 115.325C14.4991 116.772 13.5809 122.109 13.1219 126.089M24.1394 78.8726C28.0874 78.0586 32.9535 71.365 33.8716 65.5761M18.9979 78.7822C25.1494 78.3299 31.3009 80.3199 31.2091 82.7621M29.4646 85.2043C29.8319 84.933 30.0155 84.7521 30.2909 84.2998C32.3108 81.5862 34.4225 75.9781 34.8816 71.6364C35.0652 67.1138 37.636 61.8675 39.9313 61.1439M35.7997 60.1489C36.626 69.1037 32.7699 78.7822 27.6283 79.6867M17.988 74.0786C18.2634 78.6917 21.1096 84.0285 22.8541 82.8526C23.6804 82.1289 22.7622 81.3149 20.8342 81.8576M15.6008 75.7972C16.7026 84.1189 22.395 87.6466 25.1494 84.0285C26.8938 81.2244 23.4967 78.9631 19.6406 80.0485M47.46 70.3701C40.4822 69.8273 41.3085 62.772 50.398 51.6463M21.4769 70.2796C22.395 72.1791 23.2213 73.9882 23.3131 73.9882C24.4149 73.6264 25.9757 72.7218 26.4348 72.2696C25.6084 70.8223 24.6903 68.8324 24.5985 68.2896M13.3055 72.2696C11.8365 69.4655 13.6727 65.757 16.978 64.762C17.3453 70.6414 21.2932 72.2696 24.6903 68.0183M7.24582 54.9026C10.6429 56.3499 13.2137 61.9579 12.3874 66.1188M4.21599 57.3448C7.98033 57.7067 11.102 61.8675 10.5511 65.757M2.1961 59.6966C5.31775 58.2494 8.34758 61.2343 8.16395 65.5761M7.7967 74.1691C5.86863 68.9228 11.0102 65.1238 14.2236 66.571M4.3078 71.0032C5.13412 67.0233 9.1739 64.5811 12.571 66.2092M8.43939 66.1188C6.14406 61.5057 -0.558296 65.3047 1.55341 72.1791C0.635275 74.4404 2.1961 76.7922 4.58324 76.8827C8.71483 80.2294 16.8862 76.9731 20.926 70.3701M13.8564 51.8272C4.58324 54.5408 -1.38461 61.8675 1.92066 66.3901M17.0698 50.38C17.6207 50.1991 18.3552 49.7468 18.5388 49.385M23.864 55.3549C21.8441 53.4554 18.9061 50.0182 17.8961 48.4805C17.988 47.6664 18.9979 46.4905 20.0078 46.1287C21.4769 48.4805 25.0576 52.4604 27.1693 53.9981M26.8938 60.1489C29.5564 57.5257 34.7898 54.179 37.1769 53.3649M23.0377 58.5207C22.8541 58.1589 22.395 56.983 22.2114 56.169C26.7102 54.0885 33.0453 51.5559 34.6979 51.1036M33.5044 44.8623C33.5044 47.1237 34.0553 50.2895 34.6061 51.1036C35.3406 50.6513 39.1968 55.7167 42.4103 61.2343M35.2488 43.6864C35.5243 46.4905 37.9114 50.2895 40.2067 53.0031C42.3184 55.4453 44.7056 59.7871 44.2465 60.4202M38.9214 24.1486C39.2886 25.5959 39.3804 26.9527 38.9214 27.7667C38.7377 28.9426 38.9214 30.0281 39.105 30.7517C39.6559 32.2894 39.105 35.9075 37.8196 38.1688C37.3605 38.9829 36.4424 41.1538 35.9833 42.601C34.6061 45.9478 29.8319 45.8573 26.4348 42.2392M30.2909 15.2842C30.6582 16.2792 31.0254 18.1787 31.0254 19.0832M39.1968 26.6813C37.1769 25.415 33.9634 26.1386 33.688 28.4904C33.8716 29.214 34.3307 32.8321 34.5143 35.5457C31.6681 35.9979 30.2909 35.9979 31.2091 34.9125M23.9558 27.8572C25.8839 26.229 29.6482 25.8672 31.4845 27.1336M23.3131 20.2591C23.9558 11.0329 35.157 11.2138 36.167 18.9928M20.1915 21.0732C21.1096 8.95252 37.0851 8.68116 38.2787 19.0832M17.988 62.9529C12.571 49.385 4.67505 24.1486 2.28791 12.6611C0.727087 0.449943 15.3254 -2.44455 19.7324 6.14848C21.9359 11.3043 16.7026 12.7515 16.0599 10.038C16.3353 1.98764 4.12417 2.80172 5.77681 12.3897C8.16395 23.6059 15.509 47.2141 20.5587 59.4253M32.4026 87.2848C33.8716 93.3451 34.9734 106.732 34.6061 114.059M27.812 89.0034C28.7301 92.1692 30.0155 99.1341 30.3827 103.024M18.2634 88.8225C18.0798 91.0838 15.9681 102.029 13.9482 110.712M14.04 76.5209C14.1318 77.6968 13.9482 80.5008 13.5809 82.0385C16.8862 87.3752 24.8739 88.2797 30.6582 84.5712C34.1471 82.3099 35.8915 78.7822 38.095 74.9832M15.509 22.8823C23.5886 19.0832 37.1769 17.7265 42.6857 20.2591C42.7775 22.5205 42.3184 24.8722 41.5839 24.9627C37.5442 22.7918 25.4248 24.1486 17.3453 27.6763C16.2435 27.0431 15.3254 24.6913 15.509 22.8823Z" stroke="#292526" stroke-width="0.5" stroke-miterlimit="22.926"/>
<path id="Vector_7" fill-rule="evenodd" clip-rule="evenodd" d="M29.9263 28.9325C29.9263 29.837 29.2836 30.3797 28.5491 30.3797C27.9064 30.3797 27.1719 29.9275 27.0801 29.0229C27.4473 28.842 27.9982 28.7516 28.5491 28.6611C29.0082 28.6611 29.559 28.7516 29.9263 28.9325Z" fill="#292526"/>
<path id="Vector_8" d="M29.9263 28.9325C29.9263 29.837 29.2836 30.3797 28.5491 30.3797C27.9064 30.3797 27.1719 29.9275 27.0801 29.0229C27.4473 28.842 27.9982 28.7516 28.5491 28.6611C29.0082 28.6611 29.559 28.7516 29.9263 28.9325Z" stroke="#292526" stroke-width="0.5" stroke-miterlimit="22.926"/>
<path id="Vector_9" fill-rule="evenodd" clip-rule="evenodd" d="M37.4536 29.0308C37.4536 29.9353 36.8109 30.3876 36.1682 30.478C35.5255 30.478 34.8828 30.1162 34.6992 29.1212C35.0665 28.9403 35.7092 28.7594 36.1682 28.7594C36.7191 28.669 37.1782 28.8499 37.4536 29.0308Z" fill="#292526"/>
<path id="Vector_10" d="M37.4536 29.0308C37.4536 29.9353 36.8109 30.3876 36.1682 30.478C35.5255 30.478 34.8828 30.1162 34.6992 29.1212C35.0665 28.9403 35.7092 28.7594 36.1682 28.7594C36.7191 28.669 37.1782 28.8499 37.4536 29.0308Z" stroke="#292526" stroke-width="0.5" stroke-miterlimit="22.926"/>
<path id="Vector_11" d="M47.0991 111.248C47.3745 110.163 46.7318 108.444 45.6301 106.816C44.4365 105.188 44.4365 102.293 47.0073 100.032M66.3798 129.52C67.757 131.69 68.3997 135.218 68.0325 135.761C64.1763 136.213 61.3301 135.309 62.2482 133.138C62.9828 131.419 63.35 129.791 63.0746 128.977C62.8909 128.615 62.5237 128.434 62.1564 128.434C60.8711 128.525 60.0447 127.53 60.1365 126.173C60.2284 124.002 59.9529 122.917 59.4939 121.831C58.2085 118.484 55.0868 118.032 51.3225 121.56M49.8535 115.409C51.5061 115.499 54.995 115.138 56.8313 114.685C59.7693 113.871 62.3401 115.68 61.9728 118.394C62.2483 122.102 64.819 127.349 67.2062 128.886C68.3997 129.7 69.9606 132.324 70.236 134.223C69.5015 134.585 68.4915 134.675 68.1243 134.494M60.7792 141.912C61.2383 144.354 61.0547 147.972 60.3202 149.057C57.474 148.696 54.9032 146.615 55.1786 144.806C55.5459 143.449 55.8213 142.454 57.1985 141.278C57.8412 140.555 57.5658 139.198 56.5558 138.746C55.2705 138.294 55.0868 137.027 55.7295 135.851C57.474 129.972 55.1786 125.63 51.1389 127.077C47.4663 128.796 43.2429 128.705 42.0494 126.354C41.4985 125.178 39.754 123.911 38.9277 123.64M48.8435 91.8007C50.2207 91.9816 50.4962 93.7002 49.2108 94.5143M49.7617 89.5394C52.3324 89.9916 53.0669 93.3384 51.3225 96.2329C50.4044 98.1324 52.5161 98.3133 52.2406 96.5043C51.9652 93.8811 52.7915 92.3434 53.6178 93.5193C54.0769 93.7907 54.2605 96.3233 53.2506 99.0369C52.5161 102.022 52.9751 105.188 53.4342 106.454C55.1786 110.434 53.4342 114.866 49.9453 115.318C47.0073 116.042 46.181 120.565 50.1289 121.56C51.5979 121.922 54.3523 122.102 55.4541 122.102C57.2903 122.102 58.7594 123.278 59.3102 124.906C59.4939 125.63 59.4939 126.444 59.402 127.168C58.7593 132.505 60.2284 138.294 61.7892 141.278C63.1664 143.54 63.7173 147.067 62.7991 148.243C62.2482 148.334 61.1465 147.882 60.5038 147.339M24.6049 68.0116C25.4312 67.107 26.5329 66.2025 26.8084 66.2025M24.7885 64.2126C27.5429 62.7653 29.0119 63.7603 27.8183 66.2025C27.1756 66.9261 25.7984 67.7402 24.9721 67.8307M23.5949 62.494C26.7166 60.504 28.7365 61.1372 27.7265 63.6698M22.1259 60.9562C24.9721 59.0567 27.4511 59.2376 27.0838 61.3181M16.9844 64.6648C16.9844 64.7553 17.9943 62.9462 18.9124 61.0467C21.2078 58.2427 24.513 57.519 25.4312 59.509M44.3447 60.4135C39.8458 63.3985 38.1014 72.4438 43.0593 73.6197M64.4518 46.3029C66.1962 44.5843 67.757 45.0365 65.4617 47.4788C60.6874 51.8205 55.0868 55.4386 53.526 55.5291C53.0669 57.8808 52.6079 60.0517 52.2406 62.0417C48.9353 82.1222 32.0417 79.5896 38.285 65.4789C39.295 63.2176 42.6002 60.8658 44.2529 60.504M59.402 47.2074C59.8611 46.2124 61.6056 45.127 62.9828 44.9461C65.0026 42.4134 67.0225 41.328 67.0225 42.8657C66.288 43.6797 64.9108 45.3983 64.2681 46.3933C63.35 46.6647 61.5137 47.8406 60.5038 48.7451M57.8412 45.6697C58.7594 44.5843 60.6874 43.6797 61.6056 43.8606C63.7173 41.4184 66.1044 40.5139 66.288 42.0516M63.9927 41.5089C63.6254 40.6043 61.6056 41.0566 60.0447 42.5943C58.8512 42.7752 56.9231 43.9511 56.8313 44.4034C56.005 44.2225 54.2605 44.8556 53.2506 45.6697M54.2605 40.1521C55.1786 40.9661 54.9032 42.9561 53.7096 44.0416C53.1588 44.8556 53.0669 46.0315 53.4342 46.3933C54.1687 47.0265 54.6278 48.926 54.1687 50.1019M50.9552 52.725C49.3944 50.4637 48.3845 47.3883 50.7716 43.5893C52.4242 42.142 54.1687 40.4234 54.1687 40.1521M45.3546 58.7854C44.9874 61.2276 47.7418 62.8558 50.7716 62.0417M46.7318 56.6145C46.4564 57.9713 47.9254 59.3281 49.6698 59.4186M48.4763 54.0818C48.3845 56.4336 50.8634 57.6095 53.3424 56.5241M31.9499 39.4284C32.6844 39.7903 33.7862 39.6998 34.0616 39.338M30.3891 38.343C31.1236 38.4335 32.0417 38.4335 32.409 38.343C32.7762 38.2526 33.6944 38.2526 33.9698 38.343C34.5207 38.4335 35.1634 38.4335 35.4388 38.1621" stroke="#292526" stroke-width="0.5" stroke-miterlimit="22.926"/>
</g>
</svg>
